<?xml version="1.0" encoding="utf-8"?>
<svg xmlns="http://www.w3.org/2000/svg" xmlns:xlink="http://www.w3.org/1999/xlink" width="1500" height="450" viewBox="0 0 6000 1800">
<defs>
  <clipPath id="clip190">
    <rect x="0" y="0" width="6000" height="1800"/>
  </clipPath>
</defs>
<path clip-path="url(#clip190)" d="M0 1800 L6000 1800 L6000 0 L0 0  Z" fill="#ffffff" fill-rule="evenodd" fill-opacity="1"/>
<defs>
  <clipPath id="clip191">
    <rect x="1200" y="0" width="4201" height="1800"/>
  </clipPath>
</defs>
<path clip-path="url(#clip190)" d="M519.6 1477.3 L1950.91 1477.3 L1950.91 70.8661 L519.6 70.8661  Z" fill="#ffffff" fill-rule="evenodd" fill-opacity="1"/>
<defs>
  <clipPath id="clip192">
    <rect x="519" y="70" width="1432" height="1407"/>
  </clipPath>
</defs>
<polyline clip-path="url(#clip192)" style="stroke:#000000; stroke-linecap:round; stroke-linejoin:round; stroke-width:3; stroke-opacity:0.1; fill:none" points="672.633,1477.3 672.633,70.8661 "/>
<polyline clip-path="url(#clip192)" style="stroke:#000000; stroke-linecap:round; stroke-linejoin:round; stroke-width:3; stroke-opacity:0.1; fill:none" points="953.944,1477.3 953.944,70.8661 "/>
<polyline clip-path="url(#clip192)" style="stroke:#000000; stroke-linecap:round; stroke-linejoin:round; stroke-width:3; stroke-opacity:0.1; fill:none" points="1235.26,1477.3 1235.26,70.8661 "/>
<polyline clip-path="url(#clip192)" style="stroke:#000000; stroke-linecap:round; stroke-linejoin:round; stroke-width:3; stroke-opacity:0.1; fill:none" points="1516.57,1477.3 1516.57,70.8661 "/>
<polyline clip-path="url(#clip192)" style="stroke:#000000; stroke-linecap:round; stroke-linejoin:round; stroke-width:3; stroke-opacity:0.1; fill:none" points="1797.88,1477.3 1797.88,70.8661 "/>
<polyline clip-path="url(#clip192)" style="stroke:#000000; stroke-linecap:round; stroke-linejoin:round; stroke-width:3; stroke-opacity:0.1; fill:none" points="519.6,1326.92 1950.91,1326.92 "/>
<polyline clip-path="url(#clip192)" style="stroke:#000000; stroke-linecap:round; stroke-linejoin:round; stroke-width:3; stroke-opacity:0.1; fill:none" points="519.6,1050.5 1950.91,1050.5 "/>
<polyline clip-path="url(#clip192)" style="stroke:#000000; stroke-linecap:round; stroke-linejoin:round; stroke-width:3; stroke-opacity:0.1; fill:none" points="519.6,774.081 1950.91,774.081 "/>
<polyline clip-path="url(#clip192)" style="stroke:#000000; stroke-linecap:round; stroke-linejoin:round; stroke-width:3; stroke-opacity:0.1; fill:none" points="519.6,497.66 1950.91,497.66 "/>
<polyline clip-path="url(#clip192)" style="stroke:#000000; stroke-linecap:round; stroke-linejoin:round; stroke-width:3; stroke-opacity:0.1; fill:none" points="519.6,221.239 1950.91,221.239 "/>
<polyline clip-path="url(#clip192)" style="stroke:#009af9; stroke-linecap:round; stroke-linejoin:round; stroke-width:18; stroke-opacity:1; fill:none" points="1797.88,774.081 1794.79,716.293 1785.58,659.139 1770.34,603.243 1749.24,549.22 1722.5,497.66 1690.43,449.129 1653.36,404.158 1611.72,363.239 1565.96,326.822 1516.57,295.306 1464.09,269.035 1409.11,248.297 1352.23,233.32 1294.07,224.268 1235.26,221.239 1176.45,224.268 1118.28,233.32 1061.4,248.297 1006.42,269.035 953.944,295.306 904.554,326.822 858.788,363.239 817.146,404.158 780.084,449.129 748.01,497.66 721.274,549.22 700.17,603.243 684.928,659.139 675.715,716.293 672.633,774.081 675.715,831.869 684.928,889.023 700.17,944.918 721.274,998.942 748.01,1050.5 780.084,1099.03 817.146,1144 858.788,1184.92 904.554,1221.34 953.944,1252.86 1006.42,1279.13 1061.4,1299.86 1118.28,1314.84 1176.45,1323.89 1235.26,1326.92 1294.07,1323.89 1352.23,1314.84 1409.11,1299.86 1464.09,1279.13 1516.57,1252.86 1565.96,1221.34 1611.72,1184.92 1653.36,1144 1690.43,1099.03 1722.5,1050.5 1749.24,998.942 1770.34,944.918 1785.58,889.023 1794.79,831.869 1797.88,774.081 "/>
<polyline clip-path="url(#clip192)" style="stroke:#000000; stroke-linecap:round; stroke-linejoin:round; stroke-width:6; stroke-opacity:1; fill:none" stroke-dasharray="24, 15" points="560.109,774.081 1910.4,774.081 "/>
<polyline clip-path="url(#clip192)" style="stroke:#000000; stroke-linecap:round; stroke-linejoin:round; stroke-width:6; stroke-opacity:1; fill:none" stroke-dasharray="24, 15" points="1235.26,1437.49 1235.26,110.671 "/>
<polyline clip-path="url(#clip192)" style="stroke:#ff0000; stroke-linecap:round; stroke-linejoin:round; stroke-width:6; stroke-opacity:1; fill:none" stroke-dasharray="24, 15" points="1235.26,774.081 1722.5,497.66 "/>
<circle clip-path="url(#clip192)" cx="1722.5" cy="497.66" r="32.4" fill="#ff0000" fill-rule="evenodd" fill-opacity="1" stroke="#000000" stroke-opacity="1" stroke-width="5.4"/>
<polyline clip-path="url(#clip192)" style="stroke:#ff0000; stroke-linecap:round; stroke-linejoin:round; stroke-width:18; stroke-opacity:1; fill:none" points="1769.26,1133.06 1804.52,1076.25 1833.55,1016.12 1856.02,953.345 1871.69,888.603 1880.38,822.607 1882.01,756.079 1876.55,689.749 1864.07,624.342 1844.7,560.576 1818.64,499.149 1786.2,440.734 "/>
<polyline clip-path="url(#clip192)" style="stroke:#ff0000; stroke-linecap:round; stroke-linejoin:round; stroke-width:18; stroke-opacity:1; fill:none" points="1790.56,541.263 1786.2,440.734 1869.24,497.566 "/>
<polyline clip-path="url(#clip192)" style="stroke:#ff0000; stroke-linecap:round; stroke-linejoin:round; stroke-width:18; stroke-opacity:1; fill:none" points="1786.2,440.734 1818.64,499.149 "/>
<polyline clip-path="url(#clip192)" style="stroke:#ff0000; stroke-linecap:round; stroke-linejoin:round; stroke-width:18; stroke-opacity:1; fill:none" points="1487.21,188.5 1423.54,165.828 1357.81,149.821 1290.73,140.654 1223.04,138.426 1155.49,143.163 1088.81,154.812 1023.74,173.246 "/>
<polyline clip-path="url(#clip192)" style="stroke:#ff0000; stroke-linecap:round; stroke-linejoin:round; stroke-width:18; stroke-opacity:1; fill:none" points="1122.59,192.013 1023.74,173.246 1098.06,105.42 "/>
<polyline clip-path="url(#clip192)" style="stroke:#ff0000; stroke-linecap:round; stroke-linejoin:round; stroke-width:18; stroke-opacity:1; fill:none" points="1023.74,173.246 1088.81,154.812 "/>
<polyline clip-path="url(#clip192)" style="stroke:#ff0000; stroke-linecap:round; stroke-linejoin:round; stroke-width:18; stroke-opacity:1; fill:none" points="983.296,1359.66 1046.97,1382.33 1112.7,1398.34 1179.78,1407.51 1247.47,1409.74 1315.02,1405 1381.7,1393.35 1446.77,1374.92 "/>
<polyline clip-path="url(#clip192)" style="stroke:#ff0000; stroke-linecap:round; stroke-linejoin:round; stroke-width:18; stroke-opacity:1; fill:none" points="1347.92,1356.15 1446.77,1374.92 1372.45,1442.74 "/>
<polyline clip-path="url(#clip192)" style="stroke:#ff0000; stroke-linecap:round; stroke-linejoin:round; stroke-width:18; stroke-opacity:1; fill:none" points="1446.77,1374.92 1381.7,1393.35 "/>
<polyline clip-path="url(#clip192)" style="stroke:#ff0000; stroke-linecap:round; stroke-linejoin:round; stroke-width:18; stroke-opacity:1; fill:none" points="608.354,616.789 595.056,682.041 588.772,748.301 589.571,814.843 597.445,880.939 "/>
<polyline clip-path="url(#clip192)" style="stroke:#ff0000; stroke-linecap:round; stroke-linejoin:round; stroke-width:18; stroke-opacity:1; fill:none" points="631.483,786.248 597.445,880.939 542.115,796.894 "/>
<polyline clip-path="url(#clip192)" style="stroke:#ff0000; stroke-linecap:round; stroke-linejoin:round; stroke-width:18; stroke-opacity:1; fill:none" points="597.445,880.939 589.571,814.843 "/>
<path clip-path="url(#clip190)" d="M1479.63 721.015 L1440.92 721.015 Q1441.83 739.183 1446.02 746.9 Q1451.25 756.379 1460.3 756.379 Q1469.42 756.379 1474.46 746.839 Q1478.9 738.454 1479.63 721.015 M1479.44 710.685 Q1477.74 693.428 1474.46 687.352 Q1469.24 677.751 1460.3 677.751 Q1451.01 677.751 1446.09 687.23 Q1442.2 694.886 1441.04 710.685 L1479.44 710.685 M1460.3 668.636 Q1474.89 668.636 1483.21 681.518 Q1491.54 694.339 1491.54 717.065 Q1491.54 739.73 1483.21 752.612 Q1474.89 765.554 1460.3 765.554 Q1445.66 765.554 1437.4 752.612 Q1429.07 739.73 1429.07 717.065 Q1429.07 694.339 1437.4 681.518 Q1445.66 668.636 1460.3 668.636 Z" fill="#ff0000" fill-rule="nonzero" fill-opacity="1" /><path clip-path="url(#clip190)" d="M488.3 64.9438 Q476.685 64.9438 472.206 67.6 Q467.727 70.2563 467.727 76.6625 Q467.727 81.7666 471.06 84.7875 Q474.446 87.7562 480.227 87.7562 Q488.196 87.7562 492.987 82.1312 Q497.831 76.4542 497.831 67.0792 L497.831 64.9438 L488.3 64.9438 M507.414 60.9855 L507.414 94.2666 L497.831 94.2666 L497.831 85.4125 Q494.55 90.7249 489.654 93.277 Q484.758 95.777 477.675 95.777 Q468.717 95.777 463.404 90.777 Q458.144 85.725 458.144 77.2875 Q458.144 67.4438 464.706 62.4438 Q471.321 57.4439 484.394 57.4439 L497.831 57.4439 L497.831 56.5064 Q497.831 49.8918 493.456 46.2981 Q489.133 42.6523 481.269 42.6523 Q476.269 42.6523 471.529 43.8502 Q466.79 45.0481 462.415 47.4439 L462.415 38.5898 Q467.675 36.5585 472.623 35.569 Q477.571 34.5273 482.258 34.5273 Q494.914 34.5273 501.164 41.0898 Q507.414 47.6522 507.414 60.9855 Z" fill="#000000" fill-rule="nonzero" fill-opacity="1" /><path clip-path="url(#clip190)" d="M525.643 13.3295 L533.977 13.3295 Q541.789 25.6211 545.643 37.3919 Q549.55 49.1626 549.55 60.7772 Q549.55 72.4438 545.643 84.2666 Q541.789 96.0895 533.977 108.329 L525.643 108.329 Q532.57 96.402 535.956 84.6312 Q539.393 72.8084 539.393 60.7772 Q539.393 48.746 535.956 37.0273 Q532.57 25.3086 525.643 13.3295 Z" fill="#000000" fill-rule="nonzero" fill-opacity="1" /><path clip-path="url(#clip190)" d="M2528.01 1477.3 L3959.32 1477.3 L3959.32 70.8661 L2528.01 70.8661  Z" fill="#ffffff" fill-rule="evenodd" fill-opacity="1"/>
<defs>
  <clipPath id="clip193">
    <rect x="2528" y="70" width="1432" height="1407"/>
  </clipPath>
</defs>
<polyline clip-path="url(#clip193)" style="stroke:#000000; stroke-linecap:round; stroke-linejoin:round; stroke-width:3; stroke-opacity:0.1; fill:none" points="2528.01,1477.3 2528.01,70.8661 "/>
<polyline clip-path="url(#clip193)" style="stroke:#000000; stroke-linecap:round; stroke-linejoin:round; stroke-width:3; stroke-opacity:0.1; fill:none" points="3243.66,1477.3 3243.66,70.8661 "/>
<polyline clip-path="url(#clip193)" style="stroke:#000000; stroke-linecap:round; stroke-linejoin:round; stroke-width:3; stroke-opacity:0.1; fill:none" points="3959.32,1477.3 3959.32,70.8661 "/>
<polyline clip-path="url(#clip193)" style="stroke:#000000; stroke-linecap:round; stroke-linejoin:round; stroke-width:3; stroke-opacity:0.1; fill:none" points="2528.01,1423.2 3959.32,1423.2 "/>
<polyline clip-path="url(#clip193)" style="stroke:#000000; stroke-linecap:round; stroke-linejoin:round; stroke-width:3; stroke-opacity:0.1; fill:none" points="2528.01,1152.73 3959.32,1152.73 "/>
<polyline clip-path="url(#clip193)" style="stroke:#000000; stroke-linecap:round; stroke-linejoin:round; stroke-width:3; stroke-opacity:0.1; fill:none" points="2528.01,882.268 3959.32,882.268 "/>
<polyline clip-path="url(#clip193)" style="stroke:#000000; stroke-linecap:round; stroke-linejoin:round; stroke-width:3; stroke-opacity:0.1; fill:none" points="2528.01,611.801 3959.32,611.801 "/>
<polyline clip-path="url(#clip193)" style="stroke:#000000; stroke-linecap:round; stroke-linejoin:round; stroke-width:3; stroke-opacity:0.1; fill:none" points="2528.01,341.333 3959.32,341.333 "/>
<polyline clip-path="url(#clip193)" style="stroke:#000000; stroke-linecap:round; stroke-linejoin:round; stroke-width:3; stroke-opacity:0.1; fill:none" points="2528.01,70.8661 3959.32,70.8661 "/>
<polyline clip-path="url(#clip190)" style="stroke:#000000; stroke-linecap:round; stroke-linejoin:round; stroke-width:6; stroke-opacity:1; fill:none" points="2528.01,1477.3 3959.32,1477.3 "/>
<polyline clip-path="url(#clip190)" style="stroke:#000000; stroke-linecap:round; stroke-linejoin:round; stroke-width:6; stroke-opacity:1; fill:none" points="2528.01,1477.3 2528.01,1458.4 "/>
<polyline clip-path="url(#clip190)" style="stroke:#000000; stroke-linecap:round; stroke-linejoin:round; stroke-width:6; stroke-opacity:1; fill:none" points="3243.66,1477.3 3243.66,1458.4 "/>
<polyline clip-path="url(#clip190)" style="stroke:#000000; stroke-linecap:round; stroke-linejoin:round; stroke-width:6; stroke-opacity:1; fill:none" points="3959.32,1477.3 3959.32,1458.4 "/>
<path clip-path="url(#clip190)" d="M2528.01 1542.87 Q2522.59 1542.87 2519.85 1548.22 Q2517.14 1553.53 2517.14 1564.23 Q2517.14 1574.89 2519.85 1580.23 Q2522.59 1585.55 2528.01 1585.55 Q2533.46 1585.55 2536.17 1580.23 Q2538.91 1574.89 2538.91 1564.23 Q2538.91 1553.53 2536.17 1548.22 Q2533.46 1542.87 2528.01 1542.87 M2528.01 1537.32 Q2536.72 1537.32 2541.31 1544.23 Q2545.93 1551.1 2545.93 1564.23 Q2545.93 1577.32 2541.31 1584.23 Q2536.72 1591.1 2528.01 1591.1 Q2519.29 1591.1 2514.68 1584.23 Q2510.09 1577.32 2510.09 1564.23 Q2510.09 1551.1 2514.68 1544.23 Q2519.29 1537.32 2528.01 1537.32 Z" fill="#000000" fill-rule="nonzero" fill-opacity="1" /><path clip-path="url(#clip190)" d="M3224.53 1551.21 L3261.79 1551.21 L3261.79 1557.6 L3256.89 1557.6 L3256.89 1581.48 Q3256.89 1583.98 3257.73 1585.1 Q3258.59 1586.17 3260.5 1586.17 Q3261.02 1586.17 3261.79 1586.1 Q3262.55 1586 3262.8 1585.96 L3262.8 1590.58 Q3261.58 1591.03 3260.3 1591.24 Q3259.01 1591.45 3257.73 1591.45 Q3253.56 1591.45 3251.96 1589.19 Q3250.37 1586.9 3250.37 1580.79 L3250.37 1557.6 L3236.02 1557.6 L3236.02 1590.1 L3229.5 1590.1 L3229.5 1557.6 L3224.53 1557.6 L3224.53 1551.21 Z" fill="#000000" fill-rule="nonzero" fill-opacity="1" /><path clip-path="url(#clip190)" d="M3927.32 1584.19 L3951.8 1584.19 L3951.8 1590.1 L3918.88 1590.1 L3918.88 1584.19 Q3922.88 1580.06 3929.75 1573.12 Q3936.66 1566.14 3938.43 1564.12 Q3941.8 1560.34 3943.12 1557.73 Q3944.48 1555.1 3944.48 1552.56 Q3944.48 1548.43 3941.56 1545.82 Q3938.68 1543.22 3934.02 1543.22 Q3930.73 1543.22 3927.04 1544.37 Q3923.4 1545.51 3919.23 1547.84 L3919.23 1540.76 Q3923.47 1539.05 3927.15 1538.19 Q3930.83 1537.32 3933.88 1537.32 Q3941.94 1537.32 3946.73 1541.35 Q3951.52 1545.37 3951.52 1552.11 Q3951.52 1555.3 3950.31 1558.19 Q3949.13 1561.03 3945.97 1564.92 Q3945.1 1565.93 3940.45 1570.76 Q3935.79 1575.55 3927.32 1584.19 Z" fill="#000000" fill-rule="nonzero" fill-opacity="1" /><path clip-path="url(#clip190)" d="M3961.49 1551.21 L3998.75 1551.21 L3998.75 1557.6 L3993.85 1557.6 L3993.85 1581.48 Q3993.85 1583.98 3994.68 1585.1 Q3995.55 1586.17 3997.46 1586.17 Q3997.98 1586.17 3998.75 1586.1 Q3999.51 1586 3999.75 1585.96 L3999.75 1590.58 Q3998.54 1591.03 3997.25 1591.24 Q3995.97 1591.45 3994.68 1591.45 Q3990.52 1591.45 3988.92 1589.19 Q3987.32 1586.9 3987.32 1580.79 L3987.32 1557.6 L3972.98 1557.6 L3972.98 1590.1 L3966.45 1590.1 L3966.45 1557.6 L3961.49 1557.6 L3961.49 1551.21 Z" fill="#000000" fill-rule="nonzero" fill-opacity="1" /><path clip-path="url(#clip190)" d="M3258.85 1696.69 L3228.43 1696.69 Q3229.15 1710.97 3232.44 1717.03 Q3236.55 1724.48 3243.66 1724.48 Q3250.83 1724.48 3254.79 1716.98 Q3258.27 1710.4 3258.85 1696.69 M3258.7 1688.58 Q3257.37 1675.02 3254.79 1670.24 Q3250.68 1662.7 3243.66 1662.7 Q3236.36 1662.7 3232.49 1670.15 Q3229.44 1676.16 3228.53 1688.58 L3258.7 1688.58 M3243.66 1655.54 Q3255.12 1655.54 3261.66 1665.66 Q3268.2 1675.74 3268.2 1693.59 Q3268.2 1711.4 3261.66 1721.52 Q3255.12 1731.69 3243.66 1731.69 Q3232.16 1731.69 3225.66 1721.52 Q3219.12 1711.4 3219.12 1693.59 Q3219.12 1675.74 3225.66 1665.66 Q3232.16 1655.54 3243.66 1655.54 Z" fill="#000000" fill-rule="nonzero" fill-opacity="1" /><polyline clip-path="url(#clip190)" style="stroke:#000000; stroke-linecap:round; stroke-linejoin:round; stroke-width:6; stroke-opacity:1; fill:none" points="2528.01,1477.3 2528.01,70.8661 "/>
<polyline clip-path="url(#clip190)" style="stroke:#000000; stroke-linecap:round; stroke-linejoin:round; stroke-width:6; stroke-opacity:1; fill:none" points="2528.01,1423.2 2546.91,1423.2 "/>
<polyline clip-path="url(#clip190)" style="stroke:#000000; stroke-linecap:round; stroke-linejoin:round; stroke-width:6; stroke-opacity:1; fill:none" points="2528.01,1152.73 2546.91,1152.73 "/>
<polyline clip-path="url(#clip190)" style="stroke:#000000; stroke-linecap:round; stroke-linejoin:round; stroke-width:6; stroke-opacity:1; fill:none" points="2528.01,882.268 2546.91,882.268 "/>
<polyline clip-path="url(#clip190)" style="stroke:#000000; stroke-linecap:round; stroke-linejoin:round; stroke-width:6; stroke-opacity:1; fill:none" points="2528.01,611.801 2546.91,611.801 "/>
<polyline clip-path="url(#clip190)" style="stroke:#000000; stroke-linecap:round; stroke-linejoin:round; stroke-width:6; stroke-opacity:1; fill:none" points="2528.01,341.333 2546.91,341.333 "/>
<polyline clip-path="url(#clip190)" style="stroke:#000000; stroke-linecap:round; stroke-linejoin:round; stroke-width:6; stroke-opacity:1; fill:none" points="2528.01,70.8661 2546.91,70.8661 "/>
<path clip-path="url(#clip190)" d="M2352.25 1401.9 Q2346.83 1401.9 2344.09 1407.25 Q2341.38 1412.56 2341.38 1423.25 Q2341.38 1433.91 2344.09 1439.26 Q2346.83 1444.57 2352.25 1444.57 Q2357.7 1444.57 2360.4 1439.26 Q2363.15 1433.91 2363.15 1423.25 Q2363.15 1412.56 2360.4 1407.25 Q2357.7 1401.9 2352.25 1401.9 M2352.25 1396.34 Q2360.96 1396.34 2365.54 1403.25 Q2370.16 1410.13 2370.16 1423.25 Q2370.16 1436.34 2365.54 1443.25 Q2360.96 1450.13 2352.25 1450.13 Q2343.53 1450.13 2338.91 1443.25 Q2334.33 1436.34 2334.33 1423.25 Q2334.33 1410.13 2338.91 1403.25 Q2343.53 1396.34 2352.25 1396.34 Z" fill="#000000" fill-rule="nonzero" fill-opacity="1" /><path clip-path="url(#clip190)" d="M2382.49 1440.3 L2389.81 1440.3 L2389.81 1449.12 L2382.49 1449.12 L2382.49 1440.3 Z" fill="#000000" fill-rule="nonzero" fill-opacity="1" /><path clip-path="url(#clip190)" d="M2420.09 1401.9 Q2414.68 1401.9 2411.93 1407.25 Q2409.22 1412.56 2409.22 1423.25 Q2409.22 1433.91 2411.93 1439.26 Q2414.68 1444.57 2420.09 1444.57 Q2425.54 1444.57 2428.25 1439.26 Q2430.99 1433.91 2430.99 1423.25 Q2430.99 1412.56 2428.25 1407.25 Q2425.54 1401.9 2420.09 1401.9 M2420.09 1396.34 Q2428.81 1396.34 2433.39 1403.25 Q2438.01 1410.13 2438.01 1423.25 Q2438.01 1436.34 2433.39 1443.25 Q2428.81 1450.13 2420.09 1450.13 Q2411.38 1450.13 2406.76 1443.25 Q2402.18 1436.34 2402.18 1423.25 Q2402.18 1410.13 2406.76 1403.25 Q2411.38 1396.34 2420.09 1396.34 Z" fill="#000000" fill-rule="nonzero" fill-opacity="1" /><path clip-path="url(#clip190)" d="M2353.74 1131.43 Q2348.32 1131.43 2345.58 1136.78 Q2342.87 1142.09 2342.87 1152.79 Q2342.87 1163.45 2345.58 1168.79 Q2348.32 1174.11 2353.74 1174.11 Q2359.19 1174.11 2361.9 1168.79 Q2364.64 1163.45 2364.64 1152.79 Q2364.64 1142.09 2361.9 1136.78 Q2359.19 1131.43 2353.74 1131.43 M2353.74 1125.88 Q2362.45 1125.88 2367.04 1132.79 Q2371.65 1139.66 2371.65 1152.79 Q2371.65 1165.88 2367.04 1172.79 Q2362.45 1179.66 2353.74 1179.66 Q2345.02 1179.66 2340.41 1172.79 Q2335.82 1165.88 2335.82 1152.79 Q2335.82 1139.66 2340.41 1132.79 Q2345.02 1125.88 2353.74 1125.88 Z" fill="#000000" fill-rule="nonzero" fill-opacity="1" /><path clip-path="url(#clip190)" d="M2383.98 1169.84 L2391.31 1169.84 L2391.31 1178.65 L2383.98 1178.65 L2383.98 1169.84 Z" fill="#000000" fill-rule="nonzero" fill-opacity="1" /><path clip-path="url(#clip190)" d="M2406.65 1126.81 L2434.19 1126.81 L2434.19 1132.72 L2413.08 1132.72 L2413.08 1145.43 Q2414.61 1144.91 2416.13 1144.66 Q2417.66 1144.38 2419.19 1144.38 Q2427.87 1144.38 2432.94 1149.14 Q2438.01 1153.9 2438.01 1162.02 Q2438.01 1170.39 2432.8 1175.04 Q2427.59 1179.66 2418.11 1179.66 Q2414.85 1179.66 2411.45 1179.11 Q2408.08 1178.55 2404.47 1177.44 L2404.47 1170.39 Q2407.59 1172.09 2410.93 1172.93 Q2414.26 1173.76 2417.97 1173.76 Q2423.98 1173.76 2427.49 1170.6 Q2430.99 1167.44 2430.99 1162.02 Q2430.99 1156.61 2427.49 1153.45 Q2423.98 1150.29 2417.97 1150.29 Q2415.16 1150.29 2412.35 1150.91 Q2409.57 1151.54 2406.65 1152.86 L2406.65 1126.81 Z" fill="#000000" fill-rule="nonzero" fill-opacity="1" /><path clip-path="url(#clip190)" d="M2338.46 902.285 L2349.92 902.285 L2349.92 862.737 L2337.45 865.237 L2337.45 858.848 L2349.85 856.348 L2356.86 856.348 L2356.86 902.285 L2368.32 902.285 L2368.32 908.188 L2338.46 908.188 L2338.46 902.285 Z" fill="#000000" fill-rule="nonzero" fill-opacity="1" /><path clip-path="url(#clip190)" d="M2382.49 899.368 L2389.81 899.368 L2389.81 908.188 L2382.49 908.188 L2382.49 899.368 Z" fill="#000000" fill-rule="nonzero" fill-opacity="1" /><path clip-path="url(#clip190)" d="M2420.09 860.966 Q2414.68 860.966 2411.93 866.313 Q2409.22 871.625 2409.22 882.32 Q2409.22 892.979 2411.93 898.327 Q2414.68 903.639 2420.09 903.639 Q2425.54 903.639 2428.25 898.327 Q2430.99 892.979 2430.99 882.32 Q2430.99 871.625 2428.25 866.313 Q2425.54 860.966 2420.09 860.966 M2420.09 855.41 Q2428.81 855.41 2433.39 862.32 Q2438.01 869.195 2438.01 882.32 Q2438.01 895.41 2433.39 902.32 Q2428.81 909.195 2420.09 909.195 Q2411.38 909.195 2406.76 902.32 Q2402.18 895.41 2402.18 882.32 Q2402.18 869.195 2406.76 862.32 Q2411.38 855.41 2420.09 855.41 Z" fill="#000000" fill-rule="nonzero" fill-opacity="1" /><path clip-path="url(#clip190)" d="M2339.95 631.818 L2351.41 631.818 L2351.41 592.269 L2338.95 594.769 L2338.95 588.381 L2351.34 585.881 L2358.36 585.881 L2358.36 631.818 L2369.81 631.818 L2369.81 637.721 L2339.95 637.721 L2339.95 631.818 Z" fill="#000000" fill-rule="nonzero" fill-opacity="1" /><path clip-path="url(#clip190)" d="M2383.98 628.901 L2391.31 628.901 L2391.31 637.721 L2383.98 637.721 L2383.98 628.901 Z" fill="#000000" fill-rule="nonzero" fill-opacity="1" /><path clip-path="url(#clip190)" d="M2406.65 585.881 L2434.19 585.881 L2434.19 591.783 L2413.08 591.783 L2413.08 604.492 Q2414.61 603.971 2416.13 603.728 Q2417.66 603.45 2419.19 603.45 Q2427.87 603.45 2432.94 608.207 Q2438.01 612.964 2438.01 621.089 Q2438.01 629.457 2432.8 634.109 Q2427.59 638.727 2418.11 638.727 Q2414.85 638.727 2411.45 638.172 Q2408.08 637.616 2404.47 636.505 L2404.47 629.457 Q2407.59 631.158 2410.93 631.991 Q2414.26 632.825 2417.97 632.825 Q2423.98 632.825 2427.49 629.665 Q2430.99 626.505 2430.99 621.089 Q2430.99 615.672 2427.49 612.512 Q2423.98 609.353 2417.97 609.353 Q2415.16 609.353 2412.35 609.978 Q2409.57 610.603 2406.65 611.922 L2406.65 585.881 Z" fill="#000000" fill-rule="nonzero" fill-opacity="1" /><path clip-path="url(#clip190)" d="M2343.29 361.351 L2367.77 361.351 L2367.77 367.253 L2334.85 367.253 L2334.85 361.351 Q2338.84 357.219 2345.72 350.274 Q2352.63 343.295 2354.4 341.281 Q2357.77 337.497 2359.09 334.892 Q2360.44 332.254 2360.44 329.719 Q2360.44 325.587 2357.52 322.983 Q2354.64 320.379 2349.99 320.379 Q2346.69 320.379 2343.01 321.524 Q2339.36 322.67 2335.2 324.997 L2335.2 317.913 Q2339.43 316.212 2343.11 315.344 Q2346.79 314.476 2349.85 314.476 Q2357.9 314.476 2362.7 318.504 Q2367.49 322.531 2367.49 329.267 Q2367.49 332.462 2366.27 335.344 Q2365.09 338.191 2361.93 342.08 Q2361.06 343.087 2356.41 347.913 Q2351.76 352.705 2343.29 361.351 Z" fill="#000000" fill-rule="nonzero" fill-opacity="1" /><path clip-path="url(#clip190)" d="M2382.49 358.434 L2389.81 358.434 L2389.81 367.253 L2382.49 367.253 L2382.49 358.434 Z" fill="#000000" fill-rule="nonzero" fill-opacity="1" /><path clip-path="url(#clip190)" d="M2420.09 320.031 Q2414.68 320.031 2411.93 325.379 Q2409.22 330.691 2409.22 341.385 Q2409.22 352.045 2411.93 357.392 Q2414.68 362.705 2420.09 362.705 Q2425.54 362.705 2428.25 357.392 Q2430.99 352.045 2430.99 341.385 Q2430.99 330.691 2428.25 325.379 Q2425.54 320.031 2420.09 320.031 M2420.09 314.476 Q2428.81 314.476 2433.39 321.386 Q2438.01 328.26 2438.01 341.385 Q2438.01 354.476 2433.39 361.385 Q2428.81 368.26 2420.09 368.26 Q2411.38 368.26 2406.76 361.385 Q2402.18 354.476 2402.18 341.385 Q2402.18 328.26 2406.76 321.386 Q2411.38 314.476 2420.09 314.476 Z" fill="#000000" fill-rule="nonzero" fill-opacity="1" /><path clip-path="url(#clip190)" d="M2344.78 90.8834 L2369.26 90.8834 L2369.26 96.7861 L2336.34 96.7861 L2336.34 90.8834 Q2340.34 86.7515 2347.21 79.8071 Q2354.12 72.8279 2355.89 70.8141 Q2359.26 67.0294 2360.58 64.4252 Q2361.93 61.7863 2361.93 59.2516 Q2361.93 55.1197 2359.02 52.5155 Q2356.13 49.9114 2351.48 49.9114 Q2348.18 49.9114 2344.5 51.0572 Q2340.86 52.203 2336.69 54.5294 L2336.69 47.4461 Q2340.93 45.7447 2344.61 44.8767 Q2348.29 44.0086 2351.34 44.0086 Q2359.4 44.0086 2364.19 48.0364 Q2368.98 52.0642 2368.98 58.8002 Q2368.98 61.9947 2367.77 64.8766 Q2366.59 67.7238 2363.43 71.6127 Q2362.56 72.6196 2357.9 77.446 Q2353.25 82.2376 2344.78 90.8834 Z" fill="#000000" fill-rule="nonzero" fill-opacity="1" /><path clip-path="url(#clip190)" d="M2383.98 87.9667 L2391.31 87.9667 L2391.31 96.7861 L2383.98 96.7861 L2383.98 87.9667 Z" fill="#000000" fill-rule="nonzero" fill-opacity="1" /><path clip-path="url(#clip190)" d="M2406.65 44.9461 L2434.19 44.9461 L2434.19 50.8489 L2413.08 50.8489 L2413.08 63.5572 Q2414.61 63.0363 2416.13 62.7933 Q2417.66 62.5155 2419.19 62.5155 Q2427.87 62.5155 2432.94 67.2724 Q2438.01 72.0293 2438.01 80.1543 Q2438.01 88.5223 2432.8 93.175 Q2427.59 97.7931 2418.11 97.7931 Q2414.85 97.7931 2411.45 97.2375 Q2408.08 96.682 2404.47 95.5709 L2404.47 88.5223 Q2407.59 90.2237 2410.93 91.057 Q2414.26 91.8903 2417.97 91.8903 Q2423.98 91.8903 2427.49 88.7306 Q2430.99 85.5709 2430.99 80.1543 Q2430.99 74.7376 2427.49 71.5779 Q2423.98 68.4182 2417.97 68.4182 Q2415.16 68.4182 2412.35 69.0432 Q2409.57 69.6682 2406.65 70.9877 L2406.65 44.9461 Z" fill="#000000" fill-rule="nonzero" fill-opacity="1" /><path clip-path="url(#clip190)" d="M2148.66 819.986 L2155.96 819.986 L2155.96 828.388 Q2155.96 833.115 2157.87 834.977 Q2159.78 836.791 2164.75 836.791 L2169.47 836.791 L2169.47 822.325 L2176.3 822.325 L2176.3 836.791 L2222.94 836.791 L2222.94 845.623 L2176.3 845.623 L2176.3 854.026 L2169.47 854.026 L2169.47 845.623 L2165.75 845.623 Q2156.82 845.623 2152.76 841.47 Q2148.66 837.316 2148.66 828.293 L2148.66 819.986 Z" fill="#000000" fill-rule="nonzero" fill-opacity="1" /><path clip-path="url(#clip190)" d="M2148.75 791.531 Q2159.73 797.928 2170.48 801.032 Q2181.22 804.135 2192.25 804.135 Q2203.27 804.135 2214.11 801.032 Q2224.9 797.881 2235.84 791.531 L2235.84 799.17 Q2224.62 806.331 2213.78 809.912 Q2202.94 813.445 2192.25 813.445 Q2181.6 813.445 2170.81 809.912 Q2160.02 806.379 2148.75 799.17 L2148.75 791.531 Z" fill="#000000" fill-rule="nonzero" fill-opacity="1" /><path clip-path="url(#clip190)" d="M2189.05 738.584 L2189.05 768.996 Q2203.32 768.28 2209.39 764.986 Q2216.83 760.88 2216.83 753.766 Q2216.83 746.605 2209.34 742.642 Q2202.75 739.157 2189.05 738.584 M2180.93 738.727 Q2167.37 740.064 2162.6 742.642 Q2155.05 746.748 2155.05 753.766 Q2155.05 761.071 2162.5 764.938 Q2168.52 767.994 2180.93 768.901 L2180.93 738.727 M2147.89 753.766 Q2147.89 742.308 2158.01 735.767 Q2168.09 729.226 2185.94 729.226 Q2203.75 729.226 2213.87 735.767 Q2224.04 742.308 2224.04 753.766 Q2224.04 765.272 2213.87 771.765 Q2203.75 778.306 2185.94 778.306 Q2168.09 778.306 2158.01 771.765 Q2147.89 765.272 2147.89 753.766 Z" fill="#000000" fill-rule="nonzero" fill-opacity="1" /><path clip-path="url(#clip190)" d="M2148.75 716.049 L2148.75 708.411 Q2160.02 701.249 2170.81 697.716 Q2181.6 694.136 2192.25 694.136 Q2202.94 694.136 2213.78 697.716 Q2224.62 701.249 2235.84 708.411 L2235.84 716.049 Q2224.9 709.7 2214.11 706.596 Q2203.27 703.445 2192.25 703.445 Q2181.22 703.445 2170.48 706.596 Q2159.73 709.7 2148.75 716.049 Z" fill="#000000" fill-rule="nonzero" fill-opacity="1" /><polyline clip-path="url(#clip193)" style="stroke:#009af9; stroke-linecap:round; stroke-linejoin:round; stroke-width:12; stroke-opacity:1; fill:none" points="2528.01,70.8661 2551.86,73.8294 2575.72,82.6869 2599.57,97.3414 2623.43,117.632 2647.28,143.338 2671.14,174.175 2694.99,209.808 2718.85,249.845 2742.71,293.847 2766.56,341.333 2790.42,391.783 2814.27,444.643 2838.13,499.334 2861.98,555.257 2885.84,611.801 2909.69,668.344 2933.55,724.267 2957.4,778.958 2981.26,831.818 3005.11,882.268 3028.97,929.754 3052.82,973.756 3076.68,1013.79 3100.53,1049.43 3124.39,1080.26 3148.24,1105.97 3172.1,1126.26 3195.95,1140.91 3219.81,1149.77 3243.66,1152.73 3267.52,1149.77 3291.37,1140.91 3315.23,1126.26 3339.08,1105.97 3362.94,1080.26 3386.79,1049.43 3410.65,1013.79 3434.51,973.756 3458.36,929.754 3482.22,882.268 3506.07,831.818 3529.93,778.958 3553.78,724.267 3577.64,668.344 3601.49,611.801 3625.35,555.257 3649.2,499.334 3673.06,444.643 3696.91,391.783 3720.77,341.333 3744.62,293.847 3768.48,249.845 3792.33,209.808 3816.19,174.175 3840.04,143.338 3863.9,117.632 3887.75,97.3414 3911.61,82.6869 3935.46,73.8294 3959.32,70.8661 "/>
<polyline clip-path="url(#clip193)" style="stroke:#000000; stroke-linecap:round; stroke-linejoin:round; stroke-width:6; stroke-opacity:1; fill:none" stroke-dasharray="24, 15" points="3959.32,1423.2 3959.32,70.8661 "/>
<polyline clip-path="url(#clip193)" style="stroke:#ff0000; stroke-linecap:round; stroke-linejoin:round; stroke-width:18; stroke-opacity:1; fill:none" points="2528.01,1423.2 2755.81,1423.2 "/>
<polyline clip-path="url(#clip193)" style="stroke:#ff0000; stroke-linecap:round; stroke-linejoin:round; stroke-width:18; stroke-opacity:1; fill:none" points="2665.81,1378.2 2755.81,1423.2 2665.81,1468.2 "/>
<polyline clip-path="url(#clip193)" style="stroke:#ff0000; stroke-linecap:round; stroke-linejoin:round; stroke-width:18; stroke-opacity:1; fill:none" points="2755.81,1423.2 2528.01,1423.2 "/>
<polyline clip-path="url(#clip193)" style="stroke:#ff0000; stroke-linecap:round; stroke-linejoin:round; stroke-width:18; stroke-opacity:1; fill:none" points="3175.32,1423.2 3312,1423.2 "/>
<polyline clip-path="url(#clip193)" style="stroke:#ff0000; stroke-linecap:round; stroke-linejoin:round; stroke-width:18; stroke-opacity:1; fill:none" points="3222,1378.2 3312,1423.2 3222,1468.2 "/>
<polyline clip-path="url(#clip193)" style="stroke:#ff0000; stroke-linecap:round; stroke-linejoin:round; stroke-width:18; stroke-opacity:1; fill:none" points="3312,1423.2 3175.32,1423.2 "/>
<polyline clip-path="url(#clip193)" style="stroke:#ff0000; stroke-linecap:round; stroke-linejoin:round; stroke-width:18; stroke-opacity:1; fill:none" points="3731.52,1423.2 3959.32,1423.2 "/>
<polyline clip-path="url(#clip193)" style="stroke:#ff0000; stroke-linecap:round; stroke-linejoin:round; stroke-width:18; stroke-opacity:1; fill:none" points="3869.32,1378.2 3959.32,1423.2 3869.32,1468.2 "/>
<polyline clip-path="url(#clip193)" style="stroke:#ff0000; stroke-linecap:round; stroke-linejoin:round; stroke-width:18; stroke-opacity:1; fill:none" points="3959.32,1423.2 3731.52,1423.2 "/>
<polyline clip-path="url(#clip193)" style="stroke:#000000; stroke-linecap:round; stroke-linejoin:round; stroke-width:6; stroke-opacity:1; fill:none" stroke-dasharray="24, 15" points="1096.7,1423.2 3959.32,1423.2 "/>
<circle clip-path="url(#clip193)" cx="3243.66" cy="1152.73" r="10.8" fill="#e26f46" fill-rule="evenodd" fill-opacity="1" stroke="#000000" stroke-opacity="1" stroke-width="5.4"/>
<circle clip-path="url(#clip193)" cx="3947.93" cy="76.2755" r="10.8" fill="#e26f46" fill-rule="evenodd" fill-opacity="1" stroke="#000000" stroke-opacity="1" stroke-width="5.4"/>
<path clip-path="url(#clip190)" d="M2069.41 80.6317 Q2069.41 70.0589 2065.04 64.0693 Q2060.72 58.0277 2053.11 58.0277 Q2045.51 58.0277 2041.13 64.0693 Q2036.81 70.0589 2036.81 80.6317 Q2036.81 91.2046 2041.13 97.2462 Q2045.51 103.236 2053.11 103.236 Q2060.72 103.236 2065.04 97.2462 Q2069.41 91.2046 2069.41 80.6317 M2036.81 60.2672 Q2039.83 55.0589 2044.41 52.5589 Q2049.05 50.0069 2055.46 50.0069 Q2066.08 50.0069 2072.7 58.4443 Q2079.36 66.8818 2079.36 80.6317 Q2079.36 94.3816 2072.7 102.819 Q2066.08 111.257 2055.46 111.257 Q2049.05 111.257 2044.41 108.757 Q2039.83 106.204 2036.81 100.996 L2036.81 109.746 L2027.17 109.746 L2027.17 28.7049 L2036.81 28.7049 L2036.81 60.2672 Z" fill="#000000" fill-rule="nonzero" fill-opacity="1" /><path clip-path="url(#clip190)" d="M2093.74 28.8091 L2102.07 28.8091 Q2109.88 41.1007 2113.74 52.8714 Q2117.64 64.6422 2117.64 76.2567 Q2117.64 87.9233 2113.74 99.7462 Q2109.88 111.569 2102.07 123.809 L2093.74 123.809 Q2100.66 111.882 2104.05 100.111 Q2107.49 88.2879 2107.49 76.2567 Q2107.49 64.2256 2104.05 52.5069 Q2100.66 40.7882 2093.74 28.8091 Z" fill="#000000" fill-rule="nonzero" fill-opacity="1" /><path clip-path="url(#clip190)" d="M4497.82 1477.3 L5929.13 1477.3 L5929.13 70.8661 L4497.82 70.8661  Z" fill="#ffffff" fill-rule="evenodd" fill-opacity="1"/>
<defs>
  <clipPath id="clip194">
    <rect x="4497" y="70" width="1432" height="1407"/>
  </clipPath>
</defs>
<polyline clip-path="url(#clip194)" style="stroke:#000000; stroke-linecap:round; stroke-linejoin:round; stroke-width:3; stroke-opacity:0.1; fill:none" points="4497.82,1477.3 4497.82,70.8661 "/>
<polyline clip-path="url(#clip194)" style="stroke:#000000; stroke-linecap:round; stroke-linejoin:round; stroke-width:3; stroke-opacity:0.1; fill:none" points="4918.8,1477.3 4918.8,70.8661 "/>
<polyline clip-path="url(#clip194)" style="stroke:#000000; stroke-linecap:round; stroke-linejoin:round; stroke-width:3; stroke-opacity:0.1; fill:none" points="5339.77,1477.3 5339.77,70.8661 "/>
<polyline clip-path="url(#clip194)" style="stroke:#000000; stroke-linecap:round; stroke-linejoin:round; stroke-width:3; stroke-opacity:0.1; fill:none" points="5760.74,1477.3 5760.74,70.8661 "/>
<polyline clip-path="url(#clip194)" style="stroke:#000000; stroke-linecap:round; stroke-linejoin:round; stroke-width:3; stroke-opacity:0.1; fill:none" points="4497.82,1437.49 5929.13,1437.49 "/>
<polyline clip-path="url(#clip194)" style="stroke:#000000; stroke-linecap:round; stroke-linejoin:round; stroke-width:3; stroke-opacity:0.1; fill:none" points="4497.82,1085.54 5929.13,1085.54 "/>
<polyline clip-path="url(#clip194)" style="stroke:#000000; stroke-linecap:round; stroke-linejoin:round; stroke-width:3; stroke-opacity:0.1; fill:none" points="4497.82,733.591 5929.13,733.591 "/>
<polyline clip-path="url(#clip194)" style="stroke:#000000; stroke-linecap:round; stroke-linejoin:round; stroke-width:3; stroke-opacity:0.1; fill:none" points="4497.82,381.641 5929.13,381.641 "/>
<polyline clip-path="url(#clip190)" style="stroke:#000000; stroke-linecap:round; stroke-linejoin:round; stroke-width:6; stroke-opacity:1; fill:none" points="4497.82,1477.3 5929.13,1477.3 "/>
<polyline clip-path="url(#clip190)" style="stroke:#000000; stroke-linecap:round; stroke-linejoin:round; stroke-width:6; stroke-opacity:1; fill:none" points="4497.82,1477.3 4497.82,1458.4 "/>
<polyline clip-path="url(#clip190)" style="stroke:#000000; stroke-linecap:round; stroke-linejoin:round; stroke-width:6; stroke-opacity:1; fill:none" points="4918.8,1477.3 4918.8,1458.4 "/>
<polyline clip-path="url(#clip190)" style="stroke:#000000; stroke-linecap:round; stroke-linejoin:round; stroke-width:6; stroke-opacity:1; fill:none" points="5339.77,1477.3 5339.77,1458.4 "/>
<polyline clip-path="url(#clip190)" style="stroke:#000000; stroke-linecap:round; stroke-linejoin:round; stroke-width:6; stroke-opacity:1; fill:none" points="5760.74,1477.3 5760.74,1458.4 "/>
<path clip-path="url(#clip190)" d="M4497.82 1542.87 Q4492.41 1542.87 4489.66 1548.22 Q4486.96 1553.53 4486.96 1564.23 Q4486.96 1574.89 4489.66 1580.23 Q4492.41 1585.55 4497.82 1585.55 Q4503.28 1585.55 4505.98 1580.23 Q4508.73 1574.89 4508.73 1564.23 Q4508.73 1553.53 4505.98 1548.22 Q4503.28 1542.87 4497.82 1542.87 M4497.82 1537.32 Q4506.54 1537.32 4511.12 1544.23 Q4515.74 1551.1 4515.74 1564.23 Q4515.74 1577.32 4511.12 1584.23 Q4506.54 1591.1 4497.82 1591.1 Q4489.11 1591.1 4484.49 1584.23 Q4479.91 1577.32 4479.91 1564.23 Q4479.91 1551.1 4484.49 1544.23 Q4489.11 1537.32 4497.82 1537.32 Z" fill="#000000" fill-rule="nonzero" fill-opacity="1" /><path clip-path="url(#clip190)" d="M4904.21 1538.26 L4931.75 1538.26 L4931.75 1544.16 L4910.64 1544.16 L4910.64 1556.87 Q4912.17 1556.35 4913.69 1556.1 Q4915.22 1555.82 4916.75 1555.82 Q4925.43 1555.82 4930.5 1560.58 Q4935.57 1565.34 4935.57 1573.46 Q4935.57 1581.83 4930.36 1586.48 Q4925.15 1591.1 4915.67 1591.1 Q4912.41 1591.1 4909.01 1590.55 Q4905.64 1589.99 4902.03 1588.88 L4902.03 1581.83 Q4905.15 1583.53 4908.48 1584.37 Q4911.82 1585.2 4915.53 1585.2 Q4921.54 1585.2 4925.05 1582.04 Q4928.55 1578.88 4928.55 1573.46 Q4928.55 1568.05 4925.05 1564.89 Q4921.54 1561.73 4915.53 1561.73 Q4912.72 1561.73 4909.91 1562.35 Q4907.13 1562.98 4904.21 1564.3 L4904.21 1538.26 Z" fill="#000000" fill-rule="nonzero" fill-opacity="1" /><path clip-path="url(#clip190)" d="M5301.8 1584.19 L5313.26 1584.19 L5313.26 1544.64 L5300.8 1547.14 L5300.8 1540.76 L5313.19 1538.26 L5320.21 1538.26 L5320.21 1584.19 L5331.66 1584.19 L5331.66 1590.1 L5301.8 1590.1 L5301.8 1584.19 Z" fill="#000000" fill-rule="nonzero" fill-opacity="1" /><path clip-path="url(#clip190)" d="M5360.83 1542.87 Q5355.41 1542.87 5352.67 1548.22 Q5349.96 1553.53 5349.96 1564.23 Q5349.96 1574.89 5352.67 1580.23 Q5355.41 1585.55 5360.83 1585.55 Q5366.28 1585.55 5368.99 1580.23 Q5371.73 1574.89 5371.73 1564.23 Q5371.73 1553.53 5368.99 1548.22 Q5366.28 1542.87 5360.83 1542.87 M5360.83 1537.32 Q5369.55 1537.32 5374.13 1544.23 Q5378.75 1551.1 5378.75 1564.23 Q5378.75 1577.32 5374.13 1584.23 Q5369.55 1591.1 5360.83 1591.1 Q5352.11 1591.1 5347.5 1584.23 Q5342.91 1577.32 5342.91 1564.23 Q5342.91 1551.1 5347.5 1544.23 Q5352.11 1537.32 5360.83 1537.32 Z" fill="#000000" fill-rule="nonzero" fill-opacity="1" /><path clip-path="url(#clip190)" d="M5723.52 1584.19 L5734.98 1584.19 L5734.98 1544.64 L5722.52 1547.14 L5722.52 1540.76 L5734.91 1538.26 L5741.93 1538.26 L5741.93 1584.19 L5753.38 1584.19 L5753.38 1590.1 L5723.52 1590.1 L5723.52 1584.19 Z" fill="#000000" fill-rule="nonzero" fill-opacity="1" /><path clip-path="url(#clip190)" d="M5767.62 1538.26 L5795.15 1538.26 L5795.15 1544.16 L5774.04 1544.16 L5774.04 1556.87 Q5775.57 1556.35 5777.1 1556.1 Q5778.63 1555.82 5780.15 1555.82 Q5788.83 1555.82 5793.9 1560.58 Q5798.97 1565.34 5798.97 1573.46 Q5798.97 1581.83 5793.77 1586.48 Q5788.56 1591.1 5779.08 1591.1 Q5775.81 1591.1 5772.41 1590.55 Q5769.04 1589.99 5765.43 1588.88 L5765.43 1581.83 Q5768.56 1583.53 5771.89 1584.37 Q5775.22 1585.2 5778.94 1585.2 Q5784.95 1585.2 5788.45 1582.04 Q5791.96 1578.88 5791.96 1573.46 Q5791.96 1568.05 5788.45 1564.89 Q5784.95 1561.73 5778.94 1561.73 Q5776.13 1561.73 5773.31 1562.35 Q5770.54 1562.98 5767.62 1564.3 L5767.62 1538.26 Z" fill="#000000" fill-rule="nonzero" fill-opacity="1" /><path clip-path="url(#clip190)" d="M5212.07 1661.94 L5212.07 1677.12 L5230.16 1677.12 L5230.16 1683.95 L5212.07 1683.95 L5212.07 1712.97 Q5212.07 1719.52 5213.84 1721.38 Q5215.65 1723.24 5221.14 1723.24 L5230.16 1723.24 L5230.16 1730.59 L5221.14 1730.59 Q5210.97 1730.59 5207.11 1726.82 Q5203.24 1723 5203.24 1712.97 L5203.24 1683.95 L5196.79 1683.95 L5196.79 1677.12 L5203.24 1677.12 L5203.24 1661.94 L5212.07 1661.94 Z" fill="#000000" fill-rule="nonzero" fill-opacity="1" /><polyline clip-path="url(#clip190)" style="stroke:#000000; stroke-linecap:round; stroke-linejoin:round; stroke-width:6; stroke-opacity:1; fill:none" points="4497.82,1477.3 4497.82,70.8661 "/>
<polyline clip-path="url(#clip190)" style="stroke:#000000; stroke-linecap:round; stroke-linejoin:round; stroke-width:6; stroke-opacity:1; fill:none" points="4497.82,1437.49 4516.72,1437.49 "/>
<polyline clip-path="url(#clip190)" style="stroke:#000000; stroke-linecap:round; stroke-linejoin:round; stroke-width:6; stroke-opacity:1; fill:none" points="4497.82,1085.54 4516.72,1085.54 "/>
<polyline clip-path="url(#clip190)" style="stroke:#000000; stroke-linecap:round; stroke-linejoin:round; stroke-width:6; stroke-opacity:1; fill:none" points="4497.82,733.591 4516.72,733.591 "/>
<polyline clip-path="url(#clip190)" style="stroke:#000000; stroke-linecap:round; stroke-linejoin:round; stroke-width:6; stroke-opacity:1; fill:none" points="4497.82,381.641 4516.72,381.641 "/>
<path clip-path="url(#clip190)" d="M4389.91 1416.19 Q4384.49 1416.19 4381.75 1421.54 Q4379.04 1426.85 4379.04 1437.54 Q4379.04 1448.2 4381.75 1453.55 Q4384.49 1458.86 4389.91 1458.86 Q4395.36 1458.86 4398.07 1453.55 Q4400.81 1448.2 4400.81 1437.54 Q4400.81 1426.85 4398.07 1421.54 Q4395.36 1416.19 4389.91 1416.19 M4389.91 1410.63 Q4398.62 1410.63 4403.21 1417.54 Q4407.82 1424.42 4407.82 1437.54 Q4407.82 1450.63 4403.21 1457.54 Q4398.62 1464.42 4389.91 1464.42 Q4381.19 1464.42 4376.57 1457.54 Q4371.99 1450.63 4371.99 1437.54 Q4371.99 1424.42 4376.57 1417.54 Q4381.19 1410.63 4389.91 1410.63 Z" fill="#000000" fill-rule="nonzero" fill-opacity="1" /><path clip-path="url(#clip190)" d="M4376.47 1059.62 L4404 1059.62 L4404 1065.52 L4382.89 1065.52 L4382.89 1078.23 Q4384.42 1077.71 4385.95 1077.47 Q4387.48 1077.19 4389 1077.19 Q4397.68 1077.19 4402.75 1081.95 Q4407.82 1086.7 4407.82 1094.83 Q4407.82 1103.2 4402.62 1107.85 Q4397.41 1112.47 4387.93 1112.47 Q4384.66 1112.47 4381.26 1111.91 Q4377.89 1111.36 4374.28 1110.25 L4374.28 1103.2 Q4377.41 1104.9 4380.74 1105.73 Q4384.07 1106.57 4387.79 1106.57 Q4393.8 1106.57 4397.3 1103.41 Q4400.81 1100.25 4400.81 1094.83 Q4400.81 1089.41 4397.3 1086.25 Q4393.8 1083.09 4387.79 1083.09 Q4384.98 1083.09 4382.16 1083.72 Q4379.39 1084.34 4376.47 1085.66 L4376.47 1059.62 Z" fill="#000000" fill-rule="nonzero" fill-opacity="1" /><path clip-path="url(#clip190)" d="M4330.88 753.608 L4342.34 753.608 L4342.34 714.06 L4329.87 716.56 L4329.87 710.171 L4342.27 707.671 L4349.28 707.671 L4349.28 753.608 L4360.74 753.608 L4360.74 759.511 L4330.88 759.511 L4330.88 753.608 Z" fill="#000000" fill-rule="nonzero" fill-opacity="1" /><path clip-path="url(#clip190)" d="M4389.91 712.289 Q4384.49 712.289 4381.75 717.636 Q4379.04 722.949 4379.04 733.643 Q4379.04 744.303 4381.75 749.65 Q4384.49 754.962 4389.91 754.962 Q4395.36 754.962 4398.07 749.65 Q4400.81 744.303 4400.81 733.643 Q4400.81 722.949 4398.07 717.636 Q4395.36 712.289 4389.91 712.289 M4389.91 706.733 Q4398.62 706.733 4403.21 713.643 Q4407.82 720.518 4407.82 733.643 Q4407.82 746.733 4403.21 753.643 Q4398.62 760.518 4389.91 760.518 Q4381.19 760.518 4376.57 753.643 Q4371.99 746.733 4371.99 733.643 Q4371.99 720.518 4376.57 713.643 Q4381.19 706.733 4389.91 706.733 Z" fill="#000000" fill-rule="nonzero" fill-opacity="1" /><path clip-path="url(#clip190)" d="M4332.37 401.658 L4343.83 401.658 L4343.83 362.11 L4331.37 364.61 L4331.37 358.221 L4343.76 355.721 L4350.78 355.721 L4350.78 401.658 L4362.23 401.658 L4362.23 407.561 L4332.37 407.561 L4332.37 401.658 Z" fill="#000000" fill-rule="nonzero" fill-opacity="1" /><path clip-path="url(#clip190)" d="M4376.47 355.721 L4404 355.721 L4404 361.624 L4382.89 361.624 L4382.89 374.332 Q4384.42 373.811 4385.95 373.568 Q4387.48 373.29 4389 373.29 Q4397.68 373.29 4402.75 378.047 Q4407.82 382.804 4407.82 390.929 Q4407.82 399.297 4402.62 403.95 Q4397.41 408.568 4387.93 408.568 Q4384.66 408.568 4381.26 408.012 Q4377.89 407.457 4374.28 406.346 L4374.28 399.297 Q4377.41 400.999 4380.74 401.832 Q4384.07 402.665 4387.79 402.665 Q4393.8 402.665 4397.3 399.505 Q4400.81 396.346 4400.81 390.929 Q4400.81 385.512 4397.3 382.353 Q4393.8 379.193 4387.79 379.193 Q4384.98 379.193 4382.16 379.818 Q4379.39 380.443 4376.47 381.763 L4376.47 355.721 Z" fill="#000000" fill-rule="nonzero" fill-opacity="1" /><path clip-path="url(#clip190)" d="M4184.59 814.686 L4184.59 845.098 Q4198.87 844.382 4204.93 841.088 Q4212.38 836.982 4212.38 829.868 Q4212.38 822.707 4204.88 818.744 Q4198.29 815.259 4184.59 814.686 M4176.48 814.829 Q4162.92 816.166 4158.14 818.744 Q4150.6 822.85 4150.6 829.868 Q4150.6 837.173 4158.05 841.04 Q4164.06 844.096 4176.48 845.003 L4176.48 814.829 M4143.44 829.868 Q4143.44 818.41 4153.56 811.869 Q4163.63 805.329 4181.49 805.329 Q4199.3 805.329 4209.42 811.869 Q4219.59 818.41 4219.59 829.868 Q4219.59 841.374 4209.42 847.867 Q4199.3 854.408 4181.49 854.408 Q4163.63 854.408 4153.56 847.867 Q4143.44 841.374 4143.44 829.868 Z" fill="#000000" fill-rule="nonzero" fill-opacity="1" /><path clip-path="url(#clip190)" d="M4144.3 769.665 Q4155.28 776.062 4166.02 779.165 Q4176.76 782.269 4187.79 782.269 Q4198.82 782.269 4209.66 779.165 Q4220.45 776.014 4231.38 769.665 L4231.38 777.303 Q4220.16 784.465 4209.32 788.046 Q4198.48 791.579 4187.79 791.579 Q4177.14 791.579 4166.35 788.046 Q4155.56 784.513 4144.3 777.303 L4144.3 769.665 Z" fill="#000000" fill-rule="nonzero" fill-opacity="1" /><path clip-path="url(#clip190)" d="M4149.83 743.931 L4165.02 743.931 L4165.02 725.837 L4171.84 725.837 L4171.84 743.931 L4200.87 743.931 Q4207.41 743.931 4209.27 742.165 Q4211.14 740.351 4211.14 734.86 L4211.14 725.837 L4218.49 725.837 L4218.49 734.86 Q4218.49 745.029 4214.72 748.897 Q4210.9 752.764 4200.87 752.764 L4171.84 752.764 L4171.84 759.209 L4165.02 759.209 L4165.02 752.764 L4149.83 752.764 L4149.83 743.931 Z" fill="#000000" fill-rule="nonzero" fill-opacity="1" /><path clip-path="url(#clip190)" d="M4144.3 715.668 L4144.3 708.029 Q4155.56 700.867 4166.35 697.334 Q4177.14 693.754 4187.79 693.754 Q4198.48 693.754 4209.32 697.334 Q4220.16 700.867 4231.38 708.029 L4231.38 715.668 Q4220.45 709.318 4209.66 706.214 Q4198.82 703.063 4187.79 703.063 Q4176.76 703.063 4166.02 706.214 Q4155.28 709.318 4144.3 715.668 Z" fill="#000000" fill-rule="nonzero" fill-opacity="1" /><polyline clip-path="url(#clip194)" style="stroke:#009af9; stroke-linecap:round; stroke-linejoin:round; stroke-width:6; stroke-opacity:1; fill:none" points="4497.82,1437.49 4499.26,1434.5 4500.69,1431.5 4502.12,1428.52 4503.55,1425.54 4504.99,1422.56 4506.42,1419.6 4507.85,1416.65 4509.29,1413.72 4510.72,1410.8 4512.15,1407.9 4513.58,1405.02 4515.02,1402.16 4516.45,1399.33 4517.88,1396.52 4519.31,1393.73 4520.75,1390.97 4522.18,1388.25 4523.61,1385.55 4525.05,1382.88 4526.48,1380.25 4527.91,1377.64 4529.34,1375.07 4530.78,1372.53 4532.21,1370.03 4533.64,1367.56 4535.08,1365.13 4536.51,1362.73 4537.94,1360.37 4539.37,1358.04 4540.81,1355.75 4542.24,1353.5 4543.67,1351.28 4545.1,1349.09 4546.54,1346.94 4547.97,1344.83 4549.4,1342.74 4550.84,1340.7 4552.27,1338.69 4553.7,1336.71 4555.13,1334.76 4556.57,1332.85 4558,1330.96 4559.43,1329.11 4560.86,1327.3 4562.3,1325.51 4563.73,1323.75 4565.16,1322.02 4566.6,1320.32 4568.03,1318.65 4569.46,1317.01 4570.89,1315.39 4572.33,1313.81 4573.76,1312.25 4575.19,1310.71 4576.62,1309.2 4578.06,1307.71 4579.49,1306.25 4580.92,1304.81 4582.36,1303.4 4583.79,1302 4585.22,1300.63 4586.65,1299.29 4588.09,1297.96 4589.52,1296.65 4590.95,1295.36 4592.38,1294.09 4593.82,1292.85 4595.25,1291.62 4596.68,1290.4 4598.12,1289.21 4599.55,1288.03 4600.98,1286.87 4602.41,1285.73 4603.85,1284.6 4605.28,1283.49 4606.71,1282.4 4608.14,1281.31 4609.58,1280.25 4611.01,1279.2 4612.44,1278.16 4613.88,1277.13 4615.31,1276.12 4616.74,1275.12 4618.17,1274.13 4619.61,1273.16 4621.04,1272.2 4622.47,1271.25 4623.91,1270.31 4625.34,1269.38 4626.77,1268.46 4628.2,1267.56 4629.64,1266.66 4631.07,1265.77 4632.5,1264.89 4633.93,1264.03 4635.37,1263.17 4636.8,1262.32 4638.23,1261.48 4639.67,1260.64 4641.1,1259.82 4642.53,1259 4643.96,1258.2 4645.4,1257.4 4646.83,1256.6 4648.26,1255.82 4649.69,1255.04 4651.13,1254.27 4652.56,1253.5 4653.99,1252.74 4655.43,1251.99 4656.86,1251.24 4658.29,1250.5 4659.72,1249.77 4661.16,1249.04 4662.59,1248.32 4664.02,1247.6 4665.45,1246.89 4666.89,1246.18 4668.32,1245.48 4669.75,1244.78 4671.19,1244.09 4672.62,1243.4 4674.05,1242.71 4675.48,1242.03 4676.92,1241.36 4678.35,1240.69 4679.78,1240.02 4681.21,1239.36 4682.65,1238.7 4684.08,1238.04 4685.51,1237.38 4686.95,1236.73 4688.38,1236.09 4689.81,1235.44 4691.24,1234.8 4692.68,1234.16 4694.11,1233.53 4695.54,1232.89 4696.98,1232.26 4698.41,1231.64 4699.84,1231.01 4701.27,1230.39 4702.71,1229.76 4704.14,1229.14 4705.57,1228.53 4707,1227.91 4708.44,1227.3 4709.87,1226.68 4711.3,1226.07 4712.74,1225.46 4714.17,1224.85 4715.6,1224.25 4717.03,1223.64 4718.47,1223.04 4719.9,1222.43 4721.33,1221.83 4722.76,1221.23 4724.2,1220.63 4725.63,1220.03 4727.06,1219.43 4728.5,1218.83 4729.93,1218.23 4731.36,1217.63 4732.79,1217.03 4734.23,1216.43 4735.66,1215.83 4737.09,1215.23 4738.52,1214.63 4739.96,1214.03 4741.39,1213.43 4742.82,1212.83 4744.26,1212.23 4745.69,1211.63 4747.12,1211.03 4748.55,1210.43 4749.99,1209.82 4751.42,1209.22 4752.85,1208.61 4754.28,1208.01 4755.72,1207.4 4757.15,1206.79 4758.58,1206.18 4760.02,1205.57 4761.45,1204.95 4762.88,1204.34 4764.31,1203.72 4765.75,1203.1 4767.18,1202.48 4768.61,1201.86 4770.04,1201.23 4771.48,1200.6 4772.91,1199.97 4774.34,1199.34 4775.78,1198.7 4777.21,1198.07 4778.64,1197.42 4780.07,1196.78 4781.51,1196.13 4782.94,1195.48 4784.37,1194.83 4785.81,1194.17 4787.24,1193.51 4788.67,1192.85 4790.1,1192.18 4791.54,1191.51 4792.97,1190.84 4794.4,1190.16 4795.83,1189.47 4797.27,1188.79 4798.7,1188.09 4800.13,1187.4 4801.57,1186.7 4803,1185.99 4804.43,1185.28 4805.86,1184.56 4807.3,1183.84 4808.73,1183.12 4810.16,1182.38 4811.59,1181.65 4813.03,1180.9 4814.46,1180.15 4815.89,1179.4 4817.33,1178.63 4818.76,1177.86 4820.19,1177.09 4821.62,1176.3 4823.06,1175.51 4824.49,1174.72 4825.92,1173.91 4827.35,1173.1 4828.79,1172.27 4830.22,1171.44 4831.65,1170.61 4833.09,1169.76 4834.52,1168.9 4835.95,1168.04 4837.38,1167.16 4838.82,1166.28 4840.25,1165.38 4841.68,1164.48 4843.11,1163.56 4844.55,1162.64 4845.98,1161.7 4847.41,1160.75 4848.85,1159.79 4850.28,1158.82 4851.71,1157.84 4853.14,1156.84 4854.58,1155.83 4856.01,1154.81 4857.44,1153.78 4858.87,1152.73 4860.31,1151.68 4861.74,1150.6 4863.17,1149.51 4864.61,1148.41 4866.04,1147.29 4867.47,1146.15 4868.9,1145 4870.34,1143.83 4871.77,1142.64 4873.2,1141.43 4874.64,1140.2 4876.07,1138.95 4877.5,1137.69 4878.93,1136.4 4880.37,1135.09 4881.8,1133.76 4883.23,1132.41 4884.66,1131.03 4886.1,1129.63 4887.53,1128.21 4888.96,1126.76 4890.4,1125.29 4891.83,1123.8 4893.26,1122.28 4894.69,1120.73 4896.13,1119.16 4897.56,1117.56 4898.99,1115.94 4900.42,1114.29 4901.86,1112.61 4903.29,1110.9 4904.72,1109.17 4906.16,1107.4 4907.59,1105.61 4909.02,1103.79 4910.45,1101.93 4911.89,1100.05 4913.32,1098.14 4914.75,1096.2 4916.18,1094.22 4917.62,1092.22 4919.05,1090.18 4920.48,1088.11 4921.92,1086.01 4923.35,1083.88 4924.78,1081.71 4926.21,1079.51 4927.65,1077.28 4929.08,1075.02 4930.51,1072.72 4931.94,1070.39 4933.38,1068.02 4934.81,1065.62 4936.24,1063.18 4937.68,1060.71 4939.11,1058.21 4940.54,1055.67 4941.97,1053.09 4943.41,1050.48 4944.84,1047.83 4946.27,1045.15 4947.71,1042.43 4949.14,1039.68 4950.57,1036.89 4952,1034.08 4953.44,1031.24 4954.87,1028.37 4956.3,1025.49 4957.73,1022.58 4959.17,1019.66 4960.6,1016.72 4962.03,1013.77 4963.47,1010.8 4964.9,1007.83 4966.33,1004.85 4967.76,1001.87 4969.2,998.885 4970.63,995.898 4972.06,992.912 4973.49,989.929 4974.93,986.951 4976.36,983.979 4977.79,981.016 4979.23,978.063 4980.66,975.122 4982.09,972.194 4983.52,969.281 4984.96,966.385 4986.39,963.507 4987.82,960.649 4989.25,957.812 4990.69,954.998 4992.12,952.208 4993.55,949.443 4994.99,946.705 4996.42,943.995 4997.85,941.314 4999.28,938.664 5000.72,936.046 5002.15,933.46 5003.58,930.909 5005.01,928.392 5006.45,925.912 5007.88,923.469 5009.31,921.063 5010.75,918.696 5012.18,916.366 5013.61,914.073 5015.04,911.817 5016.48,909.596 5017.91,907.411 5019.34,905.261 5020.77,903.146 5022.21,901.065 5023.64,899.017 5025.07,897.003 5026.51,895.021 5027.94,893.072 5029.37,891.154 5030.8,889.268 5032.24,887.412 5033.67,885.587 5035.1,883.792 5036.54,882.026 5037.97,880.289 5039.4,878.58 5040.83,876.9 5042.27,875.247 5043.7,873.621 5045.13,872.022 5046.56,870.449 5048,868.901 5049.43,867.379 5050.86,865.881 5052.3,864.408 5053.73,862.958 5055.16,861.532 5056.59,860.129 5058.03,858.748 5059.46,857.389 5060.89,856.052 5062.32,854.736 5063.76,853.44 5065.19,852.164 5066.62,850.908 5068.06,849.671 5069.49,848.453 5070.92,847.253 5072.35,846.071 5073.79,844.906 5075.22,843.759 5076.65,842.627 5078.08,841.512 5079.52,840.412 5080.95,839.327 5082.38,838.256 5083.82,837.2 5085.25,836.158 5086.68,835.129 5088.11,834.114 5089.55,833.112 5090.98,832.122 5092.41,831.144 5093.84,830.179 5095.28,829.226 5096.71,828.284 5098.14,827.353 5099.58,826.433 5101.01,825.524 5102.44,824.625 5103.87,823.736 5105.31,822.857 5106.74,821.988 5108.17,821.128 5109.6,820.277 5111.04,819.436 5112.47,818.602 5113.9,817.778 5115.34,816.961 5116.77,816.152 5118.2,815.351 5119.63,814.558 5121.07,813.772 5122.5,812.993 5123.93,812.221 5125.37,811.456 5126.8,810.697 5128.23,809.944 5129.66,809.198 5131.1,808.458 5132.53,807.723 5133.96,806.994 5135.39,806.271 5136.83,805.552 5138.26,804.839 5139.69,804.131 5141.13,803.428 5142.56,802.73 5143.99,802.036 5145.42,801.346 5146.86,800.661 5148.29,799.98 5149.72,799.303 5151.15,798.63 5152.59,797.961 5154.02,797.295 5155.45,796.634 5156.89,795.975 5158.32,795.32 5159.75,794.669 5161.18,794.021 5162.62,793.375 5164.05,792.733 5165.48,792.094 5166.91,791.457 5168.35,790.823 5169.78,790.191 5171.21,789.561 5172.65,788.934 5174.08,788.31 5175.51,787.687 5176.94,787.066 5178.38,786.448 5179.81,785.831 5181.24,785.216 5182.67,784.603 5184.11,783.991 5185.54,783.381 5186.97,782.772 5188.41,782.165 5189.84,781.558 5191.27,780.953 5192.7,780.349 5194.14,779.746 5195.57,779.144 5197,778.543 5198.44,777.942 5199.87,777.342 5201.3,776.742 5202.73,776.143 5204.17,775.544 5205.6,774.945 5207.03,774.347 5208.46,773.748 5209.9,773.15 5211.33,772.551 5212.76,771.953 5214.2,771.353 5215.63,770.754 5217.06,770.154 5218.49,769.553 5219.93,768.952 5221.36,768.35 5222.79,767.747 5224.22,767.143 5225.66,766.538 5227.09,765.932 5228.52,765.324 5229.96,764.716 5231.39,764.106 5232.82,763.494 5234.25,762.881 5235.69,762.266 5237.12,761.649 5238.55,761.031 5239.98,760.41 5241.42,759.787 5242.85,759.163 5244.28,758.536 5245.72,757.906 5247.15,757.275 5248.58,756.64 5250.01,756.003 5251.45,755.364 5252.88,754.721 5254.31,754.074 5255.74,753.424 5257.18,752.769 5258.61,752.111 5260.04,751.449 5261.48,750.783 5262.91,750.113 5264.34,749.438 5265.77,748.76 5267.21,748.078 5268.64,747.391 5270.07,746.7 5271.5,746.005 5272.94,745.305 5274.37,744.6 5275.8,743.891 5277.24,743.177 5278.67,742.458 5280.1,741.734 5281.53,741.005 5282.97,740.271 5284.4,739.531 5285.83,738.785 5287.27,738.034 5288.7,737.277 5290.13,736.514 5291.56,735.744 5293,734.968 5294.43,734.186 5295.86,733.397 5297.29,732.6 5298.73,731.797 5300.16,730.985 5301.59,730.167 5303.03,729.34 5304.46,728.505 5305.89,727.662 5307.32,726.81 5308.76,725.95 5310.19,725.08 5311.62,724.201 5313.05,723.312 5314.49,722.413 5315.92,721.504 5317.35,720.584 5318.79,719.654 5320.22,718.713 5321.65,717.76 5323.08,716.795 5324.52,715.818 5325.95,714.829 5327.38,713.827 5328.81,712.812 5330.25,711.783 5331.68,710.741 5333.11,709.684 5334.55,708.613 5335.98,707.527 5337.41,706.425 5338.84,705.308 5340.28,704.175 5341.71,703.025 5343.14,701.859 5344.57,700.675 5346.01,699.473 5347.44,698.253 5348.87,697.015 5350.31,695.757 5351.74,694.48 5353.17,693.183 5354.6,691.866 5356.04,690.527 5357.47,689.167 5358.9,687.786 5360.33,686.382 5361.77,684.955 5363.2,683.505 5364.63,682.031 5366.07,680.533 5367.5,679.009 5368.93,677.461 5370.36,675.886 5371.8,674.285 5373.23,672.657 5374.66,671.001 5376.1,669.317 5377.53,667.605 5378.96,665.863 5380.39,664.093 5381.83,662.292 5383.26,660.461 5384.69,658.597 5386.12,656.701 5387.56,654.771 5388.99,652.808 5390.42,650.81 5391.86,648.777 5393.29,646.708 5394.72,644.604 5396.15,642.464 5397.59,640.288 5399.02,638.075 5400.45,635.826 5401.88,633.541 5403.32,631.219 5404.75,628.861 5406.18,626.467 5407.62,624.038 5409.05,621.574 5410.48,619.075 5411.91,616.541 5413.35,613.974 5414.78,611.375 5416.21,608.743 5417.64,606.079 5419.08,603.385 5420.51,600.662 5421.94,597.91 5423.38,595.13 5424.81,592.324 5426.24,589.493 5427.67,586.639 5429.11,583.762 5430.54,580.864 5431.97,577.947 5433.4,575.012 5434.84,572.061 5436.27,569.096 5437.7,566.118 5439.14,563.129 5440.57,560.131 5442,557.127 5443.43,554.118 5444.87,551.107 5446.3,548.096 5447.73,545.087 5449.17,542.082 5450.6,539.084 5452.03,536.096 5453.46,533.119 5454.9,530.158 5456.33,527.214 5457.76,524.29 5459.19,521.389 5460.63,518.514 5462.06,515.669 5463.49,512.853 5464.93,510.064 5466.36,507.305 5467.79,504.574 5469.22,501.874 5470.66,499.204 5472.09,496.565 5473.52,493.958 5474.95,491.383 5476.39,488.84 5477.82,486.33 5479.25,483.853 5480.69,481.41 5482.12,479 5483.55,476.624 5484.98,474.282 5486.42,471.975 5487.85,469.702 5489.28,467.463 5490.71,465.259 5492.15,463.089 5493.58,460.954 5495.01,458.853 5496.45,456.787 5497.88,454.754 5499.31,452.756 5500.74,450.791 5502.18,448.859 5503.61,446.961 5505.04,445.096 5506.47,443.263 5507.91,441.462 5509.34,439.692 5510.77,437.954 5512.21,436.246 5513.64,434.568 5515.07,432.919 5516.5,431.3 5517.94,429.708 5519.37,428.143 5520.8,426.606 5522.23,425.094 5523.67,423.607 5525.1,422.144 5526.53,420.704 5527.97,419.287 5529.4,417.89 5530.83,416.515 5532.26,415.154 5533.7,413.803 5535.13,412.462 5536.56,411.131 5538,409.811 5539.43,408.502 5540.86,407.205 5542.29,405.921 5543.73,404.649 5545.16,403.391 5546.59,402.146 5548.02,400.916 5549.46,399.701 5550.89,398.5 5552.32,397.315 5553.76,396.146 5555.19,394.993 5556.62,393.856 5558.05,392.736 5559.49,391.632 5560.92,390.546 5562.35,389.477 5563.78,388.425 5565.22,387.392 5566.65,386.375 5568.08,385.377 5569.52,384.397 5570.95,383.435 5572.38,382.491 5573.81,381.565 5575.25,380.657 5576.68,379.768 5578.11,378.897 5579.54,378.043 5580.98,377.208 5582.41,376.391 5583.84,375.591 5585.28,374.809 5586.71,374.045 5588.14,373.298 5589.57,372.568 5591.01,371.855 5592.44,371.158 5593.87,370.478 5595.3,369.814 5596.74,369.166 5598.17,368.533 5599.6,367.916 5601.04,367.313 5602.47,366.724 5603.9,366.149 5605.33,365.588 5606.77,365.039 5608.2,364.503 5609.63,363.979 5611.06,363.466 5612.5,362.965 5613.93,362.473 5615.36,361.992 5616.8,361.519 5618.23,361.055 5619.66,360.599 5621.09,360.15 5622.53,359.707 5623.96,359.27 5625.39,358.838 5626.83,358.41 5628.26,357.985 5629.69,357.564 5631.12,357.143 5632.56,356.724 5633.99,356.305 5635.42,355.885 5636.85,355.463 5638.29,355.039 5639.72,354.61 5641.15,354.177 5642.59,353.739 5644.02,353.293 5645.45,352.84 5646.88,352.378 5648.32,351.906 5649.75,351.423 5651.18,350.928 5652.61,350.42 5654.05,349.897 5655.48,349.358 5656.91,348.803 5658.35,348.229 5659.78,347.636 5661.21,347.022 5662.64,346.396 5664.08,345.773 5665.51,345.151 5666.94,344.532 5668.37,343.914 5669.81,343.298 5671.24,342.683 5672.67,342.071 5674.11,341.46 5675.54,340.85 5676.97,340.241 5678.4,339.634 5679.84,339.028 5681.27,338.423 5682.7,337.819 5684.13,337.216 5685.57,336.614 5687,336.013 5688.43,335.412 5689.87,334.812 5691.3,334.212 5692.73,333.613 5694.16,333.014 5695.6,332.415 5697.03,331.816 5698.46,331.217 5699.9,330.619 5701.33,330.02 5702.76,329.421 5704.19,328.821 5705.63,328.222 5707.06,327.621 5708.49,327.02 5709.92,326.419 5711.36,325.816 5712.79,325.213 5714.22,324.608 5715.66,324.003 5717.09,323.397 5718.52,322.789 5719.95,322.18 5721.39,321.569 5722.82,320.957 5724.25,320.343 5725.68,319.728 5727.12,319.11 5728.55,318.491 5729.98,317.87 5731.42,317.246 5732.85,316.621 5734.28,315.993 5735.71,315.362 5737.15,314.73 5738.58,314.094 5740.01,313.456 5741.44,312.815 5742.88,312.171 5744.31,311.524 5745.74,310.874 5747.18,310.221 5748.61,309.565 5750.04,308.905 5751.47,308.242 5752.91,307.575 5754.34,306.905 5755.77,306.231 5757.2,305.553 5758.64,304.87 5760.07,304.184 5761.5,303.493 5762.94,302.798 5764.37,302.098 5765.8,301.393 5767.23,300.683 5768.67,299.968 5770.1,299.248 5771.53,298.522 5772.96,297.791 5774.4,297.053 5775.83,296.309 5777.26,295.559 5778.7,294.803 5780.13,294.04 5781.56,293.27 5782.99,292.493 5784.43,291.708 5785.86,290.916 5787.29,290.116 5788.73,289.308 5790.16,288.492 5791.59,287.667 5793.02,286.834 5794.46,285.992 5795.89,285.14 5797.32,284.279 5798.75,283.408 5800.19,282.527 5801.62,281.636 5803.05,280.734 5804.49,279.821 5805.92,278.898 5807.35,277.963 5808.78,277.016 5810.22,276.057 5811.65,275.086 5813.08,274.102 5814.51,273.106 5815.95,272.096 5817.38,271.073 5818.81,270.035 5820.25,268.984 5821.68,267.918 5823.11,266.838 5824.54,265.742 5825.98,264.631 5827.41,263.503 5828.84,262.36 5830.27,261.2 5831.71,260.023 5833.14,258.829 5834.57,257.618 5836.01,256.388 5837.44,255.14 5838.87,253.873 5840.3,252.587 5841.74,251.281 5843.17,249.956 5844.6,248.61 5846.03,247.244 5847.47,245.856 5848.9,244.447 5850.33,243.016 5851.77,241.562 5853.2,240.086 5854.63,238.587 5856.06,237.064 5857.5,235.517 5858.93,233.945 5860.36,232.348 5861.79,230.726 5863.23,229.079 5864.66,227.404 5866.09,225.704 5867.53,223.975 5868.96,222.22 5870.39,220.436 5871.82,218.623 5873.26,216.781 5874.69,214.91 5876.12,213.008 5877.56,211.076 5878.99,209.113 5880.42,207.118 5881.85,205.092 5883.29,203.032 5884.72,200.94 5886.15,198.813 5887.58,196.653 5889.02,194.458 5890.45,192.228 5891.88,189.962 5893.32,187.659 5894.75,185.32 5896.18,182.944 5897.61,180.529 5899.05,178.076 5900.48,175.584 5901.91,173.052 5903.34,170.482 5904.78,167.878 5906.21,165.241 5907.64,162.573 5909.08,159.874 5910.51,157.146 5911.94,154.389 5913.37,151.605 5914.81,148.794 5916.24,145.959 5917.67,143.101 5919.1,140.221 5920.54,137.321 5921.97,134.402 5923.4,131.467 5924.84,128.518 5926.27,125.555 5927.7,122.582 5929.13,119.601 "/>
<polyline clip-path="url(#clip194)" style="stroke:#808080; stroke-linecap:round; stroke-linejoin:round; stroke-width:6; stroke-opacity:1; fill:none" stroke-dasharray="24, 15" points="4497.82,995.218 6350.11,995.218 "/>
<polyline clip-path="url(#clip194)" style="stroke:#808080; stroke-linecap:round; stroke-linejoin:round; stroke-width:6; stroke-opacity:1; fill:none" stroke-dasharray="24, 15" points="4497.82,552.944 6350.11,552.944 "/>
<polyline clip-path="url(#clip194)" style="stroke:#808080; stroke-linecap:round; stroke-linejoin:round; stroke-width:6; stroke-opacity:1; fill:none" stroke-dasharray="24, 15" points="4497.82,110.671 6350.11,110.671 "/>
<circle clip-path="url(#clip194)" cx="4741.28" cy="1216.35" r="10.8" fill="#e26f46" fill-rule="evenodd" fill-opacity="1" stroke="#000000" stroke-opacity="1" stroke-width="5.4"/>
<polyline clip-path="url(#clip194)" style="stroke:#e26f46; stroke-linecap:round; stroke-linejoin:round; stroke-width:6; stroke-opacity:1; fill:none" stroke-dasharray="24, 15" points="4488.7,1321.94 4993.86,1110.77 "/>
<circle clip-path="url(#clip194)" cx="4967.9" cy="995.218" r="10.8" fill="#e26f46" fill-rule="evenodd" fill-opacity="1" stroke="#000000" stroke-opacity="1" stroke-width="5.4"/>
<polyline clip-path="url(#clip194)" style="stroke:#e26f46; stroke-linecap:round; stroke-linejoin:round; stroke-width:6; stroke-opacity:1; fill:none" stroke-dasharray="24, 15" points="4799.51,1347.17 5136.29,643.268 "/>
<path clip-path="url(#clip190)" d="M4080.39 12.4775 L4080.39 21.4358 Q4076.33 19.1963 4072.21 18.1025 Q4068.15 16.9567 4063.99 16.9567 Q4054.66 16.9567 4049.51 22.8942 Q4044.35 28.7795 4044.35 39.4566 Q4044.35 50.1336 4049.51 56.0711 Q4054.66 61.9564 4063.99 61.9564 Q4068.15 61.9564 4072.21 60.8627 Q4076.33 59.7169 4080.39 57.4773 L4080.39 66.3314 Q4076.38 68.2064 4072.06 69.1439 Q4067.79 70.0814 4062.94 70.0814 Q4049.77 70.0814 4042.01 61.8002 Q4034.25 53.519 4034.25 39.4566 Q4034.25 25.1858 4042.06 17.0088 Q4049.92 8.83173 4063.57 8.83173 Q4068 8.83173 4072.21 9.76922 Q4076.43 10.6546 4080.39 12.4775 Z" fill="#000000" fill-rule="nonzero" fill-opacity="1" /><path clip-path="url(#clip190)" d="M4095.55 -12.3661 L4103.88 -12.3661 Q4111.69 -0.0744746 4115.55 11.6963 Q4119.45 23.4671 4119.45 35.0816 Q4119.45 46.7482 4115.55 58.571 Q4111.69 70.3939 4103.88 82.6334 L4095.55 82.6334 Q4102.48 70.7064 4105.86 58.9356 Q4109.3 47.1128 4109.3 35.0816 Q4109.3 23.0504 4105.86 11.3317 Q4102.48 -0.386973 4095.55 -12.3661 Z" fill="#000000" fill-rule="nonzero" fill-opacity="1" /></svg>
