<?xml version="1.0" encoding="utf-8"?>
<svg xmlns="http://www.w3.org/2000/svg" xmlns:xlink="http://www.w3.org/1999/xlink" width="1500" height="200" viewBox="0 0 6000 800">
<defs>
  <clipPath id="clip510">
    <rect x="0" y="0" width="6000" height="800"/>
  </clipPath>
</defs>
<path clip-path="url(#clip510)" d="M0 800 L6000 800 L6000 0 L0 0  Z" fill="#ffffff" fill-rule="evenodd" fill-opacity="1"/>
<defs>
  <clipPath id="clip511">
    <rect x="1200" y="0" width="4201" height="800"/>
  </clipPath>
</defs>
<path clip-path="url(#clip510)" d="M340.625 696.029 L5938.58 696.029 L5938.58 61.4173 L340.625 61.4173  Z" fill="#ffffff" fill-rule="evenodd" fill-opacity="1"/>
<defs>
  <clipPath id="clip512">
    <rect x="340" y="61" width="5599" height="636"/>
  </clipPath>
</defs>
<polyline clip-path="url(#clip512)" style="stroke:#000000; stroke-linecap:round; stroke-linejoin:round; stroke-width:2.6; stroke-opacity:0.1; fill:none" points="1297.36,696.029 1297.36,61.4173 "/>
<polyline clip-path="url(#clip512)" style="stroke:#000000; stroke-linecap:round; stroke-linejoin:round; stroke-width:2.6; stroke-opacity:0.1; fill:none" points="2320.83,696.029 2320.83,61.4173 "/>
<polyline clip-path="url(#clip512)" style="stroke:#000000; stroke-linecap:round; stroke-linejoin:round; stroke-width:2.6; stroke-opacity:0.1; fill:none" points="3344.3,696.029 3344.3,61.4173 "/>
<polyline clip-path="url(#clip512)" style="stroke:#000000; stroke-linecap:round; stroke-linejoin:round; stroke-width:2.6; stroke-opacity:0.1; fill:none" points="4367.76,696.029 4367.76,61.4173 "/>
<polyline clip-path="url(#clip512)" style="stroke:#000000; stroke-linecap:round; stroke-linejoin:round; stroke-width:2.6; stroke-opacity:0.1; fill:none" points="5391.23,696.029 5391.23,61.4173 "/>
<polyline clip-path="url(#clip512)" style="stroke:#000000; stroke-linecap:round; stroke-linejoin:round; stroke-width:2.6; stroke-opacity:0.1; fill:none" points="340.625,678.068 5938.58,678.068 "/>
<polyline clip-path="url(#clip512)" style="stroke:#000000; stroke-linecap:round; stroke-linejoin:round; stroke-width:2.6; stroke-opacity:0.1; fill:none" points="340.625,558.33 5938.58,558.33 "/>
<polyline clip-path="url(#clip512)" style="stroke:#000000; stroke-linecap:round; stroke-linejoin:round; stroke-width:2.6; stroke-opacity:0.1; fill:none" points="340.625,438.592 5938.58,438.592 "/>
<polyline clip-path="url(#clip512)" style="stroke:#000000; stroke-linecap:round; stroke-linejoin:round; stroke-width:2.6; stroke-opacity:0.1; fill:none" points="340.625,318.854 5938.58,318.854 "/>
<polyline clip-path="url(#clip512)" style="stroke:#000000; stroke-linecap:round; stroke-linejoin:round; stroke-width:2.6; stroke-opacity:0.1; fill:none" points="340.625,199.116 5938.58,199.116 "/>
<polyline clip-path="url(#clip512)" style="stroke:#000000; stroke-linecap:round; stroke-linejoin:round; stroke-width:2.6; stroke-opacity:0.1; fill:none" points="340.625,79.378 5938.58,79.378 "/>
<polyline clip-path="url(#clip512)" style="stroke:#000000; stroke-linecap:round; stroke-linejoin:round; stroke-width:15.6; stroke-opacity:1; fill:none" points="1195.02,318.854 1193.89,293.822 1190.54,269.064 1185,244.852 1177.32,221.45 1167.59,199.116 1155.92,178.094 1142.44,158.613 1127.29,140.889 1110.64,125.114 1092.67,111.462 1073.58,100.082 1053.58,91.0988 1032.88,84.6112 1011.72,80.6899 990.322,79.378 968.926,80.6899 947.764,84.6112 927.068,91.0988 907.066,100.082 887.975,111.462 870.006,125.114 853.355,140.889 838.205,158.613 824.722,178.094 813.052,199.116 803.325,221.45 795.647,244.852 790.102,269.064 786.75,293.822 785.629,318.854 786.75,343.886 790.102,368.644 795.647,392.856 803.325,416.258 813.052,438.592 824.722,459.615 838.205,479.095 853.355,496.82 870.006,512.594 887.975,526.246 907.066,537.626 927.068,546.609 947.764,553.097 968.926,557.018 990.322,558.33 1011.72,557.018 1032.88,553.097 1053.58,546.609 1073.58,537.626 1092.67,526.246 1110.64,512.594 1127.29,496.82 1142.44,479.095 1155.92,459.615 1167.59,438.592 1177.32,416.258 1185,392.856 1190.54,368.644 1193.89,343.886 1195.02,318.854 "/>
<polyline clip-path="url(#clip512)" style="stroke:#ff0000; stroke-linecap:round; stroke-linejoin:round; stroke-width:5.2; stroke-opacity:1; fill:none" stroke-dasharray="21, 13" points="990.322,318.854 959.401,555.582 "/>
<circle clip-path="url(#clip512)" cx="959.401" cy="555.582" r="28.08" fill="#ff0000" fill-rule="evenodd" fill-opacity="1" stroke="#000000" stroke-opacity="1" stroke-width="2.08"/>
<polyline clip-path="url(#clip512)" style="stroke:#ff0000; stroke-linecap:round; stroke-linejoin:round; stroke-width:15.6; stroke-opacity:1; fill:none" points="1215.48,318.854 1481.59,318.854 "/>
<polyline clip-path="url(#clip512)" style="stroke:#ff0000; stroke-linecap:round; stroke-linejoin:round; stroke-width:15.6; stroke-opacity:1; fill:none" points="1391.59,273.854 1481.59,318.854 1391.59,363.854 "/>
<polyline clip-path="url(#clip512)" style="stroke:#ff0000; stroke-linecap:round; stroke-linejoin:round; stroke-width:15.6; stroke-opacity:1; fill:none" points="1481.59,318.854 1215.48,318.854 "/>
<polyline clip-path="url(#clip512)" style="stroke:#ff0000; stroke-linecap:round; stroke-linejoin:round; stroke-width:15.6; stroke-opacity:1; fill:none" points="1481.59,318.854 1215.48,318.854 "/>
<polyline clip-path="url(#clip512)" style="stroke:#ff0000; stroke-linecap:round; stroke-linejoin:round; stroke-width:15.6; stroke-opacity:1; fill:none" points="1305.48,363.854 1215.48,318.854 1305.48,273.854 "/>
<polyline clip-path="url(#clip512)" style="stroke:#ff0000; stroke-linecap:round; stroke-linejoin:round; stroke-width:15.6; stroke-opacity:1; fill:none" points="1215.48,318.854 1481.59,318.854 "/>
<polyline clip-path="url(#clip512)" style="stroke:#000000; stroke-linecap:round; stroke-linejoin:round; stroke-width:15.6; stroke-opacity:1; fill:none" points="1911.44,318.854 1910.32,293.822 1906.97,269.064 1901.42,244.852 1893.75,221.45 1884.02,199.116 1872.35,178.094 1858.87,158.613 1843.72,140.889 1827.07,125.114 1809.1,111.462 1790.01,100.082 1770,91.0988 1749.31,84.6112 1728.15,80.6899 1706.75,79.378 1685.35,80.6899 1664.19,84.6112 1643.5,91.0988 1623.49,100.082 1604.4,111.462 1586.43,125.114 1569.78,140.889 1554.63,158.613 1541.15,178.094 1529.48,199.116 1519.75,221.45 1512.07,244.852 1506.53,269.064 1503.18,293.822 1502.06,318.854 1503.18,343.886 1506.53,368.644 1512.07,392.856 1519.75,416.258 1529.48,438.592 1541.15,459.615 1554.63,479.095 1569.78,496.82 1586.43,512.594 1604.4,526.246 1623.49,537.626 1643.5,546.609 1664.19,553.097 1685.35,557.018 1706.75,558.33 1728.15,557.018 1749.31,553.097 1770,546.609 1790.01,537.626 1809.1,526.246 1827.07,512.594 1843.72,496.82 1858.87,479.095 1872.35,459.615 1884.02,438.592 1893.75,416.258 1901.42,392.856 1906.97,368.644 1910.32,343.886 1911.44,318.854 "/>
<polyline clip-path="url(#clip512)" style="stroke:#ff0000; stroke-linecap:round; stroke-linejoin:round; stroke-width:5.2; stroke-opacity:1; fill:none" stroke-dasharray="21, 13" points="1706.75,318.854 1844.91,142.154 "/>
<circle clip-path="url(#clip512)" cx="1844.91" cy="142.154" r="28.08" fill="#ff0000" fill-rule="evenodd" fill-opacity="1" stroke="#000000" stroke-opacity="1" stroke-width="2.08"/>
<polyline clip-path="url(#clip512)" style="stroke:#ff0000; stroke-linecap:round; stroke-linejoin:round; stroke-width:15.6; stroke-opacity:1; fill:none" points="1931.91,318.854 2198.01,318.854 "/>
<polyline clip-path="url(#clip512)" style="stroke:#ff0000; stroke-linecap:round; stroke-linejoin:round; stroke-width:15.6; stroke-opacity:1; fill:none" points="2108.01,273.854 2198.01,318.854 2108.01,363.854 "/>
<polyline clip-path="url(#clip512)" style="stroke:#ff0000; stroke-linecap:round; stroke-linejoin:round; stroke-width:15.6; stroke-opacity:1; fill:none" points="2198.01,318.854 1931.91,318.854 "/>
<polyline clip-path="url(#clip512)" style="stroke:#ff0000; stroke-linecap:round; stroke-linejoin:round; stroke-width:15.6; stroke-opacity:1; fill:none" points="2198.01,318.854 1931.91,318.854 "/>
<polyline clip-path="url(#clip512)" style="stroke:#ff0000; stroke-linecap:round; stroke-linejoin:round; stroke-width:15.6; stroke-opacity:1; fill:none" points="2021.91,363.854 1931.91,318.854 2021.91,273.854 "/>
<polyline clip-path="url(#clip512)" style="stroke:#ff0000; stroke-linecap:round; stroke-linejoin:round; stroke-width:15.6; stroke-opacity:1; fill:none" points="1931.91,318.854 2198.01,318.854 "/>
<polyline clip-path="url(#clip512)" style="stroke:#000000; stroke-linecap:round; stroke-linejoin:round; stroke-width:15.6; stroke-opacity:1; fill:none" points="2627.87,318.854 2626.75,293.822 2623.4,269.064 2617.85,244.852 2610.17,221.45 2600.45,199.116 2588.78,178.094 2575.29,158.613 2560.14,140.889 2543.49,125.114 2525.52,111.462 2506.43,100.082 2486.43,91.0988 2465.73,84.6112 2444.57,80.6899 2423.18,79.378 2401.78,80.6899 2380.62,84.6112 2359.92,91.0988 2339.92,100.082 2320.83,111.462 2302.86,125.114 2286.21,140.889 2271.06,158.613 2257.58,178.094 2245.91,199.116 2236.18,221.45 2228.5,244.852 2222.96,269.064 2219.6,293.822 2218.48,318.854 2219.6,343.886 2222.96,368.644 2228.5,392.856 2236.18,416.258 2245.91,438.592 2257.58,459.615 2271.06,479.095 2286.21,496.82 2302.86,512.594 2320.83,526.246 2339.92,537.626 2359.92,546.609 2380.62,553.097 2401.78,557.018 2423.18,558.33 2444.57,557.018 2465.73,553.097 2486.43,546.609 2506.43,537.626 2525.52,526.246 2543.49,512.594 2560.14,496.82 2575.29,479.095 2588.78,459.615 2600.45,438.592 2610.17,416.258 2617.85,392.856 2623.4,368.644 2626.75,343.886 2627.87,318.854 "/>
<polyline clip-path="url(#clip512)" style="stroke:#ff0000; stroke-linecap:round; stroke-linejoin:round; stroke-width:5.2; stroke-opacity:1; fill:none" stroke-dasharray="21, 13" points="2423.18,318.854 2601.07,437.327 "/>
<circle clip-path="url(#clip512)" cx="2601.07" cy="437.327" r="28.08" fill="#ff0000" fill-rule="evenodd" fill-opacity="1" stroke="#000000" stroke-opacity="1" stroke-width="2.08"/>
<polyline clip-path="url(#clip512)" style="stroke:#ff0000; stroke-linecap:round; stroke-linejoin:round; stroke-width:15.6; stroke-opacity:1; fill:none" points="2648.34,318.854 2914.44,318.854 "/>
<polyline clip-path="url(#clip512)" style="stroke:#ff0000; stroke-linecap:round; stroke-linejoin:round; stroke-width:15.6; stroke-opacity:1; fill:none" points="2824.44,273.854 2914.44,318.854 2824.44,363.854 "/>
<polyline clip-path="url(#clip512)" style="stroke:#ff0000; stroke-linecap:round; stroke-linejoin:round; stroke-width:15.6; stroke-opacity:1; fill:none" points="2914.44,318.854 2648.34,318.854 "/>
<polyline clip-path="url(#clip512)" style="stroke:#ff0000; stroke-linecap:round; stroke-linejoin:round; stroke-width:15.6; stroke-opacity:1; fill:none" points="2914.44,318.854 2648.34,318.854 "/>
<polyline clip-path="url(#clip512)" style="stroke:#ff0000; stroke-linecap:round; stroke-linejoin:round; stroke-width:15.6; stroke-opacity:1; fill:none" points="2738.34,363.854 2648.34,318.854 2738.34,273.854 "/>
<polyline clip-path="url(#clip512)" style="stroke:#ff0000; stroke-linecap:round; stroke-linejoin:round; stroke-width:15.6; stroke-opacity:1; fill:none" points="2648.34,318.854 2914.44,318.854 "/>
<polyline clip-path="url(#clip512)" style="stroke:#000000; stroke-linecap:round; stroke-linejoin:round; stroke-width:15.6; stroke-opacity:1; fill:none" points="4060.72,318.854 4059.6,293.822 4056.25,269.064 4050.71,244.852 4043.03,221.45 4033.3,199.116 4021.63,178.094 4008.15,158.613 3993,140.889 3976.35,125.114 3958.38,111.462 3939.29,100.082 3919.28,91.0988 3898.59,84.6112 3877.43,80.6899 3856.03,79.378 3834.63,80.6899 3813.47,84.6112 3792.78,91.0988 3772.77,100.082 3753.68,111.462 3735.72,125.114 3719.06,140.889 3703.91,158.613 3690.43,178.094 3678.76,199.116 3669.03,221.45 3661.36,244.852 3655.81,269.064 3652.46,293.822 3651.34,318.854 3652.46,343.886 3655.81,368.644 3661.36,392.856 3669.03,416.258 3678.76,438.592 3690.43,459.615 3703.91,479.095 3719.06,496.82 3735.72,512.594 3753.68,526.246 3772.77,537.626 3792.78,546.609 3813.47,553.097 3834.63,557.018 3856.03,558.33 3877.43,557.018 3898.59,553.097 3919.28,546.609 3939.29,537.626 3958.38,526.246 3976.35,512.594 3993,496.82 4008.15,479.095 4021.63,459.615 4033.3,438.592 4043.03,416.258 4050.71,392.856 4056.25,368.644 4059.6,343.886 4060.72,318.854 "/>
<polyline clip-path="url(#clip512)" style="stroke:#ff0000; stroke-linecap:round; stroke-linejoin:round; stroke-width:5.2; stroke-opacity:1; fill:none" stroke-dasharray="21, 13" points="3856.03,318.854 3676.49,203.85 "/>
<circle clip-path="url(#clip512)" cx="3676.49" cy="203.85" r="28.08" fill="#ff0000" fill-rule="evenodd" fill-opacity="1" stroke="#000000" stroke-opacity="1" stroke-width="2.08"/>
<polyline clip-path="url(#clip512)" style="stroke:#ff0000; stroke-linecap:round; stroke-linejoin:round; stroke-width:15.6; stroke-opacity:1; fill:none" points="3630.87,318.854 3364.77,318.854 "/>
<polyline clip-path="url(#clip512)" style="stroke:#ff0000; stroke-linecap:round; stroke-linejoin:round; stroke-width:15.6; stroke-opacity:1; fill:none" points="3454.77,363.854 3364.77,318.854 3454.77,273.854 "/>
<polyline clip-path="url(#clip512)" style="stroke:#ff0000; stroke-linecap:round; stroke-linejoin:round; stroke-width:15.6; stroke-opacity:1; fill:none" points="3364.77,318.854 3630.87,318.854 "/>
<polyline clip-path="url(#clip512)" style="stroke:#ff0000; stroke-linecap:round; stroke-linejoin:round; stroke-width:15.6; stroke-opacity:1; fill:none" points="3364.77,318.854 3630.87,318.854 "/>
<polyline clip-path="url(#clip512)" style="stroke:#ff0000; stroke-linecap:round; stroke-linejoin:round; stroke-width:15.6; stroke-opacity:1; fill:none" points="3540.87,273.854 3630.87,318.854 3540.87,363.854 "/>
<polyline clip-path="url(#clip512)" style="stroke:#ff0000; stroke-linecap:round; stroke-linejoin:round; stroke-width:15.6; stroke-opacity:1; fill:none" points="3630.87,318.854 3364.77,318.854 "/>
<polyline clip-path="url(#clip512)" style="stroke:#000000; stroke-linecap:round; stroke-linejoin:round; stroke-width:15.6; stroke-opacity:1; fill:none" points="4777.15,318.854 4776.03,293.822 4772.68,269.064 4767.13,244.852 4759.46,221.45 4749.73,199.116 4738.06,178.094 4724.58,158.613 4709.42,140.889 4692.77,125.114 4674.81,111.462 4655.71,100.082 4635.71,91.0988 4615.02,84.6112 4593.85,80.6899 4572.46,79.378 4551.06,80.6899 4529.9,84.6112 4509.2,91.0988 4489.2,100.082 4470.11,111.462 4452.14,125.114 4435.49,140.889 4420.34,158.613 4406.86,178.094 4395.19,199.116 4385.46,221.45 4377.78,244.852 4372.24,269.064 4368.89,293.822 4367.76,318.854 4368.89,343.886 4372.24,368.644 4377.78,392.856 4385.46,416.258 4395.19,438.592 4406.86,459.615 4420.34,479.095 4435.49,496.82 4452.14,512.594 4470.11,526.246 4489.2,537.626 4509.2,546.609 4529.9,553.097 4551.06,557.018 4572.46,558.33 4593.85,557.018 4615.02,553.097 4635.71,546.609 4655.71,537.626 4674.81,526.246 4692.77,512.594 4709.42,496.82 4724.58,479.095 4738.06,459.615 4749.73,438.592 4759.46,416.258 4767.13,392.856 4772.68,368.644 4776.03,343.886 4777.15,318.854 "/>
<polyline clip-path="url(#clip512)" style="stroke:#ff0000; stroke-linecap:round; stroke-linejoin:round; stroke-width:5.2; stroke-opacity:1; fill:none" stroke-dasharray="21, 13" points="4572.46,318.854 4402.12,186.053 "/>
<circle clip-path="url(#clip512)" cx="4402.12" cy="186.053" r="28.08" fill="#ff0000" fill-rule="evenodd" fill-opacity="1" stroke="#000000" stroke-opacity="1" stroke-width="2.08"/>
<polyline clip-path="url(#clip512)" style="stroke:#ff0000; stroke-linecap:round; stroke-linejoin:round; stroke-width:15.6; stroke-opacity:1; fill:none" points="4347.3,318.854 4081.19,318.854 "/>
<polyline clip-path="url(#clip512)" style="stroke:#ff0000; stroke-linecap:round; stroke-linejoin:round; stroke-width:15.6; stroke-opacity:1; fill:none" points="4171.19,363.854 4081.19,318.854 4171.19,273.854 "/>
<polyline clip-path="url(#clip512)" style="stroke:#ff0000; stroke-linecap:round; stroke-linejoin:round; stroke-width:15.6; stroke-opacity:1; fill:none" points="4081.19,318.854 4347.3,318.854 "/>
<polyline clip-path="url(#clip512)" style="stroke:#ff0000; stroke-linecap:round; stroke-linejoin:round; stroke-width:15.6; stroke-opacity:1; fill:none" points="4081.19,318.854 4347.3,318.854 "/>
<polyline clip-path="url(#clip512)" style="stroke:#ff0000; stroke-linecap:round; stroke-linejoin:round; stroke-width:15.6; stroke-opacity:1; fill:none" points="4257.3,273.854 4347.3,318.854 4257.3,363.854 "/>
<polyline clip-path="url(#clip512)" style="stroke:#ff0000; stroke-linecap:round; stroke-linejoin:round; stroke-width:15.6; stroke-opacity:1; fill:none" points="4347.3,318.854 4081.19,318.854 "/>
<polyline clip-path="url(#clip512)" style="stroke:#000000; stroke-linecap:round; stroke-linejoin:round; stroke-width:15.6; stroke-opacity:1; fill:none" points="5493.58,318.854 5492.46,293.822 5489.11,269.064 5483.56,244.852 5475.88,221.45 5466.16,199.116 5454.49,178.094 5441,158.613 5425.85,140.889 5409.2,125.114 5391.23,111.462 5372.14,100.082 5352.14,91.0988 5331.44,84.6112 5310.28,80.6899 5288.89,79.378 5267.49,80.6899 5246.33,84.6112 5225.63,91.0988 5205.63,100.082 5186.54,111.462 5168.57,125.114 5151.92,140.889 5136.77,158.613 5123.28,178.094 5111.62,199.116 5101.89,221.45 5094.21,244.852 5088.67,269.064 5085.31,293.822 5084.19,318.854 5085.31,343.886 5088.67,368.644 5094.21,392.856 5101.89,416.258 5111.62,438.592 5123.28,459.615 5136.77,479.095 5151.92,496.82 5168.57,512.594 5186.54,526.246 5205.63,537.626 5225.63,546.609 5246.33,553.097 5267.49,557.018 5288.89,558.33 5310.28,557.018 5331.44,553.097 5352.14,546.609 5372.14,537.626 5391.23,526.246 5409.2,512.594 5425.85,496.82 5441,479.095 5454.49,459.615 5466.16,438.592 5475.88,416.258 5483.56,392.856 5489.11,368.644 5492.46,343.886 5493.58,318.854 "/>
<polyline clip-path="url(#clip512)" style="stroke:#ff0000; stroke-linecap:round; stroke-linejoin:round; stroke-width:5.2; stroke-opacity:1; fill:none" stroke-dasharray="21, 13" points="5288.89,318.854 5140.5,153.893 "/>
<circle clip-path="url(#clip512)" cx="5140.5" cy="153.893" r="28.08" fill="#ff0000" fill-rule="evenodd" fill-opacity="1" stroke="#000000" stroke-opacity="1" stroke-width="2.08"/>
<polyline clip-path="url(#clip512)" style="stroke:#ff0000; stroke-linecap:round; stroke-linejoin:round; stroke-width:15.6; stroke-opacity:1; fill:none" points="5063.72,318.854 4797.62,318.854 "/>
<polyline clip-path="url(#clip512)" style="stroke:#ff0000; stroke-linecap:round; stroke-linejoin:round; stroke-width:15.6; stroke-opacity:1; fill:none" points="4887.62,363.854 4797.62,318.854 4887.62,273.854 "/>
<polyline clip-path="url(#clip512)" style="stroke:#ff0000; stroke-linecap:round; stroke-linejoin:round; stroke-width:15.6; stroke-opacity:1; fill:none" points="4797.62,318.854 5063.72,318.854 "/>
<polyline clip-path="url(#clip512)" style="stroke:#ff0000; stroke-linecap:round; stroke-linejoin:round; stroke-width:15.6; stroke-opacity:1; fill:none" points="4797.62,318.854 5063.72,318.854 "/>
<polyline clip-path="url(#clip512)" style="stroke:#ff0000; stroke-linecap:round; stroke-linejoin:round; stroke-width:15.6; stroke-opacity:1; fill:none" points="4973.72,273.854 5063.72,318.854 4973.72,363.854 "/>
<polyline clip-path="url(#clip512)" style="stroke:#ff0000; stroke-linecap:round; stroke-linejoin:round; stroke-width:15.6; stroke-opacity:1; fill:none" points="5063.72,318.854 4797.62,318.854 "/>
<polyline clip-path="url(#clip512)" style="stroke:#ff0000; stroke-linecap:round; stroke-linejoin:round; stroke-width:15.6; stroke-opacity:1; fill:none" stroke-dasharray="62, 39" points="499.058,318.854 765.159,318.854 "/>
<polyline clip-path="url(#clip512)" style="stroke:#ff0000; stroke-linecap:round; stroke-linejoin:round; stroke-width:15.6; stroke-opacity:1; fill:none" points="675.159,273.854 765.159,318.854 675.159,363.854 "/>
<polyline clip-path="url(#clip512)" style="stroke:#ff0000; stroke-linecap:round; stroke-linejoin:round; stroke-width:15.6; stroke-opacity:1; fill:none" stroke-dasharray="62, 39" points="765.159,318.854 499.058,318.854 "/>
<polyline clip-path="url(#clip512)" style="stroke:#ff0000; stroke-linecap:round; stroke-linejoin:round; stroke-width:15.6; stroke-opacity:1; fill:none" points="5780.15,318.854 5514.05,318.854 "/>
<polyline clip-path="url(#clip512)" style="stroke:#ff0000; stroke-linecap:round; stroke-linejoin:round; stroke-width:15.6; stroke-opacity:1; fill:none" points="5604.05,363.854 5514.05,318.854 5604.05,273.854 "/>
<polyline clip-path="url(#clip512)" style="stroke:#ff0000; stroke-linecap:round; stroke-linejoin:round; stroke-width:15.6; stroke-opacity:1; fill:none" points="5514.05,318.854 5780.15,318.854 "/>
<polyline clip-path="url(#clip512)" style="stroke:#ff0000; stroke-linecap:round; stroke-linejoin:round; stroke-width:15.6; stroke-opacity:1; fill:none" stroke-dasharray="62, 39" points="499.058,318.854 499.058,678.068 5780.15,678.068 5780.15,318.854 "/>
<circle clip-path="url(#clip512)" cx="3037.26" cy="318.854" r="18.72" fill="#000000" fill-rule="evenodd" fill-opacity="1" stroke="none"/>
<circle clip-path="url(#clip512)" cx="3139.6" cy="318.854" r="18.72" fill="#000000" fill-rule="evenodd" fill-opacity="1" stroke="none"/>
<circle clip-path="url(#clip512)" cx="3241.95" cy="318.854" r="18.72" fill="#000000" fill-rule="evenodd" fill-opacity="1" stroke="none"/>
<path clip-path="url(#clip510)" d="M1067.33 296.829 L1033.78 296.829 Q1034.57 312.575 1038.21 319.263 Q1042.74 327.478 1050.58 327.478 Q1058.48 327.478 1062.85 319.21 Q1066.7 311.943 1067.33 296.829 M1067.17 287.876 Q1065.7 272.92 1062.85 267.654 Q1058.32 259.333 1050.58 259.333 Q1042.52 259.333 1038.26 267.549 Q1034.89 274.184 1033.89 287.876 L1067.17 287.876 M1050.58 251.434 Q1063.22 251.434 1070.44 262.599 Q1077.65 273.71 1077.65 293.406 Q1077.65 313.048 1070.44 324.213 Q1063.22 335.43 1050.58 335.43 Q1037.89 335.43 1030.73 324.213 Q1023.51 313.048 1023.51 293.406 Q1023.51 273.71 1030.73 262.599 Q1037.89 251.434 1050.58 251.434 Z" fill="#ff0000" fill-rule="nonzero" fill-opacity="1" /><path clip-path="url(#clip510)" d="M1091.76 328.426 L1102.51 328.426 L1102.51 296.249 L1090.76 298.409 L1090.76 292.3 L1102.87 290.246 L1110.09 290.246 L1110.09 328.426 L1120.89 328.426 L1120.89 334.219 L1091.76 334.219 L1091.76 328.426 Z" fill="#ff0000" fill-rule="nonzero" fill-opacity="1" /><path clip-path="url(#clip510)" d="M1784.2 296.829 L1750.66 296.829 Q1751.45 312.575 1755.08 319.263 Q1759.61 327.478 1767.46 327.478 Q1775.36 327.478 1779.73 319.21 Q1783.57 311.943 1784.2 296.829 M1784.05 287.876 Q1782.57 272.92 1779.73 267.654 Q1775.2 259.333 1767.46 259.333 Q1759.4 259.333 1755.13 267.549 Q1751.76 274.184 1750.76 287.876 L1784.05 287.876 M1767.46 251.434 Q1780.1 251.434 1787.31 262.599 Q1794.52 273.71 1794.52 293.406 Q1794.52 313.048 1787.31 324.213 Q1780.1 335.43 1767.46 335.43 Q1754.77 335.43 1747.6 324.213 Q1740.39 313.048 1740.39 293.406 Q1740.39 273.71 1747.6 262.599 Q1754.77 251.434 1767.46 251.434 Z" fill="#ff0000" fill-rule="nonzero" fill-opacity="1" /><path clip-path="url(#clip510)" d="M1814.54 328.215 L1836.86 328.215 L1836.86 334.219 L1805.37 334.219 L1805.37 328.426 Q1807.16 326.793 1810.48 323.844 Q1828.6 307.782 1828.6 302.832 Q1828.6 299.356 1825.86 297.25 Q1823.12 295.091 1818.64 295.091 Q1815.91 295.091 1812.69 296.039 Q1809.48 296.934 1805.69 298.777 L1805.69 292.3 Q1809.74 290.825 1813.22 290.088 Q1816.75 289.351 1819.75 289.351 Q1827.39 289.351 1831.97 292.826 Q1836.55 296.302 1836.55 301.99 Q1836.55 309.309 1819.12 324.265 Q1816.17 326.793 1814.54 328.215 Z" fill="#ff0000" fill-rule="nonzero" fill-opacity="1" /><path clip-path="url(#clip510)" d="M2499.97 296.829 L2466.43 296.829 Q2467.22 312.575 2470.85 319.263 Q2475.38 327.478 2483.23 327.478 Q2491.12 327.478 2495.5 319.21 Q2499.34 311.943 2499.97 296.829 M2499.81 287.876 Q2498.34 272.92 2495.5 267.654 Q2490.97 259.333 2483.23 259.333 Q2475.17 259.333 2470.9 267.549 Q2467.53 274.184 2466.53 287.876 L2499.81 287.876 M2483.23 251.434 Q2495.86 251.434 2503.08 262.599 Q2510.29 273.71 2510.29 293.406 Q2510.29 313.048 2503.08 324.213 Q2495.86 335.43 2483.23 335.43 Q2470.53 335.43 2463.37 324.213 Q2456.16 313.048 2456.16 293.406 Q2456.16 273.71 2463.37 262.599 Q2470.53 251.434 2483.23 251.434 Z" fill="#ff0000" fill-rule="nonzero" fill-opacity="1" /><path clip-path="url(#clip510)" d="M2543.79 310.415 Q2548.63 311.363 2551.26 314.26 Q2553.95 317.103 2553.95 321.422 Q2553.95 327.952 2548.95 331.48 Q2543.94 335.008 2534.62 335.008 Q2531.62 335.008 2528.3 334.429 Q2525.04 333.903 2521.35 332.849 L2521.35 326.477 Q2524.09 327.899 2527.2 328.584 Q2530.36 329.268 2533.89 329.268 Q2539.63 329.268 2542.79 327.214 Q2545.95 325.108 2545.95 321.422 Q2545.95 317.525 2543 315.524 Q2540.1 313.522 2534.41 313.522 L2529.88 313.522 L2529.88 307.835 L2534.83 307.835 Q2539.78 307.835 2542.31 306.202 Q2544.89 304.517 2544.89 301.358 Q2544.89 298.303 2542.26 296.723 Q2539.63 295.091 2534.62 295.091 Q2532.52 295.091 2529.83 295.565 Q2527.15 296.039 2522.88 297.25 L2522.88 291.194 Q2526.72 290.299 2530.09 289.825 Q2533.46 289.351 2536.36 289.351 Q2543.94 289.351 2548.37 292.458 Q2552.84 295.565 2552.84 300.778 Q2552.84 304.412 2550.47 306.94 Q2548.1 309.467 2543.79 310.415 Z" fill="#ff0000" fill-rule="nonzero" fill-opacity="1" /><path clip-path="url(#clip510)" d="M3933.06 296.829 L3899.52 296.829 Q3900.31 312.575 3903.94 319.263 Q3908.47 327.478 3916.32 327.478 Q3924.22 327.478 3928.59 319.21 Q3932.43 311.943 3933.06 296.829 M3932.91 287.876 Q3931.43 272.92 3928.59 267.654 Q3924.06 259.333 3916.32 259.333 Q3908.26 259.333 3903.99 267.549 Q3900.62 274.184 3899.62 287.876 L3932.91 287.876 M3916.32 251.434 Q3928.96 251.434 3936.17 262.599 Q3943.39 273.71 3943.39 293.406 Q3943.39 313.048 3936.17 324.213 Q3928.96 335.43 3916.32 335.43 Q3903.63 335.43 3896.46 324.213 Q3889.25 313.048 3889.25 293.406 Q3889.25 273.71 3896.46 262.599 Q3903.63 251.434 3916.32 251.434 Z" fill="#ff0000" fill-rule="nonzero" fill-opacity="1" /><path clip-path="url(#clip510)" d="M3986.57 314.26 L3986.57 334.219 L3980.46 334.219 L3980.46 314.47 Q3980.46 309.783 3978.41 307.466 Q3976.35 305.097 3972.24 305.097 Q3967.29 305.097 3964.45 307.94 Q3961.61 310.731 3961.61 315.576 L3961.61 334.219 L3955.44 334.219 L3955.44 301.2 L3961.61 301.2 L3961.61 306.308 Q3963.77 303.359 3966.71 301.884 Q3969.72 300.41 3973.61 300.41 Q3979.99 300.41 3983.25 303.938 Q3986.57 307.466 3986.57 314.26 Z" fill="#ff0000" fill-rule="nonzero" fill-opacity="1" /><path clip-path="url(#clip510)" d="M4649.49 296.829 L4615.95 296.829 Q4616.74 312.575 4620.37 319.263 Q4624.9 327.478 4632.74 327.478 Q4640.64 327.478 4645.01 319.21 Q4648.86 311.943 4649.49 296.829 M4649.33 287.876 Q4647.86 272.92 4645.01 267.654 Q4640.49 259.333 4632.74 259.333 Q4624.69 259.333 4620.42 267.549 Q4617.05 274.184 4616.05 287.876 L4649.33 287.876 M4632.74 251.434 Q4645.38 251.434 4652.6 262.599 Q4659.81 273.71 4659.81 293.406 Q4659.81 313.048 4652.6 324.213 Q4645.38 335.43 4632.74 335.43 Q4620.05 335.43 4612.89 324.213 Q4605.68 313.048 4605.68 293.406 Q4605.68 273.71 4612.89 262.599 Q4620.05 251.434 4632.74 251.434 Z" fill="#ff0000" fill-rule="nonzero" fill-opacity="1" /><path clip-path="url(#clip510)" d="M4703 314.26 L4703 334.219 L4696.89 334.219 L4696.89 314.47 Q4696.89 309.783 4694.83 307.466 Q4692.78 305.097 4688.67 305.097 Q4683.72 305.097 4680.88 307.94 Q4678.03 310.731 4678.03 315.576 L4678.03 334.219 L4671.87 334.219 L4671.87 301.2 L4678.03 301.2 L4678.03 306.308 Q4680.19 303.359 4683.14 301.884 Q4686.14 300.41 4690.04 300.41 Q4696.41 300.41 4699.68 303.938 Q4703 307.466 4703 314.26 Z" fill="#ff0000" fill-rule="nonzero" fill-opacity="1" /><path clip-path="url(#clip510)" d="M5365.92 296.829 L5332.37 296.829 Q5333.16 312.575 5336.8 319.263 Q5341.32 327.478 5349.17 327.478 Q5357.07 327.478 5361.44 319.21 Q5365.29 311.943 5365.92 296.829 M5365.76 287.876 Q5364.29 272.92 5361.44 267.654 Q5356.91 259.333 5349.17 259.333 Q5341.11 259.333 5336.85 267.549 Q5333.48 274.184 5332.48 287.876 L5365.76 287.876 M5349.17 251.434 Q5361.81 251.434 5369.03 262.599 Q5376.24 273.71 5376.24 293.406 Q5376.24 313.048 5369.03 324.213 Q5361.81 335.43 5349.17 335.43 Q5336.48 335.43 5329.32 324.213 Q5322.1 313.048 5322.1 293.406 Q5322.1 273.71 5329.32 262.599 Q5336.48 251.434 5349.17 251.434 Z" fill="#ff0000" fill-rule="nonzero" fill-opacity="1" /><path clip-path="url(#clip510)" d="M5419.42 314.26 L5419.42 334.219 L5413.31 334.219 L5413.31 314.47 Q5413.31 309.783 5411.26 307.466 Q5409.21 305.097 5405.1 305.097 Q5400.15 305.097 5397.3 307.94 Q5394.46 310.731 5394.46 315.576 L5394.46 334.219 L5388.3 334.219 L5388.3 301.2 L5394.46 301.2 L5394.46 306.308 Q5396.62 303.359 5399.57 301.884 Q5402.57 300.41 5406.47 300.41 Q5412.84 300.41 5416.1 303.938 Q5419.42 307.466 5419.42 314.26 Z" fill="#ff0000" fill-rule="nonzero" fill-opacity="1" /><path clip-path="url(#clip510)" d="M4003.1 311.611 L4015.26 311.611 L4015.26 315.312 L4003.1 315.312 L4003.1 311.611 Z" fill="#ff0000" fill-rule="nonzero" fill-opacity="1" /><path clip-path="url(#clip510)" d="M4026.39 322.286 L4042.3 322.286 L4042.3 326.123 L4020.91 326.123 L4020.91 322.286 Q4023.5 319.601 4027.97 315.087 Q4032.46 310.55 4033.61 309.241 Q4035.8 306.781 4036.66 305.088 Q4037.54 303.373 4037.54 301.726 Q4037.54 299.04 4035.64 297.347 Q4033.77 295.654 4030.75 295.654 Q4028.6 295.654 4026.21 296.399 Q4023.84 297.144 4021.13 298.656 L4021.13 294.052 Q4023.89 292.946 4026.28 292.382 Q4028.67 291.818 4030.66 291.818 Q4035.89 291.818 4039.01 294.436 Q4042.12 297.054 4042.12 301.432 Q4042.12 303.509 4041.33 305.382 Q4040.56 307.233 4038.51 309.76 Q4037.95 310.415 4034.92 313.552 Q4031.9 316.667 4026.39 322.286 Z" fill="#ff0000" fill-rule="nonzero" fill-opacity="1" /><path clip-path="url(#clip510)" d="M4719.17 311.611 L4731.33 311.611 L4731.33 315.312 L4719.17 315.312 L4719.17 311.611 Z" fill="#ff0000" fill-rule="nonzero" fill-opacity="1" /><path clip-path="url(#clip510)" d="M4739.32 322.286 L4746.77 322.286 L4746.77 296.58 L4738.67 298.205 L4738.67 294.052 L4746.72 292.427 L4751.28 292.427 L4751.28 322.286 L4758.73 322.286 L4758.73 326.123 L4739.32 326.123 L4739.32 322.286 Z" fill="#ff0000" fill-rule="nonzero" fill-opacity="1" /></svg>
