<?xml version="1.0" encoding="utf-8"?>
<svg xmlns="http://www.w3.org/2000/svg" xmlns:xlink="http://www.w3.org/1999/xlink" width="1500" height="450" viewBox="0 0 6000 1800">
<defs>
  <clipPath id="clip670">
    <rect x="0" y="0" width="6000" height="1800"/>
  </clipPath>
</defs>
<path clip-path="url(#clip670)" d="M0 1800 L6000 1800 L6000 0 L0 0  Z" fill="#ffffff" fill-rule="evenodd" fill-opacity="1"/>
<defs>
  <clipPath id="clip671">
    <rect x="1200" y="0" width="4201" height="1800"/>
  </clipPath>
</defs>
<path clip-path="url(#clip670)" d="M519.6 1477.3 L1916.99 1477.3 L1916.99 70.8661 L519.6 70.8661  Z" fill="#ffffff" fill-rule="evenodd" fill-opacity="1"/>
<defs>
  <clipPath id="clip672">
    <rect x="519" y="70" width="1398" height="1407"/>
  </clipPath>
</defs>
<polyline clip-path="url(#clip672)" style="stroke:#000000; stroke-linecap:round; stroke-linejoin:round; stroke-width:3; stroke-opacity:0.1; fill:none" points="669.006,1477.3 669.006,70.8661 "/>
<polyline clip-path="url(#clip672)" style="stroke:#000000; stroke-linecap:round; stroke-linejoin:round; stroke-width:3; stroke-opacity:0.1; fill:none" points="943.65,1477.3 943.65,70.8661 "/>
<polyline clip-path="url(#clip672)" style="stroke:#000000; stroke-linecap:round; stroke-linejoin:round; stroke-width:3; stroke-opacity:0.1; fill:none" points="1218.29,1477.3 1218.29,70.8661 "/>
<polyline clip-path="url(#clip672)" style="stroke:#000000; stroke-linecap:round; stroke-linejoin:round; stroke-width:3; stroke-opacity:0.1; fill:none" points="1492.94,1477.3 1492.94,70.8661 "/>
<polyline clip-path="url(#clip672)" style="stroke:#000000; stroke-linecap:round; stroke-linejoin:round; stroke-width:3; stroke-opacity:0.1; fill:none" points="1767.58,1477.3 1767.58,70.8661 "/>
<polyline clip-path="url(#clip672)" style="stroke:#000000; stroke-linecap:round; stroke-linejoin:round; stroke-width:3; stroke-opacity:0.1; fill:none" points="519.6,1326.92 1916.99,1326.92 "/>
<polyline clip-path="url(#clip672)" style="stroke:#000000; stroke-linecap:round; stroke-linejoin:round; stroke-width:3; stroke-opacity:0.1; fill:none" points="519.6,1050.5 1916.99,1050.5 "/>
<polyline clip-path="url(#clip672)" style="stroke:#000000; stroke-linecap:round; stroke-linejoin:round; stroke-width:3; stroke-opacity:0.1; fill:none" points="519.6,774.081 1916.99,774.081 "/>
<polyline clip-path="url(#clip672)" style="stroke:#000000; stroke-linecap:round; stroke-linejoin:round; stroke-width:3; stroke-opacity:0.1; fill:none" points="519.6,497.66 1916.99,497.66 "/>
<polyline clip-path="url(#clip672)" style="stroke:#000000; stroke-linecap:round; stroke-linejoin:round; stroke-width:3; stroke-opacity:0.1; fill:none" points="519.6,221.239 1916.99,221.239 "/>
<polyline clip-path="url(#clip672)" style="stroke:#009af9; stroke-linecap:round; stroke-linejoin:round; stroke-width:18; stroke-opacity:1; fill:none" points="1767.58,774.081 1764.57,716.293 1755.58,659.139 1740.7,603.243 1720.09,549.22 1693.99,497.66 1662.68,449.129 1626.49,404.158 1585.84,363.239 1541.16,326.822 1492.94,295.306 1441.71,269.035 1388.03,248.297 1332.5,233.32 1275.71,224.268 1218.29,221.239 1160.88,224.268 1104.09,233.32 1048.55,248.297 994.878,269.035 943.65,295.306 895.43,326.822 850.749,363.239 810.093,404.158 773.911,449.129 742.597,497.66 716.495,549.22 695.89,603.243 681.009,659.139 672.015,716.293 669.006,774.081 672.015,831.869 681.009,889.023 695.89,944.918 716.495,998.942 742.597,1050.5 773.911,1099.03 810.093,1144 850.749,1184.92 895.43,1221.34 943.65,1252.86 994.878,1279.13 1048.55,1299.86 1104.09,1314.84 1160.88,1323.89 1218.29,1326.92 1275.71,1323.89 1332.5,1314.84 1388.03,1299.86 1441.71,1279.13 1492.94,1252.86 1541.16,1221.34 1585.84,1184.92 1626.49,1144 1662.68,1099.03 1693.99,1050.5 1720.09,998.942 1740.7,944.918 1755.58,889.023 1764.57,831.869 1767.58,774.081 "/>
<polyline clip-path="url(#clip672)" style="stroke:#000000; stroke-linecap:round; stroke-linejoin:round; stroke-width:6; stroke-opacity:1; fill:none" stroke-dasharray="24, 15" points="559.149,774.081 1877.44,774.081 "/>
<polyline clip-path="url(#clip672)" style="stroke:#000000; stroke-linecap:round; stroke-linejoin:round; stroke-width:6; stroke-opacity:1; fill:none" stroke-dasharray="24, 15" points="1218.29,1437.49 1218.29,110.671 "/>
<polyline clip-path="url(#clip672)" style="stroke:#ff0000; stroke-linecap:round; stroke-linejoin:round; stroke-width:6; stroke-opacity:1; fill:none" stroke-dasharray="24, 15" points="1218.29,774.081 1693.99,497.66 "/>
<circle clip-path="url(#clip672)" cx="1693.99" cy="497.66" r="32.4" fill="#ff0000" fill-rule="evenodd" fill-opacity="1" stroke="#000000" stroke-opacity="1" stroke-width="5.4"/>
<polyline clip-path="url(#clip672)" style="stroke:#ff0000; stroke-linecap:round; stroke-linejoin:round; stroke-width:18; stroke-opacity:1; fill:none" points="1765.34,456.197 1729.33,400.386 1687.72,348.669 1640.97,301.613 1589.59,259.734 "/>
<polyline clip-path="url(#clip672)" style="stroke:#ff0000; stroke-linecap:round; stroke-linejoin:round; stroke-width:18; stroke-opacity:1; fill:none" points="1630.92,351.475 1589.59,259.734 1687.78,281.711 "/>
<polyline clip-path="url(#clip672)" style="stroke:#ff0000; stroke-linecap:round; stroke-linejoin:round; stroke-width:18; stroke-opacity:1; fill:none" points="1589.59,259.734 1640.97,301.613 "/>
<path clip-path="url(#clip670)" d="M1457.33 721.015 L1418.62 721.015 Q1419.54 739.183 1423.73 746.9 Q1428.95 756.379 1438.01 756.379 Q1447.12 756.379 1452.17 746.839 Q1456.6 738.454 1457.33 721.015 M1457.15 710.685 Q1455.45 693.428 1452.17 687.352 Q1446.94 677.751 1438.01 677.751 Q1428.71 677.751 1423.79 687.23 Q1419.9 694.886 1418.75 710.685 L1457.15 710.685 M1438.01 668.636 Q1452.59 668.636 1460.92 681.518 Q1469.24 694.339 1469.24 717.065 Q1469.24 739.73 1460.92 752.612 Q1452.59 765.554 1438.01 765.554 Q1423.36 765.554 1415.1 752.612 Q1406.78 739.73 1406.78 717.065 Q1406.78 694.339 1415.1 681.518 Q1423.36 668.636 1438.01 668.636 Z" fill="#ff0000" fill-rule="nonzero" fill-opacity="1" /><path clip-path="url(#clip670)" d="M488.673 64.9438 Q477.059 64.9438 472.58 67.6 Q468.1 70.2563 468.1 76.6625 Q468.1 81.7666 471.434 84.7875 Q474.819 87.7562 480.6 87.7562 Q488.569 87.7562 493.361 82.1312 Q498.204 76.4542 498.204 67.0792 L498.204 64.9438 L488.673 64.9438 M507.788 60.9855 L507.788 94.2666 L498.204 94.2666 L498.204 85.4125 Q494.923 90.7249 490.027 93.277 Q485.132 95.777 478.048 95.777 Q469.09 95.777 463.778 90.777 Q458.517 85.725 458.517 77.2875 Q458.517 67.4438 465.08 62.4438 Q471.694 57.4439 484.767 57.4439 L498.204 57.4439 L498.204 56.5064 Q498.204 49.8918 493.829 46.2981 Q489.507 42.6523 481.642 42.6523 Q476.642 42.6523 471.903 43.8502 Q467.163 45.0481 462.788 47.4439 L462.788 38.5898 Q468.048 36.5585 472.996 35.569 Q477.944 34.5273 482.632 34.5273 Q495.288 34.5273 501.538 41.0898 Q507.788 47.6522 507.788 60.9855 Z" fill="#000000" fill-rule="nonzero" fill-opacity="1" /><path clip-path="url(#clip670)" d="M526.017 13.3295 L534.35 13.3295 Q542.163 25.6211 546.017 37.3919 Q549.923 49.1626 549.923 60.7772 Q549.923 72.4438 546.017 84.2666 Q542.163 96.0895 534.35 108.329 L526.017 108.329 Q532.944 96.402 536.329 84.6312 Q539.767 72.8084 539.767 60.7772 Q539.767 48.746 536.329 37.0273 Q532.944 25.3086 526.017 13.3295 Z" fill="#000000" fill-rule="nonzero" fill-opacity="1" /><path clip-path="url(#clip670)" d="M2494.09 1477.3 L3891.47 1477.3 L3891.47 70.8661 L2494.09 70.8661  Z" fill="#ffffff" fill-rule="evenodd" fill-opacity="1"/>
<defs>
  <clipPath id="clip673">
    <rect x="2494" y="70" width="1398" height="1407"/>
  </clipPath>
</defs>
<polyline clip-path="url(#clip673)" style="stroke:#000000; stroke-linecap:round; stroke-linejoin:round; stroke-width:3; stroke-opacity:0.1; fill:none" points="2494.09,1477.3 2494.09,70.8661 "/>
<polyline clip-path="url(#clip673)" style="stroke:#000000; stroke-linecap:round; stroke-linejoin:round; stroke-width:3; stroke-opacity:0.1; fill:none" points="3192.78,1477.3 3192.78,70.8661 "/>
<polyline clip-path="url(#clip673)" style="stroke:#000000; stroke-linecap:round; stroke-linejoin:round; stroke-width:3; stroke-opacity:0.1; fill:none" points="3891.47,1477.3 3891.47,70.8661 "/>
<polyline clip-path="url(#clip673)" style="stroke:#000000; stroke-linecap:round; stroke-linejoin:round; stroke-width:3; stroke-opacity:0.1; fill:none" points="2494.09,1477.3 3891.47,1477.3 "/>
<polyline clip-path="url(#clip673)" style="stroke:#000000; stroke-linecap:round; stroke-linejoin:round; stroke-width:3; stroke-opacity:0.1; fill:none" points="2494.09,1008.49 3891.47,1008.49 "/>
<polyline clip-path="url(#clip673)" style="stroke:#000000; stroke-linecap:round; stroke-linejoin:round; stroke-width:3; stroke-opacity:0.1; fill:none" points="2494.09,539.676 3891.47,539.676 "/>
<polyline clip-path="url(#clip673)" style="stroke:#000000; stroke-linecap:round; stroke-linejoin:round; stroke-width:3; stroke-opacity:0.1; fill:none" points="2494.09,70.8661 3891.47,70.8661 "/>
<polyline clip-path="url(#clip670)" style="stroke:#000000; stroke-linecap:round; stroke-linejoin:round; stroke-width:6; stroke-opacity:1; fill:none" points="2494.09,1477.3 3891.47,1477.3 "/>
<polyline clip-path="url(#clip670)" style="stroke:#000000; stroke-linecap:round; stroke-linejoin:round; stroke-width:6; stroke-opacity:1; fill:none" points="2494.09,1477.3 2494.09,1458.4 "/>
<polyline clip-path="url(#clip670)" style="stroke:#000000; stroke-linecap:round; stroke-linejoin:round; stroke-width:6; stroke-opacity:1; fill:none" points="3192.78,1477.3 3192.78,1458.4 "/>
<polyline clip-path="url(#clip670)" style="stroke:#000000; stroke-linecap:round; stroke-linejoin:round; stroke-width:6; stroke-opacity:1; fill:none" points="3891.47,1477.3 3891.47,1458.4 "/>
<path clip-path="url(#clip670)" d="M2494.09 1542.87 Q2488.67 1542.87 2485.93 1548.22 Q2483.22 1553.53 2483.22 1564.23 Q2483.22 1574.89 2485.93 1580.23 Q2488.67 1585.55 2494.09 1585.55 Q2499.54 1585.55 2502.24 1580.23 Q2504.99 1574.89 2504.99 1564.23 Q2504.99 1553.53 2502.24 1548.22 Q2499.54 1542.87 2494.09 1542.87 M2494.09 1537.32 Q2502.8 1537.32 2507.38 1544.23 Q2512 1551.1 2512 1564.23 Q2512 1577.32 2507.38 1584.23 Q2502.8 1591.1 2494.09 1591.1 Q2485.37 1591.1 2480.75 1584.23 Q2476.17 1577.32 2476.17 1564.23 Q2476.17 1551.1 2480.75 1544.23 Q2485.37 1537.32 2494.09 1537.32 Z" fill="#000000" fill-rule="nonzero" fill-opacity="1" /><path clip-path="url(#clip670)" d="M3173.65 1551.21 L3210.9 1551.21 L3210.9 1557.6 L3206.01 1557.6 L3206.01 1581.48 Q3206.01 1583.98 3206.84 1585.1 Q3207.71 1586.17 3209.62 1586.17 Q3210.14 1586.17 3210.9 1586.1 Q3211.67 1586 3211.91 1585.96 L3211.91 1590.58 Q3210.7 1591.03 3209.41 1591.24 Q3208.13 1591.45 3206.84 1591.45 Q3202.67 1591.45 3201.08 1589.19 Q3199.48 1586.9 3199.48 1580.79 L3199.48 1557.6 L3185.14 1557.6 L3185.14 1590.1 L3178.61 1590.1 L3178.61 1557.6 L3173.65 1557.6 L3173.65 1551.21 Z" fill="#000000" fill-rule="nonzero" fill-opacity="1" /><path clip-path="url(#clip670)" d="M3859.48 1584.19 L3883.95 1584.19 L3883.95 1590.1 L3851.04 1590.1 L3851.04 1584.19 Q3855.03 1580.06 3861.91 1573.12 Q3868.82 1566.14 3870.59 1564.12 Q3873.95 1560.34 3875.27 1557.73 Q3876.63 1555.1 3876.63 1552.56 Q3876.63 1548.43 3873.71 1545.82 Q3870.83 1543.22 3866.18 1543.22 Q3862.88 1543.22 3859.2 1544.37 Q3855.55 1545.51 3851.39 1547.84 L3851.39 1540.76 Q3855.62 1539.05 3859.3 1538.19 Q3862.98 1537.32 3866.04 1537.32 Q3874.09 1537.32 3878.89 1541.35 Q3883.68 1545.37 3883.68 1552.11 Q3883.68 1555.3 3882.46 1558.19 Q3881.28 1561.03 3878.12 1564.92 Q3877.25 1565.93 3872.6 1570.76 Q3867.95 1575.55 3859.48 1584.19 Z" fill="#000000" fill-rule="nonzero" fill-opacity="1" /><path clip-path="url(#clip670)" d="M3893.64 1551.21 L3930.9 1551.21 L3930.9 1557.6 L3926 1557.6 L3926 1581.48 Q3926 1583.98 3926.84 1585.1 Q3927.7 1586.17 3929.61 1586.17 Q3930.13 1586.17 3930.9 1586.1 Q3931.66 1586 3931.91 1585.96 L3931.91 1590.58 Q3930.69 1591.03 3929.41 1591.24 Q3928.12 1591.45 3926.84 1591.45 Q3922.67 1591.45 3921.07 1589.19 Q3919.48 1586.9 3919.48 1580.79 L3919.48 1557.6 L3905.14 1557.6 L3905.14 1590.1 L3898.61 1590.1 L3898.61 1557.6 L3893.64 1557.6 L3893.64 1551.21 Z" fill="#000000" fill-rule="nonzero" fill-opacity="1" /><path clip-path="url(#clip670)" d="M3207.96 1696.69 L3177.55 1696.69 Q3178.26 1710.97 3181.56 1717.03 Q3185.66 1724.48 3192.78 1724.48 Q3199.94 1724.48 3203.9 1716.98 Q3207.39 1710.4 3207.96 1696.69 M3207.82 1688.58 Q3206.48 1675.02 3203.9 1670.24 Q3199.8 1662.7 3192.78 1662.7 Q3185.47 1662.7 3181.61 1670.15 Q3178.55 1676.16 3177.64 1688.58 L3207.82 1688.58 M3192.78 1655.54 Q3204.24 1655.54 3210.78 1665.66 Q3217.32 1675.74 3217.32 1693.59 Q3217.32 1711.4 3210.78 1721.52 Q3204.24 1731.69 3192.78 1731.69 Q3181.27 1731.69 3174.78 1721.52 Q3168.24 1711.4 3168.24 1693.59 Q3168.24 1675.74 3174.78 1665.66 Q3181.27 1655.54 3192.78 1655.54 Z" fill="#000000" fill-rule="nonzero" fill-opacity="1" /><polyline clip-path="url(#clip670)" style="stroke:#000000; stroke-linecap:round; stroke-linejoin:round; stroke-width:6; stroke-opacity:1; fill:none" points="2494.09,1477.3 2494.09,70.8661 "/>
<polyline clip-path="url(#clip670)" style="stroke:#000000; stroke-linecap:round; stroke-linejoin:round; stroke-width:6; stroke-opacity:1; fill:none" points="2494.09,1477.3 2512.98,1477.3 "/>
<polyline clip-path="url(#clip670)" style="stroke:#000000; stroke-linecap:round; stroke-linejoin:round; stroke-width:6; stroke-opacity:1; fill:none" points="2494.09,1008.49 2512.98,1008.49 "/>
<polyline clip-path="url(#clip670)" style="stroke:#000000; stroke-linecap:round; stroke-linejoin:round; stroke-width:6; stroke-opacity:1; fill:none" points="2494.09,539.676 2512.98,539.676 "/>
<polyline clip-path="url(#clip670)" style="stroke:#000000; stroke-linecap:round; stroke-linejoin:round; stroke-width:6; stroke-opacity:1; fill:none" points="2494.09,70.8661 2512.98,70.8661 "/>
<path clip-path="url(#clip670)" d="M2318.32 1455.99 Q2312.91 1455.99 2310.16 1461.34 Q2307.45 1466.65 2307.45 1477.35 Q2307.45 1488.01 2310.16 1493.35 Q2312.91 1498.67 2318.32 1498.67 Q2323.77 1498.67 2326.48 1493.35 Q2329.22 1488.01 2329.22 1477.35 Q2329.22 1466.65 2326.48 1461.34 Q2323.77 1455.99 2318.32 1455.99 M2318.32 1450.44 Q2327.04 1450.44 2331.62 1457.35 Q2336.24 1464.22 2336.24 1477.35 Q2336.24 1490.44 2331.62 1497.35 Q2327.04 1504.22 2318.32 1504.22 Q2309.61 1504.22 2304.99 1497.35 Q2300.41 1490.44 2300.41 1477.35 Q2300.41 1464.22 2304.99 1457.35 Q2309.61 1450.44 2318.32 1450.44 Z" fill="#000000" fill-rule="nonzero" fill-opacity="1" /><path clip-path="url(#clip670)" d="M2348.56 1494.4 L2355.89 1494.4 L2355.89 1503.22 L2348.56 1503.22 L2348.56 1494.4 Z" fill="#000000" fill-rule="nonzero" fill-opacity="1" /><path clip-path="url(#clip670)" d="M2386.17 1455.99 Q2380.75 1455.99 2378.01 1461.34 Q2375.3 1466.65 2375.3 1477.35 Q2375.3 1488.01 2378.01 1493.35 Q2380.75 1498.67 2386.17 1498.67 Q2391.62 1498.67 2394.33 1493.35 Q2397.07 1488.01 2397.07 1477.35 Q2397.07 1466.65 2394.33 1461.34 Q2391.62 1455.99 2386.17 1455.99 M2386.17 1450.44 Q2394.88 1450.44 2399.47 1457.35 Q2404.09 1464.22 2404.09 1477.35 Q2404.09 1490.44 2399.47 1497.35 Q2394.88 1504.22 2386.17 1504.22 Q2377.45 1504.22 2372.84 1497.35 Q2368.25 1490.44 2368.25 1477.35 Q2368.25 1464.22 2372.84 1457.35 Q2377.45 1450.44 2386.17 1450.44 Z" fill="#000000" fill-rule="nonzero" fill-opacity="1" /><path clip-path="url(#clip670)" d="M2319.81 987.184 Q2314.4 987.184 2311.66 992.531 Q2308.95 997.843 2308.95 1008.54 Q2308.95 1019.2 2311.66 1024.54 Q2314.4 1029.86 2319.81 1029.86 Q2325.27 1029.86 2327.97 1024.54 Q2330.72 1019.2 2330.72 1008.54 Q2330.72 997.843 2327.97 992.531 Q2325.27 987.184 2319.81 987.184 M2319.81 981.628 Q2328.53 981.628 2333.11 988.538 Q2337.73 995.413 2337.73 1008.54 Q2337.73 1021.63 2333.11 1028.54 Q2328.53 1035.41 2319.81 1035.41 Q2311.1 1035.41 2306.48 1028.54 Q2301.9 1021.63 2301.9 1008.54 Q2301.9 995.413 2306.48 988.538 Q2311.1 981.628 2319.81 981.628 Z" fill="#000000" fill-rule="nonzero" fill-opacity="1" /><path clip-path="url(#clip670)" d="M2350.06 1025.59 L2357.38 1025.59 L2357.38 1034.41 L2350.06 1034.41 L2350.06 1025.59 Z" fill="#000000" fill-rule="nonzero" fill-opacity="1" /><path clip-path="url(#clip670)" d="M2372.73 982.566 L2400.27 982.566 L2400.27 988.469 L2379.15 988.469 L2379.15 1001.18 Q2380.68 1000.66 2382.21 1000.41 Q2383.74 1000.14 2385.27 1000.14 Q2393.95 1000.14 2399.02 1004.89 Q2404.09 1009.65 2404.09 1017.77 Q2404.09 1026.14 2398.88 1030.79 Q2393.67 1035.41 2384.19 1035.41 Q2380.93 1035.41 2377.52 1034.86 Q2374.15 1034.3 2370.54 1033.19 L2370.54 1026.14 Q2373.67 1027.84 2377 1028.68 Q2380.34 1029.51 2384.05 1029.51 Q2390.06 1029.51 2393.56 1026.35 Q2397.07 1023.19 2397.07 1017.77 Q2397.07 1012.36 2393.56 1009.2 Q2390.06 1006.04 2384.05 1006.04 Q2381.24 1006.04 2378.43 1006.66 Q2375.65 1007.29 2372.73 1008.61 L2372.73 982.566 Z" fill="#000000" fill-rule="nonzero" fill-opacity="1" /><path clip-path="url(#clip670)" d="M2304.54 559.693 L2316 559.693 L2316 520.145 L2303.53 522.645 L2303.53 516.256 L2315.93 513.756 L2322.94 513.756 L2322.94 559.693 L2334.4 559.693 L2334.4 565.596 L2304.54 565.596 L2304.54 559.693 Z" fill="#000000" fill-rule="nonzero" fill-opacity="1" /><path clip-path="url(#clip670)" d="M2348.56 556.777 L2355.89 556.777 L2355.89 565.596 L2348.56 565.596 L2348.56 556.777 Z" fill="#000000" fill-rule="nonzero" fill-opacity="1" /><path clip-path="url(#clip670)" d="M2386.17 518.374 Q2380.75 518.374 2378.01 523.721 Q2375.3 529.034 2375.3 539.728 Q2375.3 550.388 2378.01 555.735 Q2380.75 561.047 2386.17 561.047 Q2391.62 561.047 2394.33 555.735 Q2397.07 550.388 2397.07 539.728 Q2397.07 529.034 2394.33 523.721 Q2391.62 518.374 2386.17 518.374 M2386.17 512.818 Q2394.88 512.818 2399.47 519.728 Q2404.09 526.603 2404.09 539.728 Q2404.09 552.818 2399.47 559.728 Q2394.88 566.603 2386.17 566.603 Q2377.45 566.603 2372.84 559.728 Q2368.25 552.818 2368.25 539.728 Q2368.25 526.603 2372.84 519.728 Q2377.45 512.818 2386.17 512.818 Z" fill="#000000" fill-rule="nonzero" fill-opacity="1" /><path clip-path="url(#clip670)" d="M2306.03 90.8834 L2317.49 90.8834 L2317.49 51.335 L2305.02 53.835 L2305.02 47.4461 L2317.42 44.9461 L2324.43 44.9461 L2324.43 90.8834 L2335.89 90.8834 L2335.89 96.7861 L2306.03 96.7861 L2306.03 90.8834 Z" fill="#000000" fill-rule="nonzero" fill-opacity="1" /><path clip-path="url(#clip670)" d="M2350.06 87.9667 L2357.38 87.9667 L2357.38 96.7861 L2350.06 96.7861 L2350.06 87.9667 Z" fill="#000000" fill-rule="nonzero" fill-opacity="1" /><path clip-path="url(#clip670)" d="M2372.73 44.9461 L2400.27 44.9461 L2400.27 50.8489 L2379.15 50.8489 L2379.15 63.5572 Q2380.68 63.0363 2382.21 62.7933 Q2383.74 62.5155 2385.27 62.5155 Q2393.95 62.5155 2399.02 67.2724 Q2404.09 72.0293 2404.09 80.1543 Q2404.09 88.5223 2398.88 93.175 Q2393.67 97.7931 2384.19 97.7931 Q2380.93 97.7931 2377.52 97.2375 Q2374.15 96.682 2370.54 95.5709 L2370.54 88.5223 Q2373.67 90.2237 2377 91.057 Q2380.34 91.8903 2384.05 91.8903 Q2390.06 91.8903 2393.56 88.7306 Q2397.07 85.5709 2397.07 80.1543 Q2397.07 74.7376 2393.56 71.5779 Q2390.06 68.4182 2384.05 68.4182 Q2381.24 68.4182 2378.43 69.0432 Q2375.65 69.6682 2372.73 70.9877 L2372.73 44.9461 Z" fill="#000000" fill-rule="nonzero" fill-opacity="1" /><path clip-path="url(#clip670)" d="M2114.73 819.986 L2122.04 819.986 L2122.04 828.388 Q2122.04 833.115 2123.95 834.977 Q2125.86 836.791 2130.82 836.791 L2135.55 836.791 L2135.55 822.325 L2142.38 822.325 L2142.38 836.791 L2189.02 836.791 L2189.02 845.623 L2142.38 845.623 L2142.38 854.026 L2135.55 854.026 L2135.55 845.623 L2131.83 845.623 Q2122.9 845.623 2118.84 841.47 Q2114.73 837.316 2114.73 828.293 L2114.73 819.986 Z" fill="#000000" fill-rule="nonzero" fill-opacity="1" /><path clip-path="url(#clip670)" d="M2114.83 791.531 Q2125.81 797.928 2136.55 801.032 Q2147.29 804.135 2158.32 804.135 Q2169.35 804.135 2180.19 801.032 Q2190.98 797.881 2201.91 791.531 L2201.91 799.17 Q2190.69 806.331 2179.85 809.912 Q2169.02 813.445 2158.32 813.445 Q2147.68 813.445 2136.89 809.912 Q2126.1 806.379 2114.83 799.17 L2114.83 791.531 Z" fill="#000000" fill-rule="nonzero" fill-opacity="1" /><path clip-path="url(#clip670)" d="M2155.12 738.584 L2155.12 768.996 Q2169.4 768.28 2175.46 764.986 Q2182.91 760.88 2182.91 753.766 Q2182.91 746.605 2175.41 742.642 Q2168.83 739.157 2155.12 738.584 M2147.01 738.727 Q2133.45 740.064 2128.67 742.642 Q2121.13 746.748 2121.13 753.766 Q2121.13 761.071 2128.58 764.938 Q2134.59 767.994 2147.01 768.901 L2147.01 738.727 M2113.97 753.766 Q2113.97 742.308 2124.09 735.767 Q2134.16 729.226 2152.02 729.226 Q2169.83 729.226 2179.95 735.767 Q2190.12 742.308 2190.12 753.766 Q2190.12 765.272 2179.95 771.765 Q2169.83 778.306 2152.02 778.306 Q2134.16 778.306 2124.09 771.765 Q2113.97 765.272 2113.97 753.766 Z" fill="#000000" fill-rule="nonzero" fill-opacity="1" /><path clip-path="url(#clip670)" d="M2114.83 716.049 L2114.83 708.411 Q2126.1 701.249 2136.89 697.716 Q2147.68 694.136 2158.32 694.136 Q2169.02 694.136 2179.85 697.716 Q2190.69 701.249 2201.91 708.411 L2201.91 716.049 Q2190.98 709.7 2180.19 706.596 Q2169.35 703.445 2158.32 703.445 Q2147.29 703.445 2136.55 706.596 Q2125.81 709.7 2114.83 716.049 Z" fill="#000000" fill-rule="nonzero" fill-opacity="1" /><polyline clip-path="url(#clip673)" style="stroke:#009af9; stroke-linecap:round; stroke-linejoin:round; stroke-width:6; stroke-opacity:1; fill:none" points="2494.09,539.676 3891.47,539.676 "/>
<polyline clip-path="url(#clip673)" style="stroke:#000000; stroke-linecap:round; stroke-linejoin:round; stroke-width:6; stroke-opacity:1; fill:none" stroke-dasharray="24, 15" points="3891.47,1477.3 3891.47,539.676 "/>
<path clip-path="url(#clip670)" d="M2046.29 80.6317 Q2046.29 70.0589 2041.91 64.0693 Q2037.59 58.0277 2029.99 58.0277 Q2022.38 58.0277 2018.01 64.0693 Q2013.68 70.0589 2013.68 80.6317 Q2013.68 91.2046 2018.01 97.2462 Q2022.38 103.236 2029.99 103.236 Q2037.59 103.236 2041.91 97.2462 Q2046.29 91.2046 2046.29 80.6317 M2013.68 60.2672 Q2016.71 55.0589 2021.29 52.5589 Q2025.92 50.0069 2032.33 50.0069 Q2042.96 50.0069 2049.57 58.4443 Q2056.24 66.8818 2056.24 80.6317 Q2056.24 94.3816 2049.57 102.819 Q2042.96 111.257 2032.33 111.257 Q2025.92 111.257 2021.29 108.757 Q2016.71 106.204 2013.68 100.996 L2013.68 109.746 L2004.05 109.746 L2004.05 28.7049 L2013.68 28.7049 L2013.68 60.2672 Z" fill="#000000" fill-rule="nonzero" fill-opacity="1" /><path clip-path="url(#clip670)" d="M2070.61 28.8091 L2078.94 28.8091 Q2086.76 41.1007 2090.61 52.8714 Q2094.52 64.6422 2094.52 76.2567 Q2094.52 87.9233 2090.61 99.7462 Q2086.76 111.569 2078.94 123.809 L2070.61 123.809 Q2077.54 111.882 2080.92 100.111 Q2084.36 88.2879 2084.36 76.2567 Q2084.36 64.2256 2080.92 52.5069 Q2077.54 40.7882 2070.61 28.8091 Z" fill="#000000" fill-rule="nonzero" fill-opacity="1" /><path clip-path="url(#clip670)" d="M4531.75 1477.3 L5929.13 1477.3 L5929.13 70.8661 L4531.75 70.8661  Z" fill="#ffffff" fill-rule="evenodd" fill-opacity="1"/>
<defs>
  <clipPath id="clip674">
    <rect x="4531" y="70" width="1398" height="1407"/>
  </clipPath>
</defs>
<polyline clip-path="url(#clip674)" style="stroke:#000000; stroke-linecap:round; stroke-linejoin:round; stroke-width:3; stroke-opacity:0.1; fill:none" points="4571.3,1477.3 4571.3,70.8661 "/>
<polyline clip-path="url(#clip674)" style="stroke:#000000; stroke-linecap:round; stroke-linejoin:round; stroke-width:3; stroke-opacity:0.1; fill:none" points="4900.87,1477.3 4900.87,70.8661 "/>
<polyline clip-path="url(#clip674)" style="stroke:#000000; stroke-linecap:round; stroke-linejoin:round; stroke-width:3; stroke-opacity:0.1; fill:none" points="5230.44,1477.3 5230.44,70.8661 "/>
<polyline clip-path="url(#clip674)" style="stroke:#000000; stroke-linecap:round; stroke-linejoin:round; stroke-width:3; stroke-opacity:0.1; fill:none" points="5560.01,1477.3 5560.01,70.8661 "/>
<polyline clip-path="url(#clip674)" style="stroke:#000000; stroke-linecap:round; stroke-linejoin:round; stroke-width:3; stroke-opacity:0.1; fill:none" points="5889.59,1477.3 5889.59,70.8661 "/>
<polyline clip-path="url(#clip674)" style="stroke:#000000; stroke-linecap:round; stroke-linejoin:round; stroke-width:3; stroke-opacity:0.1; fill:none" points="4531.75,1437.49 5929.13,1437.49 "/>
<polyline clip-path="url(#clip674)" style="stroke:#000000; stroke-linecap:round; stroke-linejoin:round; stroke-width:3; stroke-opacity:0.1; fill:none" points="4531.75,1105.79 5929.13,1105.79 "/>
<polyline clip-path="url(#clip674)" style="stroke:#000000; stroke-linecap:round; stroke-linejoin:round; stroke-width:3; stroke-opacity:0.1; fill:none" points="4531.75,774.081 5929.13,774.081 "/>
<polyline clip-path="url(#clip674)" style="stroke:#000000; stroke-linecap:round; stroke-linejoin:round; stroke-width:3; stroke-opacity:0.1; fill:none" points="4531.75,442.376 5929.13,442.376 "/>
<polyline clip-path="url(#clip674)" style="stroke:#000000; stroke-linecap:round; stroke-linejoin:round; stroke-width:3; stroke-opacity:0.1; fill:none" points="4531.75,110.671 5929.13,110.671 "/>
<polyline clip-path="url(#clip670)" style="stroke:#000000; stroke-linecap:round; stroke-linejoin:round; stroke-width:6; stroke-opacity:1; fill:none" points="4531.75,1477.3 5929.13,1477.3 "/>
<polyline clip-path="url(#clip670)" style="stroke:#000000; stroke-linecap:round; stroke-linejoin:round; stroke-width:6; stroke-opacity:1; fill:none" points="4571.3,1477.3 4571.3,1458.4 "/>
<polyline clip-path="url(#clip670)" style="stroke:#000000; stroke-linecap:round; stroke-linejoin:round; stroke-width:6; stroke-opacity:1; fill:none" points="4900.87,1477.3 4900.87,1458.4 "/>
<polyline clip-path="url(#clip670)" style="stroke:#000000; stroke-linecap:round; stroke-linejoin:round; stroke-width:6; stroke-opacity:1; fill:none" points="5230.44,1477.3 5230.44,1458.4 "/>
<polyline clip-path="url(#clip670)" style="stroke:#000000; stroke-linecap:round; stroke-linejoin:round; stroke-width:6; stroke-opacity:1; fill:none" points="5560.01,1477.3 5560.01,1458.4 "/>
<polyline clip-path="url(#clip670)" style="stroke:#000000; stroke-linecap:round; stroke-linejoin:round; stroke-width:6; stroke-opacity:1; fill:none" points="5889.59,1477.3 5889.59,1458.4 "/>
<path clip-path="url(#clip670)" d="M4537.37 1542.87 Q4531.96 1542.87 4529.21 1548.22 Q4526.5 1553.53 4526.5 1564.23 Q4526.5 1574.89 4529.21 1580.23 Q4531.96 1585.55 4537.37 1585.55 Q4542.82 1585.55 4545.53 1580.23 Q4548.28 1574.89 4548.28 1564.23 Q4548.28 1553.53 4545.53 1548.22 Q4542.82 1542.87 4537.37 1542.87 M4537.37 1537.32 Q4546.09 1537.32 4550.67 1544.23 Q4555.29 1551.1 4555.29 1564.23 Q4555.29 1577.32 4550.67 1584.23 Q4546.09 1591.1 4537.37 1591.1 Q4528.66 1591.1 4524.04 1584.23 Q4519.46 1577.32 4519.46 1564.23 Q4519.46 1551.1 4524.04 1544.23 Q4528.66 1537.32 4537.37 1537.32 Z" fill="#000000" fill-rule="nonzero" fill-opacity="1" /><path clip-path="url(#clip670)" d="M4567.62 1581.28 L4574.94 1581.28 L4574.94 1590.1 L4567.62 1590.1 L4567.62 1581.28 Z" fill="#000000" fill-rule="nonzero" fill-opacity="1" /><path clip-path="url(#clip670)" d="M4605.22 1542.87 Q4599.8 1542.87 4597.06 1548.22 Q4594.35 1553.53 4594.35 1564.23 Q4594.35 1574.89 4597.06 1580.23 Q4599.8 1585.55 4605.22 1585.55 Q4610.67 1585.55 4613.38 1580.23 Q4616.12 1574.89 4616.12 1564.23 Q4616.12 1553.53 4613.38 1548.22 Q4610.67 1542.87 4605.22 1542.87 M4605.22 1537.32 Q4613.93 1537.32 4618.52 1544.23 Q4623.14 1551.1 4623.14 1564.23 Q4623.14 1577.32 4618.52 1584.23 Q4613.93 1591.1 4605.22 1591.1 Q4596.5 1591.1 4591.89 1584.23 Q4587.3 1577.32 4587.3 1564.23 Q4587.3 1551.1 4591.89 1544.23 Q4596.5 1537.32 4605.22 1537.32 Z" fill="#000000" fill-rule="nonzero" fill-opacity="1" /><path clip-path="url(#clip670)" d="M4858.47 1584.19 L4882.95 1584.19 L4882.95 1590.1 L4850.04 1590.1 L4850.04 1584.19 Q4854.03 1580.06 4860.9 1573.12 Q4867.81 1566.14 4869.58 1564.12 Q4872.95 1560.34 4874.27 1557.73 Q4875.63 1555.1 4875.63 1552.56 Q4875.63 1548.43 4872.71 1545.82 Q4869.83 1543.22 4865.17 1543.22 Q4861.88 1543.22 4858.19 1544.37 Q4854.55 1545.51 4850.38 1547.84 L4850.38 1540.76 Q4854.62 1539.05 4858.3 1538.19 Q4861.98 1537.32 4865.04 1537.32 Q4873.09 1537.32 4877.88 1541.35 Q4882.67 1545.37 4882.67 1552.11 Q4882.67 1555.3 4881.46 1558.19 Q4880.28 1561.03 4877.12 1564.92 Q4876.25 1565.93 4871.6 1570.76 Q4866.94 1575.55 4858.47 1584.19 Z" fill="#000000" fill-rule="nonzero" fill-opacity="1" /><path clip-path="url(#clip670)" d="M4897.67 1581.28 L4905 1581.28 L4905 1590.1 L4897.67 1590.1 L4897.67 1581.28 Z" fill="#000000" fill-rule="nonzero" fill-opacity="1" /><path clip-path="url(#clip670)" d="M4920.35 1538.26 L4947.88 1538.26 L4947.88 1544.16 L4926.77 1544.16 L4926.77 1556.87 Q4928.3 1556.35 4929.83 1556.1 Q4931.35 1555.82 4932.88 1555.82 Q4941.56 1555.82 4946.63 1560.58 Q4951.7 1565.34 4951.7 1573.46 Q4951.7 1581.83 4946.49 1586.48 Q4941.28 1591.1 4931.81 1591.1 Q4928.54 1591.1 4925.14 1590.55 Q4921.77 1589.99 4918.16 1588.88 L4918.16 1581.83 Q4921.28 1583.53 4924.62 1584.37 Q4927.95 1585.2 4931.67 1585.2 Q4937.67 1585.2 4941.18 1582.04 Q4944.69 1578.88 4944.69 1573.46 Q4944.69 1568.05 4941.18 1564.89 Q4937.67 1561.73 4931.67 1561.73 Q4928.85 1561.73 4926.04 1562.35 Q4923.26 1562.98 4920.35 1564.3 L4920.35 1538.26 Z" fill="#000000" fill-rule="nonzero" fill-opacity="1" /><path clip-path="url(#clip670)" d="M5181.19 1538.26 L5208.72 1538.26 L5208.72 1544.16 L5187.61 1544.16 L5187.61 1556.87 Q5189.14 1556.35 5190.67 1556.1 Q5192.19 1555.82 5193.72 1555.82 Q5202.4 1555.82 5207.47 1560.58 Q5212.54 1565.34 5212.54 1573.46 Q5212.54 1581.83 5207.33 1586.48 Q5202.12 1591.1 5192.65 1591.1 Q5189.38 1591.1 5185.98 1590.55 Q5182.61 1589.99 5179 1588.88 L5179 1581.83 Q5182.12 1583.53 5185.46 1584.37 Q5188.79 1585.2 5192.51 1585.2 Q5198.51 1585.2 5202.02 1582.04 Q5205.53 1578.88 5205.53 1573.46 Q5205.53 1568.05 5202.02 1564.89 Q5198.51 1561.73 5192.51 1561.73 Q5189.69 1561.73 5186.88 1562.35 Q5184.1 1562.98 5181.19 1564.3 L5181.19 1538.26 Z" fill="#000000" fill-rule="nonzero" fill-opacity="1" /><path clip-path="url(#clip670)" d="M5226.36 1581.28 L5233.69 1581.28 L5233.69 1590.1 L5226.36 1590.1 L5226.36 1581.28 Z" fill="#000000" fill-rule="nonzero" fill-opacity="1" /><path clip-path="url(#clip670)" d="M5263.96 1542.87 Q5258.55 1542.87 5255.8 1548.22 Q5253.1 1553.53 5253.1 1564.23 Q5253.1 1574.89 5255.8 1580.23 Q5258.55 1585.55 5263.96 1585.55 Q5269.42 1585.55 5272.12 1580.23 Q5274.87 1574.89 5274.87 1564.23 Q5274.87 1553.53 5272.12 1548.22 Q5269.42 1542.87 5263.96 1542.87 M5263.96 1537.32 Q5272.68 1537.32 5277.26 1544.23 Q5281.88 1551.1 5281.88 1564.23 Q5281.88 1577.32 5277.26 1584.23 Q5272.68 1591.1 5263.96 1591.1 Q5255.25 1591.1 5250.63 1584.23 Q5246.05 1577.32 5246.05 1564.23 Q5246.05 1551.1 5250.63 1544.23 Q5255.25 1537.32 5263.96 1537.32 Z" fill="#000000" fill-rule="nonzero" fill-opacity="1" /><path clip-path="url(#clip670)" d="M5509.49 1538.26 L5542.83 1538.26 L5542.83 1541.24 L5524.01 1590.1 L5516.68 1590.1 L5534.39 1544.16 L5509.49 1544.16 L5509.49 1538.26 Z" fill="#000000" fill-rule="nonzero" fill-opacity="1" /><path clip-path="url(#clip670)" d="M5556.51 1581.28 L5563.83 1581.28 L5563.83 1590.1 L5556.51 1590.1 L5556.51 1581.28 Z" fill="#000000" fill-rule="nonzero" fill-opacity="1" /><path clip-path="url(#clip670)" d="M5579.18 1538.26 L5606.71 1538.26 L5606.71 1544.16 L5585.6 1544.16 L5585.6 1556.87 Q5587.13 1556.35 5588.66 1556.1 Q5590.19 1555.82 5591.71 1555.82 Q5600.39 1555.82 5605.46 1560.58 Q5610.53 1565.34 5610.53 1573.46 Q5610.53 1581.83 5605.33 1586.48 Q5600.12 1591.1 5590.64 1591.1 Q5587.37 1591.1 5583.97 1590.55 Q5580.6 1589.99 5576.99 1588.88 L5576.99 1581.83 Q5580.12 1583.53 5583.45 1584.37 Q5586.78 1585.2 5590.5 1585.2 Q5596.51 1585.2 5600.01 1582.04 Q5603.52 1578.88 5603.52 1573.46 Q5603.52 1568.05 5600.01 1564.89 Q5596.51 1561.73 5590.5 1561.73 Q5587.69 1561.73 5584.87 1562.35 Q5582.1 1562.98 5579.18 1564.3 L5579.18 1538.26 Z" fill="#000000" fill-rule="nonzero" fill-opacity="1" /><path clip-path="url(#clip670)" d="M5817.69 1584.19 L5829.15 1584.19 L5829.15 1544.64 L5816.69 1547.14 L5816.69 1540.76 L5829.08 1538.26 L5836.1 1538.26 L5836.1 1584.19 L5847.55 1584.19 L5847.55 1590.1 L5817.69 1590.1 L5817.69 1584.19 Z" fill="#000000" fill-rule="nonzero" fill-opacity="1" /><path clip-path="url(#clip670)" d="M5876.72 1542.87 Q5871.3 1542.87 5868.56 1548.22 Q5865.85 1553.53 5865.85 1564.23 Q5865.85 1574.89 5868.56 1580.23 Q5871.3 1585.55 5876.72 1585.55 Q5882.17 1585.55 5884.88 1580.23 Q5887.62 1574.89 5887.62 1564.23 Q5887.62 1553.53 5884.88 1548.22 Q5882.17 1542.87 5876.72 1542.87 M5876.72 1537.32 Q5885.44 1537.32 5890.02 1544.23 Q5894.64 1551.1 5894.64 1564.23 Q5894.64 1577.32 5890.02 1584.23 Q5885.44 1591.1 5876.72 1591.1 Q5868.01 1591.1 5863.39 1584.23 Q5858.8 1577.32 5858.8 1564.23 Q5858.8 1551.1 5863.39 1544.23 Q5868.01 1537.32 5876.72 1537.32 Z" fill="#000000" fill-rule="nonzero" fill-opacity="1" /><path clip-path="url(#clip670)" d="M5906.96 1581.28 L5914.29 1581.28 L5914.29 1590.1 L5906.96 1590.1 L5906.96 1581.28 Z" fill="#000000" fill-rule="nonzero" fill-opacity="1" /><path clip-path="url(#clip670)" d="M5944.57 1542.87 Q5939.15 1542.87 5936.41 1548.22 Q5933.7 1553.53 5933.7 1564.23 Q5933.7 1574.89 5936.41 1580.23 Q5939.15 1585.55 5944.57 1585.55 Q5950.02 1585.55 5952.73 1580.23 Q5955.47 1574.89 5955.47 1564.23 Q5955.47 1553.53 5952.73 1548.22 Q5950.02 1542.87 5944.57 1542.87 M5944.57 1537.32 Q5953.28 1537.32 5957.87 1544.23 Q5962.48 1551.1 5962.48 1564.23 Q5962.48 1577.32 5957.87 1584.23 Q5953.28 1591.1 5944.57 1591.1 Q5935.85 1591.1 5931.23 1584.23 Q5926.65 1577.32 5926.65 1564.23 Q5926.65 1551.1 5931.23 1544.23 Q5935.85 1537.32 5944.57 1537.32 Z" fill="#000000" fill-rule="nonzero" fill-opacity="1" /><path clip-path="url(#clip670)" d="M5229.03 1661.94 L5229.03 1677.12 L5247.13 1677.12 L5247.13 1683.95 L5229.03 1683.95 L5229.03 1712.97 Q5229.03 1719.52 5230.8 1721.38 Q5232.61 1723.24 5238.1 1723.24 L5247.13 1723.24 L5247.13 1730.59 L5238.1 1730.59 Q5227.93 1730.59 5224.07 1726.82 Q5220.2 1723 5220.2 1712.97 L5220.2 1683.95 L5213.75 1683.95 L5213.75 1677.12 L5220.2 1677.12 L5220.2 1661.94 L5229.03 1661.94 Z" fill="#000000" fill-rule="nonzero" fill-opacity="1" /><polyline clip-path="url(#clip670)" style="stroke:#000000; stroke-linecap:round; stroke-linejoin:round; stroke-width:6; stroke-opacity:1; fill:none" points="4531.75,1477.3 4531.75,70.8661 "/>
<polyline clip-path="url(#clip670)" style="stroke:#000000; stroke-linecap:round; stroke-linejoin:round; stroke-width:6; stroke-opacity:1; fill:none" points="4531.75,1437.49 4550.64,1437.49 "/>
<polyline clip-path="url(#clip670)" style="stroke:#000000; stroke-linecap:round; stroke-linejoin:round; stroke-width:6; stroke-opacity:1; fill:none" points="4531.75,1105.79 4550.64,1105.79 "/>
<polyline clip-path="url(#clip670)" style="stroke:#000000; stroke-linecap:round; stroke-linejoin:round; stroke-width:6; stroke-opacity:1; fill:none" points="4531.75,774.081 4550.64,774.081 "/>
<polyline clip-path="url(#clip670)" style="stroke:#000000; stroke-linecap:round; stroke-linejoin:round; stroke-width:6; stroke-opacity:1; fill:none" points="4531.75,442.376 4550.64,442.376 "/>
<polyline clip-path="url(#clip670)" style="stroke:#000000; stroke-linecap:round; stroke-linejoin:round; stroke-width:6; stroke-opacity:1; fill:none" points="4531.75,110.671 4550.64,110.671 "/>
<path clip-path="url(#clip670)" d="M4355.98 1416.19 Q4350.57 1416.19 4347.82 1421.54 Q4345.12 1426.85 4345.12 1437.54 Q4345.12 1448.2 4347.82 1453.55 Q4350.57 1458.86 4355.98 1458.86 Q4361.44 1458.86 4364.14 1453.55 Q4366.89 1448.2 4366.89 1437.54 Q4366.89 1426.85 4364.14 1421.54 Q4361.44 1416.19 4355.98 1416.19 M4355.98 1410.63 Q4364.7 1410.63 4369.28 1417.54 Q4373.9 1424.42 4373.9 1437.54 Q4373.9 1450.63 4369.28 1457.54 Q4364.7 1464.42 4355.98 1464.42 Q4347.27 1464.42 4342.65 1457.54 Q4338.07 1450.63 4338.07 1437.54 Q4338.07 1424.42 4342.65 1417.54 Q4347.27 1410.63 4355.98 1410.63 Z" fill="#000000" fill-rule="nonzero" fill-opacity="1" /><path clip-path="url(#clip670)" d="M4386.23 1454.59 L4393.55 1454.59 L4393.55 1463.41 L4386.23 1463.41 L4386.23 1454.59 Z" fill="#000000" fill-rule="nonzero" fill-opacity="1" /><path clip-path="url(#clip670)" d="M4423.83 1416.19 Q4418.41 1416.19 4415.67 1421.54 Q4412.96 1426.85 4412.96 1437.54 Q4412.96 1448.2 4415.67 1453.55 Q4418.41 1458.86 4423.83 1458.86 Q4429.28 1458.86 4431.99 1453.55 Q4434.73 1448.2 4434.73 1437.54 Q4434.73 1426.85 4431.99 1421.54 Q4429.28 1416.19 4423.83 1416.19 M4423.83 1410.63 Q4432.55 1410.63 4437.13 1417.54 Q4441.75 1424.42 4441.75 1437.54 Q4441.75 1450.63 4437.13 1457.54 Q4432.55 1464.42 4423.83 1464.42 Q4415.12 1464.42 4410.5 1457.54 Q4405.91 1450.63 4405.91 1437.54 Q4405.91 1424.42 4410.5 1417.54 Q4415.12 1410.63 4423.83 1410.63 Z" fill="#000000" fill-rule="nonzero" fill-opacity="1" /><path clip-path="url(#clip670)" d="M4348.52 1125.8 L4373 1125.8 L4373 1131.71 L4340.08 1131.71 L4340.08 1125.8 Q4344.07 1121.67 4350.95 1114.73 Q4357.86 1107.75 4359.63 1105.73 Q4363 1101.95 4364.32 1099.34 Q4365.67 1096.71 4365.67 1094.17 Q4365.67 1090.04 4362.75 1087.44 Q4359.87 1084.83 4355.22 1084.83 Q4351.92 1084.83 4348.24 1085.98 Q4344.59 1087.12 4340.43 1089.45 L4340.43 1082.37 Q4344.66 1080.66 4348.34 1079.8 Q4352.03 1078.93 4355.08 1078.93 Q4363.14 1078.93 4367.93 1082.96 Q4372.72 1086.98 4372.72 1093.72 Q4372.72 1096.91 4371.5 1099.8 Q4370.32 1102.64 4367.16 1106.53 Q4366.3 1107.54 4361.64 1112.37 Q4356.99 1117.16 4348.52 1125.8 Z" fill="#000000" fill-rule="nonzero" fill-opacity="1" /><path clip-path="url(#clip670)" d="M4387.72 1122.89 L4395.05 1122.89 L4395.05 1131.71 L4387.72 1131.71 L4387.72 1122.89 Z" fill="#000000" fill-rule="nonzero" fill-opacity="1" /><path clip-path="url(#clip670)" d="M4410.39 1079.87 L4437.93 1079.87 L4437.93 1085.77 L4416.82 1085.77 L4416.82 1098.48 Q4418.34 1097.96 4419.87 1097.71 Q4421.4 1097.44 4422.93 1097.44 Q4431.61 1097.44 4436.68 1102.19 Q4441.75 1106.95 4441.75 1115.07 Q4441.75 1123.44 4436.54 1128.09 Q4431.33 1132.71 4421.85 1132.71 Q4418.59 1132.71 4415.18 1132.16 Q4411.82 1131.6 4408.21 1130.49 L4408.21 1123.44 Q4411.33 1125.14 4414.66 1125.98 Q4418 1126.81 4421.71 1126.81 Q4427.72 1126.81 4431.23 1123.65 Q4434.73 1120.49 4434.73 1115.07 Q4434.73 1109.66 4431.23 1106.5 Q4427.72 1103.34 4421.71 1103.34 Q4418.9 1103.34 4416.09 1103.96 Q4413.31 1104.59 4410.39 1105.91 L4410.39 1079.87 Z" fill="#000000" fill-rule="nonzero" fill-opacity="1" /><path clip-path="url(#clip670)" d="M4341.05 748.161 L4368.59 748.161 L4368.59 754.064 L4347.48 754.064 L4347.48 766.772 Q4349 766.251 4350.53 766.008 Q4352.06 765.73 4353.59 765.73 Q4362.27 765.73 4367.34 770.487 Q4372.41 775.244 4372.41 783.369 Q4372.41 791.737 4367.2 796.39 Q4361.99 801.008 4352.51 801.008 Q4349.25 801.008 4345.84 800.452 Q4342.48 799.897 4338.87 798.786 L4338.87 791.737 Q4341.99 793.438 4345.32 794.272 Q4348.66 795.105 4352.37 795.105 Q4358.38 795.105 4361.89 791.945 Q4365.39 788.786 4365.39 783.369 Q4365.39 777.952 4361.89 774.793 Q4358.38 771.633 4352.37 771.633 Q4349.56 771.633 4346.75 772.258 Q4343.97 772.883 4341.05 774.202 L4341.05 748.161 Z" fill="#000000" fill-rule="nonzero" fill-opacity="1" /><path clip-path="url(#clip670)" d="M4386.23 791.181 L4393.55 791.181 L4393.55 800.001 L4386.23 800.001 L4386.23 791.181 Z" fill="#000000" fill-rule="nonzero" fill-opacity="1" /><path clip-path="url(#clip670)" d="M4423.83 752.779 Q4418.41 752.779 4415.67 758.126 Q4412.96 763.439 4412.96 774.133 Q4412.96 784.793 4415.67 790.14 Q4418.41 795.452 4423.83 795.452 Q4429.28 795.452 4431.99 790.14 Q4434.73 784.793 4434.73 774.133 Q4434.73 763.439 4431.99 758.126 Q4429.28 752.779 4423.83 752.779 M4423.83 747.223 Q4432.55 747.223 4437.13 754.133 Q4441.75 761.008 4441.75 774.133 Q4441.75 787.223 4437.13 794.133 Q4432.55 801.008 4423.83 801.008 Q4415.12 801.008 4410.5 794.133 Q4405.91 787.223 4405.91 774.133 Q4405.91 761.008 4410.5 754.133 Q4415.12 747.223 4423.83 747.223 Z" fill="#000000" fill-rule="nonzero" fill-opacity="1" /><path clip-path="url(#clip670)" d="M4340.71 416.456 L4374.04 416.456 L4374.04 419.442 L4355.22 468.296 L4347.89 468.296 L4365.6 422.359 L4340.71 422.359 L4340.71 416.456 Z" fill="#000000" fill-rule="nonzero" fill-opacity="1" /><path clip-path="url(#clip670)" d="M4387.72 459.476 L4395.05 459.476 L4395.05 468.296 L4387.72 468.296 L4387.72 459.476 Z" fill="#000000" fill-rule="nonzero" fill-opacity="1" /><path clip-path="url(#clip670)" d="M4410.39 416.456 L4437.93 416.456 L4437.93 422.359 L4416.82 422.359 L4416.82 435.067 Q4418.34 434.546 4419.87 434.303 Q4421.4 434.025 4422.93 434.025 Q4431.61 434.025 4436.68 438.782 Q4441.75 443.539 4441.75 451.664 Q4441.75 460.032 4436.54 464.685 Q4431.33 469.303 4421.85 469.303 Q4418.59 469.303 4415.18 468.747 Q4411.82 468.192 4408.21 467.081 L4408.21 460.032 Q4411.33 461.733 4414.66 462.567 Q4418 463.4 4421.71 463.4 Q4427.72 463.4 4431.23 460.24 Q4434.73 457.081 4434.73 451.664 Q4434.73 446.247 4431.23 443.088 Q4427.72 439.928 4421.71 439.928 Q4418.9 439.928 4416.09 440.553 Q4413.31 441.178 4410.39 442.497 L4410.39 416.456 Z" fill="#000000" fill-rule="nonzero" fill-opacity="1" /><path clip-path="url(#clip670)" d="M4296.96 130.688 L4308.41 130.688 L4308.41 91.1396 L4295.95 93.6396 L4295.95 87.2507 L4308.35 84.7507 L4315.36 84.7507 L4315.36 130.688 L4326.82 130.688 L4326.82 136.591 L4296.96 136.591 L4296.96 130.688 Z" fill="#000000" fill-rule="nonzero" fill-opacity="1" /><path clip-path="url(#clip670)" d="M4355.98 89.3688 Q4350.57 89.3688 4347.82 94.716 Q4345.12 100.028 4345.12 110.723 Q4345.12 121.382 4347.82 126.73 Q4350.57 132.042 4355.98 132.042 Q4361.44 132.042 4364.14 126.73 Q4366.89 121.382 4366.89 110.723 Q4366.89 100.028 4364.14 94.716 Q4361.44 89.3688 4355.98 89.3688 M4355.98 83.8133 Q4364.7 83.8133 4369.28 90.7229 Q4373.9 97.5979 4373.9 110.723 Q4373.9 123.813 4369.28 130.723 Q4364.7 137.598 4355.98 137.598 Q4347.27 137.598 4342.65 130.723 Q4338.07 123.813 4338.07 110.723 Q4338.07 97.5979 4342.65 90.7229 Q4347.27 83.8133 4355.98 83.8133 Z" fill="#000000" fill-rule="nonzero" fill-opacity="1" /><path clip-path="url(#clip670)" d="M4386.23 127.771 L4393.55 127.771 L4393.55 136.591 L4386.23 136.591 L4386.23 127.771 Z" fill="#000000" fill-rule="nonzero" fill-opacity="1" /><path clip-path="url(#clip670)" d="M4423.83 89.3688 Q4418.41 89.3688 4415.67 94.716 Q4412.96 100.028 4412.96 110.723 Q4412.96 121.382 4415.67 126.73 Q4418.41 132.042 4423.83 132.042 Q4429.28 132.042 4431.99 126.73 Q4434.73 121.382 4434.73 110.723 Q4434.73 100.028 4431.99 94.716 Q4429.28 89.3688 4423.83 89.3688 M4423.83 83.8133 Q4432.55 83.8133 4437.13 90.7229 Q4441.75 97.5979 4441.75 110.723 Q4441.75 123.813 4437.13 130.723 Q4432.55 137.598 4423.83 137.598 Q4415.12 137.598 4410.5 130.723 Q4405.91 123.813 4405.91 110.723 Q4405.91 97.5979 4410.5 90.7229 Q4415.12 83.8133 4423.83 83.8133 Z" fill="#000000" fill-rule="nonzero" fill-opacity="1" /><path clip-path="url(#clip670)" d="M4150.67 814.686 L4150.67 845.098 Q4164.94 844.382 4171.01 841.088 Q4178.45 836.982 4178.45 829.868 Q4178.45 822.707 4170.96 818.744 Q4164.37 815.259 4150.67 814.686 M4142.55 814.829 Q4128.99 816.166 4124.22 818.744 Q4116.68 822.85 4116.68 829.868 Q4116.68 837.173 4124.12 841.04 Q4130.14 844.096 4142.55 845.003 L4142.55 814.829 M4109.51 829.868 Q4109.51 818.41 4119.64 811.869 Q4129.71 805.329 4147.56 805.329 Q4165.37 805.329 4175.49 811.869 Q4185.66 818.41 4185.66 829.868 Q4185.66 841.374 4175.49 847.867 Q4165.37 854.408 4147.56 854.408 Q4129.71 854.408 4119.64 847.867 Q4109.51 841.374 4109.51 829.868 Z" fill="#000000" fill-rule="nonzero" fill-opacity="1" /><path clip-path="url(#clip670)" d="M4110.37 769.665 Q4121.35 776.062 4132.1 779.165 Q4142.84 782.269 4153.87 782.269 Q4164.9 782.269 4175.73 779.165 Q4186.52 776.014 4197.46 769.665 L4197.46 777.303 Q4186.24 784.465 4175.4 788.046 Q4164.56 791.579 4153.87 791.579 Q4143.22 791.579 4132.43 788.046 Q4121.64 784.513 4110.37 777.303 L4110.37 769.665 Z" fill="#000000" fill-rule="nonzero" fill-opacity="1" /><path clip-path="url(#clip670)" d="M4115.91 743.931 L4131.09 743.931 L4131.09 725.837 L4137.92 725.837 L4137.92 743.931 L4166.95 743.931 Q4173.49 743.931 4175.35 742.165 Q4177.21 740.351 4177.21 734.86 L4177.21 725.837 L4184.57 725.837 L4184.57 734.86 Q4184.57 745.029 4180.79 748.897 Q4176.97 752.764 4166.95 752.764 L4137.92 752.764 L4137.92 759.209 L4131.09 759.209 L4131.09 752.764 L4115.91 752.764 L4115.91 743.931 Z" fill="#000000" fill-rule="nonzero" fill-opacity="1" /><path clip-path="url(#clip670)" d="M4110.37 715.668 L4110.37 708.029 Q4121.64 700.867 4132.43 697.334 Q4143.22 693.754 4153.87 693.754 Q4164.56 693.754 4175.4 697.334 Q4186.24 700.867 4197.46 708.029 L4197.46 715.668 Q4186.52 709.318 4175.73 706.214 Q4164.9 703.063 4153.87 703.063 Q4142.84 703.063 4132.1 706.214 Q4121.35 709.318 4110.37 715.668 Z" fill="#000000" fill-rule="nonzero" fill-opacity="1" /><polyline clip-path="url(#clip674)" style="stroke:#009af9; stroke-linecap:round; stroke-linejoin:round; stroke-width:6; stroke-opacity:1; fill:none" points="4571.3,1437.49 5889.59,110.671 "/>
<path clip-path="url(#clip670)" d="M4047.52 93.4573 L4047.52 102.416 Q4043.46 100.176 4039.34 99.0823 Q4035.28 97.9364 4031.12 97.9364 Q4021.79 97.9364 4016.64 103.874 Q4011.48 109.759 4011.48 120.436 Q4011.48 131.113 4016.64 137.051 Q4021.79 142.936 4031.12 142.936 Q4035.28 142.936 4039.34 141.842 Q4043.46 140.697 4047.52 138.457 L4047.52 147.311 Q4043.51 149.186 4039.19 150.124 Q4034.92 151.061 4030.07 151.061 Q4016.9 151.061 4009.14 142.78 Q4001.38 134.499 4001.38 120.436 Q4001.38 106.166 4009.19 97.9885 Q4017.05 89.8115 4030.7 89.8115 Q4035.13 89.8115 4039.34 90.749 Q4043.56 91.6344 4047.52 93.4573 Z" fill="#000000" fill-rule="nonzero" fill-opacity="1" /><path clip-path="url(#clip670)" d="M4062.68 68.6137 L4071.01 68.6137 Q4078.82 80.9053 4082.68 92.6761 Q4086.58 104.447 4086.58 116.061 Q4086.58 127.728 4082.68 139.551 Q4078.82 151.374 4071.01 163.613 L4062.68 163.613 Q4069.61 151.686 4072.99 139.915 Q4076.43 128.093 4076.43 116.061 Q4076.43 104.03 4072.99 92.3115 Q4069.61 80.5928 4062.68 68.6137 Z" fill="#000000" fill-rule="nonzero" fill-opacity="1" /></svg>
