<?xml version="1.0" encoding="utf-8"?>
<svg xmlns="http://www.w3.org/2000/svg" xmlns:xlink="http://www.w3.org/1999/xlink" width="1200" height="250" viewBox="0 0 4800 1000">
<defs>
  <clipPath id="clip620">
    <rect x="0" y="0" width="4800" height="1000"/>
  </clipPath>
</defs>
<path clip-path="url(#clip620)" d="M0 1000 L4800 1000 L4800 0 L0 0  Z" fill="#ffffff" fill-rule="evenodd" fill-opacity="1"/>
<defs>
  <clipPath id="clip621">
    <rect x="960" y="0" width="3361" height="1000"/>
  </clipPath>
</defs>
<path clip-path="url(#clip620)" d="M147.556 889.318 L908.031 889.318 L908.031 51.9685 L147.556 51.9685  Z" fill="#ffffff" fill-rule="evenodd" fill-opacity="1"/>
<defs>
  <clipPath id="clip622">
    <rect x="147" y="51" width="761" height="838"/>
  </clipPath>
</defs>
<polyline clip-path="url(#clip622)" style="stroke:#000000; stroke-linecap:round; stroke-linejoin:round; stroke-width:2.2; stroke-opacity:0.1; fill:none" points="169.079,889.318 169.079,51.9685 "/>
<polyline clip-path="url(#clip622)" style="stroke:#000000; stroke-linecap:round; stroke-linejoin:round; stroke-width:2.2; stroke-opacity:0.1; fill:none" points="348.437,889.318 348.437,51.9685 "/>
<polyline clip-path="url(#clip622)" style="stroke:#000000; stroke-linecap:round; stroke-linejoin:round; stroke-width:2.2; stroke-opacity:0.1; fill:none" points="527.794,889.318 527.794,51.9685 "/>
<polyline clip-path="url(#clip622)" style="stroke:#000000; stroke-linecap:round; stroke-linejoin:round; stroke-width:2.2; stroke-opacity:0.1; fill:none" points="707.151,889.318 707.151,51.9685 "/>
<polyline clip-path="url(#clip622)" style="stroke:#000000; stroke-linecap:round; stroke-linejoin:round; stroke-width:2.2; stroke-opacity:0.1; fill:none" points="886.509,889.318 886.509,51.9685 "/>
<polyline clip-path="url(#clip622)" style="stroke:#000000; stroke-linecap:round; stroke-linejoin:round; stroke-width:2.2; stroke-opacity:0.1; fill:none" points="147.556,865.619 908.031,865.619 "/>
<polyline clip-path="url(#clip622)" style="stroke:#000000; stroke-linecap:round; stroke-linejoin:round; stroke-width:2.2; stroke-opacity:0.1; fill:none" points="147.556,668.131 908.031,668.131 "/>
<polyline clip-path="url(#clip622)" style="stroke:#000000; stroke-linecap:round; stroke-linejoin:round; stroke-width:2.2; stroke-opacity:0.1; fill:none" points="147.556,470.643 908.031,470.643 "/>
<polyline clip-path="url(#clip622)" style="stroke:#000000; stroke-linecap:round; stroke-linejoin:round; stroke-width:2.2; stroke-opacity:0.1; fill:none" points="147.556,273.155 908.031,273.155 "/>
<polyline clip-path="url(#clip622)" style="stroke:#000000; stroke-linecap:round; stroke-linejoin:round; stroke-width:2.2; stroke-opacity:0.1; fill:none" points="147.556,75.6671 908.031,75.6671 "/>
<circle clip-path="url(#clip622)" cx="527.794" cy="470.643" r="19.8" fill="#000000" fill-rule="evenodd" fill-opacity="1" stroke="none"/>
<polyline clip-path="url(#clip622)" style="stroke:#000000; stroke-linecap:round; stroke-linejoin:round; stroke-width:4.4; stroke-opacity:1; fill:none" points="886.509,470.643 877.494,459.088 868.4,448.114 859.242,437.708 850.038,427.859 840.804,418.554 831.554,409.78 822.304,401.525 813.067,393.775 803.856,386.517 794.684,379.739 785.562,373.426 776.501,367.566 767.513,362.145 758.606,357.149 749.791,352.566 741.075,348.382 732.467,344.584 723.975,341.159 715.605,338.093 707.363,335.375 699.257,332.989 691.291,330.925 683.47,329.17 675.8,327.71 668.283,326.534 660.924,325.63 653.725,324.986 646.691,324.589 639.822,324.43 633.123,324.495 626.593,324.775 620.234,325.258 614.049,325.933 608.036,326.791 602.198,327.821 596.534,329.014 591.043,330.358 585.727,331.846 580.583,333.468 575.612,335.215 570.812,337.077 566.182,339.048 561.721,341.118 557.428,343.28 553.299,345.526 549.334,347.849 545.53,350.241 541.885,352.695 538.397,355.205 535.064,357.764 531.882,360.366 528.849,363.006 525.963,365.677 523.22,368.373 520.618,371.091 518.153,373.823 515.823,376.567 513.624,379.317 511.554,382.068 509.609,384.817 507.785,387.559 506.081,390.292 504.491,393.01 503.014,395.712 501.646,398.393 500.384,401.051 499.223,403.683 498.162,406.285 497.197,408.857 496.324,411.395 495.541,413.898 494.844,416.363 494.23,418.788 493.695,421.173 493.238,423.514 492.854,425.812 492.541,428.064 492.295,430.269 492.115,432.427 491.996,434.537 491.936,436.597 491.933,438.608 491.983,440.568 492.083,442.477 492.233,444.335 492.427,446.142 492.665,447.897 492.943,449.6 493.26,451.252 493.613,452.851 493.999,454.399 494.416,455.896 494.863,457.342 495.337,458.737 495.837,460.082 496.359,461.376 496.903,462.622 497.466,463.819 498.047,464.967 498.644,466.068 "/>
<polyline clip-path="url(#clip622)" style="stroke:#000000; stroke-linecap:round; stroke-linejoin:round; stroke-width:4.4; stroke-opacity:1; fill:none" points="495.983,385.613 498.644,466.068 432.684,419.924 "/>
<polyline clip-path="url(#clip622)" style="stroke:#000000; stroke-linecap:round; stroke-linejoin:round; stroke-width:4.4; stroke-opacity:1; fill:none" points="498.644,466.068 498.047,464.967 "/>
<polyline clip-path="url(#clip622)" style="stroke:#000000; stroke-linecap:round; stroke-linejoin:round; stroke-width:4.4; stroke-opacity:1; fill:none" points="781.444,191.353 767.649,190.201 754.171,189.522 741.013,189.294 728.18,189.495 715.674,190.106 703.5,191.103 691.657,192.468 680.149,194.18 668.975,196.219 658.136,198.567 647.632,201.206 637.461,204.116 627.624,207.281 618.118,210.683 608.942,214.306 600.092,218.134 591.566,222.15 583.361,226.34 575.474,230.69 567.901,235.183 560.637,239.808 553.678,244.551 547.021,249.399 540.66,254.339 534.589,259.36 528.805,264.451 523.301,269.599 518.072,274.796 513.113,280.031 508.418,285.294 503.98,290.575 499.794,295.867 495.854,301.161 492.154,306.449 488.687,311.723 485.447,316.976 482.429,322.202 479.625,327.393 477.029,332.545 474.636,337.65 472.438,342.704 470.43,347.703 468.605,352.64 466.957,357.512 465.48,362.314 464.168,367.044 463.014,371.697 462.013,376.27 461.158,380.76 460.445,385.165 459.866,389.483 459.417,393.71 459.091,397.846 458.883,401.889 458.788,405.836 458.8,409.687 458.914,413.442 459.126,417.098 459.428,420.655 459.818,424.114 460.29,427.473 460.84,430.732 461.462,433.891 462.152,436.952 462.906,439.913 463.72,442.775 464.59,445.539 465.511,448.206 466.48,450.776 467.493,453.251 468.546,455.63 469.636,457.916 470.76,460.109 471.913,462.211 473.093,464.223 474.297,466.146 475.522,467.983 476.765,469.733 478.023,471.4 479.294,472.984 480.575,474.487 481.863,475.912 483.158,477.259 484.455,478.531 485.754,479.728 487.051,480.854 488.347,481.91 489.637,482.898 490.922,483.819 492.198,484.676 493.466,485.47 494.722,486.203 495.967,486.877 497.198,487.494 498.414,488.056 499.615,488.565 500.8,489.023 501.966,489.43 503.114,489.79 504.243,490.104 "/>
<polyline clip-path="url(#clip622)" style="stroke:#000000; stroke-linecap:round; stroke-linejoin:round; stroke-width:4.4; stroke-opacity:1; fill:none" points="444.517,436.134 504.243,490.104 425.232,505.504 "/>
<polyline clip-path="url(#clip622)" style="stroke:#000000; stroke-linecap:round; stroke-linejoin:round; stroke-width:4.4; stroke-opacity:1; fill:none" points="504.243,490.104 503.114,489.79 "/>
<polyline clip-path="url(#clip622)" style="stroke:#000000; stroke-linecap:round; stroke-linejoin:round; stroke-width:4.4; stroke-opacity:1; fill:none" points="527.794,75.6671 517.3,85.5924 507.333,95.6064 497.883,105.69 488.938,115.824 480.487,125.992 472.519,136.177 465.021,146.362 457.983,156.533 451.392,166.675 445.235,176.774 439.502,186.818 434.18,196.795 429.256,206.692 424.719,216.499 420.557,226.205 416.757,235.802 413.308,245.28 410.197,254.631 407.413,263.847 404.944,272.922 402.778,281.847 400.903,290.619 399.309,299.23 397.983,307.676 396.915,315.953 396.094,324.056 395.509,331.982 395.149,339.727 395.004,347.29 395.063,354.667 395.317,361.857 395.756,368.858 396.37,375.669 397.149,382.289 398.084,388.718 399.167,394.955 400.388,401 401.74,406.854 403.212,412.518 404.799,417.991 406.49,423.276 408.28,428.374 410.16,433.286 412.124,438.014 414.164,442.56 416.273,446.926 418.445,451.114 420.674,455.127 422.954,458.968 425.278,462.638 427.641,466.142 430.039,469.481 432.464,472.659 434.913,475.679 437.381,478.545 439.863,481.258 442.355,483.824 444.852,486.245 447.351,488.525 449.847,490.667 452.338,492.674 454.819,494.551 457.288,496.301 459.742,497.928 462.177,499.434 464.591,500.824 466.981,502.102 469.345,503.27 471.68,504.333 473.986,505.294 476.258,506.157 478.497,506.924 480.7,507.601 482.865,508.189 484.992,508.693 487.078,509.115 489.123,509.46 491.127,509.73 493.086,509.929 495.002,510.06 496.874,510.126 498.7,510.13 500.48,510.075 502.214,509.964 503.901,509.799 505.542,509.585 507.136,509.323 508.683,509.017 510.183,508.668 511.635,508.28 513.041,507.855 514.401,507.395 515.714,506.903 516.981,506.381 518.202,505.831 519.378,505.256 520.509,504.657 521.596,504.037 522.639,503.397 523.639,502.74 "/>
<polyline clip-path="url(#clip622)" style="stroke:#000000; stroke-linecap:round; stroke-linejoin:round; stroke-width:4.4; stroke-opacity:1; fill:none" points="443.698,512.197 523.639,502.74 483.239,572.367 "/>
<polyline clip-path="url(#clip622)" style="stroke:#000000; stroke-linecap:round; stroke-linejoin:round; stroke-width:4.4; stroke-opacity:1; fill:none" points="523.639,502.74 522.639,503.397 "/>
<polyline clip-path="url(#clip622)" style="stroke:#000000; stroke-linecap:round; stroke-linejoin:round; stroke-width:4.4; stroke-opacity:1; fill:none" points="274.144,191.353 273.098,206.542 272.481,221.383 272.274,235.871 272.457,250.001 273.012,263.77 273.918,277.176 275.157,290.216 276.712,302.888 278.564,315.191 280.697,327.126 283.093,338.692 285.736,349.89 288.61,360.721 291.7,371.188 294.991,381.292 298.467,391.037 302.114,400.424 305.92,409.459 309.87,418.143 313.951,426.482 318.151,434.48 322.459,442.142 326.861,449.473 331.348,456.477 335.908,463.161 340.531,469.53 345.207,475.59 349.927,481.347 354.681,486.808 359.461,491.978 364.258,496.864 369.064,501.473 373.872,505.812 378.674,509.886 383.464,513.703 388.235,517.271 392.98,520.594 397.695,523.682 402.374,526.54 407.011,529.175 411.601,531.595 416.14,533.806 420.624,535.816 425.049,537.63 429.41,539.256 433.706,540.701 437.931,541.972 442.085,543.074 446.163,544.015 450.164,544.8 454.085,545.438 457.924,545.932 461.68,546.291 465.351,546.52 468.937,546.625 472.434,546.611 475.844,546.485 479.164,546.253 482.395,545.92 485.536,545.49 488.587,544.971 491.547,544.366 494.416,543.681 497.196,542.921 499.885,542.09 502.484,541.194 504.995,540.236 507.417,539.222 509.751,538.155 511.998,537.04 514.159,535.88 516.235,534.68 518.227,533.443 520.136,532.173 521.963,530.873 523.71,529.548 525.378,528.199 526.967,526.831 528.481,525.445 529.92,524.046 531.285,522.636 532.579,521.217 533.802,519.792 534.957,518.363 536.045,516.933 537.068,515.504 538.027,514.078 538.923,512.657 539.76,511.243 540.538,509.837 541.259,508.442 541.925,507.058 542.537,505.688 543.098,504.332 543.609,502.993 544.071,501.67 544.486,500.366 544.856,499.082 545.183,497.818 545.468,496.575 "/>
<polyline clip-path="url(#clip622)" style="stroke:#000000; stroke-linecap:round; stroke-linejoin:round; stroke-width:4.4; stroke-opacity:1; fill:none" points="494.287,558.707 545.468,496.575 564.465,574.799 "/>
<polyline clip-path="url(#clip622)" style="stroke:#000000; stroke-linecap:round; stroke-linejoin:round; stroke-width:4.4; stroke-opacity:1; fill:none" points="545.468,496.575 545.183,497.818 "/>
<polyline clip-path="url(#clip622)" style="stroke:#000000; stroke-linecap:round; stroke-linejoin:round; stroke-width:4.4; stroke-opacity:1; fill:none" points="169.079,470.643 178.093,482.198 187.188,493.172 196.346,503.578 205.55,513.427 214.784,522.732 224.034,531.506 233.284,539.761 242.521,547.511 251.732,554.769 260.904,561.547 270.026,567.86 279.087,573.721 288.075,579.142 296.982,584.137 305.797,588.72 314.513,592.904 323.121,596.702 331.613,600.127 339.983,603.193 348.224,605.912 356.331,608.297 364.297,610.361 372.118,612.117 379.788,613.576 387.305,614.752 394.664,615.656 401.863,616.301 408.897,616.697 415.765,616.857 422.465,616.791 428.995,616.512 435.353,616.029 441.539,615.353 447.551,614.495 453.39,613.465 459.054,612.273 464.545,610.928 469.861,609.44 475.005,607.818 479.976,606.072 484.776,604.209 489.405,602.238 493.866,600.168 498.16,598.006 502.289,595.76 506.254,593.438 510.058,591.046 513.703,588.592 517.19,586.082 520.524,583.522 523.706,580.92 526.739,578.28 529.625,575.61 532.368,572.913 534.97,570.196 537.435,567.463 539.765,564.719 541.964,561.97 544.034,559.218 545.979,556.469 547.803,553.727 549.507,550.995 551.096,548.276 552.574,545.575 553.942,542.893 555.204,540.236 556.364,537.604 557.426,535.001 558.391,532.429 559.264,529.891 560.047,527.388 560.744,524.923 561.358,522.498 561.893,520.114 562.35,517.772 562.734,515.475 563.047,513.223 563.293,511.017 563.473,508.859 563.592,506.75 563.652,504.689 563.655,502.678 563.605,500.718 563.504,498.809 563.355,496.951 563.161,495.144 562.923,493.389 562.645,491.686 562.328,490.035 561.975,488.435 561.589,486.887 561.171,485.39 560.725,483.944 560.25,482.549 559.751,481.205 559.229,479.91 558.685,478.664 558.122,477.468 557.541,476.319 556.944,475.219 "/>
<polyline clip-path="url(#clip622)" style="stroke:#000000; stroke-linecap:round; stroke-linejoin:round; stroke-width:4.4; stroke-opacity:1; fill:none" points="559.605,555.673 556.944,475.219 622.904,521.363 "/>
<polyline clip-path="url(#clip622)" style="stroke:#000000; stroke-linecap:round; stroke-linejoin:round; stroke-width:4.4; stroke-opacity:1; fill:none" points="556.944,475.219 557.541,476.319 "/>
<polyline clip-path="url(#clip622)" style="stroke:#000000; stroke-linecap:round; stroke-linejoin:round; stroke-width:4.4; stroke-opacity:1; fill:none" points="274.144,749.933 287.939,751.086 301.417,751.765 314.575,751.993 327.408,751.791 339.914,751.181 352.088,750.183 363.931,748.819 375.439,747.107 386.613,745.067 397.452,742.719 407.956,740.08 418.126,737.17 427.964,734.005 437.47,730.603 446.646,726.98 455.496,723.152 464.022,719.136 472.227,714.946 480.114,710.597 487.687,706.103 494.951,701.478 501.909,696.735 508.567,691.888 514.928,686.947 520.999,681.926 526.783,676.836 532.287,671.687 537.515,666.49 542.475,661.256 547.17,655.993 551.608,650.711 555.794,645.419 559.734,640.125 563.434,634.837 566.901,629.563 570.141,624.31 573.159,619.085 575.963,613.893 578.559,608.742 580.952,603.636 583.15,598.582 585.158,593.584 586.983,588.647 588.631,583.775 590.108,578.972 591.42,574.243 592.574,569.59 593.575,565.017 594.429,560.526 595.143,556.121 595.722,551.804 596.171,547.576 596.497,543.44 596.705,539.398 596.8,535.45 596.788,531.599 596.673,527.845 596.462,524.189 596.159,520.631 595.77,517.173 595.298,513.814 594.748,510.555 594.126,507.395 593.436,504.335 592.682,501.373 591.867,498.511 590.998,495.747 590.077,493.08 589.108,490.51 588.095,488.036 587.041,485.656 585.952,483.371 584.828,481.177 583.675,479.075 582.495,477.063 581.291,475.14 580.066,473.304 578.823,471.553 577.565,469.887 576.294,468.302 575.013,466.799 573.724,465.374 572.43,464.027 571.133,462.756 569.834,461.558 568.536,460.432 567.241,459.376 565.951,458.389 564.666,457.467 563.39,456.611 562.122,455.817 560.866,455.084 559.621,454.409 558.39,453.792 557.174,453.23 555.973,452.721 554.788,452.264 553.622,451.856 552.474,451.496 551.345,451.182 "/>
<polyline clip-path="url(#clip622)" style="stroke:#000000; stroke-linecap:round; stroke-linejoin:round; stroke-width:4.4; stroke-opacity:1; fill:none" points="611.071,505.152 551.345,451.182 630.356,435.783 "/>
<polyline clip-path="url(#clip622)" style="stroke:#000000; stroke-linecap:round; stroke-linejoin:round; stroke-width:4.4; stroke-opacity:1; fill:none" points="551.345,451.182 552.474,451.496 "/>
<polyline clip-path="url(#clip622)" style="stroke:#000000; stroke-linecap:round; stroke-linejoin:round; stroke-width:4.4; stroke-opacity:1; fill:none" points="527.794,865.619 538.288,855.694 548.255,845.68 557.705,835.597 566.65,825.462 575.101,815.294 583.069,805.11 590.567,794.924 597.605,784.754 604.196,774.612 610.353,764.512 616.086,754.468 621.408,744.492 626.332,734.595 630.868,724.788 635.031,715.081 638.83,705.484 642.28,696.006 645.391,686.655 648.175,677.439 650.644,668.365 652.81,659.439 654.685,650.668 656.279,642.056 657.605,633.61 658.673,625.334 659.494,617.23 660.079,609.304 660.439,601.559 660.584,593.996 660.525,586.619 660.271,579.429 659.832,572.428 659.218,565.617 658.439,558.997 657.504,552.569 656.421,546.332 655.2,540.286 653.848,534.432 652.376,528.769 650.789,523.295 649.097,518.01 647.308,512.912 645.428,508 643.464,503.272 641.424,498.726 639.315,494.36 637.143,490.172 634.914,486.159 632.634,482.318 630.31,478.648 627.947,475.145 625.549,471.805 623.124,468.627 620.675,465.607 618.207,462.742 615.725,460.028 613.233,457.462 610.736,455.041 608.237,452.762 605.741,450.62 603.25,448.612 600.769,446.735 598.3,444.985 595.846,443.359 593.411,441.852 590.997,440.462 588.607,439.185 586.243,438.016 583.908,436.953 581.602,435.992 579.33,435.13 577.091,434.362 574.888,433.686 572.723,433.097 570.596,432.594 568.51,432.171 566.464,431.826 564.461,431.556 562.501,431.357 560.585,431.226 558.714,431.161 556.888,431.157 555.108,431.212 553.374,431.323 551.686,431.487 550.046,431.701 548.452,431.963 546.905,432.27 545.405,432.618 543.952,433.006 542.546,433.432 541.187,433.892 539.874,434.384 538.607,434.906 537.386,435.455 536.21,436.031 535.079,436.629 533.992,437.249 532.949,437.889 531.949,438.546 "/>
<polyline clip-path="url(#clip622)" style="stroke:#000000; stroke-linecap:round; stroke-linejoin:round; stroke-width:4.4; stroke-opacity:1; fill:none" points="611.89,429.09 531.949,438.546 572.349,368.919 "/>
<polyline clip-path="url(#clip622)" style="stroke:#000000; stroke-linecap:round; stroke-linejoin:round; stroke-width:4.4; stroke-opacity:1; fill:none" points="531.949,438.546 532.949,437.889 "/>
<polyline clip-path="url(#clip622)" style="stroke:#000000; stroke-linecap:round; stroke-linejoin:round; stroke-width:4.4; stroke-opacity:1; fill:none" points="781.444,749.933 782.49,734.745 783.107,719.904 783.314,705.416 783.13,691.285 782.576,677.516 781.67,664.11 780.431,651.071 778.876,638.399 777.024,626.095 774.891,614.161 772.495,602.595 769.852,591.397 766.978,580.565 763.888,570.098 760.597,559.994 757.121,550.249 753.473,540.862 749.668,531.828 745.718,523.143 741.637,514.804 737.437,506.806 733.129,499.144 728.727,491.814 724.24,484.809 719.68,478.125 715.057,471.756 710.381,465.696 705.661,459.939 700.907,454.478 696.127,449.308 691.33,444.422 686.524,439.813 681.716,435.475 676.914,431.4 672.124,427.583 667.353,424.016 662.607,420.692 657.893,417.605 653.214,414.747 648.577,412.111 643.987,409.691 639.448,407.48 634.964,405.471 630.539,403.656 626.178,402.03 621.882,400.585 617.657,399.315 613.503,398.212 609.425,397.272 605.424,396.486 601.503,395.849 597.664,395.354 593.908,394.995 590.236,394.766 586.651,394.662 583.154,394.675 579.744,394.801 576.423,395.033 573.193,395.367 570.052,395.796 567.001,396.316 564.041,396.92 561.172,397.605 558.392,398.366 555.703,399.196 553.103,400.093 550.593,401.05 548.171,402.065 545.837,403.132 543.59,404.247 541.429,405.406 539.353,406.607 537.361,407.843 535.452,409.113 533.625,410.413 531.878,411.739 530.21,413.087 528.62,414.456 527.107,415.841 525.668,417.24 524.303,418.651 523.009,420.07 521.785,421.495 520.631,422.923 519.543,424.353 518.52,425.782 517.561,427.208 516.664,428.629 515.828,430.044 515.05,431.449 514.329,432.845 513.663,434.228 513.05,435.599 512.49,436.954 511.979,438.294 511.517,439.616 511.102,440.92 510.732,442.205 510.405,443.469 510.12,444.712 "/>
<polyline clip-path="url(#clip622)" style="stroke:#000000; stroke-linecap:round; stroke-linejoin:round; stroke-width:4.4; stroke-opacity:1; fill:none" points="561.301,382.579 510.12,444.712 491.123,366.487 "/>
<polyline clip-path="url(#clip622)" style="stroke:#000000; stroke-linecap:round; stroke-linejoin:round; stroke-width:4.4; stroke-opacity:1; fill:none" points="510.12,444.712 510.405,443.469 "/>
<path clip-path="url(#clip620)" d="M512.978 913.534 L512.978 922.312 Q507.853 919.861 503.308 918.658 Q498.763 917.455 494.53 917.455 Q487.178 917.455 483.167 920.307 Q479.201 923.159 479.201 928.417 Q479.201 932.828 481.83 935.101 Q484.504 937.329 491.901 938.71 L497.337 939.824 Q507.408 941.74 512.176 946.597 Q516.988 951.41 516.988 959.52 Q516.988 969.189 510.482 974.18 Q504.021 979.171 491.5 979.171 Q486.777 979.171 481.429 978.101 Q476.127 977.032 470.423 974.938 L470.423 965.669 Q475.904 968.744 481.162 970.303 Q486.42 971.863 491.5 971.863 Q499.209 971.863 503.397 968.833 Q507.586 965.803 507.586 960.188 Q507.586 955.287 504.556 952.524 Q501.57 949.761 494.708 948.38 L489.227 947.31 Q479.157 945.305 474.656 941.027 Q470.156 936.75 470.156 929.13 Q470.156 920.307 476.349 915.227 Q482.588 910.147 493.505 910.147 Q498.184 910.147 503.041 910.994 Q507.898 911.841 512.978 913.534 Z" fill="#000000" fill-rule="nonzero" fill-opacity="1" /><path clip-path="url(#clip620)" d="M554.953 920.218 L542.744 953.326 L567.207 953.326 L554.953 920.218 M549.873 911.35 L560.078 911.35 L585.432 977.878 L576.075 977.878 L570.015 960.812 L540.026 960.812 L533.966 977.878 L524.474 977.878 L549.873 911.35 Z" fill="#000000" fill-rule="nonzero" fill-opacity="1" /><path clip-path="url(#clip620)" d="M1107.56 889.318 L1868.03 889.318 L1868.03 51.9685 L1107.56 51.9685  Z" fill="#ffffff" fill-rule="evenodd" fill-opacity="1"/>
<defs>
  <clipPath id="clip623">
    <rect x="1107" y="51" width="761" height="838"/>
  </clipPath>
</defs>
<polyline clip-path="url(#clip623)" style="stroke:#000000; stroke-linecap:round; stroke-linejoin:round; stroke-width:2.2; stroke-opacity:0.1; fill:none" points="1129.08,889.318 1129.08,51.9685 "/>
<polyline clip-path="url(#clip623)" style="stroke:#000000; stroke-linecap:round; stroke-linejoin:round; stroke-width:2.2; stroke-opacity:0.1; fill:none" points="1308.44,889.318 1308.44,51.9685 "/>
<polyline clip-path="url(#clip623)" style="stroke:#000000; stroke-linecap:round; stroke-linejoin:round; stroke-width:2.2; stroke-opacity:0.1; fill:none" points="1487.79,889.318 1487.79,51.9685 "/>
<polyline clip-path="url(#clip623)" style="stroke:#000000; stroke-linecap:round; stroke-linejoin:round; stroke-width:2.2; stroke-opacity:0.1; fill:none" points="1667.15,889.318 1667.15,51.9685 "/>
<polyline clip-path="url(#clip623)" style="stroke:#000000; stroke-linecap:round; stroke-linejoin:round; stroke-width:2.2; stroke-opacity:0.1; fill:none" points="1846.51,889.318 1846.51,51.9685 "/>
<polyline clip-path="url(#clip623)" style="stroke:#000000; stroke-linecap:round; stroke-linejoin:round; stroke-width:2.2; stroke-opacity:0.1; fill:none" points="1107.56,865.619 1868.03,865.619 "/>
<polyline clip-path="url(#clip623)" style="stroke:#000000; stroke-linecap:round; stroke-linejoin:round; stroke-width:2.2; stroke-opacity:0.1; fill:none" points="1107.56,668.131 1868.03,668.131 "/>
<polyline clip-path="url(#clip623)" style="stroke:#000000; stroke-linecap:round; stroke-linejoin:round; stroke-width:2.2; stroke-opacity:0.1; fill:none" points="1107.56,470.643 1868.03,470.643 "/>
<polyline clip-path="url(#clip623)" style="stroke:#000000; stroke-linecap:round; stroke-linejoin:round; stroke-width:2.2; stroke-opacity:0.1; fill:none" points="1107.56,273.155 1868.03,273.155 "/>
<polyline clip-path="url(#clip623)" style="stroke:#000000; stroke-linecap:round; stroke-linejoin:round; stroke-width:2.2; stroke-opacity:0.1; fill:none" points="1107.56,75.6671 1868.03,75.6671 "/>
<path clip-path="url(#clip623)" d="M1465.79 448.643 L1465.79 492.643 L1509.79 492.643 L1509.79 448.643 L1465.79 448.643 Z" fill="#000000" fill-rule="evenodd" fill-opacity="1" stroke="none"/>
<polyline clip-path="url(#clip623)" style="stroke:#000000; stroke-linecap:round; stroke-linejoin:round; stroke-width:4.4; stroke-opacity:1; fill:none" points="1846.51,470.643 1523.67,470.643 "/>
<polyline clip-path="url(#clip623)" style="stroke:#000000; stroke-linecap:round; stroke-linejoin:round; stroke-width:4.4; stroke-opacity:1; fill:none" points="1595.67,506.643 1523.67,470.643 1595.67,434.643 "/>
<polyline clip-path="url(#clip623)" style="stroke:#000000; stroke-linecap:round; stroke-linejoin:round; stroke-width:4.4; stroke-opacity:1; fill:none" points="1523.67,470.643 1846.51,470.643 "/>
<polyline clip-path="url(#clip623)" style="stroke:#000000; stroke-linecap:round; stroke-linejoin:round; stroke-width:4.4; stroke-opacity:1; fill:none" points="1741.44,191.353 1513.16,442.714 "/>
<polyline clip-path="url(#clip623)" style="stroke:#000000; stroke-linecap:round; stroke-linejoin:round; stroke-width:4.4; stroke-opacity:1; fill:none" points="1588.21,413.618 1513.16,442.714 1534.92,365.212 "/>
<polyline clip-path="url(#clip623)" style="stroke:#000000; stroke-linecap:round; stroke-linejoin:round; stroke-width:4.4; stroke-opacity:1; fill:none" points="1513.16,442.714 1741.44,191.353 "/>
<polyline clip-path="url(#clip623)" style="stroke:#000000; stroke-linecap:round; stroke-linejoin:round; stroke-width:4.4; stroke-opacity:1; fill:none" points="1487.79,75.6671 1487.79,431.146 "/>
<polyline clip-path="url(#clip623)" style="stroke:#000000; stroke-linecap:round; stroke-linejoin:round; stroke-width:4.4; stroke-opacity:1; fill:none" points="1523.79,359.146 1487.79,431.146 1451.79,359.146 "/>
<polyline clip-path="url(#clip623)" style="stroke:#000000; stroke-linecap:round; stroke-linejoin:round; stroke-width:4.4; stroke-opacity:1; fill:none" points="1487.79,431.146 1487.79,75.6671 "/>
<polyline clip-path="url(#clip623)" style="stroke:#000000; stroke-linecap:round; stroke-linejoin:round; stroke-width:4.4; stroke-opacity:1; fill:none" points="1234.14,191.353 1462.43,442.714 "/>
<polyline clip-path="url(#clip623)" style="stroke:#000000; stroke-linecap:round; stroke-linejoin:round; stroke-width:4.4; stroke-opacity:1; fill:none" points="1440.67,365.212 1462.43,442.714 1387.37,413.618 "/>
<polyline clip-path="url(#clip623)" style="stroke:#000000; stroke-linecap:round; stroke-linejoin:round; stroke-width:4.4; stroke-opacity:1; fill:none" points="1462.43,442.714 1234.14,191.353 "/>
<polyline clip-path="url(#clip623)" style="stroke:#000000; stroke-linecap:round; stroke-linejoin:round; stroke-width:4.4; stroke-opacity:1; fill:none" points="1129.08,470.643 1451.92,470.643 "/>
<polyline clip-path="url(#clip623)" style="stroke:#000000; stroke-linecap:round; stroke-linejoin:round; stroke-width:4.4; stroke-opacity:1; fill:none" points="1379.92,434.643 1451.92,470.643 1379.92,506.643 "/>
<polyline clip-path="url(#clip623)" style="stroke:#000000; stroke-linecap:round; stroke-linejoin:round; stroke-width:4.4; stroke-opacity:1; fill:none" points="1451.92,470.643 1129.08,470.643 "/>
<polyline clip-path="url(#clip623)" style="stroke:#000000; stroke-linecap:round; stroke-linejoin:round; stroke-width:4.4; stroke-opacity:1; fill:none" points="1234.14,749.933 1462.43,498.572 "/>
<polyline clip-path="url(#clip623)" style="stroke:#000000; stroke-linecap:round; stroke-linejoin:round; stroke-width:4.4; stroke-opacity:1; fill:none" points="1387.37,527.669 1462.43,498.572 1440.67,576.075 "/>
<polyline clip-path="url(#clip623)" style="stroke:#000000; stroke-linecap:round; stroke-linejoin:round; stroke-width:4.4; stroke-opacity:1; fill:none" points="1462.43,498.572 1234.14,749.933 "/>
<polyline clip-path="url(#clip623)" style="stroke:#000000; stroke-linecap:round; stroke-linejoin:round; stroke-width:4.4; stroke-opacity:1; fill:none" points="1487.79,865.619 1487.79,510.141 "/>
<polyline clip-path="url(#clip623)" style="stroke:#000000; stroke-linecap:round; stroke-linejoin:round; stroke-width:4.4; stroke-opacity:1; fill:none" points="1451.79,582.141 1487.79,510.141 1523.79,582.141 "/>
<polyline clip-path="url(#clip623)" style="stroke:#000000; stroke-linecap:round; stroke-linejoin:round; stroke-width:4.4; stroke-opacity:1; fill:none" points="1487.79,510.141 1487.79,865.619 "/>
<polyline clip-path="url(#clip623)" style="stroke:#000000; stroke-linecap:round; stroke-linejoin:round; stroke-width:4.4; stroke-opacity:1; fill:none" points="1741.44,749.933 1513.16,498.572 "/>
<polyline clip-path="url(#clip623)" style="stroke:#000000; stroke-linecap:round; stroke-linejoin:round; stroke-width:4.4; stroke-opacity:1; fill:none" points="1534.92,576.075 1513.16,498.572 1588.21,527.669 "/>
<polyline clip-path="url(#clip623)" style="stroke:#000000; stroke-linecap:round; stroke-linejoin:round; stroke-width:4.4; stroke-opacity:1; fill:none" points="1513.16,498.572 1741.44,749.933 "/>
<path clip-path="url(#clip620)" d="M1427.3 911.35 L1439.42 911.35 L1468.92 967.006 L1468.92 911.35 L1477.66 911.35 L1477.66 977.878 L1465.54 977.878 L1436.04 922.223 L1436.04 977.878 L1427.3 977.878 L1427.3 911.35 Z" fill="#000000" fill-rule="nonzero" fill-opacity="1" /><path clip-path="url(#clip620)" d="M1517.81 920.218 L1505.6 953.326 L1530.06 953.326 L1517.81 920.218 M1512.73 911.35 L1522.93 911.35 L1548.28 977.878 L1538.93 977.878 L1532.87 960.812 L1502.88 960.812 L1496.82 977.878 L1487.33 977.878 L1512.73 911.35 Z" fill="#000000" fill-rule="nonzero" fill-opacity="1" /><path clip-path="url(#clip620)" d="M2067.56 889.318 L2828.03 889.318 L2828.03 51.9685 L2067.56 51.9685  Z" fill="#ffffff" fill-rule="evenodd" fill-opacity="1"/>
<defs>
  <clipPath id="clip624">
    <rect x="2067" y="51" width="761" height="838"/>
  </clipPath>
</defs>
<polyline clip-path="url(#clip624)" style="stroke:#000000; stroke-linecap:round; stroke-linejoin:round; stroke-width:2.2; stroke-opacity:0.1; fill:none" points="2156.51,889.318 2156.51,51.9685 "/>
<polyline clip-path="url(#clip624)" style="stroke:#000000; stroke-linecap:round; stroke-linejoin:round; stroke-width:2.2; stroke-opacity:0.1; fill:none" points="2253.61,889.318 2253.61,51.9685 "/>
<polyline clip-path="url(#clip624)" style="stroke:#000000; stroke-linecap:round; stroke-linejoin:round; stroke-width:2.2; stroke-opacity:0.1; fill:none" points="2350.7,889.318 2350.7,51.9685 "/>
<polyline clip-path="url(#clip624)" style="stroke:#000000; stroke-linecap:round; stroke-linejoin:round; stroke-width:2.2; stroke-opacity:0.1; fill:none" points="2447.79,889.318 2447.79,51.9685 "/>
<polyline clip-path="url(#clip624)" style="stroke:#000000; stroke-linecap:round; stroke-linejoin:round; stroke-width:2.2; stroke-opacity:0.1; fill:none" points="2544.89,889.318 2544.89,51.9685 "/>
<polyline clip-path="url(#clip624)" style="stroke:#000000; stroke-linecap:round; stroke-linejoin:round; stroke-width:2.2; stroke-opacity:0.1; fill:none" points="2641.98,889.318 2641.98,51.9685 "/>
<polyline clip-path="url(#clip624)" style="stroke:#000000; stroke-linecap:round; stroke-linejoin:round; stroke-width:2.2; stroke-opacity:0.1; fill:none" points="2739.07,889.318 2739.07,51.9685 "/>
<polyline clip-path="url(#clip624)" style="stroke:#000000; stroke-linecap:round; stroke-linejoin:round; stroke-width:2.2; stroke-opacity:0.1; fill:none" points="2067.56,865.619 2828.03,865.619 "/>
<polyline clip-path="url(#clip624)" style="stroke:#000000; stroke-linecap:round; stroke-linejoin:round; stroke-width:2.2; stroke-opacity:0.1; fill:none" points="2067.56,668.131 2828.03,668.131 "/>
<polyline clip-path="url(#clip624)" style="stroke:#000000; stroke-linecap:round; stroke-linejoin:round; stroke-width:2.2; stroke-opacity:0.1; fill:none" points="2067.56,470.643 2828.03,470.643 "/>
<polyline clip-path="url(#clip624)" style="stroke:#000000; stroke-linecap:round; stroke-linejoin:round; stroke-width:2.2; stroke-opacity:0.1; fill:none" points="2067.56,273.155 2828.03,273.155 "/>
<polyline clip-path="url(#clip624)" style="stroke:#000000; stroke-linecap:round; stroke-linejoin:round; stroke-width:2.2; stroke-opacity:0.1; fill:none" points="2067.56,75.6671 2828.03,75.6671 "/>
<line clip-path="url(#clip624)" x1="2447.79" y1="470.643" x2="2447.79" y2="448.643" style="stroke:#000000; stroke-width:6.6; stroke-opacity:1"/>
<line clip-path="url(#clip624)" x1="2447.79" y1="470.643" x2="2425.79" y2="470.643" style="stroke:#000000; stroke-width:6.6; stroke-opacity:1"/>
<line clip-path="url(#clip624)" x1="2447.79" y1="470.643" x2="2447.79" y2="492.643" style="stroke:#000000; stroke-width:6.6; stroke-opacity:1"/>
<line clip-path="url(#clip624)" x1="2447.79" y1="470.643" x2="2469.79" y2="470.643" style="stroke:#000000; stroke-width:6.6; stroke-opacity:1"/>
<polyline clip-path="url(#clip624)" style="stroke:#000000; stroke-linecap:round; stroke-linejoin:round; stroke-width:4.4; stroke-opacity:1; fill:none" points="2496.34,470.643 2497.32,470.643 2498.32,470.643 2499.34,470.643 2500.38,470.643 2501.45,470.643 2502.53,470.643 2503.64,470.643 2504.76,470.643 2505.91,470.643 2507.09,470.643 2508.29,470.643 2509.51,470.643 2510.76,470.643 2512.03,470.643 2513.33,470.643 2514.65,470.643 2516,470.643 2517.38,470.643 2518.78,470.643 2520.22,470.643 2521.68,470.643 2523.17,470.643 2524.7,470.643 2526.25,470.643 2527.83,470.643 2529.45,470.643 2531.1,470.643 2532.78,470.643 2534.5,470.643 2536.25,470.643 2538.04,470.643 2539.86,470.643 2541.72,470.643 2543.62,470.643 2545.56,470.643 2547.53,470.643 2549.54,470.643 2551.6,470.643 2553.7,470.643 2555.84,470.643 2558.02,470.643 2560.25,470.643 2562.52,470.643 2564.84,470.643 2567.2,470.643 2569.61,470.643 2572.07,470.643 2574.58,470.643 2577.14,470.643 2579.76,470.643 2582.42,470.643 2585.14,470.643 2587.92,470.643 2590.75,470.643 2593.64,470.643 2596.58,470.643 2599.59,470.643 2602.65,470.643 2605.78,470.643 2608.97,470.643 2612.23,470.643 2615.55,470.643 2618.94,470.643 2622.4,470.643 2625.93,470.643 2629.52,470.643 2633.2,470.643 2636.94,470.643 2640.76,470.643 2644.66,470.643 2648.64,470.643 2652.7,470.643 2656.83,470.643 2661.06,470.643 2665.37,470.643 2669.76,470.643 2674.24,470.643 2678.82,470.643 2683.49,470.643 2688.25,470.643 2693.11,470.643 2698.06,470.643 2703.12,470.643 2708.27,470.643 2713.54,470.643 2718.9,470.643 2724.38,470.643 2729.97,470.643 2735.67,470.643 2741.48,470.643 2747.42,470.643 2753.47,470.643 2759.65,470.643 2765.95,470.643 2772.37,470.643 2778.93,470.643 2785.62,470.643 2792.44,470.643 2799.41,470.643 2806.51,470.643 "/>
<polyline clip-path="url(#clip624)" style="stroke:#000000; stroke-linecap:round; stroke-linejoin:round; stroke-width:4.4; stroke-opacity:1; fill:none" points="2734.51,434.643 2806.51,470.643 2734.51,506.643 "/>
<polyline clip-path="url(#clip624)" style="stroke:#000000; stroke-linecap:round; stroke-linejoin:round; stroke-width:4.4; stroke-opacity:1; fill:none" points="2806.51,470.643 2799.41,470.643 "/>
<polyline clip-path="url(#clip624)" style="stroke:#000000; stroke-linecap:round; stroke-linejoin:round; stroke-width:4.4; stroke-opacity:1; fill:none" points="2482.12,191.353 2482.82,196.883 2483.52,202.304 2484.24,207.617 2484.98,212.826 2485.73,217.931 2486.5,222.935 2487.28,227.84 2488.08,232.648 2488.89,237.36 2489.72,241.98 2490.57,246.507 2491.43,250.946 2492.31,255.296 2493.21,259.56 2494.13,263.74 2495.07,267.837 2496.02,271.853 2497,275.789 2497.99,279.647 2499,283.429 2500.04,287.136 2501.09,290.77 2502.17,294.332 2503.27,297.823 2504.39,301.245 2505.53,304.599 2506.7,307.887 2507.89,311.11 2509.1,314.269 2510.34,317.365 2511.61,320.401 2512.9,323.376 2514.21,326.292 2515.55,329.15 2516.92,331.952 2518.32,334.698 2519.74,337.39 2521.2,340.028 2522.68,342.615 2524.19,345.15 2525.74,347.635 2527.31,350.071 2528.92,352.458 2530.55,354.798 2532.23,357.092 2533.93,359.341 2535.67,361.545 2537.45,363.705 2539.26,365.822 2541.11,367.898 2542.99,369.933 2544.91,371.927 2546.88,373.881 2548.88,375.797 2550.92,377.676 2553,379.516 2555.13,381.321 2557.3,383.09 2559.51,384.823 2561.77,386.523 2564.07,388.188 2566.42,389.821 2568.81,391.421 2571.26,392.99 2573.75,394.528 2576.3,396.035 2578.89,397.512 2581.54,398.96 2584.24,400.38 2587,401.771 2589.81,403.135 2592.68,404.472 2595.61,405.782 2598.59,407.066 2601.64,408.325 2604.75,409.559 2607.92,410.769 2611.15,411.954 2614.45,413.116 2617.82,414.255 2621.26,415.372 2624.76,416.466 2628.33,417.539 2631.98,418.591 2635.7,419.621 2639.5,420.632 2643.37,421.622 2647.32,422.593 2651.35,423.544 2655.46,424.477 2659.66,425.391 2663.94,426.287 2668.31,427.165 2672.76,428.026 2677.31,428.87 2681.94,429.697 2686.67,430.508 2691.5,431.303 2696.42,432.082 2701.44,432.845 "/>
<polyline clip-path="url(#clip624)" style="stroke:#000000; stroke-linecap:round; stroke-linejoin:round; stroke-width:4.4; stroke-opacity:1; fill:none" points="2635.67,386.433 2701.44,432.845 2624.85,457.615 "/>
<polyline clip-path="url(#clip624)" style="stroke:#000000; stroke-linecap:round; stroke-linejoin:round; stroke-width:4.4; stroke-opacity:1; fill:none" points="2701.44,432.845 2696.42,432.082 "/>
<polyline clip-path="url(#clip624)" style="stroke:#000000; stroke-linecap:round; stroke-linejoin:round; stroke-width:4.4; stroke-opacity:1; fill:none" points="2447.79,75.6671 2447.79,83.4881 2447.79,91.1543 2447.79,98.6687 2447.79,106.034 2447.79,113.254 2447.79,120.331 2447.79,127.267 2447.79,134.067 2447.79,140.731 2447.79,147.264 2447.79,153.667 2447.79,159.944 2447.79,166.096 2447.79,172.127 2447.79,178.038 2447.79,183.832 2447.79,189.511 2447.79,195.078 2447.79,200.534 2447.79,205.883 2447.79,211.125 2447.79,216.264 2447.79,221.301 2447.79,226.239 2447.79,231.078 2447.79,235.822 2447.79,240.472 2447.79,245.029 2447.79,249.497 2447.79,253.876 2447.79,258.168 2447.79,262.375 2447.79,266.499 2447.79,270.542 2447.79,274.504 2447.79,278.388 2447.79,282.195 2447.79,285.926 2447.79,289.584 2447.79,293.169 2447.79,296.683 2447.79,300.128 2447.79,303.504 2447.79,306.814 2447.79,310.058 2447.79,313.238 2447.79,316.355 2447.79,319.41 2447.79,322.404 2447.79,325.34 2447.79,328.217 2447.79,331.037 2447.79,333.801 2447.79,336.511 2447.79,339.167 2447.79,341.77 2447.79,344.322 2447.79,346.824 2447.79,349.275 2447.79,351.679 2447.79,354.034 2447.79,356.343 2447.79,358.607 2447.79,360.825 2447.79,363 2447.79,365.131 2447.79,367.22 2447.79,369.268 2447.79,371.276 2447.79,373.243 2447.79,375.172 2447.79,377.062 2447.79,378.915 2447.79,380.732 2447.79,382.512 2447.79,384.257 2447.79,385.968 2447.79,387.644 2447.79,389.288 2447.79,390.899 2447.79,392.478 2447.79,394.026 2447.79,395.543 2447.79,397.03 2447.79,398.488 2447.79,399.916 2447.79,401.317 2447.79,402.69 2447.79,404.035 2447.79,405.354 2447.79,406.647 2447.79,407.914 2447.79,409.156 2447.79,410.374 2447.79,411.567 2447.79,412.737 2447.79,413.884 2447.79,415.007 2447.79,416.109 2447.79,417.189 "/>
<polyline clip-path="url(#clip624)" style="stroke:#000000; stroke-linecap:round; stroke-linejoin:round; stroke-width:4.4; stroke-opacity:1; fill:none" points="2483.79,345.189 2447.79,417.189 2411.79,345.189 "/>
<polyline clip-path="url(#clip624)" style="stroke:#000000; stroke-linecap:round; stroke-linejoin:round; stroke-width:4.4; stroke-opacity:1; fill:none" points="2447.79,417.189 2447.79,416.109 "/>
<polyline clip-path="url(#clip624)" style="stroke:#000000; stroke-linecap:round; stroke-linejoin:round; stroke-width:4.4; stroke-opacity:1; fill:none" points="2413.47,191.353 2412.77,196.883 2412.07,202.304 2411.34,207.617 2410.61,212.826 2409.86,217.931 2409.09,222.935 2408.31,227.84 2407.51,232.648 2406.7,237.36 2405.87,241.98 2405.02,246.507 2404.15,250.946 2403.27,255.296 2402.37,259.56 2401.46,263.74 2400.52,267.837 2399.57,271.853 2398.59,275.789 2397.6,279.647 2396.58,283.429 2395.55,287.136 2394.49,290.77 2393.42,294.332 2392.32,297.823 2391.2,301.245 2390.05,304.599 2388.89,307.887 2387.7,311.11 2386.48,314.269 2385.24,317.365 2383.98,320.401 2382.69,323.376 2381.38,326.292 2380.04,329.15 2378.67,331.952 2377.27,334.698 2375.85,337.39 2374.39,340.028 2372.91,342.615 2371.4,345.15 2369.85,347.635 2368.28,350.071 2366.67,352.458 2365.03,354.798 2363.36,357.092 2361.66,359.341 2359.92,361.545 2358.14,363.705 2356.33,365.822 2354.48,367.898 2352.6,369.933 2350.67,371.927 2348.71,373.881 2346.71,375.797 2344.67,377.676 2342.58,379.516 2340.46,381.321 2338.29,383.09 2336.08,384.823 2333.82,386.523 2331.52,388.188 2329.17,389.821 2326.77,391.421 2324.33,392.99 2321.84,394.528 2319.29,396.035 2316.69,397.512 2314.05,398.96 2311.34,400.38 2308.59,401.771 2305.78,403.135 2302.91,404.472 2299.98,405.782 2296.99,407.066 2293.95,408.325 2290.84,409.559 2287.67,410.769 2284.43,411.954 2281.13,413.116 2277.77,414.255 2274.33,415.372 2270.83,416.466 2267.25,417.539 2263.61,418.591 2259.89,419.621 2256.09,420.632 2252.22,421.622 2248.27,422.593 2244.24,423.544 2240.12,424.477 2235.93,425.391 2231.65,426.287 2227.28,427.165 2222.83,428.026 2218.28,428.87 2213.65,429.697 2208.92,430.508 2204.09,431.303 2199.17,432.082 2194.14,432.845 "/>
<polyline clip-path="url(#clip624)" style="stroke:#000000; stroke-linecap:round; stroke-linejoin:round; stroke-width:4.4; stroke-opacity:1; fill:none" points="2270.74,457.615 2194.14,432.845 2259.92,386.433 "/>
<polyline clip-path="url(#clip624)" style="stroke:#000000; stroke-linecap:round; stroke-linejoin:round; stroke-width:4.4; stroke-opacity:1; fill:none" points="2194.14,432.845 2199.17,432.082 "/>
<polyline clip-path="url(#clip624)" style="stroke:#000000; stroke-linecap:round; stroke-linejoin:round; stroke-width:4.4; stroke-opacity:1; fill:none" points="2399.25,470.643 2398.27,470.643 2397.27,470.643 2396.25,470.643 2395.2,470.643 2394.14,470.643 2393.06,470.643 2391.95,470.643 2390.82,470.643 2389.67,470.643 2388.5,470.643 2387.3,470.643 2386.08,470.643 2384.83,470.643 2383.56,470.643 2382.26,470.643 2380.94,470.643 2379.59,470.643 2378.21,470.643 2376.8,470.643 2375.37,470.643 2373.91,470.643 2372.42,470.643 2370.89,470.643 2369.34,470.643 2367.75,470.643 2366.14,470.643 2364.49,470.643 2362.8,470.643 2361.09,470.643 2359.34,470.643 2357.55,470.643 2355.73,470.643 2353.87,470.643 2351.97,470.643 2350.03,470.643 2348.06,470.643 2346.04,470.643 2343.99,470.643 2341.89,470.643 2339.75,470.643 2337.57,470.643 2335.34,470.643 2333.07,470.643 2330.75,470.643 2328.39,470.643 2325.98,470.643 2323.52,470.643 2321,470.643 2318.44,470.643 2315.83,470.643 2313.16,470.643 2310.44,470.643 2307.67,470.643 2304.84,470.643 2301.95,470.643 2299.01,470.643 2296,470.643 2292.93,470.643 2289.8,470.643 2286.61,470.643 2283.36,470.643 2280.04,470.643 2276.65,470.643 2273.19,470.643 2269.66,470.643 2266.06,470.643 2262.39,470.643 2258.65,470.643 2254.83,470.643 2250.93,470.643 2246.95,470.643 2242.89,470.643 2238.75,470.643 2234.53,470.643 2230.22,470.643 2225.83,470.643 2221.34,470.643 2216.77,470.643 2212.1,470.643 2207.34,470.643 2202.48,470.643 2197.53,470.643 2192.47,470.643 2187.31,470.643 2182.05,470.643 2176.68,470.643 2171.21,470.643 2165.62,470.643 2159.92,470.643 2154.1,470.643 2148.17,470.643 2142.12,470.643 2135.94,470.643 2129.64,470.643 2123.22,470.643 2116.66,470.643 2109.97,470.643 2103.14,470.643 2096.18,470.643 2089.08,470.643 "/>
<polyline clip-path="url(#clip624)" style="stroke:#000000; stroke-linecap:round; stroke-linejoin:round; stroke-width:4.4; stroke-opacity:1; fill:none" points="2161.08,506.643 2089.08,470.643 2161.08,434.643 "/>
<polyline clip-path="url(#clip624)" style="stroke:#000000; stroke-linecap:round; stroke-linejoin:round; stroke-width:4.4; stroke-opacity:1; fill:none" points="2089.08,470.643 2096.18,470.643 "/>
<polyline clip-path="url(#clip624)" style="stroke:#000000; stroke-linecap:round; stroke-linejoin:round; stroke-width:4.4; stroke-opacity:1; fill:none" points="2413.47,749.933 2412.77,744.403 2412.07,738.982 2411.34,733.669 2410.61,728.461 2409.86,723.355 2409.09,718.351 2408.31,713.446 2407.51,708.639 2406.7,703.926 2405.87,699.307 2405.02,694.779 2404.15,690.341 2403.27,685.99 2402.37,681.726 2401.46,677.546 2400.52,673.45 2399.57,669.434 2398.59,665.497 2397.6,661.639 2396.58,657.857 2395.55,654.15 2394.49,650.516 2393.42,646.955 2392.32,643.463 2391.2,640.041 2390.05,636.687 2388.89,633.399 2387.7,630.176 2386.48,627.017 2385.24,623.921 2383.98,620.886 2382.69,617.911 2381.38,614.995 2380.04,612.136 2378.67,609.335 2377.27,606.588 2375.85,603.896 2374.39,601.258 2372.91,598.672 2371.4,596.136 2369.85,593.651 2368.28,591.216 2366.67,588.828 2365.03,586.488 2363.36,584.194 2361.66,581.946 2359.92,579.742 2358.14,577.581 2356.33,575.464 2354.48,573.388 2352.6,571.354 2350.67,569.36 2348.71,567.405 2346.71,565.489 2344.67,563.611 2342.58,561.77 2340.46,559.966 2338.29,558.197 2336.08,556.463 2333.82,554.764 2331.52,553.098 2329.17,551.465 2326.77,549.865 2324.33,548.296 2321.84,546.759 2319.29,545.251 2316.69,543.774 2314.05,542.326 2311.34,540.907 2308.59,539.515 2305.78,538.152 2302.91,536.815 2299.98,535.504 2296.99,534.22 2293.95,532.961 2290.84,531.727 2287.67,530.518 2284.43,529.332 2281.13,528.17 2277.77,527.031 2274.33,525.914 2270.83,524.82 2267.25,523.747 2263.61,522.696 2259.89,521.665 2256.09,520.655 2252.22,519.664 2248.27,518.694 2244.24,517.742 2240.12,516.81 2235.93,515.895 2231.65,514.999 2227.28,514.121 2222.83,513.26 2218.28,512.416 2213.65,511.589 2208.92,510.778 2204.09,509.984 2199.17,509.205 2194.14,508.441 "/>
<polyline clip-path="url(#clip624)" style="stroke:#000000; stroke-linecap:round; stroke-linejoin:round; stroke-width:4.4; stroke-opacity:1; fill:none" points="2259.92,554.854 2194.14,508.441 2270.74,483.671 "/>
<polyline clip-path="url(#clip624)" style="stroke:#000000; stroke-linecap:round; stroke-linejoin:round; stroke-width:4.4; stroke-opacity:1; fill:none" points="2194.14,508.441 2199.17,509.205 "/>
<polyline clip-path="url(#clip624)" style="stroke:#000000; stroke-linecap:round; stroke-linejoin:round; stroke-width:4.4; stroke-opacity:1; fill:none" points="2447.79,865.619 2447.79,857.798 2447.79,850.132 2447.79,842.618 2447.79,835.252 2447.79,828.032 2447.79,820.956 2447.79,814.019 2447.79,807.22 2447.79,800.555 2447.79,794.022 2447.79,787.619 2447.79,781.342 2447.79,775.19 2447.79,769.16 2447.79,763.249 2447.79,757.455 2447.79,751.775 2447.79,746.209 2447.79,740.752 2447.79,735.404 2447.79,730.161 2447.79,725.022 2447.79,719.985 2447.79,715.048 2447.79,710.208 2447.79,705.465 2447.79,700.815 2447.79,696.257 2447.79,691.79 2447.79,687.411 2447.79,683.118 2447.79,678.911 2447.79,674.787 2447.79,670.745 2447.79,666.782 2447.79,662.899 2447.79,659.092 2447.79,655.36 2447.79,651.703 2447.79,648.117 2447.79,644.603 2447.79,641.159 2447.79,637.782 2447.79,634.473 2447.79,631.228 2447.79,628.049 2447.79,624.932 2447.79,621.877 2447.79,618.882 2447.79,615.947 2447.79,613.07 2447.79,610.249 2447.79,607.485 2447.79,604.775 2447.79,602.119 2447.79,599.516 2447.79,596.964 2447.79,594.463 2447.79,592.011 2447.79,589.608 2447.79,587.252 2447.79,584.943 2447.79,582.68 2447.79,580.461 2447.79,578.287 2447.79,576.155 2447.79,574.066 2447.79,572.018 2447.79,570.011 2447.79,568.043 2447.79,566.114 2447.79,564.224 2447.79,562.371 2447.79,560.555 2447.79,558.774 2447.79,557.029 2447.79,555.319 2447.79,553.642 2447.79,551.998 2447.79,550.387 2447.79,548.808 2447.79,547.261 2447.79,545.744 2447.79,544.256 2447.79,542.799 2447.79,541.37 2447.79,539.97 2447.79,538.597 2447.79,537.251 2447.79,535.932 2447.79,534.639 2447.79,533.372 2447.79,532.13 2447.79,530.913 2447.79,529.719 2447.79,528.549 2447.79,527.403 2447.79,526.279 2447.79,525.177 2447.79,524.097 "/>
<polyline clip-path="url(#clip624)" style="stroke:#000000; stroke-linecap:round; stroke-linejoin:round; stroke-width:4.4; stroke-opacity:1; fill:none" points="2411.79,596.097 2447.79,524.097 2483.79,596.097 "/>
<polyline clip-path="url(#clip624)" style="stroke:#000000; stroke-linecap:round; stroke-linejoin:round; stroke-width:4.4; stroke-opacity:1; fill:none" points="2447.79,524.097 2447.79,525.177 "/>
<polyline clip-path="url(#clip624)" style="stroke:#000000; stroke-linecap:round; stroke-linejoin:round; stroke-width:4.4; stroke-opacity:1; fill:none" points="2482.12,749.933 2482.82,744.403 2483.52,738.982 2484.24,733.669 2484.98,728.461 2485.73,723.355 2486.5,718.351 2487.28,713.446 2488.08,708.639 2488.89,703.926 2489.72,699.307 2490.57,694.779 2491.43,690.341 2492.31,685.99 2493.21,681.726 2494.13,677.546 2495.07,673.45 2496.02,669.434 2497,665.497 2497.99,661.639 2499,657.857 2500.04,654.15 2501.09,650.516 2502.17,646.955 2503.27,643.463 2504.39,640.041 2505.53,636.687 2506.7,633.399 2507.89,630.176 2509.1,627.017 2510.34,623.921 2511.61,620.886 2512.9,617.911 2514.21,614.995 2515.55,612.136 2516.92,609.335 2518.32,606.588 2519.74,603.896 2521.2,601.258 2522.68,598.672 2524.19,596.136 2525.74,593.651 2527.31,591.216 2528.92,588.828 2530.55,586.488 2532.23,584.194 2533.93,581.946 2535.67,579.742 2537.45,577.581 2539.26,575.464 2541.11,573.388 2542.99,571.354 2544.91,569.36 2546.88,567.405 2548.88,565.489 2550.92,563.611 2553,561.77 2555.13,559.966 2557.3,558.197 2559.51,556.463 2561.77,554.764 2564.07,553.098 2566.42,551.465 2568.81,549.865 2571.26,548.296 2573.75,546.759 2576.3,545.251 2578.89,543.774 2581.54,542.326 2584.24,540.907 2587,539.515 2589.81,538.152 2592.68,536.815 2595.61,535.504 2598.59,534.22 2601.64,532.961 2604.75,531.727 2607.92,530.518 2611.15,529.332 2614.45,528.17 2617.82,527.031 2621.26,525.914 2624.76,524.82 2628.33,523.747 2631.98,522.696 2635.7,521.665 2639.5,520.655 2643.37,519.664 2647.32,518.694 2651.35,517.742 2655.46,516.81 2659.66,515.895 2663.94,514.999 2668.31,514.121 2672.76,513.26 2677.31,512.416 2681.94,511.589 2686.67,510.778 2691.5,509.984 2696.42,509.205 2701.44,508.441 "/>
<polyline clip-path="url(#clip624)" style="stroke:#000000; stroke-linecap:round; stroke-linejoin:round; stroke-width:4.4; stroke-opacity:1; fill:none" points="2624.85,483.671 2701.44,508.441 2635.67,554.854 "/>
<polyline clip-path="url(#clip624)" style="stroke:#000000; stroke-linecap:round; stroke-linejoin:round; stroke-width:4.4; stroke-opacity:1; fill:none" points="2701.44,508.441 2696.42,509.205 "/>
<path clip-path="url(#clip620)" d="M2467.2 913.534 L2467.2 922.312 Q2462.08 919.861 2457.53 918.658 Q2452.99 917.455 2448.75 917.455 Q2441.4 917.455 2437.39 920.307 Q2433.42 923.159 2433.42 928.417 Q2433.42 932.828 2436.05 935.101 Q2438.73 937.329 2446.12 938.71 L2451.56 939.824 Q2461.63 941.74 2466.4 946.597 Q2471.21 951.41 2471.21 959.52 Q2471.21 969.189 2464.7 974.18 Q2458.24 979.171 2445.72 979.171 Q2441 979.171 2435.65 978.101 Q2430.35 977.032 2424.65 974.938 L2424.65 965.669 Q2430.13 968.744 2435.38 970.303 Q2440.64 971.863 2445.72 971.863 Q2453.43 971.863 2457.62 968.833 Q2461.81 965.803 2461.81 960.188 Q2461.81 955.287 2458.78 952.524 Q2455.79 949.761 2448.93 948.38 L2443.45 947.31 Q2433.38 945.305 2428.88 941.027 Q2424.38 936.75 2424.38 929.13 Q2424.38 920.307 2430.57 915.227 Q2436.81 910.147 2447.73 910.147 Q2452.41 910.147 2457.26 910.994 Q2462.12 911.841 2467.2 913.534 Z" fill="#000000" fill-rule="nonzero" fill-opacity="1" /><path clip-path="url(#clip620)" d="M3027.56 889.318 L3788.03 889.318 L3788.03 51.9685 L3027.56 51.9685  Z" fill="#ffffff" fill-rule="evenodd" fill-opacity="1"/>
<defs>
  <clipPath id="clip625">
    <rect x="3027" y="51" width="761" height="838"/>
  </clipPath>
</defs>
<polyline clip-path="url(#clip625)" style="stroke:#000000; stroke-linecap:round; stroke-linejoin:round; stroke-width:2.2; stroke-opacity:0.1; fill:none" points="3045.45,889.318 3045.45,51.9685 "/>
<polyline clip-path="url(#clip625)" style="stroke:#000000; stroke-linecap:round; stroke-linejoin:round; stroke-width:2.2; stroke-opacity:0.1; fill:none" points="3226.62,889.318 3226.62,51.9685 "/>
<polyline clip-path="url(#clip625)" style="stroke:#000000; stroke-linecap:round; stroke-linejoin:round; stroke-width:2.2; stroke-opacity:0.1; fill:none" points="3407.79,889.318 3407.79,51.9685 "/>
<polyline clip-path="url(#clip625)" style="stroke:#000000; stroke-linecap:round; stroke-linejoin:round; stroke-width:2.2; stroke-opacity:0.1; fill:none" points="3588.96,889.318 3588.96,51.9685 "/>
<polyline clip-path="url(#clip625)" style="stroke:#000000; stroke-linecap:round; stroke-linejoin:round; stroke-width:2.2; stroke-opacity:0.1; fill:none" points="3770.13,889.318 3770.13,51.9685 "/>
<polyline clip-path="url(#clip625)" style="stroke:#000000; stroke-linecap:round; stroke-linejoin:round; stroke-width:2.2; stroke-opacity:0.1; fill:none" points="3027.56,869.612 3788.03,869.612 "/>
<polyline clip-path="url(#clip625)" style="stroke:#000000; stroke-linecap:round; stroke-linejoin:round; stroke-width:2.2; stroke-opacity:0.1; fill:none" points="3027.56,670.128 3788.03,670.128 "/>
<polyline clip-path="url(#clip625)" style="stroke:#000000; stroke-linecap:round; stroke-linejoin:round; stroke-width:2.2; stroke-opacity:0.1; fill:none" points="3027.56,470.643 3788.03,470.643 "/>
<polyline clip-path="url(#clip625)" style="stroke:#000000; stroke-linecap:round; stroke-linejoin:round; stroke-width:2.2; stroke-opacity:0.1; fill:none" points="3027.56,271.159 3788.03,271.159 "/>
<polyline clip-path="url(#clip625)" style="stroke:#000000; stroke-linecap:round; stroke-linejoin:round; stroke-width:2.2; stroke-opacity:0.1; fill:none" points="3027.56,71.6744 3788.03,71.6744 "/>
<circle clip-path="url(#clip625)" cx="3407.79" cy="470.643" r="19.8" fill="#ffffff" fill-rule="evenodd" fill-opacity="1" stroke="#000000" stroke-opacity="1" stroke-width="6.6"/>
<polyline clip-path="url(#clip625)" style="stroke:#000000; stroke-linecap:round; stroke-linejoin:round; stroke-width:4.4; stroke-opacity:1; fill:none" points="3437.54,470.643 3438.28,471.65 3439.01,472.708 3439.72,473.816 3440.43,474.976 3441.12,476.189 3441.79,477.455 3442.45,478.776 3443.08,480.151 3443.69,481.583 3444.28,483.07 3444.84,484.614 3445.37,486.216 3445.87,487.876 3446.33,489.593 3446.76,491.369 3447.15,493.204 3447.5,495.097 3447.8,497.05 3448.06,499.061 3448.27,501.131 3448.42,503.259 3448.52,505.445 3448.56,507.69 3448.54,509.991 3448.45,512.348 3448.3,514.762 3448.07,517.23 3447.77,519.752 3447.39,522.326 3446.93,524.952 3446.39,527.627 3445.76,530.35 3445.03,533.119 3444.21,535.933 3443.3,538.789 3442.27,541.685 3441.15,544.619 3439.91,547.587 3438.56,550.586 3437.09,553.615 3435.5,556.669 3433.79,559.746 3431.94,562.84 3429.97,565.95 3427.86,569.069 3425.61,572.195 3423.21,575.322 3420.67,578.446 3417.98,581.562 3415.14,584.663 3412.14,587.746 3408.97,590.803 3405.65,593.83 3402.15,596.818 3398.49,599.763 3394.65,602.657 3390.63,605.493 3386.44,608.264 3382.07,610.961 3377.51,613.577 3372.76,616.104 3367.83,618.533 3362.71,620.855 3357.39,623.062 3351.88,625.143 3346.17,627.089 3340.27,628.891 3334.18,630.538 3327.88,632.019 3321.39,633.323 3314.69,634.44 3307.81,635.359 3300.72,636.066 3293.44,636.552 3285.96,636.803 3278.29,636.807 3270.43,636.551 3262.38,636.023 3254.15,635.209 3245.74,634.096 3237.14,632.671 3228.38,630.919 3219.44,628.827 3210.34,626.38 3201.08,623.564 3191.67,620.365 3182.12,616.767 3172.43,612.757 3162.61,608.318 3152.67,603.437 3142.62,598.099 3132.47,592.287 3122.23,585.986 3111.91,579.183 3101.53,571.861 3091.09,564.005 3080.61,555.601 3070.1,546.633 3059.59,537.086 3049.08,526.946 "/>
<polyline clip-path="url(#clip625)" style="stroke:#000000; stroke-linecap:round; stroke-linejoin:round; stroke-width:4.4; stroke-opacity:1; fill:none" points="3075.9,602.845 3049.08,526.946 3125.89,551.03 "/>
<polyline clip-path="url(#clip625)" style="stroke:#000000; stroke-linecap:round; stroke-linejoin:round; stroke-width:4.4; stroke-opacity:1; fill:none" points="3049.08,526.946 3059.59,537.086 "/>
<polyline clip-path="url(#clip625)" style="stroke:#000000; stroke-linecap:round; stroke-linejoin:round; stroke-width:4.4; stroke-opacity:1; fill:none" points="3428.83,447.486 3429.99,447.623 3431.19,447.802 3432.41,448.027 3433.65,448.298 3434.92,448.619 3436.21,448.99 3437.52,449.414 3438.85,449.893 3440.2,450.429 3441.57,451.024 3442.96,451.68 3444.36,452.4 3445.78,453.185 3447.21,454.037 3448.66,454.959 3450.11,455.953 3451.57,457.021 3453.04,458.165 3454.52,459.388 3455.99,460.69 3457.47,462.075 3458.94,463.544 3460.41,465.099 3461.87,466.743 3463.33,468.478 3464.77,470.305 3466.19,472.225 3467.6,474.242 3468.99,476.357 3470.35,478.571 3471.68,480.886 3472.98,483.304 3474.25,485.827 3475.48,488.454 3476.66,491.189 3477.8,494.032 3478.88,496.984 3479.92,500.046 3480.89,503.219 3481.79,506.503 3482.63,509.901 3483.39,513.411 3484.08,517.034 3484.68,520.77 3485.19,524.619 3485.61,528.582 3485.92,532.657 3486.13,536.844 3486.23,541.142 3486.21,545.55 3486.07,550.067 3485.79,554.692 3485.38,559.422 3484.83,564.256 3484.13,569.191 3483.28,574.226 3482.26,579.356 3481.07,584.58 3479.71,589.893 3478.17,595.293 3476.44,600.774 3474.51,606.333 3472.38,611.964 3470.03,617.664 3467.47,623.425 3464.69,629.243 3461.67,635.112 3458.42,641.024 3454.92,646.973 3451.17,652.952 3447.15,658.951 3442.87,664.964 3438.31,670.982 3433.48,676.994 3428.35,682.993 3422.93,688.967 3417.21,694.905 3411.18,700.798 3404.83,706.633 3398.17,712.398 3391.18,718.08 3383.85,723.667 3376.19,729.145 3368.19,734.5 3359.83,739.717 3351.12,744.78 3342.06,749.674 3332.63,754.383 3322.84,758.89 3312.68,763.177 3302.14,767.226 3291.23,771.02 3279.94,774.538 3268.28,777.761 3256.23,780.67 3243.81,783.243 3231,785.459 3217.81,787.296 3204.24,788.733 3190.3,789.745 "/>
<polyline clip-path="url(#clip625)" style="stroke:#000000; stroke-linecap:round; stroke-linejoin:round; stroke-width:4.4; stroke-opacity:1; fill:none" points="3264.72,820.435 3190.3,789.745 3259.5,748.624 "/>
<polyline clip-path="url(#clip625)" style="stroke:#000000; stroke-linecap:round; stroke-linejoin:round; stroke-width:4.4; stroke-opacity:1; fill:none" points="3190.3,789.745 3204.24,788.733 "/>
<polyline clip-path="url(#clip625)" style="stroke:#000000; stroke-linecap:round; stroke-linejoin:round; stroke-width:4.4; stroke-opacity:1; fill:none" points="3407.79,437.894 3408.71,437.08 3409.67,436.277 3410.68,435.486 3411.73,434.71 3412.83,433.95 3413.98,433.209 3415.18,432.488 3416.43,431.79 3417.73,431.116 3419.08,430.47 3420.48,429.854 3421.94,429.27 3423.44,428.721 3425,428.209 3426.62,427.737 3428.28,427.308 3430,426.925 3431.78,426.59 3433.6,426.307 3435.48,426.08 3437.42,425.91 3439.4,425.801 3441.44,425.757 3443.53,425.781 3445.67,425.876 3447.86,426.046 3450.1,426.294 3452.39,426.625 3454.73,427.041 3457.12,427.547 3459.55,428.146 3462.02,428.842 3464.53,429.64 3467.09,430.542 3469.68,431.553 3472.31,432.677 3474.98,433.919 3477.67,435.281 3480.4,436.769 3483.15,438.385 3485.92,440.135 3488.72,442.023 3491.53,444.052 3494.35,446.227 3497.18,448.551 3500.02,451.029 3502.86,453.665 3505.7,456.462 3508.53,459.425 3511.35,462.557 3514.15,465.863 3516.92,469.346 3519.67,473.009 3522.39,476.856 3525.06,480.891 3527.69,485.117 3530.26,489.537 3532.78,494.154 3535.23,498.971 3537.61,503.99 3539.9,509.215 3542.11,514.647 3544.22,520.289 3546.22,526.143 3548.11,532.21 3549.88,538.492 3551.51,544.989 3553.01,551.704 3554.35,558.636 3555.54,565.786 3556.55,573.154 3557.39,580.739 3558.03,588.542 3558.47,596.559 3558.7,604.791 3558.7,613.236 3558.47,621.89 3557.99,630.751 3557.25,639.817 3556.24,649.083 3554.95,658.545 3553.36,668.198 3551.46,678.037 3549.23,688.056 3546.68,698.25 3543.77,708.61 3540.5,719.129 3536.86,729.798 3532.83,740.61 3528.4,751.554 3523.55,762.62 3518.27,773.796 3512.55,785.072 3506.37,796.434 3499.72,807.869 3492.58,819.364 3484.95,830.902 3476.81,842.469 3468.14,854.047 3458.93,865.619 "/>
<polyline clip-path="url(#clip625)" style="stroke:#000000; stroke-linecap:round; stroke-linejoin:round; stroke-width:4.4; stroke-opacity:1; fill:none" points="3531.93,831.698 3458.93,865.619 3475.59,786.865 "/>
<polyline clip-path="url(#clip625)" style="stroke:#000000; stroke-linecap:round; stroke-linejoin:round; stroke-width:4.4; stroke-opacity:1; fill:none" points="3458.93,865.619 3468.14,854.047 "/>
<polyline clip-path="url(#clip625)" style="stroke:#000000; stroke-linecap:round; stroke-linejoin:round; stroke-width:4.4; stroke-opacity:1; fill:none" points="3386.76,447.486 3386.89,446.198 3387.05,444.883 3387.25,443.54 3387.5,442.171 3387.79,440.776 3388.13,439.356 3388.51,437.913 3388.95,436.446 3389.44,434.958 3389.98,433.45 3390.57,431.922 3391.23,430.376 3391.94,428.814 3392.71,427.238 3393.55,425.648 3394.45,424.048 3395.42,422.438 3396.46,420.821 3397.57,419.199 3398.75,417.574 3400.01,415.949 3401.35,414.326 3402.76,412.708 3404.25,411.098 3405.83,409.498 3407.49,407.911 3409.23,406.342 3411.06,404.792 3412.98,403.266 3414.99,401.768 3417.1,400.3 3419.29,398.866 3421.58,397.472 3423.97,396.12 3426.45,394.816 3429.04,393.563 3431.72,392.367 3434.5,391.231 3437.38,390.162 3440.36,389.163 3443.45,388.241 3446.64,387.401 3449.93,386.647 3453.32,385.986 3456.81,385.424 3460.41,384.966 3464.11,384.618 3467.92,384.387 3471.82,384.28 3475.82,384.301 3479.93,384.459 3484.13,384.76 3488.42,385.21 3492.81,385.817 3497.29,386.588 3501.87,387.53 3506.53,388.65 3511.27,389.955 3516.1,391.454 3521,393.153 3525.98,395.061 3531.03,397.185 3536.14,399.532 3541.32,402.111 3546.55,404.929 3551.83,407.995 3557.16,411.316 3562.53,414.899 3567.94,418.754 3573.37,422.887 3578.81,427.307 3584.28,432.022 3589.74,437.038 3595.2,442.364 3600.65,448.008 3606.07,453.976 3611.47,460.276 3616.82,466.916 3622.12,473.901 3627.35,481.24 3632.51,488.939 3637.59,497.003 3642.56,505.44 3647.43,514.255 3652.16,523.454 3656.76,533.042 3661.21,543.024 3665.48,553.404 3669.58,564.187 3673.47,575.377 3677.15,586.977 3680.59,598.99 3683.79,611.418 3686.72,624.263 3689.36,637.526 3691.69,651.209 3693.71,665.31 3695.38,679.831 3696.68,694.768 3697.6,710.122 "/>
<polyline clip-path="url(#clip625)" style="stroke:#000000; stroke-linecap:round; stroke-linejoin:round; stroke-width:4.4; stroke-opacity:1; fill:none" points="3729.23,636.098 3697.6,710.122 3657.36,640.403 "/>
<polyline clip-path="url(#clip625)" style="stroke:#000000; stroke-linecap:round; stroke-linejoin:round; stroke-width:4.4; stroke-opacity:1; fill:none" points="3697.6,710.122 3696.68,694.768 "/>
<polyline clip-path="url(#clip625)" style="stroke:#000000; stroke-linecap:round; stroke-linejoin:round; stroke-width:4.4; stroke-opacity:1; fill:none" points="3378.05,470.643 3377.31,469.636 3376.58,468.579 3375.86,467.47 3375.16,466.31 3374.47,465.098 3373.8,463.831 3373.14,462.511 3372.51,461.135 3371.9,459.704 3371.31,458.216 3370.75,456.672 3370.22,455.07 3369.72,453.411 3369.26,451.693 3368.83,449.917 3368.44,448.082 3368.09,446.189 3367.79,444.237 3367.53,442.225 3367.32,440.156 3367.17,438.027 3367.07,435.841 3367.03,433.597 3367.05,431.296 3367.14,428.938 3367.29,426.525 3367.52,424.056 3367.82,421.535 3368.19,418.96 3368.65,416.335 3369.2,413.66 3369.83,410.936 3370.55,408.167 3371.37,405.353 3372.29,402.497 3373.31,399.601 3374.44,396.668 3375.68,393.7 3377.03,390.7 3378.5,387.671 3380.09,384.617 3381.8,381.541 3383.64,378.446 3385.62,375.337 3387.73,372.217 3389.98,369.091 3392.37,365.964 3394.91,362.84 3397.61,359.725 3400.45,356.623 3403.45,353.541 3406.62,350.483 3409.94,347.457 3413.44,344.468 3417.1,341.523 3420.94,338.629 3424.95,335.793 3429.15,333.023 3433.52,330.325 3438.08,327.709 3442.82,325.182 3447.76,322.753 3452.88,320.431 3458.2,318.225 3463.71,316.143 3469.41,314.197 3475.31,312.395 3481.41,310.749 3487.71,309.268 3494.2,307.963 3500.89,306.846 3507.78,305.928 3514.87,305.22 3522.15,304.735 3529.63,304.484 3537.3,304.48 3545.16,304.735 3553.2,305.263 3561.44,306.077 3569.85,307.19 3578.44,308.615 3587.21,310.367 3596.15,312.46 3605.25,314.907 3614.5,317.722 3623.91,320.922 3633.47,324.519 3643.16,328.53 3652.98,332.968 3662.92,337.849 3672.97,343.188 3683.12,349 3693.36,355.3 3703.68,362.103 3714.06,369.425 3724.5,377.281 3734.98,385.686 3745.48,394.654 3756,404.201 3766.51,414.341 "/>
<polyline clip-path="url(#clip625)" style="stroke:#000000; stroke-linecap:round; stroke-linejoin:round; stroke-width:4.4; stroke-opacity:1; fill:none" points="3739.69,338.441 3766.51,414.341 3689.7,390.257 "/>
<polyline clip-path="url(#clip625)" style="stroke:#000000; stroke-linecap:round; stroke-linejoin:round; stroke-width:4.4; stroke-opacity:1; fill:none" points="3766.51,414.341 3756,404.201 "/>
<polyline clip-path="url(#clip625)" style="stroke:#000000; stroke-linecap:round; stroke-linejoin:round; stroke-width:4.4; stroke-opacity:1; fill:none" points="3386.76,493.8 3385.59,493.664 3384.4,493.484 3383.18,493.26 3381.94,492.988 3380.67,492.668 3379.38,492.297 3378.07,491.873 3376.74,491.394 3375.39,490.858 3374.01,490.263 3372.63,489.606 3371.22,488.887 3369.81,488.102 3368.37,487.249 3366.93,486.327 3365.48,485.333 3364.01,484.265 3362.55,483.121 3361.07,481.899 3359.6,480.596 3358.12,479.212 3356.65,477.742 3355.18,476.187 3353.71,474.543 3352.26,472.809 3350.82,470.982 3349.4,469.061 3347.99,467.044 3346.6,464.929 3345.24,462.715 3343.91,460.4 3342.61,457.982 3341.34,455.46 3340.11,452.832 3338.93,450.097 3337.79,447.255 3336.7,444.303 3335.67,441.241 3334.7,438.068 3333.79,434.783 3332.96,431.386 3332.19,427.876 3331.51,424.253 3330.91,420.516 3330.4,416.667 3329.98,412.705 3329.67,408.63 3329.46,404.443 3329.36,400.144 3329.38,395.736 3329.52,391.219 3329.8,386.595 3330.2,381.864 3330.76,377.03 3331.46,372.095 3332.31,367.06 3333.33,361.93 3334.51,356.706 3335.87,351.393 3337.42,345.994 3339.15,340.513 3341.08,334.954 3343.21,329.322 3345.55,323.623 3348.11,317.861 3350.9,312.043 3353.91,306.174 3357.17,300.262 3360.67,294.313 3364.42,288.335 3368.44,282.335 3372.72,276.322 3377.27,270.305 3382.11,264.292 3387.24,258.294 3392.66,252.32 3398.38,246.381 3404.41,240.488 3410.75,234.654 3417.42,228.889 3424.41,223.206 3431.73,217.619 3439.4,212.141 3447.4,206.786 3455.76,201.57 3464.46,196.506 3473.53,191.612 3482.96,186.903 3492.75,182.397 3502.91,178.11 3513.45,174.06 3524.36,170.267 3535.64,166.748 3547.31,163.525 3559.36,160.617 3571.78,158.044 3584.59,155.828 3597.78,153.99 3611.34,152.554 3625.29,151.541 "/>
<polyline clip-path="url(#clip625)" style="stroke:#000000; stroke-linecap:round; stroke-linejoin:round; stroke-width:4.4; stroke-opacity:1; fill:none" points="3550.87,120.852 3625.29,151.541 3556.08,192.662 "/>
<polyline clip-path="url(#clip625)" style="stroke:#000000; stroke-linecap:round; stroke-linejoin:round; stroke-width:4.4; stroke-opacity:1; fill:none" points="3625.29,151.541 3611.34,152.554 "/>
<polyline clip-path="url(#clip625)" style="stroke:#000000; stroke-linecap:round; stroke-linejoin:round; stroke-width:4.4; stroke-opacity:1; fill:none" points="3407.79,503.393 3406.88,504.206 3405.92,505.01 3404.91,505.8 3403.86,506.577 3402.76,507.336 3401.61,508.078 3400.41,508.799 3399.16,509.497 3397.86,510.17 3396.51,510.816 3395.11,511.432 3393.65,512.016 3392.14,512.566 3390.58,513.078 3388.97,513.549 3387.3,513.978 3385.58,514.362 3383.81,514.696 3381.99,514.979 3380.11,515.207 3378.17,515.377 3376.19,515.485 3374.15,515.53 3372.06,515.506 3369.92,515.411 3367.73,515.241 3365.48,514.992 3363.19,514.662 3360.86,514.245 3358.47,513.74 3356.04,513.14 3353.57,512.444 3351.05,511.647 3348.5,510.744 3345.9,509.733 3343.27,508.609 3340.61,507.368 3337.91,506.005 3335.19,504.518 3332.44,502.901 3329.67,501.151 3326.87,499.263 3324.06,497.234 3321.24,495.06 3318.4,492.735 3315.57,490.257 3312.73,487.622 3309.89,484.824 3307.06,481.861 3304.24,478.729 3301.44,475.423 3298.67,471.941 3295.92,468.277 3293.2,464.43 3290.53,460.395 3287.9,456.169 3285.32,451.749 3282.81,447.132 3280.36,442.316 3277.98,437.296 3275.69,432.071 3273.48,426.639 3271.37,420.997 3269.37,415.144 3267.48,409.077 3265.71,402.795 3264.07,396.297 3262.58,389.582 3261.23,382.65 3260.05,375.5 3259.03,368.132 3258.2,360.547 3257.56,352.745 3257.12,344.727 3256.89,336.495 3256.89,328.051 3257.12,319.396 3257.6,310.535 3258.34,301.469 3259.35,292.204 3260.64,282.742 3262.23,273.089 3264.13,263.249 3266.35,253.23 3268.91,243.037 3271.82,232.677 3275.09,222.158 3278.73,211.488 3282.76,200.676 3287.19,189.732 3292.04,178.667 3297.32,167.49 3303.04,156.214 3309.22,144.852 3315.87,133.417 3323,121.923 3330.64,110.384 3338.78,98.8178 3347.45,87.2395 3356.66,75.6671 "/>
<polyline clip-path="url(#clip625)" style="stroke:#000000; stroke-linecap:round; stroke-linejoin:round; stroke-width:4.4; stroke-opacity:1; fill:none" points="3283.66,109.589 3356.66,75.6671 3340,154.422 "/>
<polyline clip-path="url(#clip625)" style="stroke:#000000; stroke-linecap:round; stroke-linejoin:round; stroke-width:4.4; stroke-opacity:1; fill:none" points="3356.66,75.6671 3347.45,87.2395 "/>
<polyline clip-path="url(#clip625)" style="stroke:#000000; stroke-linecap:round; stroke-linejoin:round; stroke-width:4.4; stroke-opacity:1; fill:none" points="3428.83,493.8 3428.7,495.088 3428.54,496.404 3428.33,497.746 3428.09,499.116 3427.8,500.511 3427.46,501.93 3427.07,503.374 3426.64,504.84 3426.15,506.328 3425.61,507.837 3425.02,509.365 3424.36,510.91 3423.65,512.472 3422.88,514.049 3422.04,515.638 3421.14,517.239 3420.17,518.849 3419.13,520.466 3418.02,522.088 3416.83,523.712 3415.58,525.337 3414.24,526.96 3412.83,528.578 3411.34,530.189 3409.76,531.789 3408.1,533.375 3406.36,534.945 3404.53,536.494 3402.6,538.02 3400.59,539.519 3398.49,540.987 3396.3,542.42 3394,543.815 3391.62,545.166 3389.13,546.471 3386.55,547.723 3383.87,548.92 3381.09,550.055 3378.21,551.124 3375.23,552.123 3372.14,553.045 3368.95,553.886 3365.66,554.639 3362.27,555.3 3358.77,555.863 3355.17,556.321 3351.47,556.668 3347.67,556.899 3343.77,557.007 3339.76,556.985 3335.66,556.827 3331.46,556.527 3327.17,556.076 3322.78,555.469 3318.29,554.698 3313.72,553.757 3309.06,552.637 3304.32,551.331 3299.49,549.832 3294.59,548.133 3289.61,546.225 3284.56,544.102 3279.45,541.754 3274.27,539.175 3269.04,536.357 3263.75,533.291 3258.42,529.971 3253.05,526.387 3247.65,522.532 3242.22,518.399 3236.77,513.979 3231.31,509.265 3225.85,504.248 3220.39,498.922 3214.94,493.279 3209.51,487.31 3204.12,481.01 3198.77,474.371 3193.47,467.385 3188.23,460.046 3183.07,452.348 3178,444.283 3173.02,435.846 3168.16,427.031 3163.42,417.832 3158.82,408.245 3154.38,398.263 3150.1,387.882 3146.01,377.099 3142.12,365.909 3138.44,354.309 3134.99,342.296 3131.8,329.868 3128.87,317.023 3126.23,303.76 3123.89,290.078 3121.88,275.976 3120.21,261.456 3118.91,246.518 3117.99,231.165 "/>
<polyline clip-path="url(#clip625)" style="stroke:#000000; stroke-linecap:round; stroke-linejoin:round; stroke-width:4.4; stroke-opacity:1; fill:none" points="3086.36,305.189 3117.99,231.165 3158.23,300.883 "/>
<polyline clip-path="url(#clip625)" style="stroke:#000000; stroke-linecap:round; stroke-linejoin:round; stroke-width:4.4; stroke-opacity:1; fill:none" points="3117.99,231.165 3118.91,246.518 "/>
<path clip-path="url(#clip620)" d="M3394.27 918.325 L3394.27 927.103 Q3389.15 924.653 3384.6 923.45 Q3380.06 922.246 3375.82 922.246 Q3368.47 922.246 3364.46 925.098 Q3360.49 927.95 3360.49 933.208 Q3360.49 937.62 3363.12 939.892 Q3365.8 942.12 3373.19 943.502 L3378.63 944.616 Q3388.7 946.532 3393.47 951.389 Q3398.28 956.201 3398.28 964.311 Q3398.28 973.981 3391.77 978.971 Q3385.31 983.962 3372.79 983.962 Q3368.07 983.962 3362.72 982.892 Q3357.42 981.823 3351.72 979.729 L3351.72 970.46 Q3357.2 973.535 3362.45 975.095 Q3367.71 976.654 3372.79 976.654 Q3380.5 976.654 3384.69 973.624 Q3388.88 970.594 3388.88 964.979 Q3388.88 960.078 3385.85 957.315 Q3382.86 954.552 3376 953.171 L3370.52 952.102 Q3360.45 950.096 3355.95 945.819 Q3351.45 941.541 3351.45 933.921 Q3351.45 925.098 3357.64 920.018 Q3363.88 914.939 3374.8 914.939 Q3379.48 914.939 3384.33 915.785 Q3389.19 916.632 3394.27 918.325 Z" fill="#000000" fill-rule="nonzero" fill-opacity="1" /><path clip-path="url(#clip620)" d="M3443.87 951.478 Q3446.76 952.458 3449.48 955.666 Q3452.24 958.875 3455.01 964.489 L3464.14 982.67 L3454.47 982.67 L3445.96 965.603 Q3442.66 958.919 3439.54 956.736 Q3436.47 954.552 3431.12 954.552 L3421.32 954.552 L3421.32 982.67 L3412.32 982.67 L3412.32 916.142 L3432.64 916.142 Q3444.04 916.142 3449.66 920.91 Q3455.27 925.678 3455.27 935.302 Q3455.27 941.585 3452.33 945.73 Q3449.44 949.874 3443.87 951.478 M3421.32 923.539 L3421.32 947.155 L3432.64 947.155 Q3439.14 947.155 3442.44 944.17 Q3445.78 941.14 3445.78 935.302 Q3445.78 929.465 3442.44 926.524 Q3439.14 923.539 3432.64 923.539 L3421.32 923.539 Z" fill="#000000" fill-rule="nonzero" fill-opacity="1" /><path clip-path="url(#clip620)" d="M3987.56 889.318 L4748.03 889.318 L4748.03 51.9685 L3987.56 51.9685  Z" fill="#ffffff" fill-rule="evenodd" fill-opacity="1"/>
<defs>
  <clipPath id="clip626">
    <rect x="3987" y="51" width="761" height="838"/>
  </clipPath>
</defs>
<polyline clip-path="url(#clip626)" style="stroke:#000000; stroke-linecap:round; stroke-linejoin:round; stroke-width:2.2; stroke-opacity:0.1; fill:none" points="4009.08,889.318 4009.08,51.9685 "/>
<polyline clip-path="url(#clip626)" style="stroke:#000000; stroke-linecap:round; stroke-linejoin:round; stroke-width:2.2; stroke-opacity:0.1; fill:none" points="4188.44,889.318 4188.44,51.9685 "/>
<polyline clip-path="url(#clip626)" style="stroke:#000000; stroke-linecap:round; stroke-linejoin:round; stroke-width:2.2; stroke-opacity:0.1; fill:none" points="4367.79,889.318 4367.79,51.9685 "/>
<polyline clip-path="url(#clip626)" style="stroke:#000000; stroke-linecap:round; stroke-linejoin:round; stroke-width:2.2; stroke-opacity:0.1; fill:none" points="4547.15,889.318 4547.15,51.9685 "/>
<polyline clip-path="url(#clip626)" style="stroke:#000000; stroke-linecap:round; stroke-linejoin:round; stroke-width:2.2; stroke-opacity:0.1; fill:none" points="4726.51,889.318 4726.51,51.9685 "/>
<polyline clip-path="url(#clip626)" style="stroke:#000000; stroke-linecap:round; stroke-linejoin:round; stroke-width:2.2; stroke-opacity:0.1; fill:none" points="3987.56,865.619 4748.03,865.619 "/>
<polyline clip-path="url(#clip626)" style="stroke:#000000; stroke-linecap:round; stroke-linejoin:round; stroke-width:2.2; stroke-opacity:0.1; fill:none" points="3987.56,668.131 4748.03,668.131 "/>
<polyline clip-path="url(#clip626)" style="stroke:#000000; stroke-linecap:round; stroke-linejoin:round; stroke-width:2.2; stroke-opacity:0.1; fill:none" points="3987.56,470.643 4748.03,470.643 "/>
<polyline clip-path="url(#clip626)" style="stroke:#000000; stroke-linecap:round; stroke-linejoin:round; stroke-width:2.2; stroke-opacity:0.1; fill:none" points="3987.56,273.155 4748.03,273.155 "/>
<polyline clip-path="url(#clip626)" style="stroke:#000000; stroke-linecap:round; stroke-linejoin:round; stroke-width:2.2; stroke-opacity:0.1; fill:none" points="3987.56,75.6671 4748.03,75.6671 "/>
<path clip-path="url(#clip626)" d="M4345.79 448.643 L4345.79 492.643 L4389.79 492.643 L4389.79 448.643 L4345.79 448.643 Z" fill="#ffffff" fill-rule="evenodd" fill-opacity="1" stroke="#000000" stroke-opacity="1" stroke-width="6.6"/>
<polyline clip-path="url(#clip626)" style="stroke:#000000; stroke-linecap:round; stroke-linejoin:round; stroke-width:4.4; stroke-opacity:1; fill:none" points="4403.67,470.643 4726.51,470.643 "/>
<polyline clip-path="url(#clip626)" style="stroke:#000000; stroke-linecap:round; stroke-linejoin:round; stroke-width:4.4; stroke-opacity:1; fill:none" points="4654.51,434.643 4726.51,470.643 4654.51,506.643 "/>
<polyline clip-path="url(#clip626)" style="stroke:#000000; stroke-linecap:round; stroke-linejoin:round; stroke-width:4.4; stroke-opacity:1; fill:none" points="4726.51,470.643 4403.67,470.643 "/>
<polyline clip-path="url(#clip626)" style="stroke:#000000; stroke-linecap:round; stroke-linejoin:round; stroke-width:4.4; stroke-opacity:1; fill:none" points="4393.16,442.714 4621.44,191.353 "/>
<polyline clip-path="url(#clip626)" style="stroke:#000000; stroke-linecap:round; stroke-linejoin:round; stroke-width:4.4; stroke-opacity:1; fill:none" points="4546.39,220.449 4621.44,191.353 4599.69,268.856 "/>
<polyline clip-path="url(#clip626)" style="stroke:#000000; stroke-linecap:round; stroke-linejoin:round; stroke-width:4.4; stroke-opacity:1; fill:none" points="4621.44,191.353 4393.16,442.714 "/>
<polyline clip-path="url(#clip626)" style="stroke:#000000; stroke-linecap:round; stroke-linejoin:round; stroke-width:4.4; stroke-opacity:1; fill:none" points="4367.79,431.146 4367.79,75.6671 "/>
<polyline clip-path="url(#clip626)" style="stroke:#000000; stroke-linecap:round; stroke-linejoin:round; stroke-width:4.4; stroke-opacity:1; fill:none" points="4331.79,147.667 4367.79,75.6671 4403.79,147.667 "/>
<polyline clip-path="url(#clip626)" style="stroke:#000000; stroke-linecap:round; stroke-linejoin:round; stroke-width:4.4; stroke-opacity:1; fill:none" points="4367.79,75.6671 4367.79,431.146 "/>
<polyline clip-path="url(#clip626)" style="stroke:#000000; stroke-linecap:round; stroke-linejoin:round; stroke-width:4.4; stroke-opacity:1; fill:none" points="4342.43,442.714 4114.14,191.353 "/>
<polyline clip-path="url(#clip626)" style="stroke:#000000; stroke-linecap:round; stroke-linejoin:round; stroke-width:4.4; stroke-opacity:1; fill:none" points="4135.9,268.856 4114.14,191.353 4189.2,220.449 "/>
<polyline clip-path="url(#clip626)" style="stroke:#000000; stroke-linecap:round; stroke-linejoin:round; stroke-width:4.4; stroke-opacity:1; fill:none" points="4114.14,191.353 4342.43,442.714 "/>
<polyline clip-path="url(#clip626)" style="stroke:#000000; stroke-linecap:round; stroke-linejoin:round; stroke-width:4.4; stroke-opacity:1; fill:none" points="4331.92,470.643 4009.08,470.643 "/>
<polyline clip-path="url(#clip626)" style="stroke:#000000; stroke-linecap:round; stroke-linejoin:round; stroke-width:4.4; stroke-opacity:1; fill:none" points="4081.08,506.643 4009.08,470.643 4081.08,434.643 "/>
<polyline clip-path="url(#clip626)" style="stroke:#000000; stroke-linecap:round; stroke-linejoin:round; stroke-width:4.4; stroke-opacity:1; fill:none" points="4009.08,470.643 4331.92,470.643 "/>
<polyline clip-path="url(#clip626)" style="stroke:#000000; stroke-linecap:round; stroke-linejoin:round; stroke-width:4.4; stroke-opacity:1; fill:none" points="4342.43,498.572 4114.14,749.933 "/>
<polyline clip-path="url(#clip626)" style="stroke:#000000; stroke-linecap:round; stroke-linejoin:round; stroke-width:4.4; stroke-opacity:1; fill:none" points="4189.2,720.837 4114.14,749.933 4135.9,672.431 "/>
<polyline clip-path="url(#clip626)" style="stroke:#000000; stroke-linecap:round; stroke-linejoin:round; stroke-width:4.4; stroke-opacity:1; fill:none" points="4114.14,749.933 4342.43,498.572 "/>
<polyline clip-path="url(#clip626)" style="stroke:#000000; stroke-linecap:round; stroke-linejoin:round; stroke-width:4.4; stroke-opacity:1; fill:none" points="4367.79,510.141 4367.79,865.619 "/>
<polyline clip-path="url(#clip626)" style="stroke:#000000; stroke-linecap:round; stroke-linejoin:round; stroke-width:4.4; stroke-opacity:1; fill:none" points="4403.79,793.619 4367.79,865.619 4331.79,793.619 "/>
<polyline clip-path="url(#clip626)" style="stroke:#000000; stroke-linecap:round; stroke-linejoin:round; stroke-width:4.4; stroke-opacity:1; fill:none" points="4367.79,865.619 4367.79,510.141 "/>
<polyline clip-path="url(#clip626)" style="stroke:#000000; stroke-linecap:round; stroke-linejoin:round; stroke-width:4.4; stroke-opacity:1; fill:none" points="4393.16,498.572 4621.44,749.933 "/>
<polyline clip-path="url(#clip626)" style="stroke:#000000; stroke-linecap:round; stroke-linejoin:round; stroke-width:4.4; stroke-opacity:1; fill:none" points="4599.69,672.431 4621.44,749.933 4546.39,720.837 "/>
<polyline clip-path="url(#clip626)" style="stroke:#000000; stroke-linecap:round; stroke-linejoin:round; stroke-width:4.4; stroke-opacity:1; fill:none" points="4621.44,749.933 4393.16,498.572 "/>
<path clip-path="url(#clip620)" d="M4307.75 911.35 L4319.87 911.35 L4349.37 967.006 L4349.37 911.35 L4358.1 911.35 L4358.1 977.878 L4345.98 977.878 L4316.48 922.223 L4316.48 977.878 L4307.75 977.878 L4307.75 911.35 Z" fill="#000000" fill-rule="nonzero" fill-opacity="1" /><path clip-path="url(#clip620)" d="M4407.56 946.687 Q4410.46 947.667 4413.18 950.875 Q4415.94 954.083 4418.7 959.698 L4427.84 977.878 L4418.17 977.878 L4409.66 960.812 Q4406.36 954.128 4403.24 951.945 Q4400.17 949.761 4394.82 949.761 L4385.02 949.761 L4385.02 977.878 L4376.02 977.878 L4376.02 911.35 L4396.33 911.35 Q4407.74 911.35 4413.36 916.118 Q4418.97 920.886 4418.97 930.511 Q4418.97 936.794 4416.03 940.938 Q4413.13 945.082 4407.56 946.687 M4385.02 918.747 L4385.02 942.364 L4396.33 942.364 Q4402.84 942.364 4406.14 939.379 Q4409.48 936.349 4409.48 930.511 Q4409.48 924.674 4406.14 921.733 Q4402.84 918.747 4396.33 918.747 L4385.02 918.747 Z" fill="#000000" fill-rule="nonzero" fill-opacity="1" /></svg>
