<?xml version="1.0" encoding="utf-8"?>
<svg xmlns="http://www.w3.org/2000/svg" xmlns:xlink="http://www.w3.org/1999/xlink" width="800" height="500" viewBox="0 0 3200 2000">
<defs>
  <clipPath id="clip030">
    <rect x="0" y="0" width="3200" height="2000"/>
  </clipPath>
</defs>
<path clip-path="url(#clip030)" d="M0 2000 L3200 2000 L3200 0 L0 0  Z" fill="#ffffff" fill-rule="evenodd" fill-opacity="1"/>
<defs>
  <clipPath id="clip031">
    <rect x="640" y="0" width="2241" height="2000"/>
  </clipPath>
</defs>
<path clip-path="url(#clip030)" d="M254.899 1820.31 L3133.86 1820.31 L3133.86 66.1417 L254.899 66.1417  Z" fill="#ffffff" fill-rule="evenodd" fill-opacity="1"/>
<defs>
  <clipPath id="clip032">
    <rect x="254" y="66" width="2880" height="1755"/>
  </clipPath>
</defs>
<polyline clip-path="url(#clip032)" style="stroke:#000000; stroke-linecap:round; stroke-linejoin:round; stroke-width:2.8; stroke-opacity:0.1; fill:none" points="424.249,1820.31 424.249,66.1417 "/>
<polyline clip-path="url(#clip032)" style="stroke:#000000; stroke-linecap:round; stroke-linejoin:round; stroke-width:2.8; stroke-opacity:0.1; fill:none" points="1271,1820.31 1271,66.1417 "/>
<polyline clip-path="url(#clip032)" style="stroke:#000000; stroke-linecap:round; stroke-linejoin:round; stroke-width:2.8; stroke-opacity:0.1; fill:none" points="2117.75,1820.31 2117.75,66.1417 "/>
<polyline clip-path="url(#clip032)" style="stroke:#000000; stroke-linecap:round; stroke-linejoin:round; stroke-width:2.8; stroke-opacity:0.1; fill:none" points="2964.51,1820.31 2964.51,66.1417 "/>
<polyline clip-path="url(#clip032)" style="stroke:#000000; stroke-linecap:round; stroke-linejoin:round; stroke-width:2.8; stroke-opacity:0.1; fill:none" points="254.899,1605.17 3133.86,1605.17 "/>
<polyline clip-path="url(#clip032)" style="stroke:#000000; stroke-linecap:round; stroke-linejoin:round; stroke-width:2.8; stroke-opacity:0.1; fill:none" points="254.899,1274.2 3133.86,1274.2 "/>
<polyline clip-path="url(#clip032)" style="stroke:#000000; stroke-linecap:round; stroke-linejoin:round; stroke-width:2.8; stroke-opacity:0.1; fill:none" points="254.899,943.224 3133.86,943.224 "/>
<polyline clip-path="url(#clip032)" style="stroke:#000000; stroke-linecap:round; stroke-linejoin:round; stroke-width:2.8; stroke-opacity:0.1; fill:none" points="254.899,612.25 3133.86,612.25 "/>
<polyline clip-path="url(#clip032)" style="stroke:#000000; stroke-linecap:round; stroke-linejoin:round; stroke-width:2.8; stroke-opacity:0.1; fill:none" points="254.899,281.275 3133.86,281.275 "/>
<polyline clip-path="url(#clip032)" style="stroke:#000000; stroke-linecap:round; stroke-linejoin:round; stroke-width:5.6; stroke-opacity:1; fill:none" points="407.314,198.532 424.249,198.532 439.067,148.885 453.885,198.532 468.704,248.178 483.522,198.532 498.34,148.885 513.158,198.532 527.976,248.178 542.794,198.532 557.613,148.885 572.431,198.532 587.249,248.178 602.067,198.532 616.885,148.885 631.704,198.532 646.522,248.178 661.34,198.532 676.158,148.885 690.976,198.532 705.794,248.178 720.613,198.532 735.431,148.885 750.249,198.532 765.067,248.178 779.885,198.532 794.703,148.885 809.522,198.532 824.34,248.178 839.158,198.532 853.976,148.885 868.794,198.532 883.613,248.178 898.431,198.532 913.249,148.885 928.067,198.532 942.885,248.178 957.703,198.532 972.522,148.885 987.34,198.532 1002.16,248.178 1016.98,198.532 1033.91,198.532 "/>
<polyline clip-path="url(#clip032)" style="stroke:#000000; stroke-linecap:round; stroke-linejoin:round; stroke-width:5.6; stroke-opacity:1; fill:none" points="407.314,694.993 424.249,694.993 432.717,645.347 441.184,694.993 449.652,744.64 458.119,694.993 466.587,645.347 475.054,694.993 483.522,744.64 491.989,694.993 500.457,645.347 508.924,694.993 517.392,744.64 525.859,694.993 534.327,645.347 542.794,694.993 551.262,744.64 559.73,694.993 568.197,645.347 576.665,694.993 585.132,744.64 593.6,694.993 602.067,645.347 610.535,694.993 619.002,744.64 627.47,694.993 635.937,645.347 644.405,694.993 652.872,744.64 661.34,694.993 669.807,645.347 678.275,694.993 686.742,744.64 695.21,694.993 703.678,645.347 712.145,694.993 720.613,744.64 729.08,694.993 737.548,645.347 746.015,694.993 754.483,744.64 762.95,694.993 779.885,694.993 "/>
<polyline clip-path="url(#clip032)" style="stroke:#000000; stroke-linecap:round; stroke-linejoin:round; stroke-width:5.6; stroke-opacity:1; fill:none" points="407.314,1191.46 424.249,1191.46 426.366,1141.81 428.483,1191.46 430.6,1241.1 432.717,1191.46 434.833,1141.81 436.95,1191.46 439.067,1241.1 441.184,1191.46 443.301,1141.81 445.418,1191.46 447.535,1241.1 449.652,1191.46 451.769,1141.81 453.885,1191.46 456.002,1241.1 458.119,1191.46 460.236,1141.81 462.353,1191.46 464.47,1241.1 466.587,1191.46 468.704,1141.81 470.82,1191.46 472.937,1241.1 475.054,1191.46 477.171,1141.81 479.288,1191.46 481.405,1241.1 483.522,1191.46 485.639,1141.81 487.756,1191.46 489.872,1241.1 491.989,1191.46 494.106,1141.81 496.223,1191.46 498.34,1241.1 500.457,1191.46 502.574,1141.81 504.691,1191.46 506.807,1241.1 508.924,1191.46 525.859,1191.46 "/>
<polyline clip-path="url(#clip032)" style="stroke:#000000; stroke-linecap:round; stroke-linejoin:round; stroke-width:5.6; stroke-opacity:1; fill:none" points="407.314,1687.92 424.249,1687.92 432.717,1638.27 441.184,1687.92 449.652,1737.56 458.119,1687.92 466.587,1638.27 475.054,1687.92 483.522,1737.56 491.989,1687.92 500.457,1638.27 508.924,1687.92 517.392,1737.56 525.859,1687.92 534.327,1638.27 542.794,1687.92 551.262,1737.56 559.73,1687.92 568.197,1638.27 576.665,1687.92 585.132,1737.56 593.6,1687.92 602.067,1638.27 610.535,1687.92 619.002,1737.56 627.47,1687.92 635.937,1638.27 644.405,1687.92 652.872,1737.56 661.34,1687.92 669.807,1638.27 678.275,1687.92 686.742,1737.56 695.21,1687.92 703.678,1638.27 712.145,1687.92 720.613,1737.56 729.08,1687.92 737.548,1638.27 746.015,1687.92 754.483,1737.56 762.95,1687.92 779.885,1687.92 "/>
<path clip-path="url(#clip032)" d="M779.885 1737.56 L949.236 1737.56 L949.236 1638.27 L779.885 1638.27 L779.885 1737.56  Z" fill="#808080" fill-rule="evenodd" fill-opacity="1"/>
<polyline clip-path="url(#clip032)" style="stroke:#000000; stroke-linecap:round; stroke-linejoin:round; stroke-width:5.6; stroke-opacity:1; fill:none" points="779.885,1737.56 949.236,1737.56 949.236,1638.27 779.885,1638.27 779.885,1737.56 "/>
<path clip-path="url(#clip032)" d="M525.859 1241.1 L695.21 1241.1 L695.21 1141.81 L525.859 1141.81 L525.859 1241.1  Z" fill="#808080" fill-rule="evenodd" fill-opacity="1"/>
<polyline clip-path="url(#clip032)" style="stroke:#000000; stroke-linecap:round; stroke-linejoin:round; stroke-width:5.6; stroke-opacity:1; fill:none" points="525.859,1241.1 695.21,1241.1 695.21,1141.81 525.859,1141.81 525.859,1241.1 "/>
<path clip-path="url(#clip032)" d="M779.885 744.64 L949.236 744.64 L949.236 645.347 L779.885 645.347 L779.885 744.64  Z" fill="#808080" fill-rule="evenodd" fill-opacity="1"/>
<polyline clip-path="url(#clip032)" style="stroke:#000000; stroke-linecap:round; stroke-linejoin:round; stroke-width:5.6; stroke-opacity:1; fill:none" points="779.885,744.64 949.236,744.64 949.236,645.347 779.885,645.347 779.885,744.64 "/>
<path clip-path="url(#clip032)" d="M1033.91 248.178 L1203.26 248.178 L1203.26 148.885 L1033.91 148.885 L1033.91 248.178  Z" fill="#808080" fill-rule="evenodd" fill-opacity="1"/>
<polyline clip-path="url(#clip032)" style="stroke:#000000; stroke-linecap:round; stroke-linejoin:round; stroke-width:5.6; stroke-opacity:1; fill:none" points="1033.91,248.178 1203.26,248.178 1203.26,148.885 1033.91,148.885 1033.91,248.178 "/>
<circle clip-path="url(#clip032)" cx="864.561" cy="1687.92" r="20.16" fill="#008000" fill-rule="evenodd" fill-opacity="1" stroke="#000000" stroke-opacity="1" stroke-width="5.6"/>
<circle clip-path="url(#clip032)" cx="610.535" cy="1191.46" r="20.16" fill="#008000" fill-rule="evenodd" fill-opacity="1" stroke="#000000" stroke-opacity="1" stroke-width="5.6"/>
<circle clip-path="url(#clip032)" cx="864.561" cy="694.993" r="20.16" fill="#008000" fill-rule="evenodd" fill-opacity="1" stroke="#000000" stroke-opacity="1" stroke-width="5.6"/>
<circle clip-path="url(#clip032)" cx="1118.59" cy="198.532" r="20.16" fill="#008000" fill-rule="evenodd" fill-opacity="1" stroke="#000000" stroke-opacity="1" stroke-width="5.6"/>
<polyline clip-path="url(#clip032)" style="stroke:#008000; stroke-linecap:round; stroke-linejoin:round; stroke-width:11.2; stroke-opacity:1; fill:none" points="864.561,694.993 695.21,694.993 "/>
<polyline clip-path="url(#clip032)" style="stroke:#008000; stroke-linecap:round; stroke-linejoin:round; stroke-width:11.2; stroke-opacity:1; fill:none" points="743.21,718.993 695.21,694.993 743.21,670.993 "/>
<polyline clip-path="url(#clip032)" style="stroke:#008000; stroke-linecap:round; stroke-linejoin:round; stroke-width:11.2; stroke-opacity:1; fill:none" points="695.21,694.993 864.561,694.993 "/>
<polyline clip-path="url(#clip032)" style="stroke:#008000; stroke-linecap:round; stroke-linejoin:round; stroke-width:11.2; stroke-opacity:1; fill:none" points="864.561,1687.92 1033.91,1687.92 "/>
<polyline clip-path="url(#clip032)" style="stroke:#008000; stroke-linecap:round; stroke-linejoin:round; stroke-width:11.2; stroke-opacity:1; fill:none" points="985.911,1663.92 1033.91,1687.92 985.911,1711.92 "/>
<polyline clip-path="url(#clip032)" style="stroke:#008000; stroke-linecap:round; stroke-linejoin:round; stroke-width:11.2; stroke-opacity:1; fill:none" points="1033.91,1687.92 864.561,1687.92 "/>
<polyline clip-path="url(#clip032)" style="stroke:#000000; stroke-linecap:round; stroke-linejoin:round; stroke-width:5.6; stroke-opacity:1; fill:none" points="2795.16,943.224 2786.82,1046.78 2762,1147.78 2721.32,1243.74 2665.78,1332.31 2596.75,1411.29 2515.92,1478.75 2425.29,1533.03 2327.08,1572.78 2223.72,1597.02 2117.75,1605.17 "/>
<polyline clip-path="url(#clip032)" style="stroke:#000000; stroke-linecap:round; stroke-linejoin:round; stroke-width:5.6; stroke-opacity:1; fill:none" points="2167.45,1625.42 2117.75,1605.17 2163.77,1577.56 "/>
<polyline clip-path="url(#clip032)" style="stroke:#000000; stroke-linecap:round; stroke-linejoin:round; stroke-width:5.6; stroke-opacity:1; fill:none" points="2117.75,1605.17 2223.72,1597.02 "/>
<polyline clip-path="url(#clip032)" style="stroke:#000000; stroke-linecap:round; stroke-linejoin:round; stroke-width:5.6; stroke-opacity:1; fill:none" points="2117.75,1605.17 2011.79,1597.02 1908.43,1572.78 1810.22,1533.03 1719.59,1478.75 1638.76,1411.29 1569.72,1332.31 1514.18,1243.74 1473.51,1147.78 1448.69,1046.78 1440.35,943.224 "/>
<polyline clip-path="url(#clip032)" style="stroke:#000000; stroke-linecap:round; stroke-linejoin:round; stroke-width:5.6; stroke-opacity:1; fill:none" points="1420.28,992.996 1440.35,943.224 1468.13,989.143 "/>
<polyline clip-path="url(#clip032)" style="stroke:#000000; stroke-linecap:round; stroke-linejoin:round; stroke-width:5.6; stroke-opacity:1; fill:none" points="1440.35,943.224 1448.69,1046.78 "/>
<polyline clip-path="url(#clip032)" style="stroke:#000000; stroke-linecap:round; stroke-linejoin:round; stroke-width:5.6; stroke-opacity:1; fill:none" points="1440.35,943.224 1448.69,839.673 1473.51,738.671 1514.18,642.706 1569.72,554.14 1638.76,475.156 1719.59,407.696 1810.22,353.423 1908.43,313.673 2011.79,289.425 2117.75,281.275 "/>
<polyline clip-path="url(#clip032)" style="stroke:#000000; stroke-linecap:round; stroke-linejoin:round; stroke-width:5.6; stroke-opacity:1; fill:none" points="2068.06,261.027 2117.75,281.275 2071.74,308.885 "/>
<polyline clip-path="url(#clip032)" style="stroke:#000000; stroke-linecap:round; stroke-linejoin:round; stroke-width:5.6; stroke-opacity:1; fill:none" points="2117.75,281.275 2011.79,289.425 "/>
<polyline clip-path="url(#clip032)" style="stroke:#000000; stroke-linecap:round; stroke-linejoin:round; stroke-width:5.6; stroke-opacity:1; fill:none" points="2117.75,281.275 2223.72,289.425 2327.08,313.673 2425.29,353.423 2515.92,407.696 2596.75,475.156 2665.78,554.14 2721.32,642.706 2762,738.671 2786.82,839.673 2795.16,943.224 "/>
<polyline clip-path="url(#clip032)" style="stroke:#000000; stroke-linecap:round; stroke-linejoin:round; stroke-width:5.6; stroke-opacity:1; fill:none" points="2815.23,893.453 2795.16,943.224 2767.38,897.306 "/>
<polyline clip-path="url(#clip032)" style="stroke:#000000; stroke-linecap:round; stroke-linejoin:round; stroke-width:5.6; stroke-opacity:1; fill:none" points="2795.16,943.224 2786.82,839.673 "/>
<circle clip-path="url(#clip032)" cx="2795.16" cy="943.224" r="20.16" fill="#000000" fill-rule="evenodd" fill-opacity="1" stroke="none"/>
<circle clip-path="url(#clip032)" cx="2117.75" cy="1605.17" r="20.16" fill="#000000" fill-rule="evenodd" fill-opacity="1" stroke="none"/>
<circle clip-path="url(#clip032)" cx="1440.35" cy="943.224" r="20.16" fill="#000000" fill-rule="evenodd" fill-opacity="1" stroke="none"/>
<circle clip-path="url(#clip032)" cx="2117.75" cy="281.275" r="20.16" fill="#000000" fill-rule="evenodd" fill-opacity="1" stroke="none"/>
<polyline clip-path="url(#clip032)" style="stroke:#000000; stroke-linecap:round; stroke-linejoin:round; stroke-width:5.6; stroke-opacity:1; fill:none" stroke-dasharray="22, 14" points="1101.65,943.224 3133.86,943.224 "/>
<polyline clip-path="url(#clip032)" style="stroke:#000000; stroke-linecap:round; stroke-linejoin:round; stroke-width:5.6; stroke-opacity:1; fill:none" points="3085.86,919.224 3133.86,943.224 3085.86,967.224 "/>
<polyline clip-path="url(#clip032)" style="stroke:#000000; stroke-linecap:round; stroke-linejoin:round; stroke-width:5.6; stroke-opacity:1; fill:none" stroke-dasharray="22, 14" points="3133.86,943.224 1101.65,943.224 "/>
<polyline clip-path="url(#clip032)" style="stroke:#000000; stroke-linecap:round; stroke-linejoin:round; stroke-width:5.6; stroke-opacity:1; fill:none" stroke-dasharray="22, 14" points="2117.75,1770.66 2117.75,115.788 "/>
<polyline clip-path="url(#clip032)" style="stroke:#000000; stroke-linecap:round; stroke-linejoin:round; stroke-width:5.6; stroke-opacity:1; fill:none" points="2093.75,163.788 2117.75,115.788 2141.75,163.788 "/>
<polyline clip-path="url(#clip032)" style="stroke:#000000; stroke-linecap:round; stroke-linejoin:round; stroke-width:5.6; stroke-opacity:1; fill:none" stroke-dasharray="22, 14" points="2117.75,115.788 2117.75,1770.66 "/>
<path clip-path="url(#clip030)" d="M1046.53 1666.74 L1057.59 1666.74 L1077.44 1720.04 L1097.29 1666.74 L1108.35 1666.74 L1084.53 1730.25 L1070.35 1730.25 L1046.53 1666.74 Z" fill="#008000" fill-rule="nonzero" fill-opacity="1" /><path clip-path="url(#clip030)" d="M1124.12 1673.09 L1124.12 1662.77 L1196.82 1689.14 L1196.82 1698.55 L1124.12 1724.92 L1124.12 1714.6 L1182.53 1693.9 L1124.12 1673.09 Z" fill="#008000" fill-rule="nonzero" fill-opacity="1" /><path clip-path="url(#clip030)" d="M1246.05 1653.12 Q1237.2 1653.12 1232.72 1661.86 Q1228.3 1670.53 1228.3 1688 Q1228.3 1705.41 1232.72 1714.15 Q1237.2 1722.82 1246.05 1722.82 Q1254.95 1722.82 1259.38 1714.15 Q1263.86 1705.41 1263.86 1688 Q1263.86 1670.53 1259.38 1661.86 Q1254.95 1653.12 1246.05 1653.12 M1246.05 1644.05 Q1260.28 1644.05 1267.77 1655.34 Q1275.31 1666.56 1275.31 1688 Q1275.31 1709.38 1267.77 1720.67 Q1260.28 1731.9 1246.05 1731.9 Q1231.81 1731.9 1224.27 1720.67 Q1216.79 1709.38 1216.79 1688 Q1216.79 1666.56 1224.27 1655.34 Q1231.81 1644.05 1246.05 1644.05 Z" fill="#008000" fill-rule="nonzero" fill-opacity="1" /><path clip-path="url(#clip030)" d="M792.509 1170.27 L803.568 1170.27 L823.417 1223.58 L843.267 1170.27 L854.326 1170.27 L830.506 1233.79 L816.328 1233.79 L792.509 1170.27 Z" fill="#008000" fill-rule="nonzero" fill-opacity="1" /><path clip-path="url(#clip030)" d="M870.092 1181.05 L942.797 1181.05 L942.797 1190.58 L870.092 1190.58 L870.092 1181.05 M870.092 1204.19 L942.797 1204.19 L942.797 1213.83 L870.092 1213.83 L870.092 1204.19 Z" fill="#008000" fill-rule="nonzero" fill-opacity="1" /><path clip-path="url(#clip030)" d="M992.024 1156.66 Q983.177 1156.66 978.696 1165.4 Q974.273 1174.07 974.273 1191.54 Q974.273 1208.95 978.696 1217.68 Q983.177 1226.36 992.024 1226.36 Q1000.93 1226.36 1005.35 1217.68 Q1009.83 1208.95 1009.83 1191.54 Q1009.83 1174.07 1005.35 1165.4 Q1000.93 1156.66 992.024 1156.66 M992.024 1147.59 Q1006.26 1147.59 1013.74 1158.87 Q1021.29 1170.1 1021.29 1191.54 Q1021.29 1212.92 1013.74 1224.21 Q1006.26 1235.44 992.024 1235.44 Q977.789 1235.44 970.246 1224.21 Q962.76 1212.92 962.76 1191.54 Q962.76 1170.1 970.246 1158.87 Q977.789 1147.59 992.024 1147.59 Z" fill="#008000" fill-rule="nonzero" fill-opacity="1" /><path clip-path="url(#clip030)" d="M1046.53 673.811 L1057.59 673.811 L1077.44 727.121 L1097.29 673.811 L1108.35 673.811 L1084.53 737.329 L1070.35 737.329 L1046.53 673.811 Z" fill="#008000" fill-rule="nonzero" fill-opacity="1" /><path clip-path="url(#clip030)" d="M1196.82 680.163 L1138.3 700.977 L1196.82 721.677 L1196.82 731.998 L1124.12 705.627 L1124.12 696.213 L1196.82 669.841 L1196.82 680.163 Z" fill="#008000" fill-rule="nonzero" fill-opacity="1" /><path clip-path="url(#clip030)" d="M1246.05 660.2 Q1237.2 660.2 1232.72 668.934 Q1228.3 677.611 1228.3 695.079 Q1228.3 712.489 1232.72 721.223 Q1237.2 729.9 1246.05 729.9 Q1254.95 729.9 1259.38 721.223 Q1263.86 712.489 1263.86 695.079 Q1263.86 677.611 1259.38 668.934 Q1254.95 660.2 1246.05 660.2 M1246.05 651.126 Q1260.28 651.126 1267.77 662.412 Q1275.31 673.641 1275.31 695.079 Q1275.31 716.459 1267.77 727.745 Q1260.28 738.974 1246.05 738.974 Q1231.81 738.974 1224.27 727.745 Q1216.79 716.459 1216.79 695.079 Q1216.79 673.641 1224.27 662.412 Q1231.81 651.126 1246.05 651.126 Z" fill="#008000" fill-rule="nonzero" fill-opacity="1" /><path clip-path="url(#clip030)" d="M1300.56 177.349 L1311.62 177.349 L1331.47 230.659 L1351.32 177.349 L1362.38 177.349 L1338.56 240.868 L1324.38 240.868 L1300.56 177.349 Z" fill="#008000" fill-rule="nonzero" fill-opacity="1" /><path clip-path="url(#clip030)" d="M1378.14 188.125 L1450.85 188.125 L1450.85 197.653 L1378.14 197.653 L1378.14 188.125 M1378.14 211.264 L1450.85 211.264 L1450.85 220.905 L1378.14 220.905 L1378.14 211.264 Z" fill="#008000" fill-rule="nonzero" fill-opacity="1" /><path clip-path="url(#clip030)" d="M1500.08 163.738 Q1491.23 163.738 1486.75 172.472 Q1482.32 181.149 1482.32 198.617 Q1482.32 216.027 1486.75 224.761 Q1491.23 233.438 1500.08 233.438 Q1508.98 233.438 1513.4 224.761 Q1517.88 216.027 1517.88 198.617 Q1517.88 181.149 1513.4 172.472 Q1508.98 163.738 1500.08 163.738 M1500.08 154.664 Q1514.31 154.664 1521.8 165.95 Q1529.34 177.179 1529.34 198.617 Q1529.34 219.997 1521.8 231.283 Q1514.31 242.512 1500.08 242.512 Q1485.84 242.512 1478.3 231.283 Q1470.81 219.997 1470.81 198.617 Q1470.81 177.179 1478.3 165.95 Q1485.84 154.664 1500.08 154.664 Z" fill="#008000" fill-rule="nonzero" fill-opacity="1" /><path clip-path="url(#clip030)" d="M2839.33 926.273 L2858.05 926.273 L2858.05 861.677 L2837.69 865.761 L2837.69 855.326 L2857.93 851.242 L2869.39 851.242 L2869.39 926.273 L2888.11 926.273 L2888.11 935.914 L2839.33 935.914 L2839.33 926.273 Z" fill="#ff0000" fill-rule="nonzero" fill-opacity="1" /><path clip-path="url(#clip030)" d="M2155.46 1704.06 L2195.44 1704.06 L2195.44 1713.7 L2141.68 1713.7 L2141.68 1704.06 Q2148.2 1697.31 2159.43 1685.97 Q2170.72 1674.57 2173.61 1671.28 Q2179.11 1665.1 2181.26 1660.85 Q2183.48 1656.54 2183.48 1652.4 Q2183.48 1645.65 2178.71 1641.4 Q2174 1637.14 2166.4 1637.14 Q2161.02 1637.14 2155.01 1639.01 Q2149.05 1640.89 2142.25 1644.69 L2142.25 1633.12 Q2149.16 1630.34 2155.18 1628.92 Q2161.19 1627.5 2166.18 1627.5 Q2179.34 1627.5 2187.16 1634.08 Q2194.99 1640.66 2194.99 1651.66 Q2194.99 1656.88 2193 1661.59 Q2191.07 1666.24 2185.91 1672.59 Q2184.5 1674.23 2176.9 1682.12 Q2169.3 1689.94 2155.46 1704.06 Z" fill="#ff0000" fill-rule="nonzero" fill-opacity="1" /><path clip-path="url(#clip030)" d="M1383.02 890.26 Q1391.24 892.019 1395.84 897.576 Q1400.49 903.134 1400.49 911.301 Q1400.49 923.834 1391.87 930.697 Q1383.25 937.559 1367.37 937.559 Q1362.04 937.559 1356.36 936.481 Q1350.75 935.46 1344.74 933.362 L1344.74 922.303 Q1349.5 925.082 1355.17 926.5 Q1360.84 927.918 1367.03 927.918 Q1377.8 927.918 1383.42 923.664 Q1389.09 919.411 1389.09 911.301 Q1389.09 903.815 1383.81 899.618 Q1378.6 895.365 1369.24 895.365 L1359.37 895.365 L1359.37 885.95 L1369.69 885.95 Q1378.14 885.95 1382.62 882.604 Q1387.1 879.202 1387.1 872.85 Q1387.1 866.328 1382.45 862.868 Q1377.86 859.352 1369.24 859.352 Q1364.53 859.352 1359.14 860.373 Q1353.76 861.394 1347.29 863.549 L1347.29 853.341 Q1353.81 851.526 1359.48 850.618 Q1365.21 849.711 1370.26 849.711 Q1383.3 849.711 1390.9 855.666 Q1398.5 861.564 1398.5 871.659 Q1398.5 878.691 1394.48 883.568 Q1390.45 888.389 1383.02 890.26 Z" fill="#ff0000" fill-rule="nonzero" fill-opacity="1" /><path clip-path="url(#clip030)" d="M2175.93 182.726 L2147.01 227.926 L2175.93 227.926 L2175.93 182.726 M2172.93 172.744 L2187.33 172.744 L2187.33 227.926 L2199.41 227.926 L2199.41 237.453 L2187.33 237.453 L2187.33 257.416 L2175.93 257.416 L2175.93 237.453 L2137.71 237.453 L2137.71 226.394 L2172.93 172.744 Z" fill="#ff0000" fill-rule="nonzero" fill-opacity="1" /><path clip-path="url(#clip030)" d="M3163.46 1004.79 L3140.49 1035.69 L3164.65 1068.3 L3152.35 1068.3 L3133.86 1043.35 L3115.37 1068.3 L3103.06 1068.3 L3127.73 1035.07 L3105.16 1004.79 L3117.47 1004.79 L3134.31 1027.41 L3151.16 1004.79 L3163.46 1004.79 Z" fill="#000000" fill-rule="nonzero" fill-opacity="1" /><path clip-path="url(#clip030)" d="M2171.52 94.6057 L2182.58 94.6057 L2202.43 147.916 L2222.28 94.6057 L2233.34 94.6057 L2209.52 158.124 L2195.34 158.124 L2171.52 94.6057 Z" fill="#000000" fill-rule="nonzero" fill-opacity="1" /><path clip-path="url(#clip030)" d="M316.01 231.226 L334.725 231.226 L334.725 166.631 L314.365 170.714 L314.365 160.279 L334.611 156.196 L346.067 156.196 L346.067 231.226 L364.783 231.226 L364.783 240.868 L316.01 240.868 L316.01 231.226 Z" fill="#ff0000" fill-rule="nonzero" fill-opacity="1" /><path clip-path="url(#clip030)" d="M326.473 727.688 L366.456 727.688 L366.456 737.329 L312.692 737.329 L312.692 727.688 Q319.214 720.939 330.443 709.597 Q341.729 698.198 344.621 694.908 Q350.122 688.727 352.277 684.473 Q354.489 680.163 354.489 676.023 Q354.489 669.274 349.725 665.021 Q345.018 660.767 337.419 660.767 Q332.031 660.767 326.019 662.639 Q320.065 664.51 313.259 668.31 L313.259 656.741 Q320.178 653.962 326.19 652.544 Q332.201 651.126 337.192 651.126 Q350.349 651.126 358.176 657.705 Q366.002 664.284 366.002 675.286 Q366.002 680.503 364.017 685.211 Q362.089 689.861 356.928 696.213 Q355.51 697.857 347.911 705.74 Q340.311 713.567 326.473 727.688 Z" fill="#ff0000" fill-rule="nonzero" fill-opacity="1" /><path clip-path="url(#clip030)" d="M349.981 1188.14 Q358.204 1189.9 362.798 1195.45 Q367.448 1201.01 367.448 1209.18 Q367.448 1221.71 358.828 1228.57 Q350.207 1235.44 334.328 1235.44 Q328.997 1235.44 323.326 1234.36 Q317.711 1233.34 311.7 1231.24 L311.7 1220.18 Q316.463 1222.96 322.135 1224.38 Q327.806 1225.79 333.988 1225.79 Q344.763 1225.79 350.378 1221.54 Q356.049 1217.29 356.049 1209.18 Q356.049 1201.69 350.775 1197.5 Q345.557 1193.24 336.199 1193.24 L326.331 1193.24 L326.331 1183.83 L336.653 1183.83 Q345.103 1183.83 349.584 1180.48 Q354.064 1177.08 354.064 1170.73 Q354.064 1164.2 349.413 1160.75 Q344.82 1157.23 336.199 1157.23 Q331.492 1157.23 326.105 1158.25 Q320.717 1159.27 314.252 1161.43 L314.252 1151.22 Q320.774 1149.4 326.445 1148.5 Q332.173 1147.59 337.22 1147.59 Q350.264 1147.59 357.864 1153.54 Q365.463 1159.44 365.463 1169.54 Q365.463 1176.57 361.437 1181.45 Q357.41 1186.27 349.981 1188.14 Z" fill="#ff0000" fill-rule="nonzero" fill-opacity="1" /><path clip-path="url(#clip030)" d="M346.946 1655.56 L318.023 1700.76 L346.946 1700.76 L346.946 1655.56 M343.941 1645.58 L358.346 1645.58 L358.346 1700.76 L370.425 1700.76 L370.425 1710.29 L358.346 1710.29 L358.346 1730.25 L346.946 1730.25 L346.946 1710.29 L308.722 1710.29 L308.722 1699.23 L343.941 1645.58 Z" fill="#ff0000" fill-rule="nonzero" fill-opacity="1" /></svg>
