<?xml version="1.0" encoding="utf-8"?>
<svg xmlns="http://www.w3.org/2000/svg" xmlns:xlink="http://www.w3.org/1999/xlink" width="500" height="450" viewBox="0 0 2000 1800">
<defs>
  <clipPath id="clip150">
    <rect x="0" y="0" width="2000" height="1800"/>
  </clipPath>
</defs>
<path clip-path="url(#clip150)" d="M0 1800 L2000 1800 L2000 0 L0 0  Z" fill="#ffffff" fill-rule="evenodd" fill-opacity="1"/>
<defs>
  <clipPath id="clip151">
    <rect x="400" y="0" width="1401" height="1401"/>
  </clipPath>
</defs>
<path clip-path="url(#clip150)" d="M533.076 1405.57 L1929.13 1405.57 L1929.13 70.8661 L533.076 70.8661  Z" fill="#ffffff" fill-rule="evenodd" fill-opacity="1"/>
<defs>
  <clipPath id="clip152">
    <rect x="533" y="70" width="1397" height="1336"/>
  </clipPath>
</defs>
<polyline clip-path="url(#clip152)" style="stroke:#000000; stroke-linecap:round; stroke-linejoin:round; stroke-width:3; stroke-opacity:0.1; fill:none" points="533.076,1405.57 533.076,70.8661 "/>
<polyline clip-path="url(#clip152)" style="stroke:#000000; stroke-linecap:round; stroke-linejoin:round; stroke-width:3; stroke-opacity:0.1; fill:none" points="943.681,1405.57 943.681,70.8661 "/>
<polyline clip-path="url(#clip152)" style="stroke:#000000; stroke-linecap:round; stroke-linejoin:round; stroke-width:3; stroke-opacity:0.1; fill:none" points="1354.29,1405.57 1354.29,70.8661 "/>
<polyline clip-path="url(#clip152)" style="stroke:#000000; stroke-linecap:round; stroke-linejoin:round; stroke-width:3; stroke-opacity:0.1; fill:none" points="1764.89,1405.57 1764.89,70.8661 "/>
<polyline clip-path="url(#clip152)" style="stroke:#000000; stroke-linecap:round; stroke-linejoin:round; stroke-width:3; stroke-opacity:0.1; fill:none" points="533.076,1367.8 1929.13,1367.8 "/>
<polyline clip-path="url(#clip152)" style="stroke:#000000; stroke-linecap:round; stroke-linejoin:round; stroke-width:3; stroke-opacity:0.1; fill:none" points="533.076,1053.01 1929.13,1053.01 "/>
<polyline clip-path="url(#clip152)" style="stroke:#000000; stroke-linecap:round; stroke-linejoin:round; stroke-width:3; stroke-opacity:0.1; fill:none" points="533.076,738.219 1929.13,738.219 "/>
<polyline clip-path="url(#clip152)" style="stroke:#000000; stroke-linecap:round; stroke-linejoin:round; stroke-width:3; stroke-opacity:0.1; fill:none" points="533.076,423.43 1929.13,423.43 "/>
<polyline clip-path="url(#clip152)" style="stroke:#000000; stroke-linecap:round; stroke-linejoin:round; stroke-width:3; stroke-opacity:0.1; fill:none" points="533.076,108.641 1929.13,108.641 "/>
<polyline clip-path="url(#clip150)" style="stroke:#000000; stroke-linecap:round; stroke-linejoin:round; stroke-width:6; stroke-opacity:1; fill:none" points="533.076,1405.57 1929.13,1405.57 "/>
<polyline clip-path="url(#clip150)" style="stroke:#000000; stroke-linecap:round; stroke-linejoin:round; stroke-width:6; stroke-opacity:1; fill:none" points="533.076,1405.57 533.076,1386.67 "/>
<polyline clip-path="url(#clip150)" style="stroke:#000000; stroke-linecap:round; stroke-linejoin:round; stroke-width:6; stroke-opacity:1; fill:none" points="943.681,1405.57 943.681,1386.67 "/>
<polyline clip-path="url(#clip150)" style="stroke:#000000; stroke-linecap:round; stroke-linejoin:round; stroke-width:6; stroke-opacity:1; fill:none" points="1354.29,1405.57 1354.29,1386.67 "/>
<polyline clip-path="url(#clip150)" style="stroke:#000000; stroke-linecap:round; stroke-linejoin:round; stroke-width:6; stroke-opacity:1; fill:none" points="1764.89,1405.57 1764.89,1386.67 "/>
<path clip-path="url(#clip150)" d="M533.076 1439.15 Q527.659 1439.15 524.916 1444.5 Q522.208 1449.81 522.208 1460.5 Q522.208 1471.16 524.916 1476.51 Q527.659 1481.82 533.076 1481.82 Q538.527 1481.82 541.236 1476.51 Q543.979 1471.16 543.979 1460.5 Q543.979 1449.81 541.236 1444.5 Q538.527 1439.15 533.076 1439.15 M533.076 1433.59 Q541.791 1433.59 546.374 1440.5 Q550.993 1447.38 550.993 1460.5 Q550.993 1473.59 546.374 1480.5 Q541.791 1487.38 533.076 1487.38 Q524.361 1487.38 519.743 1480.5 Q515.159 1473.59 515.159 1460.5 Q515.159 1447.38 519.743 1440.5 Q524.361 1433.59 533.076 1433.59 Z" fill="#000000" fill-rule="nonzero" fill-opacity="1" /><path clip-path="url(#clip150)" d="M929.098 1434.53 L956.633 1434.53 L956.633 1440.43 L935.522 1440.43 L935.522 1453.14 Q937.049 1452.62 938.577 1452.38 Q940.105 1452.1 941.633 1452.1 Q950.313 1452.1 955.383 1456.86 Q960.452 1461.61 960.452 1469.74 Q960.452 1478.11 955.244 1482.76 Q950.035 1487.38 940.556 1487.38 Q937.292 1487.38 933.89 1486.82 Q930.522 1486.27 926.91 1485.16 L926.91 1478.11 Q930.035 1479.81 933.369 1480.64 Q936.702 1481.48 940.417 1481.48 Q946.424 1481.48 949.931 1478.32 Q953.438 1475.16 953.438 1469.74 Q953.438 1464.32 949.931 1461.16 Q946.424 1458 940.417 1458 Q937.605 1458 934.792 1458.63 Q932.015 1459.25 929.098 1460.57 L929.098 1434.53 Z" fill="#000000" fill-rule="nonzero" fill-opacity="1" /><path clip-path="url(#clip150)" d="M1316.32 1480.47 L1327.78 1480.47 L1327.78 1440.92 L1315.31 1443.42 L1315.31 1437.03 L1327.71 1434.53 L1334.72 1434.53 L1334.72 1480.47 L1346.18 1480.47 L1346.18 1486.37 L1316.32 1486.37 L1316.32 1480.47 Z" fill="#000000" fill-rule="nonzero" fill-opacity="1" /><path clip-path="url(#clip150)" d="M1375.35 1439.15 Q1369.93 1439.15 1367.19 1444.5 Q1364.48 1449.81 1364.48 1460.5 Q1364.48 1471.16 1367.19 1476.51 Q1369.93 1481.82 1375.35 1481.82 Q1380.8 1481.82 1383.51 1476.51 Q1386.25 1471.16 1386.25 1460.5 Q1386.25 1449.81 1383.51 1444.5 Q1380.8 1439.15 1375.35 1439.15 M1375.35 1433.59 Q1384.06 1433.59 1388.64 1440.5 Q1393.26 1447.38 1393.26 1460.5 Q1393.26 1473.59 1388.64 1480.5 Q1384.06 1487.38 1375.35 1487.38 Q1366.63 1487.38 1362.01 1480.5 Q1357.43 1473.59 1357.43 1460.5 Q1357.43 1447.38 1362.01 1440.5 Q1366.63 1433.59 1375.35 1433.59 Z" fill="#000000" fill-rule="nonzero" fill-opacity="1" /><path clip-path="url(#clip150)" d="M1727.67 1480.47 L1739.13 1480.47 L1739.13 1440.92 L1726.66 1443.42 L1726.66 1437.03 L1739.06 1434.53 L1746.07 1434.53 L1746.07 1480.47 L1757.53 1480.47 L1757.53 1486.37 L1727.67 1486.37 L1727.67 1480.47 Z" fill="#000000" fill-rule="nonzero" fill-opacity="1" /><path clip-path="url(#clip150)" d="M1771.77 1434.53 L1799.3 1434.53 L1799.3 1440.43 L1778.19 1440.43 L1778.19 1453.14 Q1779.72 1452.62 1781.25 1452.38 Q1782.77 1452.1 1784.3 1452.1 Q1792.98 1452.1 1798.05 1456.86 Q1803.12 1461.61 1803.12 1469.74 Q1803.12 1478.11 1797.91 1482.76 Q1792.7 1487.38 1783.22 1487.38 Q1779.96 1487.38 1776.56 1486.82 Q1773.19 1486.27 1769.58 1485.16 L1769.58 1478.11 Q1772.7 1479.81 1776.04 1480.64 Q1779.37 1481.48 1783.09 1481.48 Q1789.09 1481.48 1792.6 1478.32 Q1796.11 1475.16 1796.11 1469.74 Q1796.11 1464.32 1792.6 1461.16 Q1789.09 1458 1783.09 1458 Q1780.27 1458 1777.46 1458.63 Q1774.68 1459.25 1771.77 1460.57 L1771.77 1434.53 Z" fill="#000000" fill-rule="nonzero" fill-opacity="1" /><path clip-path="url(#clip150)" d="M1229.7 1530.21 L1229.7 1545.4 L1247.79 1545.4 L1247.79 1552.22 L1229.7 1552.22 L1229.7 1581.25 Q1229.7 1587.79 1231.46 1589.65 Q1233.28 1591.52 1238.77 1591.52 L1247.79 1591.52 L1247.79 1598.87 L1238.77 1598.87 Q1228.6 1598.87 1224.73 1595.1 Q1220.86 1591.28 1220.86 1581.25 L1220.86 1552.22 L1214.42 1552.22 L1214.42 1545.4 L1220.86 1545.4 L1220.86 1530.21 L1229.7 1530.21 Z" fill="#000000" fill-rule="nonzero" fill-opacity="1" /><polyline clip-path="url(#clip150)" style="stroke:#000000; stroke-linecap:round; stroke-linejoin:round; stroke-width:6; stroke-opacity:1; fill:none" points="533.076,1405.57 533.076,70.8661 "/>
<polyline clip-path="url(#clip150)" style="stroke:#000000; stroke-linecap:round; stroke-linejoin:round; stroke-width:6; stroke-opacity:1; fill:none" points="533.076,1367.8 551.974,1367.8 "/>
<polyline clip-path="url(#clip150)" style="stroke:#000000; stroke-linecap:round; stroke-linejoin:round; stroke-width:6; stroke-opacity:1; fill:none" points="533.076,1053.01 551.974,1053.01 "/>
<polyline clip-path="url(#clip150)" style="stroke:#000000; stroke-linecap:round; stroke-linejoin:round; stroke-width:6; stroke-opacity:1; fill:none" points="533.076,738.219 551.974,738.219 "/>
<polyline clip-path="url(#clip150)" style="stroke:#000000; stroke-linecap:round; stroke-linejoin:round; stroke-width:6; stroke-opacity:1; fill:none" points="533.076,423.43 551.974,423.43 "/>
<polyline clip-path="url(#clip150)" style="stroke:#000000; stroke-linecap:round; stroke-linejoin:round; stroke-width:6; stroke-opacity:1; fill:none" points="533.076,108.641 551.974,108.641 "/>
<path clip-path="url(#clip150)" d="M342.66 1368.47 L387.174 1368.47 L387.174 1374.38 L342.66 1374.38 L342.66 1368.47 Z" fill="#000000" fill-rule="nonzero" fill-opacity="1" /><path clip-path="url(#clip150)" d="M403.528 1387.81 L414.986 1387.81 L414.986 1348.27 L402.521 1350.77 L402.521 1344.38 L414.917 1341.88 L421.931 1341.88 L421.931 1387.81 L433.389 1387.81 L433.389 1393.72 L403.528 1393.72 L403.528 1387.81 Z" fill="#000000" fill-rule="nonzero" fill-opacity="1" /><path clip-path="url(#clip150)" d="M447.555 1384.9 L454.882 1384.9 L454.882 1393.72 L447.555 1393.72 L447.555 1384.9 Z" fill="#000000" fill-rule="nonzero" fill-opacity="1" /><path clip-path="url(#clip150)" d="M485.159 1346.5 Q479.743 1346.5 477 1351.84 Q474.291 1357.15 474.291 1367.85 Q474.291 1378.51 477 1383.86 Q479.743 1389.17 485.159 1389.17 Q490.611 1389.17 493.319 1383.86 Q496.062 1378.51 496.062 1367.85 Q496.062 1357.15 493.319 1351.84 Q490.611 1346.5 485.159 1346.5 M485.159 1340.94 Q493.875 1340.94 498.458 1347.85 Q503.076 1354.72 503.076 1367.85 Q503.076 1380.94 498.458 1387.85 Q493.875 1394.72 485.159 1394.72 Q476.444 1394.72 471.826 1387.85 Q467.243 1380.94 467.243 1367.85 Q467.243 1354.72 471.826 1347.85 Q476.444 1340.94 485.159 1340.94 Z" fill="#000000" fill-rule="nonzero" fill-opacity="1" /><path clip-path="url(#clip150)" d="M344.153 1053.69 L388.667 1053.69 L388.667 1059.59 L344.153 1059.59 L344.153 1053.69 Z" fill="#000000" fill-rule="nonzero" fill-opacity="1" /><path clip-path="url(#clip150)" d="M418.806 1031.71 Q413.389 1031.71 410.646 1037.05 Q407.938 1042.37 407.938 1053.06 Q407.938 1063.72 410.646 1069.07 Q413.389 1074.38 418.806 1074.38 Q424.257 1074.38 426.965 1069.07 Q429.708 1063.72 429.708 1053.06 Q429.708 1042.37 426.965 1037.05 Q424.257 1031.71 418.806 1031.71 M418.806 1026.15 Q427.521 1026.15 432.104 1033.06 Q436.722 1039.94 436.722 1053.06 Q436.722 1066.15 432.104 1073.06 Q427.521 1079.93 418.806 1079.93 Q410.09 1079.93 405.472 1073.06 Q400.889 1066.15 400.889 1053.06 Q400.889 1039.94 405.472 1033.06 Q410.09 1026.15 418.806 1026.15 Z" fill="#000000" fill-rule="nonzero" fill-opacity="1" /><path clip-path="url(#clip150)" d="M449.048 1070.11 L456.375 1070.11 L456.375 1078.93 L449.048 1078.93 L449.048 1070.11 Z" fill="#000000" fill-rule="nonzero" fill-opacity="1" /><path clip-path="url(#clip150)" d="M471.722 1027.09 L499.257 1027.09 L499.257 1032.99 L478.146 1032.99 L478.146 1045.7 Q479.673 1045.18 481.201 1044.94 Q482.729 1044.66 484.257 1044.66 Q492.937 1044.66 498.007 1049.41 Q503.076 1054.17 503.076 1062.3 Q503.076 1070.66 497.868 1075.32 Q492.659 1079.93 483.18 1079.93 Q479.916 1079.93 476.514 1079.38 Q473.146 1078.82 469.534 1077.71 L469.534 1070.66 Q472.659 1072.37 475.993 1073.2 Q479.326 1074.03 483.041 1074.03 Q489.048 1074.03 492.555 1070.87 Q496.062 1067.71 496.062 1062.3 Q496.062 1056.88 492.555 1053.72 Q489.048 1050.56 483.041 1050.56 Q480.229 1050.56 477.416 1051.19 Q474.639 1051.81 471.722 1053.13 L471.722 1027.09 Z" fill="#000000" fill-rule="nonzero" fill-opacity="1" /><path clip-path="url(#clip150)" d="M417.313 716.917 Q411.896 716.917 409.153 722.264 Q406.445 727.577 406.445 738.271 Q406.445 748.931 409.153 754.278 Q411.896 759.59 417.313 759.59 Q422.764 759.59 425.472 754.278 Q428.215 748.931 428.215 738.271 Q428.215 727.577 425.472 722.264 Q422.764 716.917 417.313 716.917 M417.313 711.361 Q426.028 711.361 430.611 718.271 Q435.229 725.146 435.229 738.271 Q435.229 751.361 430.611 758.271 Q426.028 765.146 417.313 765.146 Q408.597 765.146 403.979 758.271 Q399.396 751.361 399.396 738.271 Q399.396 725.146 403.979 718.271 Q408.597 711.361 417.313 711.361 Z" fill="#000000" fill-rule="nonzero" fill-opacity="1" /><path clip-path="url(#clip150)" d="M447.555 755.32 L454.882 755.32 L454.882 764.139 L447.555 764.139 L447.555 755.32 Z" fill="#000000" fill-rule="nonzero" fill-opacity="1" /><path clip-path="url(#clip150)" d="M485.159 716.917 Q479.743 716.917 477 722.264 Q474.291 727.577 474.291 738.271 Q474.291 748.931 477 754.278 Q479.743 759.59 485.159 759.59 Q490.611 759.59 493.319 754.278 Q496.062 748.931 496.062 738.271 Q496.062 727.577 493.319 722.264 Q490.611 716.917 485.159 716.917 M485.159 711.361 Q493.875 711.361 498.458 718.271 Q503.076 725.146 503.076 738.271 Q503.076 751.361 498.458 758.271 Q493.875 765.146 485.159 765.146 Q476.444 765.146 471.826 758.271 Q467.243 751.361 467.243 738.271 Q467.243 725.146 471.826 718.271 Q476.444 711.361 485.159 711.361 Z" fill="#000000" fill-rule="nonzero" fill-opacity="1" /><path clip-path="url(#clip150)" d="M418.806 402.128 Q413.389 402.128 410.646 407.475 Q407.938 412.788 407.938 423.482 Q407.938 434.142 410.646 439.489 Q413.389 444.801 418.806 444.801 Q424.257 444.801 426.965 439.489 Q429.708 434.142 429.708 423.482 Q429.708 412.788 426.965 407.475 Q424.257 402.128 418.806 402.128 M418.806 396.572 Q427.521 396.572 432.104 403.482 Q436.722 410.357 436.722 423.482 Q436.722 436.572 432.104 443.482 Q427.521 450.357 418.806 450.357 Q410.09 450.357 405.472 443.482 Q400.889 436.572 400.889 423.482 Q400.889 410.357 405.472 403.482 Q410.09 396.572 418.806 396.572 Z" fill="#000000" fill-rule="nonzero" fill-opacity="1" /><path clip-path="url(#clip150)" d="M449.048 440.53 L456.375 440.53 L456.375 449.35 L449.048 449.35 L449.048 440.53 Z" fill="#000000" fill-rule="nonzero" fill-opacity="1" /><path clip-path="url(#clip150)" d="M471.722 397.51 L499.257 397.51 L499.257 403.413 L478.146 403.413 L478.146 416.121 Q479.673 415.6 481.201 415.357 Q482.729 415.079 484.257 415.079 Q492.937 415.079 498.007 419.836 Q503.076 424.593 503.076 432.718 Q503.076 441.086 497.868 445.739 Q492.659 450.357 483.18 450.357 Q479.916 450.357 476.514 449.801 Q473.146 449.246 469.534 448.135 L469.534 441.086 Q472.659 442.787 475.993 443.621 Q479.326 444.454 483.041 444.454 Q489.048 444.454 492.555 441.294 Q496.062 438.135 496.062 432.718 Q496.062 427.301 492.555 424.142 Q489.048 420.982 483.041 420.982 Q480.229 420.982 477.416 421.607 Q474.639 422.232 471.722 423.551 L471.722 397.51 Z" fill="#000000" fill-rule="nonzero" fill-opacity="1" /><path clip-path="url(#clip150)" d="M403.528 128.658 L414.986 128.658 L414.986 89.1097 L402.521 91.6097 L402.521 85.2208 L414.917 82.7208 L421.931 82.7208 L421.931 128.658 L433.389 128.658 L433.389 134.561 L403.528 134.561 L403.528 128.658 Z" fill="#000000" fill-rule="nonzero" fill-opacity="1" /><path clip-path="url(#clip150)" d="M447.555 125.741 L454.882 125.741 L454.882 134.561 L447.555 134.561 L447.555 125.741 Z" fill="#000000" fill-rule="nonzero" fill-opacity="1" /><path clip-path="url(#clip150)" d="M485.159 87.3389 Q479.743 87.3389 477 92.6861 Q474.291 97.9985 474.291 108.693 Q474.291 119.353 477 124.7 Q479.743 130.012 485.159 130.012 Q490.611 130.012 493.319 124.7 Q496.062 119.353 496.062 108.693 Q496.062 97.9985 493.319 92.6861 Q490.611 87.3389 485.159 87.3389 M485.159 81.7833 Q493.875 81.7833 498.458 88.693 Q503.076 95.568 503.076 108.693 Q503.076 121.783 498.458 128.693 Q493.875 135.568 485.159 135.568 Q476.444 135.568 471.826 128.693 Q467.243 121.783 467.243 108.693 Q467.243 95.568 471.826 88.693 Q476.444 81.7833 485.159 81.7833 Z" fill="#000000" fill-rule="nonzero" fill-opacity="1" /><path clip-path="url(#clip150)" d="M239.857 839.338 L248.069 839.338 Q246.016 843.062 245.013 846.834 Q243.963 850.558 243.963 854.377 Q243.963 862.923 249.406 867.65 Q254.801 872.376 264.588 872.376 Q274.375 872.376 279.818 867.65 Q285.213 862.923 285.213 854.377 Q285.213 850.558 284.21 846.834 Q283.16 843.062 281.107 839.338 L289.223 839.338 Q290.942 843.014 291.801 846.977 Q292.661 850.892 292.661 855.332 Q292.661 867.411 285.07 874.525 Q277.478 881.638 264.588 881.638 Q251.506 881.638 244.011 874.477 Q236.515 867.268 236.515 854.759 Q236.515 850.701 237.375 846.834 Q238.186 842.967 239.857 839.338 Z" fill="#000000" fill-rule="nonzero" fill-opacity="1" /><path clip-path="url(#clip150)" d="M243.963 803.34 Q243.963 810.406 249.501 814.512 Q254.992 818.618 264.588 818.618 Q274.184 818.618 279.722 814.56 Q285.213 810.454 285.213 803.34 Q285.213 796.322 279.675 792.216 Q274.136 788.11 264.588 788.11 Q255.087 788.11 249.549 792.216 Q243.963 796.322 243.963 803.34 M236.515 803.34 Q236.515 791.882 243.963 785.341 Q251.411 778.8 264.588 778.8 Q277.717 778.8 285.213 785.341 Q292.661 791.882 292.661 803.34 Q292.661 814.846 285.213 821.387 Q277.717 827.88 264.588 827.88 Q251.411 827.88 243.963 821.387 Q236.515 814.846 236.515 803.34 Z" fill="#000000" fill-rule="nonzero" fill-opacity="1" /><path clip-path="url(#clip150)" d="M239.38 730.15 L247.687 730.15 Q245.777 733.874 244.822 737.885 Q243.868 741.895 243.868 746.192 Q243.868 752.733 245.873 756.027 Q247.878 759.274 251.888 759.274 Q254.944 759.274 256.71 756.934 Q258.429 754.595 260.005 747.529 L260.673 744.521 Q262.678 735.163 266.354 731.249 Q269.983 727.286 276.524 727.286 Q283.971 727.286 288.316 733.206 Q292.661 739.078 292.661 749.391 Q292.661 753.688 291.801 758.366 Q290.99 762.997 289.319 768.154 L280.248 768.154 Q282.778 763.284 284.067 758.557 Q285.308 753.831 285.308 749.2 Q285.308 742.993 283.208 739.651 Q281.059 736.309 277.192 736.309 Q273.611 736.309 271.702 738.744 Q269.792 741.131 268.025 749.295 L267.309 752.351 Q265.591 760.515 262.058 764.143 Q258.477 767.772 252.27 767.772 Q244.727 767.772 240.621 762.425 Q236.515 757.077 236.515 747.242 Q236.515 742.373 237.231 738.076 Q237.947 733.779 239.38 730.15 Z" fill="#000000" fill-rule="nonzero" fill-opacity="1" /><path clip-path="url(#clip150)" d="M217.084 692.195 Q228.065 698.592 238.807 701.696 Q249.549 704.799 260.578 704.799 Q271.606 704.799 282.444 701.696 Q293.234 698.545 304.167 692.195 L304.167 699.834 Q292.947 706.995 282.11 710.576 Q271.272 714.109 260.578 714.109 Q249.931 714.109 239.141 710.576 Q228.351 707.043 217.084 699.834 L217.084 692.195 Z" fill="#000000" fill-rule="nonzero" fill-opacity="1" /><path clip-path="url(#clip150)" d="M257.379 639.248 L257.379 669.66 Q271.654 668.944 277.717 665.65 Q285.165 661.544 285.165 654.43 Q285.165 647.269 277.669 643.306 Q271.081 639.821 257.379 639.248 M249.262 639.391 Q235.704 640.728 230.929 643.306 Q223.386 647.412 223.386 654.43 Q223.386 661.735 230.834 665.602 Q236.849 668.658 249.262 669.565 L249.262 639.391 M216.224 654.43 Q216.224 642.972 226.346 636.431 Q236.42 629.891 254.275 629.891 Q272.084 629.891 282.205 636.431 Q292.374 642.972 292.374 654.43 Q292.374 665.936 282.205 672.429 Q272.084 678.97 254.275 678.97 Q236.42 678.97 226.346 672.429 Q216.224 665.936 216.224 654.43 Z" fill="#000000" fill-rule="nonzero" fill-opacity="1" /><path clip-path="url(#clip150)" d="M217.084 616.714 L217.084 609.075 Q228.351 601.913 239.141 598.38 Q249.931 594.8 260.578 594.8 Q271.272 594.8 282.11 598.38 Q292.947 601.913 304.167 609.075 L304.167 616.714 Q293.234 610.364 282.444 607.26 Q271.606 604.109 260.578 604.109 Q249.549 604.109 238.807 607.26 Q228.065 610.364 217.084 616.714 Z" fill="#000000" fill-rule="nonzero" fill-opacity="1" /><polyline clip-path="url(#clip152)" style="stroke:#009af9; stroke-linecap:round; stroke-linejoin:round; stroke-width:6; stroke-opacity:1; fill:none" points="533.076,108.641 534.473,109.21 535.871,110.916 537.268,113.75 538.666,117.7 540.063,122.746 541.461,128.865 542.858,136.031 544.256,144.211 545.653,153.368 547.051,163.463 548.448,174.454 549.845,186.296 551.243,198.939 552.64,212.335 554.038,226.433 555.435,241.181 556.833,256.526 558.23,272.415 559.628,288.796 561.025,305.617 562.423,322.827 563.82,340.376 565.217,358.215 566.615,376.298 568.012,394.579 569.41,413.015 570.807,431.564 572.205,450.188 573.602,468.849 575,487.513 576.397,506.147 577.795,524.722 579.192,543.208 580.589,561.581 581.987,579.816 583.384,597.893 584.782,615.793 586.179,633.499 587.577,650.995 588.974,668.267 590.372,685.301 591.769,702.089 593.167,718.619 594.564,734.883 595.961,750.875 597.359,766.589 598.756,782.02 600.154,797.165 601.551,812.022 602.949,826.588 604.346,840.864 605.744,854.85 607.141,868.546 608.539,881.954 609.936,895.075 611.333,907.911 612.731,920.464 614.128,932.738 615.526,944.736 616.923,956.461 618.321,967.917 619.718,979.108 621.116,990.038 622.513,1000.71 623.911,1011.13 625.308,1021.31 626.705,1031.24 628.103,1040.93 629.5,1050.39 630.898,1059.62 632.295,1068.62 633.693,1077.41 635.09,1085.97 636.488,1094.33 637.885,1102.49 639.283,1110.44 640.68,1118.19 642.077,1125.76 643.475,1133.13 644.872,1140.32 646.27,1147.33 647.667,1154.17 649.065,1160.83 650.462,1167.33 651.86,1173.67 653.257,1179.84 654.655,1185.86 656.052,1191.73 657.449,1197.45 658.847,1203.02 660.244,1208.46 661.642,1213.75 663.039,1218.91 664.437,1223.94 665.834,1228.85 667.232,1233.62 668.629,1238.28 670.027,1242.81 671.424,1247.23 672.821,1251.53 674.219,1255.72 675.616,1259.81 677.014,1263.78 678.411,1267.65 679.809,1271.43 681.206,1275.1 682.604,1278.67 684.001,1282.15 685.399,1285.53 686.796,1288.83 688.193,1292.03 689.591,1295.15 690.988,1298.18 692.386,1301.13 693.783,1304 695.181,1306.78 696.578,1309.49 697.976,1312.12 699.373,1314.68 700.771,1317.16 702.168,1319.56 703.566,1321.9 704.963,1324.16 706.36,1326.36 707.758,1328.49 709.155,1330.55 710.553,1332.55 711.95,1334.48 713.348,1336.35 714.745,1338.16 716.143,1339.91 717.54,1341.59 718.938,1343.22 720.335,1344.79 721.732,1346.3 723.13,1347.75 724.527,1349.15 725.925,1350.5 727.322,1351.78 728.72,1353.02 730.117,1354.2 731.515,1355.33 732.912,1356.41 734.31,1357.43 735.707,1358.41 737.104,1359.33 738.502,1360.21 739.899,1361.03 741.297,1361.81 742.694,1362.53 744.092,1363.21 745.489,1363.84 746.887,1364.43 748.284,1364.96 749.682,1365.45 751.079,1365.89 752.476,1366.29 753.874,1366.64 755.271,1366.94 756.669,1367.2 758.066,1367.41 759.464,1367.57 760.861,1367.69 762.259,1367.77 763.656,1367.8 765.054,1367.78 766.451,1367.72 767.848,1367.61 769.246,1367.45 770.643,1367.26 772.041,1367.01 773.438,1366.72 774.836,1366.38 776.233,1366 777.631,1365.57 779.028,1365.09 780.426,1364.57 781.823,1363.99 783.22,1363.38 784.618,1362.71 786.015,1361.99 787.413,1361.23 788.81,1360.42 790.208,1359.56 791.605,1358.64 793.003,1357.68 794.4,1356.67 795.798,1355.61 797.195,1354.49 798.592,1353.32 799.99,1352.1 801.387,1350.83 802.785,1349.49 804.182,1348.11 805.58,1346.67 806.977,1345.17 808.375,1343.61 809.772,1342 811.17,1340.32 812.567,1338.59 813.964,1336.8 815.362,1334.94 816.759,1333.02 818.157,1331.04 819.554,1328.99 820.952,1326.88 822.349,1324.69 823.747,1322.44 825.144,1320.13 826.542,1317.74 827.939,1315.27 829.336,1312.74 830.734,1310.13 832.131,1307.44 833.529,1304.67 834.926,1301.83 836.324,1298.9 837.721,1295.9 839.119,1292.8 840.516,1289.62 841.914,1286.35 843.311,1282.99 844.708,1279.54 846.106,1275.99 847.503,1272.35 848.901,1268.61 850.298,1264.77 851.696,1260.82 853.093,1256.77 854.491,1252.6 855.888,1248.33 857.286,1243.94 858.683,1239.44 860.081,1234.82 861.478,1230.07 862.875,1225.2 864.273,1220.21 865.67,1215.08 867.068,1209.81 868.465,1204.41 869.863,1198.87 871.26,1193.19 872.658,1187.35 874.055,1181.37 875.453,1175.23 876.85,1168.93 878.247,1162.48 879.645,1155.85 881.042,1149.07 882.44,1142.12 883.837,1134.99 885.235,1127.69 886.632,1120.2 888.03,1112.52 889.427,1104.65 890.825,1096.57 892.222,1088.29 893.619,1079.8 895.017,1071.08 896.414,1062.14 897.812,1052.97 899.209,1043.57 900.607,1033.92 902.004,1024.03 903.402,1013.88 904.799,1003.48 906.197,992.811 907.594,981.88 908.991,970.678 910.389,959.201 911.786,947.446 913.184,935.409 914.581,923.088 915.979,910.479 917.376,897.581 918.774,884.393 920.171,870.912 921.569,857.14 922.966,843.075 924.363,828.72 925.761,814.076 927.158,799.144 928.556,783.929 929.953,768.435 931.351,752.666 932.748,736.629 934.146,720.331 935.543,703.781 936.941,686.987 938.338,669.96 939.735,652.712 941.133,635.256 942.53,617.607 943.928,599.781 945.325,581.795 946.723,563.668 948.12,545.421 949.518,527.076 950.915,508.656 952.313,490.188 953.71,471.699 955.107,453.217 956.505,434.773 957.902,416.4 959.3,398.133 960.697,380.007 962.095,362.06 963.492,344.333 964.89,326.867 966.287,309.705 967.685,292.892 969.082,276.475 970.479,260.502 971.877,245.023 973.274,230.099 974.672,215.796 976.069,202.173 977.467,189.29 978.864,177.203 980.262,165.962 981.659,155.616 983.057,146.211 984.454,137.785 985.851,130.375 987.249,124.013 988.646,118.724 990.044,114.531 991.441,111.451 992.839,109.495 994.236,108.67 995.634,108.979 997.031,110.417 998.429,112.978 999.826,116.648 1001.22,121.411 1002.62,127.245 1004.02,134.124 1005.42,142.019 1006.81,150.897 1008.21,160.721 1009.61,171.452 1011.01,183.047 1012.4,195.461 1013.8,208.646 1015.2,222.555 1016.6,237.136 1017.99,252.338 1019.39,268.108 1020.79,284.393 1022.19,301.139 1023.58,318.294 1024.98,335.803 1026.38,353.614 1027.78,371.676 1029.17,389.937 1030.57,408.347 1031.97,426.86 1033.36,445.435 1034.76,464.041 1036.16,482.644 1037.56,501.217 1038.95,519.731 1040.35,538.161 1041.75,556.483 1043.15,574.677 1044.54,592.721 1045.94,610.598 1047.34,628.29 1048.74,645.783 1050.13,663.064 1051.53,680.119 1052.93,696.938 1054.33,713.511 1055.72,729.83 1057.12,745.887 1058.52,761.677 1059.92,777.193 1061.31,792.432 1062.71,807.39 1064.11,822.065 1065.51,836.454 1066.9,850.557 1068.3,864.372 1069.7,877.901 1071.1,891.143 1072.49,904.101 1073.89,916.775 1075.29,929.169 1076.69,941.283 1078.08,953.122 1079.48,964.689 1080.88,975.986 1082.28,987.018 1083.67,997.789 1085.07,1008.3 1086.47,1018.57 1087.87,1028.58 1089.26,1038.35 1090.66,1047.88 1092.06,1057.18 1093.46,1066.25 1094.85,1075.1 1096.25,1083.72 1097.65,1092.14 1099.05,1100.35 1100.44,1108.35 1101.84,1116.15 1103.24,1123.77 1104.64,1131.19 1106.03,1138.43 1107.43,1145.49 1108.83,1152.37 1110.23,1159.08 1111.62,1165.63 1113.02,1172 1114.42,1178.22 1115.81,1184.28 1117.21,1190.18 1118.61,1195.94 1120.01,1201.55 1121.4,1207.02 1122.8,1212.35 1124.2,1217.54 1125.6,1222.6 1126.99,1227.53 1128.39,1232.33 1129.79,1237.01 1131.19,1241.57 1132.58,1246.01 1133.98,1250.33 1135.38,1254.55 1136.78,1258.65 1138.17,1262.65 1139.57,1266.54 1140.97,1270.33 1142.37,1274.02 1143.76,1277.62 1145.16,1281.12 1146.56,1284.52 1147.96,1287.83 1149.35,1291.06 1150.75,1294.2 1152.15,1297.25 1153.55,1300.22 1154.94,1303.11 1156.34,1305.91 1157.74,1308.64 1159.14,1311.29 1160.53,1313.87 1161.93,1316.37 1163.33,1318.8 1164.73,1321.15 1166.12,1323.44 1167.52,1325.66 1168.92,1327.81 1170.32,1329.89 1171.71,1331.91 1173.11,1333.87 1174.51,1335.76 1175.91,1337.59 1177.3,1339.35 1178.7,1341.06 1180.1,1342.71 1181.5,1344.29 1182.89,1345.82 1184.29,1347.3 1185.69,1348.71 1187.09,1350.07 1188.48,1351.38 1189.88,1352.63 1191.28,1353.83 1192.67,1354.98 1194.07,1356.07 1195.47,1357.11 1196.87,1358.11 1198.26,1359.05 1199.66,1359.94 1201.06,1360.78 1202.46,1361.57 1203.85,1362.31 1205.25,1363 1206.65,1363.65 1208.05,1364.25 1209.44,1364.8 1210.84,1365.3 1212.24,1365.76 1213.64,1366.17 1215.03,1366.53 1216.43,1366.85 1217.83,1367.12 1219.23,1367.35 1220.62,1367.53 1222.02,1367.66 1223.42,1367.75 1224.82,1367.79 1226.21,1367.79 1227.61,1367.74 1229.01,1367.65 1230.41,1367.51 1231.8,1367.32 1233.2,1367.09 1234.6,1366.82 1236,1366.5 1237.39,1366.13 1238.79,1365.71 1240.19,1365.25 1241.59,1364.74 1242.98,1364.19 1244.38,1363.58 1245.78,1362.93 1247.18,1362.23 1248.57,1361.49 1249.97,1360.69 1251.37,1359.84 1252.77,1358.95 1254.16,1358 1255.56,1357.01 1256.96,1355.96 1258.36,1354.86 1259.75,1353.71 1261.15,1352.51 1262.55,1351.25 1263.95,1349.94 1265.34,1348.57 1266.74,1347.15 1268.14,1345.67 1269.53,1344.13 1270.93,1342.54 1272.33,1340.88 1273.73,1339.16 1275.12,1337.38 1276.52,1335.53 1277.92,1333.62 1279.32,1331.65 1280.71,1329.61 1282.11,1327.5 1283.51,1325.32 1284.91,1323.08 1286.3,1320.76 1287.7,1318.38 1289.1,1315.92 1290.5,1313.38 1291.89,1310.77 1293.29,1308.09 1294.69,1305.33 1296.09,1302.48 1297.48,1299.56 1298.88,1296.56 1300.28,1293.47 1301.68,1290.29 1303.07,1287.03 1304.47,1283.68 1305.87,1280.24 1307.27,1276.71 1308.66,1273.08 1310.06,1269.36 1311.46,1265.53 1312.86,1261.61 1314.25,1257.58 1315.65,1253.44 1317.05,1249.2 1318.45,1244.85 1319.84,1240.38 1321.24,1235.79 1322.64,1231.09 1324.04,1226.26 1325.43,1221.31 1326.83,1216.23 1328.23,1211.02 1329.63,1205.67 1331.02,1200.19 1332.42,1194.56 1333.82,1188.79 1335.22,1182.87 1336.61,1176.79 1338.01,1170.56 1339.41,1164.17 1340.81,1157.61 1342.2,1150.88 1343.6,1143.98 1345,1136.91 1346.39,1129.65 1347.79,1122.2 1349.19,1114.56 1350.59,1106.73 1351.98,1098.7 1353.38,1090.46 1354.78,1082.02 1356.18,1073.36 1357.57,1064.48 1358.97,1055.38 1360.37,1046.05 1361.77,1036.48 1363.16,1026.68 1364.56,1016.64 1365.96,1006.35 1367.36,995.808 1368.75,985.011 1370.15,973.954 1371.55,962.634 1372.95,951.046 1374.34,939.186 1375.74,927.052 1377.14,914.64 1378.54,901.946 1379.93,888.97 1381.33,875.708 1382.73,862.158 1384.13,848.321 1385.52,834.194 1386.92,819.777 1388.32,805.072 1389.72,790.078 1391.11,774.799 1392.51,759.241 1393.91,743.41 1395.31,727.306 1396.7,710.932 1398.1,694.291 1399.5,677.391 1400.9,660.239 1402.29,642.845 1403.69,625.221 1405.09,607.382 1406.49,589.345 1407.88,571.128 1409.28,552.752 1410.68,534.242 1412.08,515.622 1413.47,496.922 1414.87,478.173 1416.27,459.406 1417.67,440.658 1419.06,421.967 1420.46,403.372 1421.86,384.915 1423.26,366.641 1424.65,348.594 1426.05,330.823 1427.45,313.377 1428.84,296.304 1430.24,279.657 1431.64,263.487 1433.04,247.847 1434.43,232.788 1435.83,218.363 1437.23,204.624 1438.63,191.622 1440.02,179.405 1441.42,168.023 1442.82,157.521 1444.22,147.942 1445.61,139.328 1447.01,131.717 1448.41,125.142 1449.81,119.634 1451.2,115.219 1452.6,111.92 1454,109.752 1455.4,108.728 1456.79,108.855 1458.19,110.134 1459.59,112.559 1460.99,116.122 1462.38,120.806 1463.78,126.59 1465.18,133.446 1466.58,141.342 1467.97,150.237 1469.37,160.09 1470.77,170.85 1472.17,182.463 1473.56,194.872 1474.96,208.028 1476.36,221.89 1477.76,236.406 1479.15,251.527 1480.55,267.203 1481.95,283.382 1483.35,300.017 1484.74,317.057 1486.14,334.456 1487.54,352.166 1488.94,370.141 1490.33,388.339 1491.73,406.715 1493.13,425.229 1494.53,443.842 1495.92,462.515 1497.32,481.214 1498.72,499.905 1500.12,518.555 1501.51,537.135 1502.91,555.617 1504.31,573.975 1505.7,592.185 1507.1,610.225 1508.5,628.075 1509.9,645.717 1511.29,663.134 1512.69,680.311 1514.09,697.237 1515.49,713.899 1516.88,730.288 1518.28,746.396 1519.68,762.217 1521.08,777.746 1522.47,792.978 1523.87,807.911 1525.27,822.545 1526.67,836.878 1528.06,850.912 1529.46,864.65 1530.86,878.092 1532.26,891.244 1533.65,904.11 1535.05,916.696 1536.45,929.006 1537.85,941.048 1539.24,952.829 1540.64,964.356 1542.04,975.667 1543.44,986.814 1544.83,997.791 1546.23,1008.59 1547.63,1019.21 1549.03,1029.63 1550.42,1039.86 1551.82,1049.9 1553.22,1059.73 1554.62,1069.35 1556.01,1078.77 1557.41,1087.97 1558.81,1096.95 1560.21,1105.72 1561.6,1114.28 1563,1122.61 1564.4,1130.73 1565.8,1138.63 1567.19,1146.31 1568.59,1153.77 1569.99,1161.02 1571.39,1168.06 1572.78,1174.88 1574.18,1181.5 1575.58,1187.9 1576.98,1194.11 1578.37,1200.11 1579.77,1205.91 1581.17,1211.52 1582.56,1216.94 1583.96,1222.18 1585.36,1227.23 1586.76,1232.1 1588.15,1236.79 1589.55,1241.32 1590.95,1245.68 1592.35,1249.88 1593.74,1253.92 1595.14,1257.81 1596.54,1261.56 1597.94,1265.16 1599.33,1268.62 1600.73,1271.95 1602.13,1275.15 1603.53,1278.23 1604.92,1281.19 1606.32,1284.03 1607.72,1286.76 1609.12,1289.39 1610.51,1291.92 1611.91,1294.34 1613.31,1296.68 1614.71,1298.93 1616.1,1301.09 1617.5,1303.18 1618.9,1305.18 1620.3,1307.12 1621.69,1308.99 1623.09,1310.79 1624.49,1312.54 1625.89,1314.23 1627.28,1315.86 1628.68,1317.45 1630.08,1318.99 1631.48,1320.49 1632.87,1321.95 1634.27,1323.37 1635.67,1324.76 1637.07,1326.12 1638.46,1327.45 1639.86,1328.76 1641.26,1330.05 1642.66,1331.32 1644.05,1332.58 1645.45,1333.82 1646.85,1335.05 1648.25,1336.27 1649.64,1337.49 1651.04,1338.69 1652.44,1339.9 1653.84,1341.1 1655.23,1342.31 1656.63,1343.51 1658.03,1344.71 1659.42,1345.92 1660.82,1347.12 1662.22,1348.33 1663.62,1349.54 1665.01,1350.74 1666.41,1351.95 1667.81,1353.15 1669.21,1354.32 1670.6,1355.45 1672,1356.52 1673.4,1357.54 1674.8,1358.51 1676.19,1359.43 1677.59,1360.3 1678.99,1361.12 1680.39,1361.89 1681.78,1362.61 1683.18,1363.28 1684.58,1363.91 1685.98,1364.49 1687.37,1365.02 1688.77,1365.5 1690.17,1365.94 1691.57,1366.33 1692.96,1366.67 1694.36,1366.97 1695.76,1367.22 1697.16,1367.43 1698.55,1367.59 1699.95,1367.7 1701.35,1367.77 1702.75,1367.8 1704.14,1367.77 1705.54,1367.71 1706.94,1367.59 1708.34,1367.44 1709.73,1367.23 1711.13,1366.98 1712.53,1366.68 1713.93,1366.34 1715.32,1365.95 1716.72,1365.52 1718.12,1365.04 1719.52,1364.51 1720.91,1363.93 1722.31,1363.31 1723.71,1362.64 1725.11,1361.92 1726.5,1361.15 1727.9,1360.33 1729.3,1359.47 1730.7,1358.55 1732.09,1357.58 1733.49,1356.56 1734.89,1355.5 1736.29,1354.37 1737.68,1353.2 1739.08,1351.97 1740.48,1350.69 1741.87,1349.36 1743.27,1347.97 1744.67,1346.52 1746.07,1345.02 1747.46,1343.46 1748.86,1341.84 1750.26,1340.16 1751.66,1338.42 1753.05,1336.63 1754.45,1334.77 1755.85,1332.84 1757.25,1330.86 1758.64,1328.81 1760.04,1326.69 1761.44,1324.51 1762.84,1322.26 1764.23,1319.94 1765.63,1317.55 1767.03,1315.08 1768.43,1312.55 1769.82,1309.94 1771.22,1307.25 1772.62,1304.48 1774.02,1301.64 1775.41,1298.71 1776.81,1295.7 1778.21,1292.6 1779.61,1289.42 1781,1286.15 1782.4,1282.79 1783.8,1279.33 1785.2,1275.77 1786.59,1272.12 1787.99,1268.37 1789.39,1264.52 1790.79,1260.56 1792.18,1256.49 1793.58,1252.31 1794.98,1248.02 1796.38,1243.61 1797.77,1239.08 1799.17,1234.43 1800.57,1229.65 1801.97,1224.74 1803.36,1219.7 1804.76,1214.53 1806.16,1209.22 1807.56,1203.76 1808.95,1198.16 1810.35,1192.41 1811.75,1186.5 1813.15,1180.44 1814.54,1174.21 1815.94,1167.83 1817.34,1161.27 1818.73,1154.53 1820.13,1147.63 1821.53,1140.53 1822.93,1133.26 1824.32,1125.79 1825.72,1118.13 1827.12,1110.27 1828.52,1102.2 1829.91,1093.93 1831.31,1085.44 1832.71,1076.74 1834.11,1067.82 1835.5,1058.68 1836.9,1049.3 1838.3,1039.69 1839.7,1029.84 1841.09,1019.76 1842.49,1009.42 1843.89,998.838 1845.29,988.001 1846.68,976.907 1848.08,965.553 1849.48,953.936 1850.88,942.053 1852.27,929.901 1853.67,917.479 1855.07,904.783 1856.47,891.813 1857.86,878.568 1859.26,865.045 1860.66,851.246 1862.06,837.17 1863.45,822.818 1864.85,808.191 1866.25,793.292 1867.65,778.123 1869.04,762.686 1870.44,746.988 1871.84,731.032 1873.24,714.825 1874.63,698.373 1876.03,681.685 1877.43,664.769 1878.83,647.637 1880.22,630.298 1881.62,612.767 1883.02,595.057 1884.42,577.183 1885.81,559.163 1887.21,541.016 1888.61,522.762 1890.01,504.422 1891.4,486.021 1892.8,467.584 1894.2,449.14 1895.59,430.717 1896.99,412.347 1898.39,394.065 1899.79,375.906 1901.18,357.908 1902.58,340.112 1903.98,322.571 1905.38,305.365 1906.77,288.549 1908.17,272.174 1909.57,256.292 1910.97,240.955 1912.36,226.217 1913.76,212.129 1915.16,198.745 1916.56,186.114 1917.95,174.286 1919.35,163.308 1920.75,153.227 1922.15,144.084 1923.54,135.919 1924.94,128.768 1926.34,122.664 1927.74,117.633 1929.13,113.7 "/>
</svg>
