<?xml version="1.0" encoding="utf-8"?>
<svg xmlns="http://www.w3.org/2000/svg" xmlns:xlink="http://www.w3.org/1999/xlink" width="1500" height="450" viewBox="0 0 6000 1800">
<defs>
  <clipPath id="clip350">
    <rect x="0" y="0" width="6000" height="1800"/>
  </clipPath>
</defs>
<path clip-path="url(#clip350)" d="M0 1800 L6000 1800 L6000 0 L0 0  Z" fill="#ffffff" fill-rule="evenodd" fill-opacity="1"/>
<defs>
  <clipPath id="clip351">
    <rect x="1200" y="0" width="4201" height="1800"/>
  </clipPath>
</defs>
<path clip-path="url(#clip350)" d="M519.6 1477.3 L1909.68 1477.3 L1909.68 70.8661 L519.6 70.8661  Z" fill="#ffffff" fill-rule="evenodd" fill-opacity="1"/>
<defs>
  <clipPath id="clip352">
    <rect x="519" y="70" width="1391" height="1407"/>
  </clipPath>
</defs>
<polyline clip-path="url(#clip352)" style="stroke:#000000; stroke-linecap:round; stroke-linejoin:round; stroke-width:3; stroke-opacity:0.1; fill:none" points="668.225,1477.3 668.225,70.8661 "/>
<polyline clip-path="url(#clip352)" style="stroke:#000000; stroke-linecap:round; stroke-linejoin:round; stroke-width:3; stroke-opacity:0.1; fill:none" points="941.432,1477.3 941.432,70.8661 "/>
<polyline clip-path="url(#clip352)" style="stroke:#000000; stroke-linecap:round; stroke-linejoin:round; stroke-width:3; stroke-opacity:0.1; fill:none" points="1214.64,1477.3 1214.64,70.8661 "/>
<polyline clip-path="url(#clip352)" style="stroke:#000000; stroke-linecap:round; stroke-linejoin:round; stroke-width:3; stroke-opacity:0.1; fill:none" points="1487.85,1477.3 1487.85,70.8661 "/>
<polyline clip-path="url(#clip352)" style="stroke:#000000; stroke-linecap:round; stroke-linejoin:round; stroke-width:3; stroke-opacity:0.1; fill:none" points="1761.05,1477.3 1761.05,70.8661 "/>
<polyline clip-path="url(#clip352)" style="stroke:#000000; stroke-linecap:round; stroke-linejoin:round; stroke-width:3; stroke-opacity:0.1; fill:none" points="519.6,1326.92 1909.68,1326.92 "/>
<polyline clip-path="url(#clip352)" style="stroke:#000000; stroke-linecap:round; stroke-linejoin:round; stroke-width:3; stroke-opacity:0.1; fill:none" points="519.6,1050.5 1909.68,1050.5 "/>
<polyline clip-path="url(#clip352)" style="stroke:#000000; stroke-linecap:round; stroke-linejoin:round; stroke-width:3; stroke-opacity:0.1; fill:none" points="519.6,774.081 1909.68,774.081 "/>
<polyline clip-path="url(#clip352)" style="stroke:#000000; stroke-linecap:round; stroke-linejoin:round; stroke-width:3; stroke-opacity:0.1; fill:none" points="519.6,497.66 1909.68,497.66 "/>
<polyline clip-path="url(#clip352)" style="stroke:#000000; stroke-linecap:round; stroke-linejoin:round; stroke-width:3; stroke-opacity:0.1; fill:none" points="519.6,221.239 1909.68,221.239 "/>
<polyline clip-path="url(#clip352)" style="stroke:#009af9; stroke-linecap:round; stroke-linejoin:round; stroke-width:18; stroke-opacity:1; fill:none" points="1761.05,774.081 1758.06,716.293 1749.11,659.139 1734.31,603.243 1713.81,549.22 1687.85,497.66 1656.7,449.129 1620.7,404.158 1580.26,363.239 1535.81,326.822 1487.85,295.306 1436.89,269.035 1383.49,248.297 1328.24,233.32 1271.75,224.268 1214.64,221.239 1157.52,224.268 1101.03,233.32 1045.79,248.297 992.392,269.035 941.432,295.306 893.465,326.822 849.016,363.239 808.574,404.158 772.581,449.129 741.43,497.66 715.465,549.22 694.968,603.243 680.165,659.139 671.218,716.293 668.225,774.081 671.218,831.869 680.165,889.023 694.968,944.918 715.465,998.942 741.43,1050.5 772.581,1099.03 808.574,1144 849.016,1184.92 893.465,1221.34 941.432,1252.86 992.392,1279.13 1045.79,1299.86 1101.03,1314.84 1157.52,1323.89 1214.64,1326.92 1271.75,1323.89 1328.24,1314.84 1383.49,1299.86 1436.89,1279.13 1487.85,1252.86 1535.81,1221.34 1580.26,1184.92 1620.7,1144 1656.7,1099.03 1687.85,1050.5 1713.81,998.942 1734.31,944.918 1749.11,889.023 1758.06,831.869 1761.05,774.081 "/>
<polyline clip-path="url(#clip352)" style="stroke:#000000; stroke-linecap:round; stroke-linejoin:round; stroke-width:6; stroke-opacity:1; fill:none" stroke-dasharray="24, 15" points="558.942,774.081 1870.34,774.081 "/>
<polyline clip-path="url(#clip352)" style="stroke:#000000; stroke-linecap:round; stroke-linejoin:round; stroke-width:6; stroke-opacity:1; fill:none" stroke-dasharray="24, 15" points="1214.64,1437.49 1214.64,110.671 "/>
<polyline clip-path="url(#clip352)" style="stroke:#ff0000; stroke-linecap:round; stroke-linejoin:round; stroke-width:6; stroke-opacity:1; fill:none" stroke-dasharray="24, 15" points="1214.64,774.081 1687.85,497.66 "/>
<circle clip-path="url(#clip352)" cx="1687.85" cy="497.66" r="32.4" fill="#ff0000" fill-rule="evenodd" fill-opacity="1" stroke="#000000" stroke-opacity="1" stroke-width="5.4"/>
<polyline clip-path="url(#clip352)" style="stroke:#ff0000; stroke-linecap:round; stroke-linejoin:round; stroke-width:18; stroke-opacity:1; fill:none" points="1733.26,1133.06 1767.51,1076.25 1795.7,1016.12 1817.52,953.345 1832.74,888.603 1841.18,822.607 1842.76,756.079 1837.46,689.749 1825.34,624.342 1806.52,560.576 1781.22,499.149 1749.71,440.734 "/>
<polyline clip-path="url(#clip352)" style="stroke:#ff0000; stroke-linecap:round; stroke-linejoin:round; stroke-width:18; stroke-opacity:1; fill:none" points="1752.83,541.309 1749.71,440.734 1832.05,498.584 "/>
<polyline clip-path="url(#clip352)" style="stroke:#ff0000; stroke-linecap:round; stroke-linejoin:round; stroke-width:18; stroke-opacity:1; fill:none" points="1749.71,440.734 1781.22,499.149 "/>
<polyline clip-path="url(#clip352)" style="stroke:#ff0000; stroke-linecap:round; stroke-linejoin:round; stroke-width:18; stroke-opacity:1; fill:none" points="1430.11,176.858 1367.23,157.342 1302.67,144.583 1237.16,138.721 1171.39,139.82 1106.1,147.869 1042,162.778 "/>
<polyline clip-path="url(#clip352)" style="stroke:#ff0000; stroke-linecap:round; stroke-linejoin:round; stroke-width:18; stroke-opacity:1; fill:none" points="1139.85,186.219 1042,162.778 1119.47,98.5592 "/>
<polyline clip-path="url(#clip352)" style="stroke:#ff0000; stroke-linecap:round; stroke-linejoin:round; stroke-width:18; stroke-opacity:1; fill:none" points="1042,162.778 1106.1,147.869 "/>
<polyline clip-path="url(#clip352)" style="stroke:#ff0000; stroke-linecap:round; stroke-linejoin:round; stroke-width:18; stroke-opacity:1; fill:none" points="913.379,1332.02 972.672,1360.82 1034.62,1383.2 1098.53,1398.9 1163.72,1407.76 1229.47,1409.67 1295.05,1404.62 1359.75,1392.66 1422.87,1373.93 1483.7,1348.62 "/>
<polyline clip-path="url(#clip352)" style="stroke:#ff0000; stroke-linecap:round; stroke-linejoin:round; stroke-width:18; stroke-opacity:1; fill:none" points="1383.32,1341.64 1483.7,1348.62 1417.89,1424.74 "/>
<polyline clip-path="url(#clip352)" style="stroke:#ff0000; stroke-linecap:round; stroke-linejoin:round; stroke-width:18; stroke-opacity:1; fill:none" points="1483.7,1348.62 1422.87,1373.93 "/>
<polyline clip-path="url(#clip352)" style="stroke:#ff0000; stroke-linecap:round; stroke-linejoin:round; stroke-width:12; stroke-opacity:1; fill:none" points="593.319,679.073 586.907,745.303 587.372,811.848 "/>
<polyline clip-path="url(#clip352)" style="stroke:#ff0000; stroke-linecap:round; stroke-linejoin:round; stroke-width:12; stroke-opacity:1; fill:none" points="631.741,721.536 587.372,811.848 541.744,722.165 "/>
<polyline clip-path="url(#clip352)" style="stroke:#ff0000; stroke-linecap:round; stroke-linejoin:round; stroke-width:12; stroke-opacity:1; fill:none" points="587.372,811.848 586.907,745.303 "/>
<path clip-path="url(#clip350)" d="M1452.53 721.015 L1413.82 721.015 Q1414.73 739.183 1418.93 746.9 Q1424.15 756.379 1433.2 756.379 Q1442.32 756.379 1447.36 746.839 Q1451.8 738.454 1452.53 721.015 M1452.35 710.685 Q1450.64 693.428 1447.36 687.352 Q1442.14 677.751 1433.2 677.751 Q1423.91 677.751 1418.99 687.23 Q1415.1 694.886 1413.94 710.685 L1452.35 710.685 M1433.2 668.636 Q1447.79 668.636 1456.11 681.518 Q1464.44 694.339 1464.44 717.065 Q1464.44 739.73 1456.11 752.612 Q1447.79 765.554 1433.2 765.554 Q1418.56 765.554 1410.3 752.612 Q1401.97 739.73 1401.97 717.065 Q1401.97 694.339 1410.3 681.518 Q1418.56 668.636 1433.2 668.636 Z" fill="#ff0000" fill-rule="nonzero" fill-opacity="1" /><path clip-path="url(#clip350)" d="M488.754 64.9438 Q477.139 64.9438 472.66 67.6 Q468.181 70.2563 468.181 76.6625 Q468.181 81.7666 471.514 84.7875 Q474.9 87.7562 480.681 87.7562 Q488.65 87.7562 493.441 82.1312 Q498.285 76.4542 498.285 67.0792 L498.285 64.9438 L488.754 64.9438 M507.868 60.9855 L507.868 94.2666 L498.285 94.2666 L498.285 85.4125 Q495.004 90.7249 490.108 93.277 Q485.212 95.777 478.129 95.777 Q469.17 95.777 463.858 90.777 Q458.598 85.725 458.598 77.2875 Q458.598 67.4438 465.16 62.4438 Q471.775 57.4439 484.847 57.4439 L498.285 57.4439 L498.285 56.5064 Q498.285 49.8918 493.91 46.2981 Q489.587 42.6523 481.722 42.6523 Q476.723 42.6523 471.983 43.8502 Q467.243 45.0481 462.868 47.4439 L462.868 38.5898 Q468.129 36.5585 473.077 35.569 Q478.025 34.5273 482.712 34.5273 Q495.368 34.5273 501.618 41.0898 Q507.868 47.6522 507.868 60.9855 Z" fill="#000000" fill-rule="nonzero" fill-opacity="1" /><path clip-path="url(#clip350)" d="M526.097 13.3295 L534.431 13.3295 Q542.243 25.6211 546.097 37.3919 Q550.003 49.1626 550.003 60.7772 Q550.003 72.4438 546.097 84.2666 Q542.243 96.0895 534.431 108.329 L526.097 108.329 Q533.024 96.402 536.41 84.6312 Q539.847 72.8084 539.847 60.7772 Q539.847 48.746 536.41 37.0273 Q533.024 25.3086 526.097 13.3295 Z" fill="#000000" fill-rule="nonzero" fill-opacity="1" /><path clip-path="url(#clip350)" d="M2486.78 1477.3 L3876.85 1477.3 L3876.85 70.8661 L2486.78 70.8661  Z" fill="#ffffff" fill-rule="evenodd" fill-opacity="1"/>
<defs>
  <clipPath id="clip353">
    <rect x="2486" y="70" width="1391" height="1407"/>
  </clipPath>
</defs>
<polyline clip-path="url(#clip353)" style="stroke:#000000; stroke-linecap:round; stroke-linejoin:round; stroke-width:3; stroke-opacity:0.1; fill:none" points="2486.78,1477.3 2486.78,70.8661 "/>
<polyline clip-path="url(#clip353)" style="stroke:#000000; stroke-linecap:round; stroke-linejoin:round; stroke-width:3; stroke-opacity:0.1; fill:none" points="3181.82,1477.3 3181.82,70.8661 "/>
<polyline clip-path="url(#clip353)" style="stroke:#000000; stroke-linecap:round; stroke-linejoin:round; stroke-width:3; stroke-opacity:0.1; fill:none" points="3876.85,1477.3 3876.85,70.8661 "/>
<polyline clip-path="url(#clip353)" style="stroke:#000000; stroke-linecap:round; stroke-linejoin:round; stroke-width:3; stroke-opacity:0.1; fill:none" points="2486.78,1423.2 3876.85,1423.2 "/>
<polyline clip-path="url(#clip353)" style="stroke:#000000; stroke-linecap:round; stroke-linejoin:round; stroke-width:3; stroke-opacity:0.1; fill:none" points="2486.78,1152.73 3876.85,1152.73 "/>
<polyline clip-path="url(#clip353)" style="stroke:#000000; stroke-linecap:round; stroke-linejoin:round; stroke-width:3; stroke-opacity:0.1; fill:none" points="2486.78,882.268 3876.85,882.268 "/>
<polyline clip-path="url(#clip353)" style="stroke:#000000; stroke-linecap:round; stroke-linejoin:round; stroke-width:3; stroke-opacity:0.1; fill:none" points="2486.78,611.801 3876.85,611.801 "/>
<polyline clip-path="url(#clip353)" style="stroke:#000000; stroke-linecap:round; stroke-linejoin:round; stroke-width:3; stroke-opacity:0.1; fill:none" points="2486.78,341.333 3876.85,341.333 "/>
<polyline clip-path="url(#clip353)" style="stroke:#000000; stroke-linecap:round; stroke-linejoin:round; stroke-width:3; stroke-opacity:0.1; fill:none" points="2486.78,70.8661 3876.85,70.8661 "/>
<polyline clip-path="url(#clip350)" style="stroke:#000000; stroke-linecap:round; stroke-linejoin:round; stroke-width:6; stroke-opacity:1; fill:none" points="2486.78,1477.3 3876.85,1477.3 "/>
<polyline clip-path="url(#clip350)" style="stroke:#000000; stroke-linecap:round; stroke-linejoin:round; stroke-width:6; stroke-opacity:1; fill:none" points="2486.78,1477.3 2486.78,1458.4 "/>
<polyline clip-path="url(#clip350)" style="stroke:#000000; stroke-linecap:round; stroke-linejoin:round; stroke-width:6; stroke-opacity:1; fill:none" points="3181.82,1477.3 3181.82,1458.4 "/>
<polyline clip-path="url(#clip350)" style="stroke:#000000; stroke-linecap:round; stroke-linejoin:round; stroke-width:6; stroke-opacity:1; fill:none" points="3876.85,1477.3 3876.85,1458.4 "/>
<path clip-path="url(#clip350)" d="M2486.78 1542.87 Q2481.36 1542.87 2478.62 1548.22 Q2475.91 1553.53 2475.91 1564.23 Q2475.91 1574.89 2478.62 1580.23 Q2481.36 1585.55 2486.78 1585.55 Q2492.23 1585.55 2494.94 1580.23 Q2497.68 1574.89 2497.68 1564.23 Q2497.68 1553.53 2494.94 1548.22 Q2492.23 1542.87 2486.78 1542.87 M2486.78 1537.32 Q2495.49 1537.32 2500.07 1544.23 Q2504.69 1551.1 2504.69 1564.23 Q2504.69 1577.32 2500.07 1584.23 Q2495.49 1591.1 2486.78 1591.1 Q2478.06 1591.1 2473.44 1584.23 Q2468.86 1577.32 2468.86 1564.23 Q2468.86 1551.1 2473.44 1544.23 Q2478.06 1537.32 2486.78 1537.32 Z" fill="#000000" fill-rule="nonzero" fill-opacity="1" /><path clip-path="url(#clip350)" d="M3162.68 1551.21 L3199.94 1551.21 L3199.94 1557.6 L3195.04 1557.6 L3195.04 1581.48 Q3195.04 1583.98 3195.88 1585.1 Q3196.75 1586.17 3198.66 1586.17 Q3199.18 1586.17 3199.94 1586.1 Q3200.7 1586 3200.95 1585.96 L3200.95 1590.58 Q3199.73 1591.03 3198.45 1591.24 Q3197.16 1591.45 3195.88 1591.45 Q3191.71 1591.45 3190.11 1589.19 Q3188.52 1586.9 3188.52 1580.79 L3188.52 1557.6 L3174.18 1557.6 L3174.18 1590.1 L3167.65 1590.1 L3167.65 1557.6 L3162.68 1557.6 L3162.68 1551.21 Z" fill="#000000" fill-rule="nonzero" fill-opacity="1" /><path clip-path="url(#clip350)" d="M3844.86 1584.19 L3869.34 1584.19 L3869.34 1590.1 L3836.42 1590.1 L3836.42 1584.19 Q3840.41 1580.06 3847.29 1573.12 Q3854.2 1566.14 3855.97 1564.12 Q3859.34 1560.34 3860.66 1557.73 Q3862.01 1555.1 3862.01 1552.56 Q3862.01 1548.43 3859.09 1545.82 Q3856.21 1543.22 3851.56 1543.22 Q3848.26 1543.22 3844.58 1544.37 Q3840.93 1545.51 3836.77 1547.84 L3836.77 1540.76 Q3841 1539.05 3844.68 1538.19 Q3848.36 1537.32 3851.42 1537.32 Q3859.48 1537.32 3864.27 1541.35 Q3869.06 1545.37 3869.06 1552.11 Q3869.06 1555.3 3867.84 1558.19 Q3866.66 1561.03 3863.5 1564.92 Q3862.64 1565.93 3857.98 1570.76 Q3853.33 1575.55 3844.86 1584.19 Z" fill="#000000" fill-rule="nonzero" fill-opacity="1" /><path clip-path="url(#clip350)" d="M3879.02 1551.21 L3916.28 1551.21 L3916.28 1557.6 L3911.39 1557.6 L3911.39 1581.48 Q3911.39 1583.98 3912.22 1585.1 Q3913.09 1586.17 3915 1586.17 Q3915.52 1586.17 3916.28 1586.1 Q3917.04 1586 3917.29 1585.96 L3917.29 1590.58 Q3916.07 1591.03 3914.79 1591.24 Q3913.5 1591.45 3912.22 1591.45 Q3908.05 1591.45 3906.45 1589.19 Q3904.86 1586.9 3904.86 1580.79 L3904.86 1557.6 L3890.52 1557.6 L3890.52 1590.1 L3883.99 1590.1 L3883.99 1557.6 L3879.02 1557.6 L3879.02 1551.21 Z" fill="#000000" fill-rule="nonzero" fill-opacity="1" /><path clip-path="url(#clip350)" d="M3197 1696.69 L3166.59 1696.69 Q3167.3 1710.97 3170.6 1717.03 Q3174.7 1724.48 3181.82 1724.48 Q3188.98 1724.48 3192.94 1716.98 Q3196.42 1710.4 3197 1696.69 M3196.85 1688.58 Q3195.52 1675.02 3192.94 1670.24 Q3188.83 1662.7 3181.82 1662.7 Q3174.51 1662.7 3170.64 1670.15 Q3167.59 1676.16 3166.68 1688.58 L3196.85 1688.58 M3181.82 1655.54 Q3193.27 1655.54 3199.81 1665.66 Q3206.35 1675.74 3206.35 1693.59 Q3206.35 1711.4 3199.81 1721.52 Q3193.27 1731.69 3181.82 1731.69 Q3170.31 1731.69 3163.82 1721.52 Q3157.28 1711.4 3157.28 1693.59 Q3157.28 1675.74 3163.82 1665.66 Q3170.31 1655.54 3181.82 1655.54 Z" fill="#000000" fill-rule="nonzero" fill-opacity="1" /><polyline clip-path="url(#clip350)" style="stroke:#000000; stroke-linecap:round; stroke-linejoin:round; stroke-width:6; stroke-opacity:1; fill:none" points="2486.78,1477.3 2486.78,70.8661 "/>
<polyline clip-path="url(#clip350)" style="stroke:#000000; stroke-linecap:round; stroke-linejoin:round; stroke-width:6; stroke-opacity:1; fill:none" points="2486.78,1423.2 2505.67,1423.2 "/>
<polyline clip-path="url(#clip350)" style="stroke:#000000; stroke-linecap:round; stroke-linejoin:round; stroke-width:6; stroke-opacity:1; fill:none" points="2486.78,1152.73 2505.67,1152.73 "/>
<polyline clip-path="url(#clip350)" style="stroke:#000000; stroke-linecap:round; stroke-linejoin:round; stroke-width:6; stroke-opacity:1; fill:none" points="2486.78,882.268 2505.67,882.268 "/>
<polyline clip-path="url(#clip350)" style="stroke:#000000; stroke-linecap:round; stroke-linejoin:round; stroke-width:6; stroke-opacity:1; fill:none" points="2486.78,611.801 2505.67,611.801 "/>
<polyline clip-path="url(#clip350)" style="stroke:#000000; stroke-linecap:round; stroke-linejoin:round; stroke-width:6; stroke-opacity:1; fill:none" points="2486.78,341.333 2505.67,341.333 "/>
<polyline clip-path="url(#clip350)" style="stroke:#000000; stroke-linecap:round; stroke-linejoin:round; stroke-width:6; stroke-opacity:1; fill:none" points="2486.78,70.8661 2505.67,70.8661 "/>
<path clip-path="url(#clip350)" d="M2311.01 1401.9 Q2305.6 1401.9 2302.85 1407.25 Q2300.14 1412.56 2300.14 1423.25 Q2300.14 1433.91 2302.85 1439.26 Q2305.6 1444.57 2311.01 1444.57 Q2316.46 1444.57 2319.17 1439.26 Q2321.92 1433.91 2321.92 1423.25 Q2321.92 1412.56 2319.17 1407.25 Q2316.46 1401.9 2311.01 1401.9 M2311.01 1396.34 Q2319.73 1396.34 2324.31 1403.25 Q2328.93 1410.13 2328.93 1423.25 Q2328.93 1436.34 2324.31 1443.25 Q2319.73 1450.13 2311.01 1450.13 Q2302.3 1450.13 2297.68 1443.25 Q2293.1 1436.34 2293.1 1423.25 Q2293.1 1410.13 2297.68 1403.25 Q2302.3 1396.34 2311.01 1396.34 Z" fill="#000000" fill-rule="nonzero" fill-opacity="1" /><path clip-path="url(#clip350)" d="M2341.26 1440.3 L2348.58 1440.3 L2348.58 1449.12 L2341.26 1449.12 L2341.26 1440.3 Z" fill="#000000" fill-rule="nonzero" fill-opacity="1" /><path clip-path="url(#clip350)" d="M2378.86 1401.9 Q2373.44 1401.9 2370.7 1407.25 Q2367.99 1412.56 2367.99 1423.25 Q2367.99 1433.91 2370.7 1439.26 Q2373.44 1444.57 2378.86 1444.57 Q2384.31 1444.57 2387.02 1439.26 Q2389.76 1433.91 2389.76 1423.25 Q2389.76 1412.56 2387.02 1407.25 Q2384.31 1401.9 2378.86 1401.9 M2378.86 1396.34 Q2387.57 1396.34 2392.16 1403.25 Q2396.78 1410.13 2396.78 1423.25 Q2396.78 1436.34 2392.16 1443.25 Q2387.57 1450.13 2378.86 1450.13 Q2370.14 1450.13 2365.53 1443.25 Q2360.94 1436.34 2360.94 1423.25 Q2360.94 1410.13 2365.53 1403.25 Q2370.14 1396.34 2378.86 1396.34 Z" fill="#000000" fill-rule="nonzero" fill-opacity="1" /><path clip-path="url(#clip350)" d="M2312.51 1131.43 Q2307.09 1131.43 2304.35 1136.78 Q2301.64 1142.09 2301.64 1152.79 Q2301.64 1163.45 2304.35 1168.79 Q2307.09 1174.11 2312.51 1174.11 Q2317.96 1174.11 2320.67 1168.79 Q2323.41 1163.45 2323.41 1152.79 Q2323.41 1142.09 2320.67 1136.78 Q2317.96 1131.43 2312.51 1131.43 M2312.51 1125.88 Q2321.22 1125.88 2325.8 1132.79 Q2330.42 1139.66 2330.42 1152.79 Q2330.42 1165.88 2325.8 1172.79 Q2321.22 1179.66 2312.51 1179.66 Q2303.79 1179.66 2299.17 1172.79 Q2294.59 1165.88 2294.59 1152.79 Q2294.59 1139.66 2299.17 1132.79 Q2303.79 1125.88 2312.51 1125.88 Z" fill="#000000" fill-rule="nonzero" fill-opacity="1" /><path clip-path="url(#clip350)" d="M2342.75 1169.84 L2350.08 1169.84 L2350.08 1178.65 L2342.75 1178.65 L2342.75 1169.84 Z" fill="#000000" fill-rule="nonzero" fill-opacity="1" /><path clip-path="url(#clip350)" d="M2365.42 1126.81 L2392.96 1126.81 L2392.96 1132.72 L2371.85 1132.72 L2371.85 1145.43 Q2373.37 1144.91 2374.9 1144.66 Q2376.43 1144.38 2377.96 1144.38 Q2386.64 1144.38 2391.71 1149.14 Q2396.78 1153.9 2396.78 1162.02 Q2396.78 1170.39 2391.57 1175.04 Q2386.36 1179.66 2376.88 1179.66 Q2373.62 1179.66 2370.21 1179.11 Q2366.85 1178.55 2363.23 1177.44 L2363.23 1170.39 Q2366.36 1172.09 2369.69 1172.93 Q2373.03 1173.76 2376.74 1173.76 Q2382.75 1173.76 2386.26 1170.6 Q2389.76 1167.44 2389.76 1162.02 Q2389.76 1156.61 2386.26 1153.45 Q2382.75 1150.29 2376.74 1150.29 Q2373.93 1150.29 2371.12 1150.91 Q2368.34 1151.54 2365.42 1152.86 L2365.42 1126.81 Z" fill="#000000" fill-rule="nonzero" fill-opacity="1" /><path clip-path="url(#clip350)" d="M2297.23 902.285 L2308.69 902.285 L2308.69 862.737 L2296.22 865.237 L2296.22 858.848 L2308.62 856.348 L2315.63 856.348 L2315.63 902.285 L2327.09 902.285 L2327.09 908.188 L2297.23 908.188 L2297.23 902.285 Z" fill="#000000" fill-rule="nonzero" fill-opacity="1" /><path clip-path="url(#clip350)" d="M2341.26 899.368 L2348.58 899.368 L2348.58 908.188 L2341.26 908.188 L2341.26 899.368 Z" fill="#000000" fill-rule="nonzero" fill-opacity="1" /><path clip-path="url(#clip350)" d="M2378.86 860.966 Q2373.44 860.966 2370.7 866.313 Q2367.99 871.625 2367.99 882.32 Q2367.99 892.979 2370.7 898.327 Q2373.44 903.639 2378.86 903.639 Q2384.31 903.639 2387.02 898.327 Q2389.76 892.979 2389.76 882.32 Q2389.76 871.625 2387.02 866.313 Q2384.31 860.966 2378.86 860.966 M2378.86 855.41 Q2387.57 855.41 2392.16 862.32 Q2396.78 869.195 2396.78 882.32 Q2396.78 895.41 2392.16 902.32 Q2387.57 909.195 2378.86 909.195 Q2370.14 909.195 2365.53 902.32 Q2360.94 895.41 2360.94 882.32 Q2360.94 869.195 2365.53 862.32 Q2370.14 855.41 2378.86 855.41 Z" fill="#000000" fill-rule="nonzero" fill-opacity="1" /><path clip-path="url(#clip350)" d="M2298.72 631.818 L2310.18 631.818 L2310.18 592.269 L2297.71 594.769 L2297.71 588.381 L2310.11 585.881 L2317.12 585.881 L2317.12 631.818 L2328.58 631.818 L2328.58 637.721 L2298.72 637.721 L2298.72 631.818 Z" fill="#000000" fill-rule="nonzero" fill-opacity="1" /><path clip-path="url(#clip350)" d="M2342.75 628.901 L2350.08 628.901 L2350.08 637.721 L2342.75 637.721 L2342.75 628.901 Z" fill="#000000" fill-rule="nonzero" fill-opacity="1" /><path clip-path="url(#clip350)" d="M2365.42 585.881 L2392.96 585.881 L2392.96 591.783 L2371.85 591.783 L2371.85 604.492 Q2373.37 603.971 2374.9 603.728 Q2376.43 603.45 2377.96 603.45 Q2386.64 603.45 2391.71 608.207 Q2396.78 612.964 2396.78 621.089 Q2396.78 629.457 2391.57 634.109 Q2386.36 638.727 2376.88 638.727 Q2373.62 638.727 2370.21 638.172 Q2366.85 637.616 2363.23 636.505 L2363.23 629.457 Q2366.36 631.158 2369.69 631.991 Q2373.03 632.825 2376.74 632.825 Q2382.75 632.825 2386.26 629.665 Q2389.76 626.505 2389.76 621.089 Q2389.76 615.672 2386.26 612.512 Q2382.75 609.353 2376.74 609.353 Q2373.93 609.353 2371.12 609.978 Q2368.34 610.603 2365.42 611.922 L2365.42 585.881 Z" fill="#000000" fill-rule="nonzero" fill-opacity="1" /><path clip-path="url(#clip350)" d="M2302.05 361.351 L2326.53 361.351 L2326.53 367.253 L2293.62 367.253 L2293.62 361.351 Q2297.61 357.219 2304.49 350.274 Q2311.39 343.295 2313.17 341.281 Q2316.53 337.497 2317.85 334.892 Q2319.21 332.254 2319.21 329.719 Q2319.21 325.587 2316.29 322.983 Q2313.41 320.379 2308.76 320.379 Q2305.46 320.379 2301.78 321.524 Q2298.13 322.67 2293.96 324.997 L2293.96 317.913 Q2298.2 316.212 2301.88 315.344 Q2305.56 314.476 2308.62 314.476 Q2316.67 314.476 2321.46 318.504 Q2326.26 322.531 2326.26 329.267 Q2326.26 332.462 2325.04 335.344 Q2323.86 338.191 2320.7 342.08 Q2319.83 343.087 2315.18 347.913 Q2310.53 352.705 2302.05 361.351 Z" fill="#000000" fill-rule="nonzero" fill-opacity="1" /><path clip-path="url(#clip350)" d="M2341.26 358.434 L2348.58 358.434 L2348.58 367.253 L2341.26 367.253 L2341.26 358.434 Z" fill="#000000" fill-rule="nonzero" fill-opacity="1" /><path clip-path="url(#clip350)" d="M2378.86 320.031 Q2373.44 320.031 2370.7 325.379 Q2367.99 330.691 2367.99 341.385 Q2367.99 352.045 2370.7 357.392 Q2373.44 362.705 2378.86 362.705 Q2384.31 362.705 2387.02 357.392 Q2389.76 352.045 2389.76 341.385 Q2389.76 330.691 2387.02 325.379 Q2384.31 320.031 2378.86 320.031 M2378.86 314.476 Q2387.57 314.476 2392.16 321.386 Q2396.78 328.26 2396.78 341.385 Q2396.78 354.476 2392.16 361.385 Q2387.57 368.26 2378.86 368.26 Q2370.14 368.26 2365.53 361.385 Q2360.94 354.476 2360.94 341.385 Q2360.94 328.26 2365.53 321.386 Q2370.14 314.476 2378.86 314.476 Z" fill="#000000" fill-rule="nonzero" fill-opacity="1" /><path clip-path="url(#clip350)" d="M2303.55 90.8834 L2328.03 90.8834 L2328.03 96.7861 L2295.11 96.7861 L2295.11 90.8834 Q2299.1 86.7515 2305.98 79.8071 Q2312.89 72.8279 2314.66 70.8141 Q2318.03 67.0294 2319.35 64.4252 Q2320.7 61.7863 2320.7 59.2516 Q2320.7 55.1197 2317.78 52.5155 Q2314.9 49.9114 2310.25 49.9114 Q2306.95 49.9114 2303.27 51.0572 Q2299.62 52.203 2295.46 54.5294 L2295.46 47.4461 Q2299.69 45.7447 2303.37 44.8767 Q2307.05 44.0086 2310.11 44.0086 Q2318.17 44.0086 2322.96 48.0364 Q2327.75 52.0642 2327.75 58.8002 Q2327.75 61.9947 2326.53 64.8766 Q2325.35 67.7238 2322.19 71.6127 Q2321.33 72.6196 2316.67 77.446 Q2312.02 82.2376 2303.55 90.8834 Z" fill="#000000" fill-rule="nonzero" fill-opacity="1" /><path clip-path="url(#clip350)" d="M2342.75 87.9667 L2350.08 87.9667 L2350.08 96.7861 L2342.75 96.7861 L2342.75 87.9667 Z" fill="#000000" fill-rule="nonzero" fill-opacity="1" /><path clip-path="url(#clip350)" d="M2365.42 44.9461 L2392.96 44.9461 L2392.96 50.8489 L2371.85 50.8489 L2371.85 63.5572 Q2373.37 63.0363 2374.9 62.7933 Q2376.43 62.5155 2377.96 62.5155 Q2386.64 62.5155 2391.71 67.2724 Q2396.78 72.0293 2396.78 80.1543 Q2396.78 88.5223 2391.57 93.175 Q2386.36 97.7931 2376.88 97.7931 Q2373.62 97.7931 2370.21 97.2375 Q2366.85 96.682 2363.23 95.5709 L2363.23 88.5223 Q2366.36 90.2237 2369.69 91.057 Q2373.03 91.8903 2376.74 91.8903 Q2382.75 91.8903 2386.26 88.7306 Q2389.76 85.5709 2389.76 80.1543 Q2389.76 74.7376 2386.26 71.5779 Q2382.75 68.4182 2376.74 68.4182 Q2373.93 68.4182 2371.12 69.0432 Q2368.34 69.6682 2365.42 70.9877 L2365.42 44.9461 Z" fill="#000000" fill-rule="nonzero" fill-opacity="1" /><path clip-path="url(#clip350)" d="M2107.42 819.986 L2114.73 819.986 L2114.73 828.388 Q2114.73 833.115 2116.64 834.977 Q2118.55 836.791 2123.51 836.791 L2128.24 836.791 L2128.24 822.325 L2135.07 822.325 L2135.07 836.791 L2181.71 836.791 L2181.71 845.623 L2135.07 845.623 L2135.07 854.026 L2128.24 854.026 L2128.24 845.623 L2124.52 845.623 Q2115.59 845.623 2111.53 841.47 Q2107.42 837.316 2107.42 828.293 L2107.42 819.986 Z" fill="#000000" fill-rule="nonzero" fill-opacity="1" /><path clip-path="url(#clip350)" d="M2107.52 791.531 Q2118.5 797.928 2129.24 801.032 Q2139.99 804.135 2151.01 804.135 Q2162.04 804.135 2172.88 801.032 Q2183.67 797.881 2194.6 791.531 L2194.6 799.17 Q2183.38 806.331 2172.55 809.912 Q2161.71 813.445 2151.01 813.445 Q2140.37 813.445 2129.58 809.912 Q2118.79 806.379 2107.52 799.17 L2107.52 791.531 Z" fill="#000000" fill-rule="nonzero" fill-opacity="1" /><path clip-path="url(#clip350)" d="M2147.81 738.584 L2147.81 768.996 Q2162.09 768.28 2168.15 764.986 Q2175.6 760.88 2175.6 753.766 Q2175.6 746.605 2168.11 742.642 Q2161.52 739.157 2147.81 738.584 M2139.7 738.727 Q2126.14 740.064 2121.37 742.642 Q2113.82 746.748 2113.82 753.766 Q2113.82 761.071 2121.27 764.938 Q2127.29 767.994 2139.7 768.901 L2139.7 738.727 M2106.66 753.766 Q2106.66 742.308 2116.78 735.767 Q2126.86 729.226 2144.71 729.226 Q2162.52 729.226 2172.64 735.767 Q2182.81 742.308 2182.81 753.766 Q2182.81 765.272 2172.64 771.765 Q2162.52 778.306 2144.71 778.306 Q2126.86 778.306 2116.78 771.765 Q2106.66 765.272 2106.66 753.766 Z" fill="#000000" fill-rule="nonzero" fill-opacity="1" /><path clip-path="url(#clip350)" d="M2107.52 716.049 L2107.52 708.411 Q2118.79 701.249 2129.58 697.716 Q2140.37 694.136 2151.01 694.136 Q2161.71 694.136 2172.55 697.716 Q2183.38 701.249 2194.6 708.411 L2194.6 716.049 Q2183.67 709.7 2172.88 706.596 Q2162.04 703.445 2151.01 703.445 Q2139.99 703.445 2129.24 706.596 Q2118.5 709.7 2107.52 716.049 Z" fill="#000000" fill-rule="nonzero" fill-opacity="1" /><polyline clip-path="url(#clip353)" style="stroke:#009af9; stroke-linecap:round; stroke-linejoin:round; stroke-width:12; stroke-opacity:1; fill:none" points="2486.78,103.646 2509.94,106.323 2533.11,117.441 2556.28,137.944 2579.45,168.054 2602.62,207.199 2625.78,254.015 2648.95,306.451 2672.12,361.947 2695.29,417.668 2718.46,470.789 2741.62,518.775 2764.79,559.655 2787.96,592.233 2811.13,616.238 2834.3,632.373 2857.46,642.28 2880.63,648.39 2903.8,653.706 2926.97,661.506 2950.14,675.011 2973.3,697.05 2996.47,729.744 3019.64,774.242 3042.81,830.552 3065.98,897.456 3089.14,972.547 3112.31,1052.37 3135.48,1132.66 3158.65,1208.68 3181.82,1275.56 3204.98,1328.7 3228.15,1364.16 3251.32,1378.96 3274.49,1371.33 3297.65,1340.87 3320.82,1288.56 3343.99,1216.68 3367.16,1128.66 3390.33,1028.74 3413.49,921.68 3436.66,812.376 3459.83,705.479 3483,605.068 3506.17,514.38 3529.33,435.625 3552.5,369.9 3575.67,317.211 3598.84,276.591 3622.01,246.308 3645.17,224.12 3668.34,207.579 3691.51,194.324 3714.68,182.356 3737.85,170.245 3761.01,157.278 3784.18,143.504 3807.35,129.698 3830.52,117.236 3853.69,107.902 3876.85,103.646 "/>
<polyline clip-path="url(#clip353)" style="stroke:#000000; stroke-linecap:round; stroke-linejoin:round; stroke-width:6; stroke-opacity:1; fill:none" stroke-dasharray="24, 15" points="3876.85,1423.2 3876.85,124.96 "/>
<polyline clip-path="url(#clip353)" style="stroke:#ff0000; stroke-linecap:round; stroke-linejoin:round; stroke-width:18; stroke-opacity:1; fill:none" points="2486.78,1423.2 2708.01,1423.2 "/>
<polyline clip-path="url(#clip353)" style="stroke:#ff0000; stroke-linecap:round; stroke-linejoin:round; stroke-width:18; stroke-opacity:1; fill:none" points="2618.01,1378.2 2708.01,1423.2 2618.01,1468.2 "/>
<polyline clip-path="url(#clip353)" style="stroke:#ff0000; stroke-linecap:round; stroke-linejoin:round; stroke-width:18; stroke-opacity:1; fill:none" points="2708.01,1423.2 2486.78,1423.2 "/>
<polyline clip-path="url(#clip353)" style="stroke:#ff0000; stroke-linecap:round; stroke-linejoin:round; stroke-width:12; stroke-opacity:1; fill:none" points="3137.57,1423.2 3226.06,1423.2 "/>
<polyline clip-path="url(#clip353)" style="stroke:#ff0000; stroke-linecap:round; stroke-linejoin:round; stroke-width:12; stroke-opacity:1; fill:none" points="3136.06,1378.2 3226.06,1423.2 3136.06,1468.2 "/>
<polyline clip-path="url(#clip353)" style="stroke:#ff0000; stroke-linecap:round; stroke-linejoin:round; stroke-width:12; stroke-opacity:1; fill:none" points="3226.06,1423.2 3137.57,1423.2 "/>
<polyline clip-path="url(#clip353)" style="stroke:#ff0000; stroke-linecap:round; stroke-linejoin:round; stroke-width:18; stroke-opacity:1; fill:none" points="3655.62,1423.2 3876.85,1423.2 "/>
<polyline clip-path="url(#clip353)" style="stroke:#ff0000; stroke-linecap:round; stroke-linejoin:round; stroke-width:18; stroke-opacity:1; fill:none" points="3786.85,1378.2 3876.85,1423.2 3786.85,1468.2 "/>
<polyline clip-path="url(#clip353)" style="stroke:#ff0000; stroke-linecap:round; stroke-linejoin:round; stroke-width:18; stroke-opacity:1; fill:none" points="3876.85,1423.2 3655.62,1423.2 "/>
<polyline clip-path="url(#clip353)" style="stroke:#000000; stroke-linecap:round; stroke-linejoin:round; stroke-width:6; stroke-opacity:1; fill:none" stroke-dasharray="24, 15" points="1096.7,1423.2 3876.85,1423.2 "/>
<path clip-path="url(#clip350)" d="M2041.31 80.6317 Q2041.31 70.0589 2036.93 64.0693 Q2032.61 58.0277 2025 58.0277 Q2017.4 58.0277 2013.02 64.0693 Q2008.7 70.0589 2008.7 80.6317 Q2008.7 91.2046 2013.02 97.2462 Q2017.4 103.236 2025 103.236 Q2032.61 103.236 2036.93 97.2462 Q2041.31 91.2046 2041.31 80.6317 M2008.7 60.2672 Q2011.72 55.0589 2016.31 52.5589 Q2020.94 50.0069 2027.35 50.0069 Q2037.97 50.0069 2044.59 58.4443 Q2051.25 66.8818 2051.25 80.6317 Q2051.25 94.3816 2044.59 102.819 Q2037.97 111.257 2027.35 111.257 Q2020.94 111.257 2016.31 108.757 Q2011.72 106.204 2008.7 100.996 L2008.7 109.746 L1999.07 109.746 L1999.07 28.7049 L2008.7 28.7049 L2008.7 60.2672 Z" fill="#000000" fill-rule="nonzero" fill-opacity="1" /><path clip-path="url(#clip350)" d="M2065.63 28.8091 L2073.96 28.8091 Q2081.77 41.1007 2085.63 52.8714 Q2089.53 64.6422 2089.53 76.2567 Q2089.53 87.9233 2085.63 99.7462 Q2081.77 111.569 2073.96 123.809 L2065.63 123.809 Q2072.56 111.882 2075.94 100.111 Q2079.38 88.2879 2079.38 76.2567 Q2079.38 64.2256 2075.94 52.5069 Q2072.56 40.7882 2065.63 28.8091 Z" fill="#000000" fill-rule="nonzero" fill-opacity="1" /><path clip-path="url(#clip350)" d="M4539.06 1477.3 L5929.13 1477.3 L5929.13 70.8661 L4539.06 70.8661  Z" fill="#ffffff" fill-rule="evenodd" fill-opacity="1"/>
<defs>
  <clipPath id="clip354">
    <rect x="4539" y="70" width="1391" height="1407"/>
  </clipPath>
</defs>
<polyline clip-path="url(#clip354)" style="stroke:#000000; stroke-linecap:round; stroke-linejoin:round; stroke-width:3; stroke-opacity:0.1; fill:none" points="4539.06,1477.3 4539.06,70.8661 "/>
<polyline clip-path="url(#clip354)" style="stroke:#000000; stroke-linecap:round; stroke-linejoin:round; stroke-width:3; stroke-opacity:0.1; fill:none" points="4796.48,1477.3 4796.48,70.8661 "/>
<polyline clip-path="url(#clip354)" style="stroke:#000000; stroke-linecap:round; stroke-linejoin:round; stroke-width:3; stroke-opacity:0.1; fill:none" points="5053.9,1477.3 5053.9,70.8661 "/>
<polyline clip-path="url(#clip354)" style="stroke:#000000; stroke-linecap:round; stroke-linejoin:round; stroke-width:3; stroke-opacity:0.1; fill:none" points="5311.32,1477.3 5311.32,70.8661 "/>
<polyline clip-path="url(#clip354)" style="stroke:#000000; stroke-linecap:round; stroke-linejoin:round; stroke-width:3; stroke-opacity:0.1; fill:none" points="5568.74,1477.3 5568.74,70.8661 "/>
<polyline clip-path="url(#clip354)" style="stroke:#000000; stroke-linecap:round; stroke-linejoin:round; stroke-width:3; stroke-opacity:0.1; fill:none" points="5826.17,1477.3 5826.17,70.8661 "/>
<polyline clip-path="url(#clip354)" style="stroke:#000000; stroke-linecap:round; stroke-linejoin:round; stroke-width:3; stroke-opacity:0.1; fill:none" points="4539.06,1437.49 5929.13,1437.49 "/>
<polyline clip-path="url(#clip354)" style="stroke:#000000; stroke-linecap:round; stroke-linejoin:round; stroke-width:3; stroke-opacity:0.1; fill:none" points="4539.06,1105.79 5929.13,1105.79 "/>
<polyline clip-path="url(#clip354)" style="stroke:#000000; stroke-linecap:round; stroke-linejoin:round; stroke-width:3; stroke-opacity:0.1; fill:none" points="4539.06,774.082 5929.13,774.082 "/>
<polyline clip-path="url(#clip354)" style="stroke:#000000; stroke-linecap:round; stroke-linejoin:round; stroke-width:3; stroke-opacity:0.1; fill:none" points="4539.06,442.376 5929.13,442.376 "/>
<polyline clip-path="url(#clip354)" style="stroke:#000000; stroke-linecap:round; stroke-linejoin:round; stroke-width:3; stroke-opacity:0.1; fill:none" points="4539.06,110.671 5929.13,110.671 "/>
<polyline clip-path="url(#clip350)" style="stroke:#000000; stroke-linecap:round; stroke-linejoin:round; stroke-width:6; stroke-opacity:1; fill:none" points="4539.06,1477.3 5929.13,1477.3 "/>
<polyline clip-path="url(#clip350)" style="stroke:#000000; stroke-linecap:round; stroke-linejoin:round; stroke-width:6; stroke-opacity:1; fill:none" points="4539.06,1477.3 4539.06,1458.4 "/>
<polyline clip-path="url(#clip350)" style="stroke:#000000; stroke-linecap:round; stroke-linejoin:round; stroke-width:6; stroke-opacity:1; fill:none" points="4796.48,1477.3 4796.48,1458.4 "/>
<polyline clip-path="url(#clip350)" style="stroke:#000000; stroke-linecap:round; stroke-linejoin:round; stroke-width:6; stroke-opacity:1; fill:none" points="5053.9,1477.3 5053.9,1458.4 "/>
<polyline clip-path="url(#clip350)" style="stroke:#000000; stroke-linecap:round; stroke-linejoin:round; stroke-width:6; stroke-opacity:1; fill:none" points="5311.32,1477.3 5311.32,1458.4 "/>
<polyline clip-path="url(#clip350)" style="stroke:#000000; stroke-linecap:round; stroke-linejoin:round; stroke-width:6; stroke-opacity:1; fill:none" points="5568.74,1477.3 5568.74,1458.4 "/>
<polyline clip-path="url(#clip350)" style="stroke:#000000; stroke-linecap:round; stroke-linejoin:round; stroke-width:6; stroke-opacity:1; fill:none" points="5826.17,1477.3 5826.17,1458.4 "/>
<path clip-path="url(#clip350)" d="M4539.06 1542.87 Q4533.64 1542.87 4530.9 1548.22 Q4528.19 1553.53 4528.19 1564.23 Q4528.19 1574.89 4530.9 1580.23 Q4533.64 1585.55 4539.06 1585.55 Q4544.51 1585.55 4547.22 1580.23 Q4549.96 1574.89 4549.96 1564.23 Q4549.96 1553.53 4547.22 1548.22 Q4544.51 1542.87 4539.06 1542.87 M4539.06 1537.32 Q4547.77 1537.32 4552.35 1544.23 Q4556.97 1551.1 4556.97 1564.23 Q4556.97 1577.32 4552.35 1584.23 Q4547.77 1591.1 4539.06 1591.1 Q4530.34 1591.1 4525.72 1584.23 Q4521.14 1577.32 4521.14 1564.23 Q4521.14 1551.1 4525.72 1544.23 Q4530.34 1537.32 4539.06 1537.32 Z" fill="#000000" fill-rule="nonzero" fill-opacity="1" /><path clip-path="url(#clip350)" d="M4781.89 1538.26 L4809.43 1538.26 L4809.43 1544.16 L4788.32 1544.16 L4788.32 1556.87 Q4789.85 1556.35 4791.37 1556.1 Q4792.9 1555.82 4794.43 1555.82 Q4803.11 1555.82 4808.18 1560.58 Q4813.25 1565.34 4813.25 1573.46 Q4813.25 1581.83 4808.04 1586.48 Q4802.83 1591.1 4793.35 1591.1 Q4790.09 1591.1 4786.69 1590.55 Q4783.32 1589.99 4779.71 1588.88 L4779.71 1581.83 Q4782.83 1583.53 4786.17 1584.37 Q4789.5 1585.2 4793.21 1585.2 Q4799.22 1585.2 4802.73 1582.04 Q4806.23 1578.88 4806.23 1573.46 Q4806.23 1568.05 4802.73 1564.89 Q4799.22 1561.73 4793.21 1561.73 Q4790.4 1561.73 4787.59 1562.35 Q4784.81 1562.98 4781.89 1564.3 L4781.89 1538.26 Z" fill="#000000" fill-rule="nonzero" fill-opacity="1" /><path clip-path="url(#clip350)" d="M5015.93 1584.19 L5027.39 1584.19 L5027.39 1544.64 L5014.92 1547.14 L5014.92 1540.76 L5027.32 1538.26 L5034.33 1538.26 L5034.33 1584.19 L5045.79 1584.19 L5045.79 1590.1 L5015.93 1590.1 L5015.93 1584.19 Z" fill="#000000" fill-rule="nonzero" fill-opacity="1" /><path clip-path="url(#clip350)" d="M5074.96 1542.87 Q5069.54 1542.87 5066.8 1548.22 Q5064.09 1553.53 5064.09 1564.23 Q5064.09 1574.89 5066.8 1580.23 Q5069.54 1585.55 5074.96 1585.55 Q5080.41 1585.55 5083.12 1580.23 Q5085.86 1574.89 5085.86 1564.23 Q5085.86 1553.53 5083.12 1548.22 Q5080.41 1542.87 5074.96 1542.87 M5074.96 1537.32 Q5083.67 1537.32 5088.26 1544.23 Q5092.88 1551.1 5092.88 1564.23 Q5092.88 1577.32 5088.26 1584.23 Q5083.67 1591.1 5074.96 1591.1 Q5066.24 1591.1 5061.63 1584.23 Q5057.04 1577.32 5057.04 1564.23 Q5057.04 1551.1 5061.63 1544.23 Q5066.24 1537.32 5074.96 1537.32 Z" fill="#000000" fill-rule="nonzero" fill-opacity="1" /><path clip-path="url(#clip350)" d="M5274.1 1584.19 L5285.56 1584.19 L5285.56 1544.64 L5273.09 1547.14 L5273.09 1540.76 L5285.49 1538.26 L5292.5 1538.26 L5292.5 1584.19 L5303.96 1584.19 L5303.96 1590.1 L5274.1 1590.1 L5274.1 1584.19 Z" fill="#000000" fill-rule="nonzero" fill-opacity="1" /><path clip-path="url(#clip350)" d="M5318.2 1538.26 L5345.73 1538.26 L5345.73 1544.16 L5324.62 1544.16 L5324.62 1556.87 Q5326.15 1556.35 5327.68 1556.1 Q5329.2 1555.82 5330.73 1555.82 Q5339.41 1555.82 5344.48 1560.58 Q5349.55 1565.34 5349.55 1573.46 Q5349.55 1581.83 5344.34 1586.48 Q5339.13 1591.1 5329.65 1591.1 Q5326.39 1591.1 5322.99 1590.55 Q5319.62 1589.99 5316.01 1588.88 L5316.01 1581.83 Q5319.13 1583.53 5322.47 1584.37 Q5325.8 1585.2 5329.52 1585.2 Q5335.52 1585.2 5339.03 1582.04 Q5342.54 1578.88 5342.54 1573.46 Q5342.54 1568.05 5339.03 1564.89 Q5335.52 1561.73 5329.52 1561.73 Q5326.7 1561.73 5323.89 1562.35 Q5321.11 1562.98 5318.2 1564.3 L5318.2 1538.26 Z" fill="#000000" fill-rule="nonzero" fill-opacity="1" /><path clip-path="url(#clip350)" d="M5536.9 1584.19 L5561.38 1584.19 L5561.38 1590.1 L5528.47 1590.1 L5528.47 1584.19 Q5532.46 1580.06 5539.33 1573.12 Q5546.24 1566.14 5548.01 1564.12 Q5551.38 1560.34 5552.7 1557.73 Q5554.06 1555.1 5554.06 1552.56 Q5554.06 1548.43 5551.14 1545.82 Q5548.26 1543.22 5543.6 1543.22 Q5540.31 1543.22 5536.63 1544.37 Q5532.98 1545.51 5528.81 1547.84 L5528.81 1540.76 Q5533.05 1539.05 5536.73 1538.19 Q5540.41 1537.32 5543.47 1537.32 Q5551.52 1537.32 5556.31 1541.35 Q5561.1 1545.37 5561.1 1552.11 Q5561.1 1555.3 5559.89 1558.19 Q5558.71 1561.03 5555.55 1564.92 Q5554.68 1565.93 5550.03 1570.76 Q5545.38 1575.55 5536.9 1584.19 Z" fill="#000000" fill-rule="nonzero" fill-opacity="1" /><path clip-path="url(#clip350)" d="M5591.1 1542.87 Q5585.69 1542.87 5582.94 1548.22 Q5580.24 1553.53 5580.24 1564.23 Q5580.24 1574.89 5582.94 1580.23 Q5585.69 1585.55 5591.1 1585.55 Q5596.56 1585.55 5599.26 1580.23 Q5602.01 1574.89 5602.01 1564.23 Q5602.01 1553.53 5599.26 1548.22 Q5596.56 1542.87 5591.1 1542.87 M5591.1 1537.32 Q5599.82 1537.32 5604.4 1544.23 Q5609.02 1551.1 5609.02 1564.23 Q5609.02 1577.32 5604.4 1584.23 Q5599.82 1591.1 5591.1 1591.1 Q5582.39 1591.1 5577.77 1584.23 Q5573.19 1577.32 5573.19 1564.23 Q5573.19 1551.1 5577.77 1544.23 Q5582.39 1537.32 5591.1 1537.32 Z" fill="#000000" fill-rule="nonzero" fill-opacity="1" /><path clip-path="url(#clip350)" d="M5795.07 1584.19 L5819.55 1584.19 L5819.55 1590.1 L5786.63 1590.1 L5786.63 1584.19 Q5790.63 1580.06 5797.5 1573.12 Q5804.41 1566.14 5806.18 1564.12 Q5809.55 1560.34 5810.87 1557.73 Q5812.22 1555.1 5812.22 1552.56 Q5812.22 1548.43 5809.31 1545.82 Q5806.43 1543.22 5801.77 1543.22 Q5798.47 1543.22 5794.79 1544.37 Q5791.15 1545.51 5786.98 1547.84 L5786.98 1540.76 Q5791.22 1539.05 5794.9 1538.19 Q5798.58 1537.32 5801.63 1537.32 Q5809.69 1537.32 5814.48 1541.35 Q5819.27 1545.37 5819.27 1552.11 Q5819.27 1555.3 5818.06 1558.19 Q5816.88 1561.03 5813.72 1564.92 Q5812.85 1565.93 5808.2 1570.76 Q5803.54 1575.55 5795.07 1584.19 Z" fill="#000000" fill-rule="nonzero" fill-opacity="1" /><path clip-path="url(#clip350)" d="M5834.34 1538.26 L5861.88 1538.26 L5861.88 1544.16 L5840.77 1544.16 L5840.77 1556.87 Q5842.29 1556.35 5843.82 1556.1 Q5845.35 1555.82 5846.88 1555.82 Q5855.56 1555.82 5860.63 1560.58 Q5865.7 1565.34 5865.7 1573.46 Q5865.7 1581.83 5860.49 1586.48 Q5855.28 1591.1 5845.8 1591.1 Q5842.54 1591.1 5839.13 1590.55 Q5835.77 1589.99 5832.15 1588.88 L5832.15 1581.83 Q5835.28 1583.53 5838.61 1584.37 Q5841.95 1585.2 5845.66 1585.2 Q5851.67 1585.2 5855.18 1582.04 Q5858.68 1578.88 5858.68 1573.46 Q5858.68 1568.05 5855.18 1564.89 Q5851.67 1561.73 5845.66 1561.73 Q5842.85 1561.73 5840.04 1562.35 Q5837.26 1562.98 5834.34 1564.3 L5834.34 1538.26 Z" fill="#000000" fill-rule="nonzero" fill-opacity="1" /><path clip-path="url(#clip350)" d="M5232.69 1661.94 L5232.69 1677.12 L5250.78 1677.12 L5250.78 1683.95 L5232.69 1683.95 L5232.69 1712.97 Q5232.69 1719.52 5234.45 1721.38 Q5236.27 1723.24 5241.76 1723.24 L5250.78 1723.24 L5250.78 1730.59 L5241.76 1730.59 Q5231.59 1730.59 5227.72 1726.82 Q5223.85 1723 5223.85 1712.97 L5223.85 1683.95 L5217.41 1683.95 L5217.41 1677.12 L5223.85 1677.12 L5223.85 1661.94 L5232.69 1661.94 Z" fill="#000000" fill-rule="nonzero" fill-opacity="1" /><polyline clip-path="url(#clip350)" style="stroke:#000000; stroke-linecap:round; stroke-linejoin:round; stroke-width:6; stroke-opacity:1; fill:none" points="4539.06,1477.3 4539.06,70.8661 "/>
<polyline clip-path="url(#clip350)" style="stroke:#000000; stroke-linecap:round; stroke-linejoin:round; stroke-width:6; stroke-opacity:1; fill:none" points="4539.06,1437.49 4557.95,1437.49 "/>
<polyline clip-path="url(#clip350)" style="stroke:#000000; stroke-linecap:round; stroke-linejoin:round; stroke-width:6; stroke-opacity:1; fill:none" points="4539.06,1105.79 4557.95,1105.79 "/>
<polyline clip-path="url(#clip350)" style="stroke:#000000; stroke-linecap:round; stroke-linejoin:round; stroke-width:6; stroke-opacity:1; fill:none" points="4539.06,774.082 4557.95,774.082 "/>
<polyline clip-path="url(#clip350)" style="stroke:#000000; stroke-linecap:round; stroke-linejoin:round; stroke-width:6; stroke-opacity:1; fill:none" points="4539.06,442.376 4557.95,442.376 "/>
<polyline clip-path="url(#clip350)" style="stroke:#000000; stroke-linecap:round; stroke-linejoin:round; stroke-width:6; stroke-opacity:1; fill:none" points="4539.06,110.671 4557.95,110.671 "/>
<path clip-path="url(#clip350)" d="M4288.64 1438.17 L4333.15 1438.17 L4333.15 1444.07 L4288.64 1444.07 L4288.64 1438.17 Z" fill="#000000" fill-rule="nonzero" fill-opacity="1" /><path clip-path="url(#clip350)" d="M4349.51 1457.51 L4360.97 1457.51 L4360.97 1417.96 L4348.5 1420.46 L4348.5 1414.07 L4360.9 1411.57 L4367.91 1411.57 L4367.91 1457.51 L4379.37 1457.51 L4379.37 1463.41 L4349.51 1463.41 L4349.51 1457.51 Z" fill="#000000" fill-rule="nonzero" fill-opacity="1" /><path clip-path="url(#clip350)" d="M4393.54 1454.59 L4400.86 1454.59 L4400.86 1463.41 L4393.54 1463.41 L4393.54 1454.59 Z" fill="#000000" fill-rule="nonzero" fill-opacity="1" /><path clip-path="url(#clip350)" d="M4431.14 1416.19 Q4425.72 1416.19 4422.98 1421.54 Q4420.27 1426.85 4420.27 1437.54 Q4420.27 1448.2 4422.98 1453.55 Q4425.72 1458.86 4431.14 1458.86 Q4436.59 1458.86 4439.3 1453.55 Q4442.04 1448.2 4442.04 1437.54 Q4442.04 1426.85 4439.3 1421.54 Q4436.59 1416.19 4431.14 1416.19 M4431.14 1410.63 Q4439.85 1410.63 4444.44 1417.54 Q4449.06 1424.42 4449.06 1437.54 Q4449.06 1450.63 4444.44 1457.54 Q4439.85 1464.42 4431.14 1464.42 Q4422.42 1464.42 4417.81 1457.54 Q4413.22 1450.63 4413.22 1437.54 Q4413.22 1424.42 4417.81 1417.54 Q4422.42 1410.63 4431.14 1410.63 Z" fill="#000000" fill-rule="nonzero" fill-opacity="1" /><path clip-path="url(#clip350)" d="M4290.13 1106.46 L4334.65 1106.46 L4334.65 1112.37 L4290.13 1112.37 L4290.13 1106.46 Z" fill="#000000" fill-rule="nonzero" fill-opacity="1" /><path clip-path="url(#clip350)" d="M4364.79 1084.49 Q4359.37 1084.49 4356.63 1089.83 Q4353.92 1095.14 4353.92 1105.84 Q4353.92 1116.5 4356.63 1121.85 Q4359.37 1127.16 4364.79 1127.16 Q4370.24 1127.16 4372.95 1121.85 Q4375.69 1116.5 4375.69 1105.84 Q4375.69 1095.14 4372.95 1089.83 Q4370.24 1084.49 4364.79 1084.49 M4364.79 1078.93 Q4373.5 1078.93 4378.08 1085.84 Q4382.7 1092.71 4382.7 1105.84 Q4382.7 1118.93 4378.08 1125.84 Q4373.5 1132.71 4364.79 1132.71 Q4356.07 1132.71 4351.45 1125.84 Q4346.87 1118.93 4346.87 1105.84 Q4346.87 1092.71 4351.45 1085.84 Q4356.07 1078.93 4364.79 1078.93 Z" fill="#000000" fill-rule="nonzero" fill-opacity="1" /><path clip-path="url(#clip350)" d="M4395.03 1122.89 L4402.36 1122.89 L4402.36 1131.71 L4395.03 1131.71 L4395.03 1122.89 Z" fill="#000000" fill-rule="nonzero" fill-opacity="1" /><path clip-path="url(#clip350)" d="M4417.7 1079.87 L4445.24 1079.87 L4445.24 1085.77 L4424.13 1085.77 L4424.13 1098.48 Q4425.65 1097.96 4427.18 1097.71 Q4428.71 1097.44 4430.24 1097.44 Q4438.92 1097.44 4443.99 1102.19 Q4449.06 1106.95 4449.06 1115.08 Q4449.06 1123.44 4443.85 1128.1 Q4438.64 1132.71 4429.16 1132.71 Q4425.9 1132.71 4422.49 1132.16 Q4419.13 1131.6 4415.51 1130.49 L4415.51 1123.44 Q4418.64 1125.14 4421.97 1125.98 Q4425.31 1126.81 4429.02 1126.81 Q4435.03 1126.81 4438.54 1123.65 Q4442.04 1120.49 4442.04 1115.08 Q4442.04 1109.66 4438.54 1106.5 Q4435.03 1103.34 4429.02 1103.34 Q4426.21 1103.34 4423.4 1103.96 Q4420.62 1104.59 4417.7 1105.91 L4417.7 1079.87 Z" fill="#000000" fill-rule="nonzero" fill-opacity="1" /><path clip-path="url(#clip350)" d="M4363.29 752.78 Q4357.88 752.78 4355.13 758.127 Q4352.42 763.439 4352.42 774.134 Q4352.42 784.793 4355.13 790.141 Q4357.88 795.453 4363.29 795.453 Q4368.74 795.453 4371.45 790.141 Q4374.2 784.793 4374.2 774.134 Q4374.2 763.439 4371.45 758.127 Q4368.74 752.78 4363.29 752.78 M4363.29 747.224 Q4372.01 747.224 4376.59 754.134 Q4381.21 761.009 4381.21 774.134 Q4381.21 787.224 4376.59 794.134 Q4372.01 801.009 4363.29 801.009 Q4354.58 801.009 4349.96 794.134 Q4345.38 787.224 4345.38 774.134 Q4345.38 761.009 4349.96 754.134 Q4354.58 747.224 4363.29 747.224 Z" fill="#000000" fill-rule="nonzero" fill-opacity="1" /><path clip-path="url(#clip350)" d="M4393.54 791.182 L4400.86 791.182 L4400.86 800.002 L4393.54 800.002 L4393.54 791.182 Z" fill="#000000" fill-rule="nonzero" fill-opacity="1" /><path clip-path="url(#clip350)" d="M4431.14 752.78 Q4425.72 752.78 4422.98 758.127 Q4420.27 763.439 4420.27 774.134 Q4420.27 784.793 4422.98 790.141 Q4425.72 795.453 4431.14 795.453 Q4436.59 795.453 4439.3 790.141 Q4442.04 784.793 4442.04 774.134 Q4442.04 763.439 4439.3 758.127 Q4436.59 752.78 4431.14 752.78 M4431.14 747.224 Q4439.85 747.224 4444.44 754.134 Q4449.06 761.009 4449.06 774.134 Q4449.06 787.224 4444.44 794.134 Q4439.85 801.009 4431.14 801.009 Q4422.42 801.009 4417.81 794.134 Q4413.22 787.224 4413.22 774.134 Q4413.22 761.009 4417.81 754.134 Q4422.42 747.224 4431.14 747.224 Z" fill="#000000" fill-rule="nonzero" fill-opacity="1" /><path clip-path="url(#clip350)" d="M4364.79 421.074 Q4359.37 421.074 4356.63 426.421 Q4353.92 431.734 4353.92 442.428 Q4353.92 453.088 4356.63 458.435 Q4359.37 463.748 4364.79 463.748 Q4370.24 463.748 4372.95 458.435 Q4375.69 453.088 4375.69 442.428 Q4375.69 431.734 4372.95 426.421 Q4370.24 421.074 4364.79 421.074 M4364.79 415.519 Q4373.5 415.519 4378.08 422.428 Q4382.7 429.303 4382.7 442.428 Q4382.7 455.518 4378.08 462.428 Q4373.5 469.303 4364.79 469.303 Q4356.07 469.303 4351.45 462.428 Q4346.87 455.518 4346.87 442.428 Q4346.87 429.303 4351.45 422.428 Q4356.07 415.519 4364.79 415.519 Z" fill="#000000" fill-rule="nonzero" fill-opacity="1" /><path clip-path="url(#clip350)" d="M4395.03 459.477 L4402.36 459.477 L4402.36 468.296 L4395.03 468.296 L4395.03 459.477 Z" fill="#000000" fill-rule="nonzero" fill-opacity="1" /><path clip-path="url(#clip350)" d="M4417.7 416.456 L4445.24 416.456 L4445.24 422.359 L4424.13 422.359 L4424.13 435.067 Q4425.65 434.546 4427.18 434.303 Q4428.71 434.026 4430.24 434.026 Q4438.92 434.026 4443.99 438.782 Q4449.06 443.539 4449.06 451.664 Q4449.06 460.032 4443.85 464.685 Q4438.64 469.303 4429.16 469.303 Q4425.9 469.303 4422.49 468.748 Q4419.13 468.192 4415.51 467.081 L4415.51 460.032 Q4418.64 461.734 4421.97 462.567 Q4425.31 463.4 4429.02 463.4 Q4435.03 463.4 4438.54 460.241 Q4442.04 457.081 4442.04 451.664 Q4442.04 446.248 4438.54 443.088 Q4435.03 439.928 4429.02 439.928 Q4426.21 439.928 4423.4 440.553 Q4420.62 441.178 4417.7 442.498 L4417.7 416.456 Z" fill="#000000" fill-rule="nonzero" fill-opacity="1" /><path clip-path="url(#clip350)" d="M4349.51 130.688 L4360.97 130.688 L4360.97 91.1396 L4348.5 93.6396 L4348.5 87.2507 L4360.9 84.7507 L4367.91 84.7507 L4367.91 130.688 L4379.37 130.688 L4379.37 136.591 L4349.51 136.591 L4349.51 130.688 Z" fill="#000000" fill-rule="nonzero" fill-opacity="1" /><path clip-path="url(#clip350)" d="M4393.54 127.771 L4400.86 127.771 L4400.86 136.591 L4393.54 136.591 L4393.54 127.771 Z" fill="#000000" fill-rule="nonzero" fill-opacity="1" /><path clip-path="url(#clip350)" d="M4431.14 89.3688 Q4425.72 89.3688 4422.98 94.716 Q4420.27 100.028 4420.27 110.723 Q4420.27 121.382 4422.98 126.73 Q4425.72 132.042 4431.14 132.042 Q4436.59 132.042 4439.3 126.73 Q4442.04 121.382 4442.04 110.723 Q4442.04 100.028 4439.3 94.716 Q4436.59 89.3688 4431.14 89.3688 M4431.14 83.8133 Q4439.85 83.8133 4444.44 90.7229 Q4449.06 97.5979 4449.06 110.723 Q4449.06 123.813 4444.44 130.723 Q4439.85 137.598 4431.14 137.598 Q4422.42 137.598 4417.81 130.723 Q4413.22 123.813 4413.22 110.723 Q4413.22 97.5979 4417.81 90.7229 Q4422.42 83.8133 4431.14 83.8133 Z" fill="#000000" fill-rule="nonzero" fill-opacity="1" /><path clip-path="url(#clip350)" d="M4125.84 875.2 L4134.05 875.2 Q4132 878.924 4130.99 882.696 Q4129.94 886.42 4129.94 890.239 Q4129.94 898.785 4135.39 903.512 Q4140.78 908.238 4150.57 908.238 Q4160.36 908.238 4165.8 903.512 Q4171.19 898.785 4171.19 890.239 Q4171.19 886.42 4170.19 882.696 Q4169.14 878.924 4167.09 875.2 L4175.2 875.2 Q4176.92 878.876 4177.78 882.839 Q4178.64 886.754 4178.64 891.194 Q4178.64 903.273 4171.05 910.387 Q4163.46 917.5 4150.57 917.5 Q4137.49 917.5 4129.99 910.339 Q4122.5 903.13 4122.5 890.621 Q4122.5 886.563 4123.35 882.696 Q4124.17 878.829 4125.84 875.2 Z" fill="#000000" fill-rule="nonzero" fill-opacity="1" /><path clip-path="url(#clip350)" d="M4129.94 839.202 Q4129.94 846.268 4135.48 850.374 Q4140.97 854.48 4150.57 854.48 Q4160.16 854.48 4165.7 850.422 Q4171.19 846.316 4171.19 839.202 Q4171.19 832.184 4165.65 828.078 Q4160.12 823.972 4150.57 823.972 Q4141.07 823.972 4135.53 828.078 Q4129.94 832.184 4129.94 839.202 M4122.5 839.202 Q4122.5 827.744 4129.94 821.203 Q4137.39 814.662 4150.57 814.662 Q4163.7 814.662 4171.19 821.203 Q4178.64 827.744 4178.64 839.202 Q4178.64 850.708 4171.19 857.249 Q4163.7 863.742 4150.57 863.742 Q4137.39 863.742 4129.94 857.249 Q4122.5 850.708 4122.5 839.202 Z" fill="#000000" fill-rule="nonzero" fill-opacity="1" /><path clip-path="url(#clip350)" d="M4125.36 766.012 L4133.67 766.012 Q4131.76 769.736 4130.8 773.747 Q4129.85 777.757 4129.85 782.054 Q4129.85 788.595 4131.85 791.889 Q4133.86 795.135 4137.87 795.135 Q4140.92 795.135 4142.69 792.796 Q4144.41 790.457 4145.98 783.391 L4146.65 780.383 Q4148.66 771.025 4152.33 767.11 Q4155.96 763.148 4162.5 763.148 Q4169.95 763.148 4174.3 769.068 Q4178.64 774.94 4178.64 785.253 Q4178.64 789.55 4177.78 794.228 Q4176.97 798.859 4175.3 804.016 L4166.23 804.016 Q4168.76 799.146 4170.05 794.419 Q4171.29 789.693 4171.29 785.062 Q4171.29 778.855 4169.19 775.513 Q4167.04 772.171 4163.17 772.171 Q4159.59 772.171 4157.68 774.606 Q4155.77 776.993 4154.01 785.157 L4153.29 788.213 Q4151.57 796.377 4148.04 800.005 Q4144.46 803.634 4138.25 803.634 Q4130.71 803.634 4126.6 798.286 Q4122.5 792.939 4122.5 783.104 Q4122.5 778.234 4123.21 773.938 Q4123.93 769.641 4125.36 766.012 Z" fill="#000000" fill-rule="nonzero" fill-opacity="1" /><path clip-path="url(#clip350)" d="M4103.06 728.057 Q4114.04 734.454 4124.79 737.558 Q4135.53 740.661 4146.56 740.661 Q4157.59 740.661 4168.42 737.558 Q4179.21 734.407 4190.15 728.057 L4190.15 735.696 Q4178.93 742.857 4168.09 746.438 Q4157.25 749.971 4146.56 749.971 Q4135.91 749.971 4125.12 746.438 Q4114.33 742.905 4103.06 735.696 L4103.06 728.057 Z" fill="#000000" fill-rule="nonzero" fill-opacity="1" /><path clip-path="url(#clip350)" d="M4143.36 675.11 L4143.36 705.522 Q4157.63 704.806 4163.7 701.512 Q4171.15 697.406 4171.15 690.292 Q4171.15 683.131 4163.65 679.168 Q4157.06 675.683 4143.36 675.11 M4135.24 675.253 Q4121.68 676.59 4116.91 679.168 Q4109.37 683.274 4109.37 690.292 Q4109.37 697.597 4116.81 701.464 Q4122.83 704.52 4135.24 705.427 L4135.24 675.253 M4102.2 690.292 Q4102.2 678.834 4112.33 672.293 Q4122.4 665.752 4140.26 665.752 Q4158.06 665.752 4168.19 672.293 Q4178.35 678.834 4178.35 690.292 Q4178.35 701.798 4168.19 708.291 Q4158.06 714.832 4140.26 714.832 Q4122.4 714.832 4112.33 708.291 Q4102.2 701.798 4102.2 690.292 Z" fill="#000000" fill-rule="nonzero" fill-opacity="1" /><path clip-path="url(#clip350)" d="M4103.06 652.575 L4103.06 644.937 Q4114.33 637.775 4125.12 634.242 Q4135.91 630.661 4146.56 630.661 Q4157.25 630.661 4168.09 634.242 Q4178.93 637.775 4190.15 644.937 L4190.15 652.575 Q4179.21 646.226 4168.42 643.122 Q4157.59 639.971 4146.56 639.971 Q4135.53 639.971 4124.79 643.122 Q4114.04 646.226 4103.06 652.575 Z" fill="#000000" fill-rule="nonzero" fill-opacity="1" /><polyline clip-path="url(#clip354)" style="stroke:#009af9; stroke-linecap:round; stroke-linejoin:round; stroke-width:6; stroke-opacity:1; fill:none" points="4539.06,110.671 4540.45,112.112 4541.84,116.418 4543.23,123.536 4544.62,133.367 4546.01,145.774 4547.41,160.586 4548.8,177.598 4550.19,196.586 4551.58,217.314 4552.97,239.543 4554.36,263.038 4555.75,287.58 4557.15,312.965 4558.54,339.009 4559.93,365.551 4561.32,392.454 4562.71,419.602 4564.1,446.902 4565.49,474.282 4566.89,501.681 4568.28,529.053 4569.67,556.362 4571.06,583.582 4572.45,610.694 4573.84,637.688 4575.23,664.558 4576.63,691.296 4578.02,717.898 4579.41,744.358 4580.8,770.67 4582.19,796.825 4583.58,822.811 4584.97,848.611 4586.37,874.208 4587.76,899.577 4589.15,924.694 4590.54,949.528 4591.93,974.048 4593.32,998.206 4594.71,1021.95 4596.11,1045.23 4597.5,1068 4598.89,1090.21 4600.28,1111.81 4601.67,1132.75 4603.06,1153 4604.46,1172.51 4605.85,1191.25 4607.24,1209.18 4608.63,1226.28 4610.02,1242.52 4611.41,1257.89 4612.8,1272.39 4614.2,1286.03 4615.59,1298.81 4616.98,1310.77 4618.37,1321.92 4619.76,1332.29 4621.15,1341.9 4622.54,1350.79 4623.94,1359 4625.33,1366.56 4626.72,1373.51 4628.11,1379.88 4629.5,1385.71 4630.89,1391.05 4632.28,1395.92 4633.68,1400.36 4635.07,1404.41 4636.46,1408.08 4637.85,1411.41 4639.24,1414.44 4640.63,1417.17 4642.02,1419.65 4643.42,1421.88 4644.81,1423.89 4646.2,1425.69 4647.59,1427.31 4648.98,1428.76 4650.37,1430.06 4651.77,1431.21 4653.16,1432.23 4654.55,1433.13 4655.94,1433.91 4657.33,1434.6 4658.72,1435.2 4660.11,1435.71 4661.51,1436.14 4662.9,1436.5 4664.29,1436.8 4665.68,1437.04 4667.07,1437.22 4668.46,1437.35 4669.85,1437.44 4671.25,1437.48 4672.64,1437.49 4674.03,1437.46 4675.42,1437.4 4676.81,1437.31 4678.2,1437.2 4679.59,1437.05 4680.99,1436.89 4682.38,1436.7 4683.77,1436.5 4685.16,1436.28 4686.55,1436.04 4687.94,1435.79 4689.33,1435.52 4690.73,1435.24 4692.12,1434.95 4693.51,1434.65 4694.9,1434.34 4696.29,1434.02 4697.68,1433.69 4699.08,1433.36 4700.47,1433.01 4701.86,1432.67 4703.25,1432.31 4704.64,1431.95 4706.03,1431.59 4707.42,1431.22 4708.82,1430.85 4710.21,1430.48 4711.6,1430.1 4712.99,1429.72 4714.38,1429.34 4715.77,1428.95 4717.16,1428.56 4718.56,1428.17 4719.95,1427.78 4721.34,1427.38 4722.73,1426.99 4724.12,1426.59 4725.51,1426.19 4726.9,1425.79 4728.3,1425.39 4729.69,1424.98 4731.08,1424.58 4732.47,1424.18 4733.86,1423.77 4735.25,1423.37 4736.64,1422.96 4738.04,1422.55 4739.43,1422.14 4740.82,1421.73 4742.21,1421.33 4743.6,1420.92 4744.99,1420.51 4746.39,1420.09 4747.78,1419.68 4749.17,1419.27 4750.56,1418.86 4751.95,1418.45 4753.34,1418.03 4754.73,1417.62 4756.13,1417.2 4757.52,1416.79 4758.91,1416.37 4760.3,1415.95 4761.69,1415.54 4763.08,1415.12 4764.47,1414.7 4765.87,1414.28 4767.26,1413.86 4768.65,1413.43 4770.04,1413.01 4771.43,1412.59 4772.82,1412.16 4774.21,1411.73 4775.61,1411.31 4777,1410.88 4778.39,1410.45 4779.78,1410.01 4781.17,1409.58 4782.56,1409.15 4783.95,1408.71 4785.35,1408.27 4786.74,1407.83 4788.13,1407.39 4789.52,1406.95 4790.91,1406.5 4792.3,1406.05 4793.7,1405.6 4795.09,1405.15 4796.48,1404.7 4797.87,1404.24 4799.26,1403.78 4800.65,1403.32 4802.04,1402.86 4803.44,1402.39 4804.83,1401.92 4806.22,1401.45 4807.61,1400.98 4809,1400.5 4810.39,1400.02 4811.78,1399.54 4813.18,1399.05 4814.57,1398.56 4815.96,1398.06 4817.35,1397.56 4818.74,1397.06 4820.13,1396.55 4821.52,1396.04 4822.92,1395.53 4824.31,1395.01 4825.7,1394.48 4827.09,1393.95 4828.48,1393.42 4829.87,1392.88 4831.26,1392.34 4832.66,1391.79 4834.05,1391.23 4835.44,1390.67 4836.83,1390.1 4838.22,1389.53 4839.61,1388.95 4841.01,1388.36 4842.4,1387.76 4843.79,1387.16 4845.18,1386.56 4846.57,1385.94 4847.96,1385.31 4849.35,1384.68 4850.75,1384.03 4852.14,1383.37 4853.53,1382.71 4854.92,1382.03 4856.31,1381.35 4857.7,1380.65 4859.09,1379.94 4860.49,1379.23 4861.88,1378.5 4863.27,1377.76 4864.66,1377.01 4866.05,1376.25 4867.44,1375.48 4868.83,1374.7 4870.23,1373.9 4871.62,1373.09 4873.01,1372.27 4874.4,1371.44 4875.79,1370.59 4877.18,1369.72 4878.57,1368.85 4879.97,1367.95 4881.36,1367.04 4882.75,1366.11 4884.14,1365.16 4885.53,1364.2 4886.92,1363.21 4888.31,1362.2 4889.71,1361.18 4891.1,1360.12 4892.49,1359.05 4893.88,1357.95 4895.27,1356.82 4896.66,1355.66 4898.06,1354.48 4899.45,1353.26 4900.84,1352.02 4902.23,1350.73 4903.62,1349.42 4905.01,1348.06 4906.4,1346.67 4907.8,1345.23 4909.19,1343.76 4910.58,1342.23 4911.97,1340.67 4913.36,1339.05 4914.75,1337.38 4916.14,1335.65 4917.54,1333.87 4918.93,1332.03 4920.32,1330.12 4921.71,1328.15 4923.1,1326.12 4924.49,1324.01 4925.88,1321.82 4927.28,1319.56 4928.67,1317.22 4930.06,1314.79 4931.45,1312.28 4932.84,1309.79 4934.23,1307.35 4935.62,1304.93 4937.02,1302.51 4938.41,1300.05 4939.8,1297.53 4941.19,1294.92 4942.58,1292.2 4943.97,1289.33 4945.37,1286.3 4946.76,1283.07 4948.15,1279.61 4949.54,1275.9 4950.93,1271.9 4952.32,1267.59 4953.71,1262.93 4955.11,1257.89 4956.5,1252.45 4957.89,1246.56 4959.28,1240.2 4960.67,1233.33 4962.06,1225.91 4963.45,1217.9 4964.85,1209.28 4966.24,1199.99 4967.63,1190.01 4969.02,1179.29 4970.41,1167.79 4971.8,1155.48 4973.19,1142.31 4974.59,1128.24 4975.98,1113.24 4977.37,1097.28 4978.76,1080.3 4980.15,1062.29 4981.54,1043.21 4982.93,1023.04 4984.33,1001.76 4985.72,979.347 4987.11,955.794 4988.5,931.098 4989.89,905.263 4991.28,878.301 4992.68,850.236 4994.07,821.099 4995.46,790.935 4996.85,759.801 4998.24,727.765 4999.63,694.91 5001.02,661.334 5002.42,627.15 5003.81,592.485 5005.2,557.483 5006.59,522.304 5007.98,487.122 5009.37,452.189 5010.76,418.225 5012.16,385.453 5013.55,353.96 5014.94,323.841 5016.33,295.203 5017.72,268.158 5019.11,242.827 5020.5,219.333 5021.9,197.806 5023.29,178.372 5024.68,161.16 5026.07,146.292 5027.46,133.882 5028.85,124.035 5030.24,116.841 5031.64,112.373 5033.03,110.685 5034.42,111.807 5035.81,115.743 5037.2,122.469 5038.59,131.932 5039.99,144.049 5041.38,158.703 5042.77,175.745 5044.16,194.998 5045.55,216.253 5046.94,239.273 5048.33,263.797 5049.73,289.542 5051.12,316.204 5052.51,343.467 5053.9,371.003 5055.29,398.478 5056.68,425.739 5058.07,453.209 5059.47,480.861 5060.86,508.626 5062.25,536.444 5063.64,564.261 5065.03,592.031 5066.42,619.712 5067.81,647.267 5069.21,674.664 5070.6,701.874 5071.99,728.872 5073.38,755.634 5074.77,782.139 5076.16,808.368 5077.55,834.303 5078.95,859.926 5080.34,885.22 5081.73,910.171 5083.12,934.762 5084.51,958.976 5085.9,982.798 5087.3,1006.21 5088.69,1029.2 5090.08,1051.75 5091.47,1073.83 5092.86,1095.44 5094.25,1116.55 5095.64,1137.15 5097.04,1157.2 5098.43,1176.55 5099.82,1195.1 5101.21,1212.84 5102.6,1229.72 5103.99,1245.76 5105.38,1260.93 5106.78,1275.25 5108.17,1288.71 5109.56,1301.34 5110.95,1313.14 5112.34,1324.15 5113.73,1334.38 5115.12,1343.87 5116.52,1352.65 5117.91,1360.74 5119.3,1368.19 5120.69,1375.04 5122.08,1381.3 5123.47,1387.04 5124.86,1392.27 5126.26,1397.04 5127.65,1401.38 5129.04,1405.32 5130.43,1408.9 5131.82,1412.15 5133.21,1415.09 5134.6,1417.76 5136,1420.18 5137.39,1422.36 5138.78,1424.33 5140.17,1426.09 5141.56,1427.67 5142.95,1429.08 5144.35,1430.33 5145.74,1431.44 5147.13,1432.41 5148.52,1433.27 5149.91,1434.02 5151.3,1434.67 5152.69,1435.23 5154.09,1435.72 5155.48,1436.12 5156.87,1436.46 5158.26,1436.75 5159.65,1436.97 5161.04,1437.15 5162.43,1437.29 5163.83,1437.39 5165.22,1437.45 5166.61,1437.49 5168,1437.49 5169.39,1437.47 5170.78,1437.43 5172.17,1437.36 5173.57,1437.27 5174.96,1437.17 5176.35,1437.05 5177.74,1436.91 5179.13,1436.76 5180.52,1436.59 5181.91,1436.4 5183.31,1436.2 5184.7,1435.98 5186.09,1435.74 5187.48,1435.48 5188.87,1435.2 5190.26,1434.9 5191.66,1434.6 5193.05,1434.29 5194.44,1433.97 5195.83,1433.64 5197.22,1433.3 5198.61,1432.96 5200,1432.61 5201.4,1432.26 5202.79,1431.9 5204.18,1431.54 5205.57,1431.17 5206.96,1430.8 5208.35,1430.42 5209.74,1430.04 5211.14,1429.66 5212.53,1429.28 5213.92,1428.89 5215.31,1428.5 5216.7,1428.11 5218.09,1427.72 5219.48,1427.32 5220.88,1426.93 5222.27,1426.53 5223.66,1426.13 5225.05,1425.73 5226.44,1425.33 5227.83,1424.92 5229.22,1424.52 5230.62,1424.12 5232.01,1423.71 5233.4,1423.3 5234.79,1422.9 5236.18,1422.49 5237.57,1422.08 5238.97,1421.67 5240.36,1421.26 5241.75,1420.85 5243.14,1420.44 5244.53,1420.03 5245.92,1419.62 5247.31,1419.2 5248.71,1418.79 5250.1,1418.38 5251.49,1417.96 5252.88,1417.55 5254.27,1417.13 5255.66,1416.72 5257.05,1416.3 5258.45,1415.89 5259.84,1415.47 5261.23,1415.05 5262.62,1414.63 5264.01,1414.22 5265.4,1413.8 5266.79,1413.37 5268.19,1412.95 5269.58,1412.53 5270.97,1412.11 5272.36,1411.68 5273.75,1411.26 5275.14,1410.83 5276.53,1410.4 5277.93,1409.97 5279.32,1409.54 5280.71,1409.11 5282.1,1408.67 5283.49,1408.24 5284.88,1407.8 5286.28,1407.36 5287.67,1406.92 5289.06,1406.47 5290.45,1406.03 5291.84,1405.58 5293.23,1405.13 5294.62,1404.68 5296.02,1404.22 5297.41,1403.76 5298.8,1403.3 5300.19,1402.84 5301.58,1402.37 5302.97,1401.91 5304.36,1401.43 5305.76,1400.96 5307.15,1400.48 5308.54,1400 5309.93,1399.51 5311.32,1399.02 5312.71,1398.53 5314.1,1398.04 5315.5,1397.53 5316.89,1397.03 5318.28,1396.52 5319.67,1396.01 5321.06,1395.49 5322.45,1394.97 5323.84,1394.44 5325.24,1393.91 5326.63,1393.37 5328.02,1392.83 5329.41,1392.29 5330.8,1391.74 5332.19,1391.18 5333.59,1390.62 5334.98,1390.05 5336.37,1389.47 5337.76,1388.89 5339.15,1388.31 5340.54,1387.71 5341.93,1387.11 5343.33,1386.51 5344.72,1385.89 5346.11,1385.27 5347.5,1384.64 5348.89,1384 5350.28,1383.35 5351.67,1382.7 5353.07,1382.03 5354.46,1381.36 5355.85,1380.68 5357.24,1379.98 5358.63,1379.28 5360.02,1378.56 5361.41,1377.83 5362.81,1377.09 5364.2,1376.34 5365.59,1375.58 5366.98,1374.8 5368.37,1374.01 5369.76,1373.21 5371.15,1372.39 5372.55,1371.55 5373.94,1370.7 5375.33,1369.83 5376.72,1368.95 5378.11,1368.05 5379.5,1367.13 5380.9,1366.19 5382.29,1365.23 5383.68,1364.25 5385.07,1363.26 5386.46,1362.24 5387.85,1361.19 5389.24,1360.13 5390.64,1359.03 5392.03,1357.88 5393.42,1356.68 5394.81,1355.42 5396.2,1354.11 5397.59,1352.75 5398.98,1351.35 5400.38,1349.91 5401.77,1348.43 5403.16,1346.91 5404.55,1345.36 5405.94,1343.77 5407.33,1342.15 5408.72,1340.51 5410.12,1338.83 5411.51,1337.12 5412.9,1335.38 5414.29,1333.6 5415.68,1331.8 5417.07,1329.96 5418.46,1328.08 5419.86,1326.16 5421.25,1324.2 5422.64,1322.19 5424.03,1320.14 5425.42,1318.02 5426.81,1315.85 5428.2,1313.61 5429.6,1311.3 5430.99,1308.9 5432.38,1306.42 5433.77,1303.84 5435.16,1301.16 5436.55,1298.36 5437.95,1295.43 5439.34,1292.36 5440.73,1289.14 5442.12,1285.75 5443.51,1282.18 5444.9,1278.42 5446.29,1274.44 5447.69,1270.23 5449.08,1265.77 5450.47,1261.04 5451.86,1256.01 5453.25,1250.67 5454.64,1244.99 5456.03,1238.94 5457.43,1232.49 5458.82,1225.61 5460.21,1218.28 5461.6,1210.45 5462.99,1202.1 5464.38,1193.17 5465.77,1183.65 5467.17,1173.47 5468.56,1162.61 5469.95,1151 5471.34,1138.61 5472.73,1125.39 5474.12,1111.28 5475.51,1096.23 5476.91,1080.19 5478.3,1063.1 5479.69,1044.9 5481.08,1025.55 5482.47,1004.99 5483.86,983.167 5485.26,960.032 5486.65,935.54 5488.04,909.653 5489.43,882.337 5490.82,853.571 5492.21,823.652 5493.6,792.84 5495,761.193 5496.39,728.777 5497.78,695.676 5499.17,661.987 5500.56,627.822 5501.95,593.307 5503.34,558.585 5504.74,523.811 5506.13,489.155 5507.52,454.799 5508.91,420.936 5510.3,387.769 5511.69,355.509 5513.08,324.37 5514.48,294.571 5515.87,266.331 5517.26,239.863 5518.65,215.378 5520.04,193.073 5521.43,173.133 5522.82,155.727 5524.22,141.004 5525.61,129.088 5527,120.08 5528.39,114.051 5529.78,111.04 5531.17,111.057 5532.57,114.075 5533.96,120.037 5535.35,128.85 5536.74,140.389 5538.13,154.498 5539.52,170.99 5540.91,189.651 5542.31,210.246 5543.7,232.515 5545.09,256.184 5546.48,280.962 5547.87,306.554 5549.26,332.653 5550.65,359.128 5552.05,386.101 5553.44,413.471 5554.83,441.144 5556.22,469.034 5557.61,497.067 5559,525.177 5560.39,553.305 5561.79,581.4 5563.18,609.416 5564.57,637.312 5565.96,665.054 5567.35,692.609 5568.74,719.949 5570.13,747.048 5571.53,773.882 5572.92,800.431 5574.31,826.674 5575.7,852.592 5577.09,878.167 5578.48,903.381 5579.88,928.217 5581.27,952.658 5582.66,976.686 5584.05,1000.28 5585.44,1023.44 5586.83,1046.12 5588.22,1068.32 5589.62,1090.02 5591.01,1111.2 5592.4,1131.84 5593.79,1151.93 5595.18,1171.43 5596.57,1190.19 5597.96,1208.14 5599.36,1225.23 5600.75,1241.48 5602.14,1256.86 5603.53,1271.39 5604.92,1285.07 5606.31,1297.91 5607.7,1309.92 5609.1,1321.14 5610.49,1331.58 5611.88,1341.28 5613.27,1350.26 5614.66,1358.55 5616.05,1366.19 5617.44,1373.21 5618.84,1379.65 5620.23,1385.54 5621.62,1390.93 5623.01,1395.83 5624.4,1400.3 5625.79,1404.35 5627.19,1408.03 5628.58,1411.37 5629.97,1414.38 5631.36,1417.11 5632.75,1419.58 5634.14,1421.81 5635.53,1423.82 5636.93,1425.65 5638.32,1427.32 5639.71,1428.82 5641.1,1430.17 5642.49,1431.37 5643.88,1432.44 5645.27,1433.37 5646.67,1434.18 5648.06,1434.87 5649.45,1435.46 5650.84,1435.95 5652.23,1436.36 5653.62,1436.69 5655.01,1436.95 5656.41,1437.15 5657.8,1437.3 5659.19,1437.4 5660.58,1437.46 5661.97,1437.49 5663.36,1437.49 5664.75,1437.47 5666.15,1437.43 5667.54,1437.38 5668.93,1437.32 5670.32,1437.26 5671.71,1437.19 5673.1,1437.11 5674.5,1437.03 5675.89,1436.95 5677.28,1436.87 5678.67,1436.79 5680.06,1436.71 5681.45,1436.63 5682.84,1436.54 5684.24,1436.44 5685.63,1436.34 5687.02,1436.23 5688.41,1436.1 5689.8,1435.96 5691.19,1435.79 5692.58,1435.6 5693.98,1435.38 5695.37,1435.11 5696.76,1434.81 5698.15,1434.51 5699.54,1434.19 5700.93,1433.87 5702.32,1433.54 5703.72,1433.2 5705.11,1432.86 5706.5,1432.51 5707.89,1432.15 5709.28,1431.79 5710.67,1431.43 5712.06,1431.06 5713.46,1430.69 5714.85,1430.31 5716.24,1429.93 5717.63,1429.55 5719.02,1429.16 5720.41,1428.78 5721.8,1428.39 5723.2,1428 5724.59,1427.6 5725.98,1427.21 5727.37,1426.81 5728.76,1426.42 5730.15,1426.02 5731.55,1425.62 5732.94,1425.21 5734.33,1424.81 5735.72,1424.41 5737.11,1424 5738.5,1423.6 5739.89,1423.19 5741.29,1422.78 5742.68,1422.38 5744.07,1421.97 5745.46,1421.56 5746.85,1421.15 5748.24,1420.74 5749.63,1420.33 5751.03,1419.91 5752.42,1419.5 5753.81,1419.09 5755.2,1418.68 5756.59,1418.26 5757.98,1417.85 5759.37,1417.43 5760.77,1417.01 5762.16,1416.6 5763.55,1416.18 5764.94,1415.76 5766.33,1415.34 5767.72,1414.93 5769.11,1414.51 5770.51,1414.09 5771.9,1413.66 5773.29,1413.24 5774.68,1412.82 5776.07,1412.4 5777.46,1411.97 5778.86,1411.54 5780.25,1411.12 5781.64,1410.69 5783.03,1410.26 5784.42,1409.83 5785.81,1409.4 5787.2,1408.96 5788.6,1408.53 5789.99,1408.09 5791.38,1407.65 5792.77,1407.21 5794.16,1406.77 5795.55,1406.33 5796.94,1405.88 5798.34,1405.44 5799.73,1404.99 5801.12,1404.53 5802.51,1404.08 5803.9,1403.62 5805.29,1403.16 5806.68,1402.7 5808.08,1402.23 5809.47,1401.76 5810.86,1401.29 5812.25,1400.82 5813.64,1400.34 5815.03,1399.86 5816.42,1399.37 5817.82,1398.89 5819.21,1398.39 5820.6,1397.9 5821.99,1397.4 5823.38,1396.89 5824.77,1396.38 5826.17,1395.87 5827.56,1395.36 5828.95,1394.83 5830.34,1394.3 5831.73,1393.77 5833.12,1393.23 5834.51,1392.68 5835.91,1392.13 5837.3,1391.57 5838.69,1391 5840.08,1390.43 5841.47,1389.85 5842.86,1389.27 5844.25,1388.67 5845.65,1388.08 5847.04,1387.47 5848.43,1386.86 5849.82,1386.25 5851.21,1385.62 5852.6,1384.99 5853.99,1384.35 5855.39,1383.71 5856.78,1383.05 5858.17,1382.39 5859.56,1381.72 5860.95,1381.04 5862.34,1380.35 5863.73,1379.65 5865.13,1378.95 5866.52,1378.23 5867.91,1377.5 5869.3,1376.76 5870.69,1376.01 5872.08,1375.25 5873.48,1374.48 5874.87,1373.69 5876.26,1372.89 5877.65,1372.08 5879.04,1371.25 5880.43,1370.4 5881.82,1369.54 5883.22,1368.66 5884.61,1367.77 5886,1366.86 5887.39,1365.92 5888.78,1364.97 5890.17,1364 5891.56,1363 5892.96,1361.98 5894.35,1360.94 5895.74,1359.88 5897.13,1358.78 5898.52,1357.66 5899.91,1356.52 5901.3,1355.34 5902.7,1354.13 5904.09,1352.89 5905.48,1351.62 5906.87,1350.31 5908.26,1348.97 5909.65,1347.59 5911.04,1346.17 5912.44,1344.71 5913.83,1343.2 5915.22,1341.65 5916.61,1340.06 5918,1338.41 5919.39,1336.72 5920.79,1334.98 5922.18,1333.18 5923.57,1331.32 5924.96,1329.4 5926.35,1327.42 5927.74,1325.38 5929.13,1323.25 "/>
<path clip-path="url(#clip350)" d="M4079.24 93.4573 L4079.24 102.416 Q4075.18 100.176 4071.06 99.0823 Q4067 97.9364 4062.83 97.9364 Q4053.51 97.9364 4048.35 103.874 Q4043.2 109.759 4043.2 120.436 Q4043.2 131.113 4048.35 137.051 Q4053.51 142.936 4062.83 142.936 Q4067 142.936 4071.06 141.842 Q4075.18 140.697 4079.24 138.457 L4079.24 147.311 Q4075.23 149.186 4070.91 150.124 Q4066.63 151.061 4061.79 151.061 Q4048.61 151.061 4040.85 142.78 Q4033.09 134.499 4033.09 120.436 Q4033.09 106.166 4040.91 97.9885 Q4048.77 89.8115 4062.42 89.8115 Q4066.84 89.8115 4071.06 90.749 Q4075.28 91.6344 4079.24 93.4573 Z" fill="#000000" fill-rule="nonzero" fill-opacity="1" /><path clip-path="url(#clip350)" d="M4094.39 68.6137 L4102.73 68.6137 Q4110.54 80.9053 4114.39 92.6761 Q4118.3 104.447 4118.3 116.061 Q4118.3 127.728 4114.39 139.551 Q4110.54 151.374 4102.73 163.613 L4094.39 163.613 Q4101.32 151.686 4104.71 139.915 Q4108.14 128.093 4108.14 116.061 Q4108.14 104.03 4104.71 92.3115 Q4101.32 80.5928 4094.39 68.6137 Z" fill="#000000" fill-rule="nonzero" fill-opacity="1" /></svg>
