<?xml version="1.0" encoding="utf-8"?>
<svg xmlns="http://www.w3.org/2000/svg" xmlns:xlink="http://www.w3.org/1999/xlink" width="1500" height="450" viewBox="0 0 6000 1800">
<defs>
  <clipPath id="clip030">
    <rect x="0" y="0" width="6000" height="1800"/>
  </clipPath>
</defs>
<path clip-path="url(#clip030)" d="M0 1800 L6000 1800 L6000 0 L0 0  Z" fill="#ffffff" fill-rule="evenodd" fill-opacity="1"/>
<defs>
  <clipPath id="clip031">
    <rect x="1200" y="0" width="4201" height="1800"/>
  </clipPath>
</defs>
<path clip-path="url(#clip030)" d="M519.6 1477.3 L1882.8 1477.3 L1882.8 70.8661 L519.6 70.8661  Z" fill="#ffffff" fill-rule="evenodd" fill-opacity="1"/>
<defs>
  <clipPath id="clip032">
    <rect x="519" y="70" width="1364" height="1407"/>
  </clipPath>
</defs>
<polyline clip-path="url(#clip032)" style="stroke:#000000; stroke-linecap:round; stroke-linejoin:round; stroke-width:3; stroke-opacity:0.1; fill:none" points="665.351,1477.3 665.351,70.8661 "/>
<polyline clip-path="url(#clip032)" style="stroke:#000000; stroke-linecap:round; stroke-linejoin:round; stroke-width:3; stroke-opacity:0.1; fill:none" points="933.276,1477.3 933.276,70.8661 "/>
<polyline clip-path="url(#clip032)" style="stroke:#000000; stroke-linecap:round; stroke-linejoin:round; stroke-width:3; stroke-opacity:0.1; fill:none" points="1201.2,1477.3 1201.2,70.8661 "/>
<polyline clip-path="url(#clip032)" style="stroke:#000000; stroke-linecap:round; stroke-linejoin:round; stroke-width:3; stroke-opacity:0.1; fill:none" points="1469.13,1477.3 1469.13,70.8661 "/>
<polyline clip-path="url(#clip032)" style="stroke:#000000; stroke-linecap:round; stroke-linejoin:round; stroke-width:3; stroke-opacity:0.1; fill:none" points="1737.05,1477.3 1737.05,70.8661 "/>
<polyline clip-path="url(#clip032)" style="stroke:#000000; stroke-linecap:round; stroke-linejoin:round; stroke-width:3; stroke-opacity:0.1; fill:none" points="519.6,1326.92 1882.8,1326.92 "/>
<polyline clip-path="url(#clip032)" style="stroke:#000000; stroke-linecap:round; stroke-linejoin:round; stroke-width:3; stroke-opacity:0.1; fill:none" points="519.6,1050.5 1882.8,1050.5 "/>
<polyline clip-path="url(#clip032)" style="stroke:#000000; stroke-linecap:round; stroke-linejoin:round; stroke-width:3; stroke-opacity:0.1; fill:none" points="519.6,774.081 1882.8,774.081 "/>
<polyline clip-path="url(#clip032)" style="stroke:#000000; stroke-linecap:round; stroke-linejoin:round; stroke-width:3; stroke-opacity:0.1; fill:none" points="519.6,497.66 1882.8,497.66 "/>
<polyline clip-path="url(#clip032)" style="stroke:#000000; stroke-linecap:round; stroke-linejoin:round; stroke-width:3; stroke-opacity:0.1; fill:none" points="519.6,221.239 1882.8,221.239 "/>
<polyline clip-path="url(#clip032)" style="stroke:#009af9; stroke-linecap:round; stroke-linejoin:round; stroke-width:18; stroke-opacity:1; fill:none" points="1737.05,774.081 1734.12,716.293 1725.34,659.139 1710.83,603.243 1690.72,549.22 1665.26,497.66 1634.71,449.129 1599.42,404.158 1559.76,363.239 1516.17,326.822 1469.13,295.306 1419.15,269.035 1366.79,248.297 1312.61,233.32 1257.21,224.268 1201.2,221.239 1145.19,224.268 1089.79,233.32 1035.61,248.297 983.252,269.035 933.276,295.306 886.237,326.822 842.648,363.239 802.987,404.158 767.69,449.129 737.142,497.66 711.678,549.22 691.578,603.243 677.061,659.139 668.287,716.293 665.351,774.081 668.287,831.869 677.061,889.023 691.578,944.918 711.678,998.942 737.142,1050.5 767.69,1099.03 802.987,1144 842.648,1184.92 886.237,1221.34 933.276,1252.86 983.252,1279.13 1035.61,1299.86 1089.79,1314.84 1145.19,1323.89 1201.2,1326.92 1257.21,1323.89 1312.61,1314.84 1366.79,1299.86 1419.15,1279.13 1469.13,1252.86 1516.17,1221.34 1559.76,1184.92 1599.42,1144 1634.71,1099.03 1665.26,1050.5 1690.72,998.942 1710.83,944.918 1725.34,889.023 1734.12,831.869 1737.05,774.081 "/>
<polyline clip-path="url(#clip032)" style="stroke:#000000; stroke-linecap:round; stroke-linejoin:round; stroke-width:6; stroke-opacity:1; fill:none" stroke-dasharray="24, 15" points="558.181,774.081 1844.22,774.081 "/>
<polyline clip-path="url(#clip032)" style="stroke:#000000; stroke-linecap:round; stroke-linejoin:round; stroke-width:6; stroke-opacity:1; fill:none" stroke-dasharray="24, 15" points="1201.2,1437.49 1201.2,110.671 "/>
<polyline clip-path="url(#clip032)" style="stroke:#ff0000; stroke-linecap:round; stroke-linejoin:round; stroke-width:6; stroke-opacity:1; fill:none" stroke-dasharray="24, 15" points="1201.2,774.081 1665.26,497.66 "/>
<circle clip-path="url(#clip032)" cx="1665.26" cy="497.66" r="32.4" fill="#ff0000" fill-rule="evenodd" fill-opacity="1" stroke="#000000" stroke-opacity="1" stroke-width="5.4"/>
<circle clip-path="url(#clip032)" cx="730.949" cy="509.034" r="27" fill="#009af9" fill-rule="evenodd" fill-opacity="1" stroke="#000000" stroke-opacity="1" stroke-width="5.4"/>
<circle clip-path="url(#clip032)" cx="730.949" cy="1039.13" r="27" fill="#ffffff" fill-rule="evenodd" fill-opacity="1" stroke="#000000" stroke-opacity="1" stroke-width="5.4"/>
<polyline clip-path="url(#clip032)" style="stroke:#ff0000; stroke-linecap:round; stroke-linejoin:round; stroke-width:18; stroke-opacity:1; fill:none" points="1709.8,1133.06 1743.38,1076.25 1771.02,1016.12 1792.43,953.345 1807.35,888.603 1815.63,822.607 1817.18,756.079 1811.98,689.749 1800.09,624.342 1781.64,560.576 1756.83,499.149 1725.93,440.734 "/>
<polyline clip-path="url(#clip032)" style="stroke:#ff0000; stroke-linecap:round; stroke-linejoin:round; stroke-width:18; stroke-opacity:1; fill:none" points="1728.24,541.331 1725.93,440.734 1807.79,499.25 "/>
<polyline clip-path="url(#clip032)" style="stroke:#ff0000; stroke-linecap:round; stroke-linejoin:round; stroke-width:18; stroke-opacity:1; fill:none" points="1725.93,440.734 1756.83,499.149 "/>
<polyline clip-path="url(#clip032)" style="stroke:#ff0000; stroke-linecap:round; stroke-linejoin:round; stroke-width:18; stroke-opacity:1; fill:none" points="1412.5,176.858 1350.84,157.342 1287.53,144.583 1223.28,138.721 1158.79,139.82 1094.76,147.869 1031.9,162.778 "/>
<polyline clip-path="url(#clip032)" style="stroke:#ff0000; stroke-linecap:round; stroke-linejoin:round; stroke-width:18; stroke-opacity:1; fill:none" points="1129.85,185.794 1031.9,162.778 1109.09,98.2231 "/>
<polyline clip-path="url(#clip032)" style="stroke:#ff0000; stroke-linecap:round; stroke-linejoin:round; stroke-width:18; stroke-opacity:1; fill:none" points="1031.9,162.778 1094.76,147.869 "/>
<polyline clip-path="url(#clip032)" style="stroke:#ff0000; stroke-linecap:round; stroke-linejoin:round; stroke-width:18; stroke-opacity:1; fill:none" points="905.766,1332.02 963.913,1360.82 1024.66,1383.2 1087.34,1398.9 1151.27,1407.76 1215.74,1409.67 1280.06,1404.62 1343.51,1392.66 1405.4,1373.93 1465.06,1348.62 "/>
<polyline clip-path="url(#clip032)" style="stroke:#ff0000; stroke-linecap:round; stroke-linejoin:round; stroke-width:18; stroke-opacity:1; fill:none" points="1364.63,1342.34 1465.06,1348.62 1399.78,1425.2 "/>
<polyline clip-path="url(#clip032)" style="stroke:#ff0000; stroke-linecap:round; stroke-linejoin:round; stroke-width:18; stroke-opacity:1; fill:none" points="1465.06,1348.62 1405.4,1373.93 "/>
<polyline clip-path="url(#clip032)" style="stroke:#ff0000; stroke-linecap:round; stroke-linejoin:round; stroke-width:18; stroke-opacity:1; fill:none" points="604.131,931.372 591.466,866.121 585.481,799.861 586.242,733.318 593.74,667.223 "/>
<polyline clip-path="url(#clip032)" style="stroke:#ff0000; stroke-linecap:round; stroke-linejoin:round; stroke-width:18; stroke-opacity:1; fill:none" points="538.882,751.576 593.74,667.223 628.308,761.722 "/>
<polyline clip-path="url(#clip032)" style="stroke:#ff0000; stroke-linecap:round; stroke-linejoin:round; stroke-width:18; stroke-opacity:1; fill:none" points="593.74,667.223 586.242,733.318 "/>
<path clip-path="url(#clip030)" d="M589.447 463.674 L605.975 463.674 L646.2 539.568 L646.2 463.674 L658.11 463.674 L658.11 554.394 L641.582 554.394 L601.357 478.501 L601.357 554.394 L589.447 554.394 L589.447 463.674 Z" fill="#000000" fill-rule="nonzero" fill-opacity="1" /><path clip-path="url(#clip030)" d="M650.241 996.745 L650.241 1008.72 Q643.253 1005.37 637.056 1003.73 Q630.858 1002.09 625.085 1002.09 Q615.059 1002.09 609.59 1005.98 Q604.182 1009.87 604.182 1017.04 Q604.182 1023.06 607.768 1026.15 Q611.413 1029.19 621.5 1031.08 L628.913 1032.6 Q642.646 1035.21 649.147 1041.83 Q655.71 1048.39 655.71 1059.45 Q655.71 1072.64 646.838 1079.44 Q638.028 1086.25 620.953 1086.25 Q614.512 1086.25 607.221 1084.79 Q599.99 1083.33 592.212 1080.48 L592.212 1067.84 Q599.686 1072.03 606.856 1074.16 Q614.026 1076.28 620.953 1076.28 Q631.465 1076.28 637.177 1072.15 Q642.889 1068.02 642.889 1060.36 Q642.889 1053.68 638.757 1049.91 Q634.686 1046.15 625.328 1044.26 L617.854 1042.8 Q604.122 1040.07 597.985 1034.24 Q591.847 1028.4 591.847 1018.01 Q591.847 1005.98 600.294 999.054 Q608.8 992.127 623.688 992.127 Q630.068 992.127 636.691 993.281 Q643.314 994.436 650.241 996.745 Z" fill="#000000" fill-rule="nonzero" fill-opacity="1" /><path clip-path="url(#clip030)" d="M1434.86 721.015 L1396.16 721.015 Q1397.07 739.183 1401.26 746.9 Q1406.49 756.379 1415.54 756.379 Q1424.66 756.379 1429.7 746.839 Q1434.14 738.454 1434.86 721.015 M1434.68 710.685 Q1432.98 693.428 1429.7 687.352 Q1424.47 677.751 1415.54 677.751 Q1406.24 677.751 1401.32 687.23 Q1397.43 694.886 1396.28 710.685 L1434.68 710.685 M1415.54 668.636 Q1430.12 668.636 1438.45 681.518 Q1446.77 694.339 1446.77 717.065 Q1446.77 739.73 1438.45 752.612 Q1430.12 765.554 1415.54 765.554 Q1400.9 765.554 1392.63 752.612 Q1384.31 739.73 1384.31 717.065 Q1384.31 694.339 1392.63 681.518 Q1400.9 668.636 1415.54 668.636 Z" fill="#ff0000" fill-rule="nonzero" fill-opacity="1" /><path clip-path="url(#clip030)" d="M489.049 64.9438 Q477.435 64.9438 472.956 67.6 Q468.477 70.2563 468.477 76.6625 Q468.477 81.7666 471.81 84.7875 Q475.195 87.7562 480.977 87.7562 Q488.945 87.7562 493.737 82.1312 Q498.581 76.4542 498.581 67.0792 L498.581 64.9438 L489.049 64.9438 M508.164 60.9855 L508.164 94.2666 L498.581 94.2666 L498.581 85.4125 Q495.299 90.7249 490.404 93.277 Q485.508 95.777 478.425 95.777 Q469.466 95.777 464.154 90.777 Q458.893 85.725 458.893 77.2875 Q458.893 67.4438 465.456 62.4438 Q472.07 57.4439 485.143 57.4439 L498.581 57.4439 L498.581 56.5064 Q498.581 49.8918 494.206 46.2981 Q489.883 42.6523 482.018 42.6523 Q477.018 42.6523 472.279 43.8502 Q467.539 45.0481 463.164 47.4439 L463.164 38.5898 Q468.425 36.5585 473.372 35.569 Q478.32 34.5273 483.008 34.5273 Q495.664 34.5273 501.914 41.0898 Q508.164 47.6522 508.164 60.9855 Z" fill="#000000" fill-rule="nonzero" fill-opacity="1" /><path clip-path="url(#clip030)" d="M526.393 13.3295 L534.726 13.3295 Q542.539 25.6211 546.393 37.3919 Q550.299 49.1626 550.299 60.7772 Q550.299 72.4438 546.393 84.2666 Q542.539 96.0895 534.726 108.329 L526.393 108.329 Q533.32 96.402 536.705 84.6312 Q540.143 72.8084 540.143 60.7772 Q540.143 48.746 536.705 37.0273 Q533.32 25.3086 526.393 13.3295 Z" fill="#000000" fill-rule="nonzero" fill-opacity="1" /><path clip-path="url(#clip030)" d="M2542.77 1477.3 L3905.97 1477.3 L3905.97 70.8661 L2542.77 70.8661  Z" fill="#ffffff" fill-rule="evenodd" fill-opacity="1"/>
<defs>
  <clipPath id="clip033">
    <rect x="2542" y="70" width="1364" height="1407"/>
  </clipPath>
</defs>
<polyline clip-path="url(#clip033)" style="stroke:#000000; stroke-linecap:round; stroke-linejoin:round; stroke-width:3; stroke-opacity:0.1; fill:none" points="2542.77,1477.3 2542.77,70.8661 "/>
<polyline clip-path="url(#clip033)" style="stroke:#000000; stroke-linecap:round; stroke-linejoin:round; stroke-width:3; stroke-opacity:0.1; fill:none" points="3224.37,1477.3 3224.37,70.8661 "/>
<polyline clip-path="url(#clip033)" style="stroke:#000000; stroke-linecap:round; stroke-linejoin:round; stroke-width:3; stroke-opacity:0.1; fill:none" points="3905.97,1477.3 3905.97,70.8661 "/>
<polyline clip-path="url(#clip033)" style="stroke:#000000; stroke-linecap:round; stroke-linejoin:round; stroke-width:3; stroke-opacity:0.1; fill:none" points="2542.77,1477.3 3905.97,1477.3 "/>
<polyline clip-path="url(#clip033)" style="stroke:#000000; stroke-linecap:round; stroke-linejoin:round; stroke-width:3; stroke-opacity:0.1; fill:none" points="2542.77,1196.01 3905.97,1196.01 "/>
<polyline clip-path="url(#clip033)" style="stroke:#000000; stroke-linecap:round; stroke-linejoin:round; stroke-width:3; stroke-opacity:0.1; fill:none" points="2542.77,914.724 3905.97,914.724 "/>
<polyline clip-path="url(#clip033)" style="stroke:#000000; stroke-linecap:round; stroke-linejoin:round; stroke-width:3; stroke-opacity:0.1; fill:none" points="2542.77,633.438 3905.97,633.438 "/>
<polyline clip-path="url(#clip033)" style="stroke:#000000; stroke-linecap:round; stroke-linejoin:round; stroke-width:3; stroke-opacity:0.1; fill:none" points="2542.77,352.152 3905.97,352.152 "/>
<polyline clip-path="url(#clip033)" style="stroke:#000000; stroke-linecap:round; stroke-linejoin:round; stroke-width:3; stroke-opacity:0.1; fill:none" points="2542.77,70.8661 3905.97,70.8661 "/>
<polyline clip-path="url(#clip030)" style="stroke:#000000; stroke-linecap:round; stroke-linejoin:round; stroke-width:6; stroke-opacity:1; fill:none" points="2542.77,1477.3 3905.97,1477.3 "/>
<polyline clip-path="url(#clip030)" style="stroke:#000000; stroke-linecap:round; stroke-linejoin:round; stroke-width:6; stroke-opacity:1; fill:none" points="2542.77,1477.3 2542.77,1458.4 "/>
<polyline clip-path="url(#clip030)" style="stroke:#000000; stroke-linecap:round; stroke-linejoin:round; stroke-width:6; stroke-opacity:1; fill:none" points="3224.37,1477.3 3224.37,1458.4 "/>
<polyline clip-path="url(#clip030)" style="stroke:#000000; stroke-linecap:round; stroke-linejoin:round; stroke-width:6; stroke-opacity:1; fill:none" points="3905.97,1477.3 3905.97,1458.4 "/>
<path clip-path="url(#clip030)" d="M2542.77 1542.87 Q2537.35 1542.87 2534.61 1548.22 Q2531.9 1553.53 2531.9 1564.23 Q2531.9 1574.89 2534.61 1580.23 Q2537.35 1585.55 2542.77 1585.55 Q2548.22 1585.55 2550.93 1580.23 Q2553.67 1574.89 2553.67 1564.23 Q2553.67 1553.53 2550.93 1548.22 Q2548.22 1542.87 2542.77 1542.87 M2542.77 1537.32 Q2551.48 1537.32 2556.06 1544.23 Q2560.68 1551.1 2560.68 1564.23 Q2560.68 1577.32 2556.06 1584.23 Q2551.48 1591.1 2542.77 1591.1 Q2534.05 1591.1 2529.43 1584.23 Q2524.85 1577.32 2524.85 1564.23 Q2524.85 1551.1 2529.43 1544.23 Q2534.05 1537.32 2542.77 1537.32 Z" fill="#000000" fill-rule="nonzero" fill-opacity="1" /><path clip-path="url(#clip030)" d="M3205.24 1551.21 L3242.49 1551.21 L3242.49 1557.6 L3237.6 1557.6 L3237.6 1581.48 Q3237.6 1583.98 3238.43 1585.1 Q3239.3 1586.17 3241.21 1586.17 Q3241.73 1586.17 3242.49 1586.1 Q3243.26 1586 3243.5 1585.96 L3243.5 1590.58 Q3242.28 1591.03 3241 1591.24 Q3239.71 1591.45 3238.43 1591.45 Q3234.26 1591.45 3232.67 1589.19 Q3231.07 1586.9 3231.07 1580.79 L3231.07 1557.6 L3216.73 1557.6 L3216.73 1590.1 L3210.2 1590.1 L3210.2 1557.6 L3205.24 1557.6 L3205.24 1551.21 Z" fill="#000000" fill-rule="nonzero" fill-opacity="1" /><path clip-path="url(#clip030)" d="M3873.97 1584.19 L3898.45 1584.19 L3898.45 1590.1 L3865.53 1590.1 L3865.53 1584.19 Q3869.53 1580.06 3876.4 1573.12 Q3883.31 1566.14 3885.08 1564.12 Q3888.45 1560.34 3889.77 1557.73 Q3891.12 1555.1 3891.12 1552.56 Q3891.12 1548.43 3888.21 1545.82 Q3885.33 1543.22 3880.67 1543.22 Q3877.37 1543.22 3873.69 1544.37 Q3870.05 1545.51 3865.88 1547.84 L3865.88 1540.76 Q3870.12 1539.05 3873.8 1538.19 Q3877.48 1537.32 3880.53 1537.32 Q3888.59 1537.32 3893.38 1541.35 Q3898.17 1545.37 3898.17 1552.11 Q3898.17 1555.3 3896.96 1558.19 Q3895.78 1561.03 3892.62 1564.92 Q3891.75 1565.93 3887.1 1570.76 Q3882.44 1575.55 3873.97 1584.19 Z" fill="#000000" fill-rule="nonzero" fill-opacity="1" /><path clip-path="url(#clip030)" d="M3908.14 1551.21 L3945.4 1551.21 L3945.4 1557.6 L3940.5 1557.6 L3940.5 1581.48 Q3940.5 1583.98 3941.33 1585.1 Q3942.2 1586.17 3944.11 1586.17 Q3944.63 1586.17 3945.4 1586.1 Q3946.16 1586 3946.4 1585.96 L3946.4 1590.58 Q3945.19 1591.03 3943.9 1591.24 Q3942.62 1591.45 3941.33 1591.45 Q3937.17 1591.45 3935.57 1589.19 Q3933.97 1586.9 3933.97 1580.79 L3933.97 1557.6 L3919.63 1557.6 L3919.63 1590.1 L3913.1 1590.1 L3913.1 1557.6 L3908.14 1557.6 L3908.14 1551.21 Z" fill="#000000" fill-rule="nonzero" fill-opacity="1" /><path clip-path="url(#clip030)" d="M3239.55 1696.69 L3209.14 1696.69 Q3209.85 1710.97 3213.15 1717.03 Q3217.25 1724.48 3224.37 1724.48 Q3231.53 1724.48 3235.49 1716.98 Q3238.98 1710.4 3239.55 1696.69 M3239.41 1688.58 Q3238.07 1675.02 3235.49 1670.24 Q3231.39 1662.7 3224.37 1662.7 Q3217.06 1662.7 3213.2 1670.15 Q3210.14 1676.16 3209.23 1688.58 L3239.41 1688.58 M3224.37 1655.54 Q3235.83 1655.54 3242.37 1665.66 Q3248.91 1675.74 3248.91 1693.59 Q3248.91 1711.4 3242.37 1721.52 Q3235.83 1731.69 3224.37 1731.69 Q3212.86 1731.69 3206.37 1721.52 Q3199.83 1711.4 3199.83 1693.59 Q3199.83 1675.74 3206.37 1665.66 Q3212.86 1655.54 3224.37 1655.54 Z" fill="#000000" fill-rule="nonzero" fill-opacity="1" /><polyline clip-path="url(#clip030)" style="stroke:#000000; stroke-linecap:round; stroke-linejoin:round; stroke-width:6; stroke-opacity:1; fill:none" points="2542.77,1477.3 2542.77,70.8661 "/>
<polyline clip-path="url(#clip030)" style="stroke:#000000; stroke-linecap:round; stroke-linejoin:round; stroke-width:6; stroke-opacity:1; fill:none" points="2542.77,1477.3 2561.66,1477.3 "/>
<polyline clip-path="url(#clip030)" style="stroke:#000000; stroke-linecap:round; stroke-linejoin:round; stroke-width:6; stroke-opacity:1; fill:none" points="2542.77,1196.01 2561.66,1196.01 "/>
<polyline clip-path="url(#clip030)" style="stroke:#000000; stroke-linecap:round; stroke-linejoin:round; stroke-width:6; stroke-opacity:1; fill:none" points="2542.77,914.724 2561.66,914.724 "/>
<polyline clip-path="url(#clip030)" style="stroke:#000000; stroke-linecap:round; stroke-linejoin:round; stroke-width:6; stroke-opacity:1; fill:none" points="2542.77,633.438 2561.66,633.438 "/>
<polyline clip-path="url(#clip030)" style="stroke:#000000; stroke-linecap:round; stroke-linejoin:round; stroke-width:6; stroke-opacity:1; fill:none" points="2542.77,352.152 2561.66,352.152 "/>
<polyline clip-path="url(#clip030)" style="stroke:#000000; stroke-linecap:round; stroke-linejoin:round; stroke-width:6; stroke-opacity:1; fill:none" points="2542.77,70.8661 2561.66,70.8661 "/>
<path clip-path="url(#clip030)" d="M2293.84 1477.97 L2338.36 1477.97 L2338.36 1483.88 L2293.84 1483.88 L2293.84 1477.97 Z" fill="#000000" fill-rule="nonzero" fill-opacity="1" /><path clip-path="url(#clip030)" d="M2368.5 1455.99 Q2363.08 1455.99 2360.34 1461.34 Q2357.63 1466.65 2357.63 1477.35 Q2357.63 1488.01 2360.34 1493.35 Q2363.08 1498.67 2368.5 1498.67 Q2373.95 1498.67 2376.65 1493.35 Q2379.4 1488.01 2379.4 1477.35 Q2379.4 1466.65 2376.65 1461.34 Q2373.95 1455.99 2368.5 1455.99 M2368.5 1450.44 Q2377.21 1450.44 2381.79 1457.35 Q2386.41 1464.22 2386.41 1477.35 Q2386.41 1490.44 2381.79 1497.35 Q2377.21 1504.22 2368.5 1504.22 Q2359.78 1504.22 2355.16 1497.35 Q2350.58 1490.44 2350.58 1477.35 Q2350.58 1464.22 2355.16 1457.35 Q2359.78 1450.44 2368.5 1450.44 Z" fill="#000000" fill-rule="nonzero" fill-opacity="1" /><path clip-path="url(#clip030)" d="M2398.74 1494.4 L2406.06 1494.4 L2406.06 1503.22 L2398.74 1503.22 L2398.74 1494.4 Z" fill="#000000" fill-rule="nonzero" fill-opacity="1" /><path clip-path="url(#clip030)" d="M2421.41 1451.38 L2448.95 1451.38 L2448.95 1457.28 L2427.84 1457.28 L2427.84 1469.99 Q2429.36 1469.47 2430.89 1469.22 Q2432.42 1468.94 2433.95 1468.94 Q2442.63 1468.94 2447.7 1473.7 Q2452.77 1478.46 2452.77 1486.58 Q2452.77 1494.95 2447.56 1499.6 Q2442.35 1504.22 2432.87 1504.22 Q2429.61 1504.22 2426.2 1503.67 Q2422.84 1503.11 2419.22 1502 L2419.22 1494.95 Q2422.35 1496.65 2425.68 1497.49 Q2429.02 1498.32 2432.73 1498.32 Q2438.74 1498.32 2442.24 1495.16 Q2445.75 1492 2445.75 1486.58 Q2445.75 1481.17 2442.24 1478.01 Q2438.74 1474.85 2432.73 1474.85 Q2429.92 1474.85 2427.11 1475.47 Q2424.33 1476.1 2421.41 1477.42 L2421.41 1451.38 Z" fill="#000000" fill-rule="nonzero" fill-opacity="1" /><path clip-path="url(#clip030)" d="M2367 1174.71 Q2361.59 1174.71 2358.84 1180.05 Q2356.13 1185.37 2356.13 1196.06 Q2356.13 1206.72 2358.84 1212.07 Q2361.59 1217.38 2367 1217.38 Q2372.45 1217.38 2375.16 1212.07 Q2377.9 1206.72 2377.9 1196.06 Q2377.9 1185.37 2375.16 1180.05 Q2372.45 1174.71 2367 1174.71 M2367 1169.15 Q2375.72 1169.15 2380.3 1176.06 Q2384.92 1182.94 2384.92 1196.06 Q2384.92 1209.15 2380.3 1216.06 Q2375.72 1222.94 2367 1222.94 Q2358.29 1222.94 2353.67 1216.06 Q2349.09 1209.15 2349.09 1196.06 Q2349.09 1182.94 2353.67 1176.06 Q2358.29 1169.15 2367 1169.15 Z" fill="#000000" fill-rule="nonzero" fill-opacity="1" /><path clip-path="url(#clip030)" d="M2397.25 1213.11 L2404.57 1213.11 L2404.57 1221.93 L2397.25 1221.93 L2397.25 1213.11 Z" fill="#000000" fill-rule="nonzero" fill-opacity="1" /><path clip-path="url(#clip030)" d="M2434.85 1174.71 Q2429.43 1174.71 2426.69 1180.05 Q2423.98 1185.37 2423.98 1196.06 Q2423.98 1206.72 2426.69 1212.07 Q2429.43 1217.38 2434.85 1217.38 Q2440.3 1217.38 2443.01 1212.07 Q2445.75 1206.72 2445.75 1196.06 Q2445.75 1185.37 2443.01 1180.05 Q2440.3 1174.71 2434.85 1174.71 M2434.85 1169.15 Q2443.56 1169.15 2448.15 1176.06 Q2452.77 1182.94 2452.77 1196.06 Q2452.77 1209.15 2448.15 1216.06 Q2443.56 1222.94 2434.85 1222.94 Q2426.13 1222.94 2421.52 1216.06 Q2416.93 1209.15 2416.93 1196.06 Q2416.93 1182.94 2421.52 1176.06 Q2426.13 1169.15 2434.85 1169.15 Z" fill="#000000" fill-rule="nonzero" fill-opacity="1" /><path clip-path="url(#clip030)" d="M2368.5 893.422 Q2363.08 893.422 2360.34 898.769 Q2357.63 904.081 2357.63 914.776 Q2357.63 925.436 2360.34 930.783 Q2363.08 936.095 2368.5 936.095 Q2373.95 936.095 2376.65 930.783 Q2379.4 925.436 2379.4 914.776 Q2379.4 904.081 2376.65 898.769 Q2373.95 893.422 2368.5 893.422 M2368.5 887.866 Q2377.21 887.866 2381.79 894.776 Q2386.41 901.651 2386.41 914.776 Q2386.41 927.866 2381.79 934.776 Q2377.21 941.651 2368.5 941.651 Q2359.78 941.651 2355.16 934.776 Q2350.58 927.866 2350.58 914.776 Q2350.58 901.651 2355.16 894.776 Q2359.78 887.866 2368.5 887.866 Z" fill="#000000" fill-rule="nonzero" fill-opacity="1" /><path clip-path="url(#clip030)" d="M2398.74 931.824 L2406.06 931.824 L2406.06 940.644 L2398.74 940.644 L2398.74 931.824 Z" fill="#000000" fill-rule="nonzero" fill-opacity="1" /><path clip-path="url(#clip030)" d="M2421.41 888.804 L2448.95 888.804 L2448.95 894.707 L2427.84 894.707 L2427.84 907.415 Q2429.36 906.894 2430.89 906.651 Q2432.42 906.373 2433.95 906.373 Q2442.63 906.373 2447.7 911.13 Q2452.77 915.887 2452.77 924.012 Q2452.77 932.38 2447.56 937.033 Q2442.35 941.651 2432.87 941.651 Q2429.61 941.651 2426.2 941.095 Q2422.84 940.54 2419.22 939.429 L2419.22 932.38 Q2422.35 934.081 2425.68 934.915 Q2429.02 935.748 2432.73 935.748 Q2438.74 935.748 2442.24 932.588 Q2445.75 929.429 2445.75 924.012 Q2445.75 918.595 2442.24 915.436 Q2438.74 912.276 2432.73 912.276 Q2429.92 912.276 2427.11 912.901 Q2424.33 913.526 2421.41 914.845 L2421.41 888.804 Z" fill="#000000" fill-rule="nonzero" fill-opacity="1" /><path clip-path="url(#clip030)" d="M2353.22 653.455 L2364.68 653.455 L2364.68 613.907 L2352.21 616.407 L2352.21 610.018 L2364.61 607.518 L2371.62 607.518 L2371.62 653.455 L2383.08 653.455 L2383.08 659.358 L2353.22 659.358 L2353.22 653.455 Z" fill="#000000" fill-rule="nonzero" fill-opacity="1" /><path clip-path="url(#clip030)" d="M2397.25 650.539 L2404.57 650.539 L2404.57 659.358 L2397.25 659.358 L2397.25 650.539 Z" fill="#000000" fill-rule="nonzero" fill-opacity="1" /><path clip-path="url(#clip030)" d="M2434.85 612.136 Q2429.43 612.136 2426.69 617.483 Q2423.98 622.796 2423.98 633.49 Q2423.98 644.15 2426.69 649.497 Q2429.43 654.809 2434.85 654.809 Q2440.3 654.809 2443.01 649.497 Q2445.75 644.15 2445.75 633.49 Q2445.75 622.796 2443.01 617.483 Q2440.3 612.136 2434.85 612.136 M2434.85 606.58 Q2443.56 606.58 2448.15 613.49 Q2452.77 620.365 2452.77 633.49 Q2452.77 646.58 2448.15 653.49 Q2443.56 660.365 2434.85 660.365 Q2426.13 660.365 2421.52 653.49 Q2416.93 646.58 2416.93 633.49 Q2416.93 620.365 2421.52 613.49 Q2426.13 606.58 2434.85 606.58 Z" fill="#000000" fill-rule="nonzero" fill-opacity="1" /><path clip-path="url(#clip030)" d="M2354.71 372.169 L2366.17 372.169 L2366.17 332.621 L2353.7 335.121 L2353.7 328.732 L2366.1 326.232 L2373.11 326.232 L2373.11 372.169 L2384.57 372.169 L2384.57 378.072 L2354.71 378.072 L2354.71 372.169 Z" fill="#000000" fill-rule="nonzero" fill-opacity="1" /><path clip-path="url(#clip030)" d="M2398.74 369.253 L2406.06 369.253 L2406.06 378.072 L2398.74 378.072 L2398.74 369.253 Z" fill="#000000" fill-rule="nonzero" fill-opacity="1" /><path clip-path="url(#clip030)" d="M2421.41 326.232 L2448.95 326.232 L2448.95 332.135 L2427.84 332.135 L2427.84 344.843 Q2429.36 344.322 2430.89 344.079 Q2432.42 343.801 2433.95 343.801 Q2442.63 343.801 2447.7 348.558 Q2452.77 353.315 2452.77 361.44 Q2452.77 369.808 2447.56 374.461 Q2442.35 379.079 2432.87 379.079 Q2429.61 379.079 2426.2 378.523 Q2422.84 377.968 2419.22 376.857 L2419.22 369.808 Q2422.35 371.51 2425.68 372.343 Q2429.02 373.176 2432.73 373.176 Q2438.74 373.176 2442.24 370.017 Q2445.75 366.857 2445.75 361.44 Q2445.75 356.024 2442.24 352.864 Q2438.74 349.704 2432.73 349.704 Q2429.92 349.704 2427.11 350.329 Q2424.33 350.954 2421.41 352.274 L2421.41 326.232 Z" fill="#000000" fill-rule="nonzero" fill-opacity="1" /><path clip-path="url(#clip030)" d="M2358.04 90.8834 L2382.52 90.8834 L2382.52 96.7861 L2349.61 96.7861 L2349.61 90.8834 Q2353.6 86.7515 2360.47 79.8071 Q2367.38 72.8279 2369.15 70.8141 Q2372.52 67.0294 2373.84 64.4252 Q2375.2 61.7863 2375.2 59.2516 Q2375.2 55.1197 2372.28 52.5155 Q2369.4 49.9114 2364.75 49.9114 Q2361.45 49.9114 2357.77 51.0572 Q2354.12 52.203 2349.95 54.5294 L2349.95 47.4461 Q2354.19 45.7447 2357.87 44.8767 Q2361.55 44.0086 2364.61 44.0086 Q2372.66 44.0086 2377.45 48.0364 Q2382.25 52.0642 2382.25 58.8002 Q2382.25 61.9947 2381.03 64.8766 Q2379.85 67.7238 2376.69 71.6127 Q2375.82 72.6196 2371.17 77.446 Q2366.52 82.2376 2358.04 90.8834 Z" fill="#000000" fill-rule="nonzero" fill-opacity="1" /><path clip-path="url(#clip030)" d="M2397.25 87.9667 L2404.57 87.9667 L2404.57 96.7861 L2397.25 96.7861 L2397.25 87.9667 Z" fill="#000000" fill-rule="nonzero" fill-opacity="1" /><path clip-path="url(#clip030)" d="M2434.85 49.5642 Q2429.43 49.5642 2426.69 54.9114 Q2423.98 60.2238 2423.98 70.9182 Q2423.98 81.5779 2426.69 86.9251 Q2429.43 92.2376 2434.85 92.2376 Q2440.3 92.2376 2443.01 86.9251 Q2445.75 81.5779 2445.75 70.9182 Q2445.75 60.2238 2443.01 54.9114 Q2440.3 49.5642 2434.85 49.5642 M2434.85 44.0086 Q2443.56 44.0086 2448.15 50.9183 Q2452.77 57.7933 2452.77 70.9182 Q2452.77 84.0084 2448.15 90.9181 Q2443.56 97.7931 2434.85 97.7931 Q2426.13 97.7931 2421.52 90.9181 Q2416.93 84.0084 2416.93 70.9182 Q2416.93 57.7933 2421.52 50.9183 Q2426.13 44.0086 2434.85 44.0086 Z" fill="#000000" fill-rule="nonzero" fill-opacity="1" /><path clip-path="url(#clip030)" d="M2108.17 819.986 L2115.48 819.986 L2115.48 828.388 Q2115.48 833.115 2117.39 834.977 Q2119.3 836.791 2124.26 836.791 L2128.99 836.791 L2128.99 822.325 L2135.81 822.325 L2135.81 836.791 L2182.46 836.791 L2182.46 845.623 L2135.81 845.623 L2135.81 854.026 L2128.99 854.026 L2128.99 845.623 L2125.26 845.623 Q2116.34 845.623 2112.28 841.47 Q2108.17 837.316 2108.17 828.293 L2108.17 819.986 Z" fill="#000000" fill-rule="nonzero" fill-opacity="1" /><path clip-path="url(#clip030)" d="M2108.27 791.531 Q2119.25 797.928 2129.99 801.032 Q2140.73 804.135 2151.76 804.135 Q2162.79 804.135 2173.63 801.032 Q2184.42 797.881 2195.35 791.531 L2195.35 799.17 Q2184.13 806.331 2173.29 809.912 Q2162.45 813.445 2151.76 813.445 Q2141.11 813.445 2130.32 809.912 Q2119.53 806.379 2108.27 799.17 L2108.27 791.531 Z" fill="#000000" fill-rule="nonzero" fill-opacity="1" /><path clip-path="url(#clip030)" d="M2148.56 738.584 L2148.56 768.996 Q2162.84 768.28 2168.9 764.986 Q2176.35 760.88 2176.35 753.766 Q2176.35 746.605 2168.85 742.642 Q2162.26 739.157 2148.56 738.584 M2140.45 738.727 Q2126.89 740.064 2122.11 742.642 Q2114.57 746.748 2114.57 753.766 Q2114.57 761.071 2122.02 764.938 Q2128.03 767.994 2140.45 768.901 L2140.45 738.727 M2107.41 753.766 Q2107.41 742.308 2117.53 735.767 Q2127.6 729.226 2145.46 729.226 Q2163.27 729.226 2173.39 735.767 Q2183.56 742.308 2183.56 753.766 Q2183.56 765.272 2173.39 771.765 Q2163.27 778.306 2145.46 778.306 Q2127.6 778.306 2117.53 771.765 Q2107.41 765.272 2107.41 753.766 Z" fill="#000000" fill-rule="nonzero" fill-opacity="1" /><path clip-path="url(#clip030)" d="M2108.27 716.049 L2108.27 708.411 Q2119.53 701.249 2130.32 697.716 Q2141.11 694.136 2151.76 694.136 Q2162.45 694.136 2173.29 697.716 Q2184.13 701.249 2195.35 708.411 L2195.35 716.049 Q2184.42 709.7 2173.63 706.596 Q2162.79 703.445 2151.76 703.445 Q2140.73 703.445 2129.99 706.596 Q2119.25 709.7 2108.27 716.049 Z" fill="#000000" fill-rule="nonzero" fill-opacity="1" /><polyline clip-path="url(#clip033)" style="stroke:#009af9; stroke-linecap:round; stroke-linejoin:round; stroke-width:12; stroke-opacity:1; fill:none" points="2542.77,144 2565.49,147.082 2588.21,156.294 2610.93,171.535 2633.65,192.637 2656.37,219.371 2679.09,251.442 2701.81,288.5 2724.53,330.138 2747.25,375.901 2769.97,425.286 2792.69,477.754 2815.41,532.728 2838.13,589.607 2860.85,647.767 2883.57,706.572 2906.29,765.377 2929.01,823.537 2951.73,880.416 2974.45,935.391 2997.17,987.858 3019.89,1037.24 3042.61,1083.01 3065.33,1124.64 3088.05,1161.7 3110.77,1193.77 3133.49,1220.51 3156.21,1241.61 3178.93,1256.85 3201.65,1266.06 3224.37,1269.14 3247.09,1266.06 3269.81,1256.85 3292.53,1241.61 3315.25,1220.51 3337.97,1193.77 3360.69,1161.7 3383.41,1124.64 3406.13,1083.01 3428.85,1037.24 3451.57,987.858 3474.29,935.391 3497.01,880.416 3519.73,823.537 3542.45,765.377 3565.17,706.572 3587.89,647.767 3610.61,589.607 3633.33,532.728 3656.05,477.754 3678.77,425.286 3701.49,375.901 3724.21,330.138 3746.93,288.5 3769.65,251.442 3792.37,219.371 3815.09,192.637 3837.81,171.535 3860.53,156.294 3883.25,147.082 3905.97,144 "/>
<polyline clip-path="url(#clip033)" style="stroke:#ff0000; stroke-linecap:round; stroke-linejoin:round; stroke-width:18; stroke-opacity:1; fill:none" points="2542.77,1196.01 2759.73,1196.01 "/>
<polyline clip-path="url(#clip033)" style="stroke:#ff0000; stroke-linecap:round; stroke-linejoin:round; stroke-width:18; stroke-opacity:1; fill:none" points="2669.73,1151.01 2759.73,1196.01 2669.73,1241.01 "/>
<polyline clip-path="url(#clip033)" style="stroke:#ff0000; stroke-linecap:round; stroke-linejoin:round; stroke-width:18; stroke-opacity:1; fill:none" points="2759.73,1196.01 2542.77,1196.01 "/>
<polyline clip-path="url(#clip033)" style="stroke:#ff0000; stroke-linecap:round; stroke-linejoin:round; stroke-width:18; stroke-opacity:1; fill:none" points="3289.46,1196.01 3159.28,1196.01 "/>
<polyline clip-path="url(#clip033)" style="stroke:#ff0000; stroke-linecap:round; stroke-linejoin:round; stroke-width:18; stroke-opacity:1; fill:none" points="3249.28,1241.01 3159.28,1196.01 3249.28,1151.01 "/>
<polyline clip-path="url(#clip033)" style="stroke:#ff0000; stroke-linecap:round; stroke-linejoin:round; stroke-width:18; stroke-opacity:1; fill:none" points="3159.28,1196.01 3289.46,1196.01 "/>
<polyline clip-path="url(#clip033)" style="stroke:#ff0000; stroke-linecap:round; stroke-linejoin:round; stroke-width:18; stroke-opacity:1; fill:none" points="3689.01,1196.01 3905.97,1196.01 "/>
<polyline clip-path="url(#clip033)" style="stroke:#ff0000; stroke-linecap:round; stroke-linejoin:round; stroke-width:18; stroke-opacity:1; fill:none" points="3815.97,1151.01 3905.97,1196.01 3815.97,1241.01 "/>
<polyline clip-path="url(#clip033)" style="stroke:#ff0000; stroke-linecap:round; stroke-linejoin:round; stroke-width:18; stroke-opacity:1; fill:none" points="3905.97,1196.01 3689.01,1196.01 "/>
<polyline clip-path="url(#clip033)" style="stroke:#000000; stroke-linecap:round; stroke-linejoin:round; stroke-width:6; stroke-opacity:1; fill:none" stroke-dasharray="24, 15" points="1179.56,1196.01 3905.97,1196.01 "/>
<circle clip-path="url(#clip033)" cx="3115.89" cy="1196.01" r="27" fill="#009af9" fill-rule="evenodd" fill-opacity="1" stroke="#000000" stroke-opacity="1" stroke-width="5.4"/>
<circle clip-path="url(#clip033)" cx="3332.85" cy="1196.01" r="27" fill="#ffffff" fill-rule="evenodd" fill-opacity="1" stroke="#000000" stroke-opacity="1" stroke-width="5.4"/>
<polyline clip-path="url(#clip033)" style="stroke:#000000; stroke-linecap:round; stroke-linejoin:round; stroke-width:6; stroke-opacity:1; fill:none" stroke-dasharray="24, 15" points="3905.97,1477.3 3905.97,144 "/>
<path clip-path="url(#clip030)" d="M3081.56 1263.16 L3098.08 1263.16 L3138.31 1339.06 L3138.31 1263.16 L3150.22 1263.16 L3150.22 1353.88 L3133.69 1353.88 L3093.46 1277.99 L3093.46 1353.88 L3081.56 1353.88 L3081.56 1263.16 Z" fill="#000000" fill-rule="nonzero" fill-opacity="1" /><path clip-path="url(#clip030)" d="M3359.31 1266.14 L3359.31 1278.11 Q3352.32 1274.77 3346.12 1273.13 Q3339.93 1271.49 3334.15 1271.49 Q3324.13 1271.49 3318.66 1275.38 Q3313.25 1279.27 3313.25 1286.44 Q3313.25 1292.45 3316.84 1295.55 Q3320.48 1298.59 3330.57 1300.47 L3337.98 1301.99 Q3351.71 1304.6 3358.22 1311.23 Q3364.78 1317.79 3364.78 1328.85 Q3364.78 1342.04 3355.91 1348.84 Q3347.1 1355.65 3330.02 1355.65 Q3323.58 1355.65 3316.29 1354.19 Q3309.06 1352.73 3301.28 1349.87 L3301.28 1337.23 Q3308.75 1341.43 3315.92 1343.55 Q3323.09 1345.68 3330.02 1345.68 Q3340.53 1345.68 3346.25 1341.55 Q3351.96 1337.42 3351.96 1329.76 Q3351.96 1323.08 3347.83 1319.31 Q3343.75 1315.54 3334.4 1313.66 L3326.92 1312.2 Q3313.19 1309.47 3307.05 1303.63 Q3300.92 1297.8 3300.92 1287.41 Q3300.92 1275.38 3309.36 1268.45 Q3317.87 1261.52 3332.76 1261.52 Q3339.14 1261.52 3345.76 1262.68 Q3352.38 1263.83 3359.31 1266.14 Z" fill="#000000" fill-rule="nonzero" fill-opacity="1" /><path clip-path="url(#clip030)" d="M2105.85 80.6317 Q2105.85 70.0589 2101.47 64.0693 Q2097.15 58.0277 2089.55 58.0277 Q2081.94 58.0277 2077.57 64.0693 Q2073.25 70.0589 2073.25 80.6317 Q2073.25 91.2046 2077.57 97.2462 Q2081.94 103.236 2089.55 103.236 Q2097.15 103.236 2101.47 97.2462 Q2105.85 91.2046 2105.85 80.6317 M2073.25 60.2672 Q2076.27 55.0589 2080.85 52.5589 Q2085.49 50.0069 2091.89 50.0069 Q2102.52 50.0069 2109.13 58.4443 Q2115.8 66.8818 2115.8 80.6317 Q2115.8 94.3816 2109.13 102.819 Q2102.52 111.257 2091.89 111.257 Q2085.49 111.257 2080.85 108.757 Q2076.27 106.204 2073.25 100.996 L2073.25 109.746 L2063.61 109.746 L2063.61 28.7049 L2073.25 28.7049 L2073.25 60.2672 Z" fill="#000000" fill-rule="nonzero" fill-opacity="1" /><path clip-path="url(#clip030)" d="M2130.17 28.8091 L2138.51 28.8091 Q2146.32 41.1007 2150.17 52.8714 Q2154.08 64.6422 2154.08 76.2567 Q2154.08 87.9233 2150.17 99.7462 Q2146.32 111.569 2138.51 123.809 L2130.17 123.809 Q2137.1 111.882 2140.49 100.111 Q2143.92 88.2879 2143.92 76.2567 Q2143.92 64.2256 2140.49 52.5069 Q2137.1 40.7882 2130.17 28.8091 Z" fill="#000000" fill-rule="nonzero" fill-opacity="1" /><path clip-path="url(#clip030)" d="M4565.93 1477.3 L5929.13 1477.3 L5929.13 70.8661 L4565.93 70.8661  Z" fill="#ffffff" fill-rule="evenodd" fill-opacity="1"/>
<defs>
  <clipPath id="clip034">
    <rect x="4565" y="70" width="1364" height="1407"/>
  </clipPath>
</defs>
<polyline clip-path="url(#clip034)" style="stroke:#000000; stroke-linecap:round; stroke-linejoin:round; stroke-width:3; stroke-opacity:0.1; fill:none" points="4565.93,1477.3 4565.93,70.8661 "/>
<polyline clip-path="url(#clip034)" style="stroke:#000000; stroke-linecap:round; stroke-linejoin:round; stroke-width:3; stroke-opacity:0.1; fill:none" points="4878.59,1477.3 4878.59,70.8661 "/>
<polyline clip-path="url(#clip034)" style="stroke:#000000; stroke-linecap:round; stroke-linejoin:round; stroke-width:3; stroke-opacity:0.1; fill:none" points="5191.25,1477.3 5191.25,70.8661 "/>
<polyline clip-path="url(#clip034)" style="stroke:#000000; stroke-linecap:round; stroke-linejoin:round; stroke-width:3; stroke-opacity:0.1; fill:none" points="5503.91,1477.3 5503.91,70.8661 "/>
<polyline clip-path="url(#clip034)" style="stroke:#000000; stroke-linecap:round; stroke-linejoin:round; stroke-width:3; stroke-opacity:0.1; fill:none" points="5816.58,1477.3 5816.58,70.8661 "/>
<polyline clip-path="url(#clip034)" style="stroke:#000000; stroke-linecap:round; stroke-linejoin:round; stroke-width:3; stroke-opacity:0.1; fill:none" points="4565.93,1174.97 5929.13,1174.97 "/>
<polyline clip-path="url(#clip034)" style="stroke:#000000; stroke-linecap:round; stroke-linejoin:round; stroke-width:3; stroke-opacity:0.1; fill:none" points="4565.93,820.205 5929.13,820.205 "/>
<polyline clip-path="url(#clip034)" style="stroke:#000000; stroke-linecap:round; stroke-linejoin:round; stroke-width:3; stroke-opacity:0.1; fill:none" points="4565.93,465.438 5929.13,465.438 "/>
<polyline clip-path="url(#clip034)" style="stroke:#000000; stroke-linecap:round; stroke-linejoin:round; stroke-width:3; stroke-opacity:0.1; fill:none" points="4565.93,110.671 5929.13,110.671 "/>
<polyline clip-path="url(#clip030)" style="stroke:#000000; stroke-linecap:round; stroke-linejoin:round; stroke-width:6; stroke-opacity:1; fill:none" points="4565.93,1477.3 5929.13,1477.3 "/>
<polyline clip-path="url(#clip030)" style="stroke:#000000; stroke-linecap:round; stroke-linejoin:round; stroke-width:6; stroke-opacity:1; fill:none" points="4565.93,1477.3 4565.93,1458.4 "/>
<polyline clip-path="url(#clip030)" style="stroke:#000000; stroke-linecap:round; stroke-linejoin:round; stroke-width:6; stroke-opacity:1; fill:none" points="4878.59,1477.3 4878.59,1458.4 "/>
<polyline clip-path="url(#clip030)" style="stroke:#000000; stroke-linecap:round; stroke-linejoin:round; stroke-width:6; stroke-opacity:1; fill:none" points="5191.25,1477.3 5191.25,1458.4 "/>
<polyline clip-path="url(#clip030)" style="stroke:#000000; stroke-linecap:round; stroke-linejoin:round; stroke-width:6; stroke-opacity:1; fill:none" points="5503.91,1477.3 5503.91,1458.4 "/>
<polyline clip-path="url(#clip030)" style="stroke:#000000; stroke-linecap:round; stroke-linejoin:round; stroke-width:6; stroke-opacity:1; fill:none" points="5816.58,1477.3 5816.58,1458.4 "/>
<path clip-path="url(#clip030)" d="M4565.93 1542.87 Q4560.51 1542.87 4557.77 1548.22 Q4555.06 1553.53 4555.06 1564.23 Q4555.06 1574.89 4557.77 1580.23 Q4560.51 1585.55 4565.93 1585.55 Q4571.38 1585.55 4574.09 1580.23 Q4576.83 1574.89 4576.83 1564.23 Q4576.83 1553.53 4574.09 1548.22 Q4571.38 1542.87 4565.93 1542.87 M4565.93 1537.32 Q4574.65 1537.32 4579.23 1544.23 Q4583.85 1551.1 4583.85 1564.23 Q4583.85 1577.32 4579.23 1584.23 Q4574.65 1591.1 4565.93 1591.1 Q4557.22 1591.1 4552.6 1584.23 Q4548.01 1577.32 4548.01 1564.23 Q4548.01 1551.1 4552.6 1544.23 Q4557.22 1537.32 4565.93 1537.32 Z" fill="#000000" fill-rule="nonzero" fill-opacity="1" /><path clip-path="url(#clip030)" d="M4864.01 1538.26 L4891.54 1538.26 L4891.54 1544.16 L4870.43 1544.16 L4870.43 1556.87 Q4871.96 1556.35 4873.49 1556.1 Q4875.02 1555.82 4876.54 1555.82 Q4885.22 1555.82 4890.29 1560.58 Q4895.36 1565.34 4895.36 1573.46 Q4895.36 1581.83 4890.15 1586.48 Q4884.95 1591.1 4875.47 1591.1 Q4872.2 1591.1 4868.8 1590.55 Q4865.43 1589.99 4861.82 1588.88 L4861.82 1581.83 Q4864.95 1583.53 4868.28 1584.37 Q4871.61 1585.2 4875.33 1585.2 Q4881.34 1585.2 4884.84 1582.04 Q4888.35 1578.88 4888.35 1573.46 Q4888.35 1568.05 4884.84 1564.89 Q4881.34 1561.73 4875.33 1561.73 Q4872.52 1561.73 4869.7 1562.35 Q4866.93 1562.98 4864.01 1564.3 L4864.01 1538.26 Z" fill="#000000" fill-rule="nonzero" fill-opacity="1" /><path clip-path="url(#clip030)" d="M5153.28 1584.19 L5164.74 1584.19 L5164.74 1544.64 L5152.28 1547.14 L5152.28 1540.76 L5164.67 1538.26 L5171.69 1538.26 L5171.69 1584.19 L5183.15 1584.19 L5183.15 1590.1 L5153.28 1590.1 L5153.28 1584.19 Z" fill="#000000" fill-rule="nonzero" fill-opacity="1" /><path clip-path="url(#clip030)" d="M5212.31 1542.87 Q5206.9 1542.87 5204.15 1548.22 Q5201.44 1553.53 5201.44 1564.23 Q5201.44 1574.89 5204.15 1580.23 Q5206.9 1585.55 5212.31 1585.55 Q5217.76 1585.55 5220.47 1580.23 Q5223.22 1574.89 5223.22 1564.23 Q5223.22 1553.53 5220.47 1548.22 Q5217.76 1542.87 5212.31 1542.87 M5212.31 1537.32 Q5221.03 1537.32 5225.61 1544.23 Q5230.23 1551.1 5230.23 1564.23 Q5230.23 1577.32 5225.61 1584.23 Q5221.03 1591.1 5212.31 1591.1 Q5203.6 1591.1 5198.98 1584.23 Q5194.4 1577.32 5194.4 1564.23 Q5194.4 1551.1 5198.98 1544.23 Q5203.6 1537.32 5212.31 1537.32 Z" fill="#000000" fill-rule="nonzero" fill-opacity="1" /><path clip-path="url(#clip030)" d="M5466.69 1584.19 L5478.15 1584.19 L5478.15 1544.64 L5465.69 1547.14 L5465.69 1540.76 L5478.08 1538.26 L5485.1 1538.26 L5485.1 1584.19 L5496.55 1584.19 L5496.55 1590.1 L5466.69 1590.1 L5466.69 1584.19 Z" fill="#000000" fill-rule="nonzero" fill-opacity="1" /><path clip-path="url(#clip030)" d="M5510.79 1538.26 L5538.32 1538.26 L5538.32 1544.16 L5517.21 1544.16 L5517.21 1556.87 Q5518.74 1556.35 5520.27 1556.1 Q5521.8 1555.82 5523.32 1555.82 Q5532 1555.82 5537.07 1560.58 Q5542.14 1565.34 5542.14 1573.46 Q5542.14 1581.83 5536.94 1586.48 Q5531.73 1591.1 5522.25 1591.1 Q5518.98 1591.1 5515.58 1590.55 Q5512.21 1589.99 5508.6 1588.88 L5508.6 1581.83 Q5511.73 1583.53 5515.06 1584.37 Q5518.39 1585.2 5522.11 1585.2 Q5528.12 1585.2 5531.62 1582.04 Q5535.13 1578.88 5535.13 1573.46 Q5535.13 1568.05 5531.62 1564.89 Q5528.12 1561.73 5522.11 1561.73 Q5519.3 1561.73 5516.48 1562.35 Q5513.71 1562.98 5510.79 1564.3 L5510.79 1538.26 Z" fill="#000000" fill-rule="nonzero" fill-opacity="1" /><path clip-path="url(#clip030)" d="M5784.74 1584.19 L5809.21 1584.19 L5809.21 1590.1 L5776.3 1590.1 L5776.3 1584.19 Q5780.29 1580.06 5787.17 1573.12 Q5794.08 1566.14 5795.85 1564.12 Q5799.21 1560.34 5800.53 1557.73 Q5801.89 1555.1 5801.89 1552.56 Q5801.89 1548.43 5798.97 1545.82 Q5796.09 1543.22 5791.44 1543.22 Q5788.14 1543.22 5784.46 1544.37 Q5780.81 1545.51 5776.65 1547.84 L5776.65 1540.76 Q5780.88 1539.05 5784.56 1538.19 Q5788.24 1537.32 5791.3 1537.32 Q5799.35 1537.32 5804.15 1541.35 Q5808.94 1545.37 5808.94 1552.11 Q5808.94 1555.3 5807.72 1558.19 Q5806.54 1561.03 5803.38 1564.92 Q5802.51 1565.93 5797.86 1570.76 Q5793.21 1575.55 5784.74 1584.19 Z" fill="#000000" fill-rule="nonzero" fill-opacity="1" /><path clip-path="url(#clip030)" d="M5838.94 1542.87 Q5833.52 1542.87 5830.78 1548.22 Q5828.07 1553.53 5828.07 1564.23 Q5828.07 1574.89 5830.78 1580.23 Q5833.52 1585.55 5838.94 1585.55 Q5844.39 1585.55 5847.1 1580.23 Q5849.84 1574.89 5849.84 1564.23 Q5849.84 1553.53 5847.1 1548.22 Q5844.39 1542.87 5838.94 1542.87 M5838.94 1537.32 Q5847.65 1537.32 5852.24 1544.23 Q5856.85 1551.1 5856.85 1564.23 Q5856.85 1577.32 5852.24 1584.23 Q5847.65 1591.1 5838.94 1591.1 Q5830.22 1591.1 5825.6 1584.23 Q5821.02 1577.32 5821.02 1564.23 Q5821.02 1551.1 5825.6 1544.23 Q5830.22 1537.32 5838.94 1537.32 Z" fill="#000000" fill-rule="nonzero" fill-opacity="1" /><path clip-path="url(#clip030)" d="M5246.12 1661.94 L5246.12 1677.12 L5264.22 1677.12 L5264.22 1683.95 L5246.12 1683.95 L5246.12 1712.97 Q5246.12 1719.52 5247.89 1721.38 Q5249.7 1723.24 5255.2 1723.24 L5264.22 1723.24 L5264.22 1730.59 L5255.2 1730.59 Q5245.03 1730.59 5241.16 1726.82 Q5237.29 1723 5237.29 1712.97 L5237.29 1683.95 L5230.85 1683.95 L5230.85 1677.12 L5237.29 1677.12 L5237.29 1661.94 L5246.12 1661.94 Z" fill="#000000" fill-rule="nonzero" fill-opacity="1" /><polyline clip-path="url(#clip030)" style="stroke:#000000; stroke-linecap:round; stroke-linejoin:round; stroke-width:6; stroke-opacity:1; fill:none" points="4565.93,1477.3 4565.93,70.8661 "/>
<polyline clip-path="url(#clip030)" style="stroke:#000000; stroke-linecap:round; stroke-linejoin:round; stroke-width:6; stroke-opacity:1; fill:none" points="4565.93,1174.97 4584.83,1174.97 "/>
<polyline clip-path="url(#clip030)" style="stroke:#000000; stroke-linecap:round; stroke-linejoin:round; stroke-width:6; stroke-opacity:1; fill:none" points="4565.93,820.205 4584.83,820.205 "/>
<polyline clip-path="url(#clip030)" style="stroke:#000000; stroke-linecap:round; stroke-linejoin:round; stroke-width:6; stroke-opacity:1; fill:none" points="4565.93,465.438 4584.83,465.438 "/>
<polyline clip-path="url(#clip030)" style="stroke:#000000; stroke-linecap:round; stroke-linejoin:round; stroke-width:6; stroke-opacity:1; fill:none" points="4565.93,110.671 4584.83,110.671 "/>
<path clip-path="url(#clip030)" d="M4317.01 1175.65 L4361.52 1175.65 L4361.52 1181.55 L4317.01 1181.55 L4317.01 1175.65 Z" fill="#000000" fill-rule="nonzero" fill-opacity="1" /><path clip-path="url(#clip030)" d="M4391.66 1153.67 Q4386.24 1153.67 4383.5 1159.02 Q4380.79 1164.33 4380.79 1175.02 Q4380.79 1185.68 4383.5 1191.03 Q4386.24 1196.34 4391.66 1196.34 Q4397.11 1196.34 4399.82 1191.03 Q4402.56 1185.68 4402.56 1175.02 Q4402.56 1164.33 4399.82 1159.02 Q4397.11 1153.67 4391.66 1153.67 M4391.66 1148.11 Q4400.38 1148.11 4404.96 1155.02 Q4409.58 1161.9 4409.58 1175.02 Q4409.58 1188.11 4404.96 1195.02 Q4400.38 1201.9 4391.66 1201.9 Q4382.95 1201.9 4378.33 1195.02 Q4373.74 1188.11 4373.74 1175.02 Q4373.74 1161.9 4378.33 1155.02 Q4382.95 1148.11 4391.66 1148.11 Z" fill="#000000" fill-rule="nonzero" fill-opacity="1" /><path clip-path="url(#clip030)" d="M4421.9 1192.07 L4429.23 1192.07 L4429.23 1200.89 L4421.9 1200.89 L4421.9 1192.07 Z" fill="#000000" fill-rule="nonzero" fill-opacity="1" /><path clip-path="url(#clip030)" d="M4444.58 1149.05 L4472.11 1149.05 L4472.11 1154.95 L4451 1154.95 L4451 1167.66 Q4452.53 1167.14 4454.06 1166.9 Q4455.58 1166.62 4457.11 1166.62 Q4465.79 1166.62 4470.86 1171.38 Q4475.93 1176.14 4475.93 1184.26 Q4475.93 1192.63 4470.72 1197.28 Q4465.51 1201.9 4456.04 1201.9 Q4452.77 1201.9 4449.37 1201.34 Q4446 1200.79 4442.39 1199.68 L4442.39 1192.63 Q4445.51 1194.33 4448.85 1195.16 Q4452.18 1196 4455.9 1196 Q4461.9 1196 4465.41 1192.84 Q4468.92 1189.68 4468.92 1184.26 Q4468.92 1178.84 4465.41 1175.68 Q4461.9 1172.52 4455.9 1172.52 Q4453.08 1172.52 4450.27 1173.15 Q4447.49 1173.77 4444.58 1175.09 L4444.58 1149.05 Z" fill="#000000" fill-rule="nonzero" fill-opacity="1" /><path clip-path="url(#clip030)" d="M4390.17 798.903 Q4384.75 798.903 4382.01 804.25 Q4379.3 809.563 4379.3 820.257 Q4379.3 830.917 4382.01 836.264 Q4384.75 841.576 4390.17 841.576 Q4395.62 841.576 4398.33 836.264 Q4401.07 830.917 4401.07 820.257 Q4401.07 809.563 4398.33 804.25 Q4395.62 798.903 4390.17 798.903 M4390.17 793.347 Q4398.88 793.347 4403.47 800.257 Q4408.08 807.132 4408.08 820.257 Q4408.08 833.347 4403.47 840.257 Q4398.88 847.132 4390.17 847.132 Q4381.45 847.132 4376.83 840.257 Q4372.25 833.347 4372.25 820.257 Q4372.25 807.132 4376.83 800.257 Q4381.45 793.347 4390.17 793.347 Z" fill="#000000" fill-rule="nonzero" fill-opacity="1" /><path clip-path="url(#clip030)" d="M4420.41 837.305 L4427.74 837.305 L4427.74 846.125 L4420.41 846.125 L4420.41 837.305 Z" fill="#000000" fill-rule="nonzero" fill-opacity="1" /><path clip-path="url(#clip030)" d="M4458.01 798.903 Q4452.6 798.903 4449.85 804.25 Q4447.15 809.563 4447.15 820.257 Q4447.15 830.917 4449.85 836.264 Q4452.6 841.576 4458.01 841.576 Q4463.47 841.576 4466.17 836.264 Q4468.92 830.917 4468.92 820.257 Q4468.92 809.563 4466.17 804.25 Q4463.47 798.903 4458.01 798.903 M4458.01 793.347 Q4466.73 793.347 4471.31 800.257 Q4475.93 807.132 4475.93 820.257 Q4475.93 833.347 4471.31 840.257 Q4466.73 847.132 4458.01 847.132 Q4449.3 847.132 4444.68 840.257 Q4440.1 833.347 4440.1 820.257 Q4440.1 807.132 4444.68 800.257 Q4449.3 793.347 4458.01 793.347 Z" fill="#000000" fill-rule="nonzero" fill-opacity="1" /><path clip-path="url(#clip030)" d="M4391.66 444.136 Q4386.24 444.136 4383.5 449.483 Q4380.79 454.795 4380.79 465.49 Q4380.79 476.15 4383.5 481.497 Q4386.24 486.809 4391.66 486.809 Q4397.11 486.809 4399.82 481.497 Q4402.56 476.15 4402.56 465.49 Q4402.56 454.795 4399.82 449.483 Q4397.11 444.136 4391.66 444.136 M4391.66 438.58 Q4400.38 438.58 4404.96 445.49 Q4409.58 452.365 4409.58 465.49 Q4409.58 478.58 4404.96 485.49 Q4400.38 492.365 4391.66 492.365 Q4382.95 492.365 4378.33 485.49 Q4373.74 478.58 4373.74 465.49 Q4373.74 452.365 4378.33 445.49 Q4382.95 438.58 4391.66 438.58 Z" fill="#000000" fill-rule="nonzero" fill-opacity="1" /><path clip-path="url(#clip030)" d="M4421.9 482.538 L4429.23 482.538 L4429.23 491.358 L4421.9 491.358 L4421.9 482.538 Z" fill="#000000" fill-rule="nonzero" fill-opacity="1" /><path clip-path="url(#clip030)" d="M4444.58 439.518 L4472.11 439.518 L4472.11 445.421 L4451 445.421 L4451 458.129 Q4452.53 457.608 4454.06 457.365 Q4455.58 457.087 4457.11 457.087 Q4465.79 457.087 4470.86 461.844 Q4475.93 466.601 4475.93 474.726 Q4475.93 483.094 4470.72 487.747 Q4465.51 492.365 4456.04 492.365 Q4452.77 492.365 4449.37 491.809 Q4446 491.254 4442.39 490.143 L4442.39 483.094 Q4445.51 484.795 4448.85 485.629 Q4452.18 486.462 4455.9 486.462 Q4461.9 486.462 4465.41 483.302 Q4468.92 480.143 4468.92 474.726 Q4468.92 469.309 4465.41 466.15 Q4461.9 462.99 4455.9 462.99 Q4453.08 462.99 4450.27 463.615 Q4447.49 464.24 4444.58 465.559 L4444.58 439.518 Z" fill="#000000" fill-rule="nonzero" fill-opacity="1" /><path clip-path="url(#clip030)" d="M4376.38 130.688 L4387.84 130.688 L4387.84 91.1396 L4375.38 93.6396 L4375.38 87.2507 L4387.77 84.7507 L4394.79 84.7507 L4394.79 130.688 L4406.24 130.688 L4406.24 136.591 L4376.38 136.591 L4376.38 130.688 Z" fill="#000000" fill-rule="nonzero" fill-opacity="1" /><path clip-path="url(#clip030)" d="M4420.41 127.771 L4427.74 127.771 L4427.74 136.591 L4420.41 136.591 L4420.41 127.771 Z" fill="#000000" fill-rule="nonzero" fill-opacity="1" /><path clip-path="url(#clip030)" d="M4458.01 89.3688 Q4452.6 89.3688 4449.85 94.716 Q4447.15 100.028 4447.15 110.723 Q4447.15 121.382 4449.85 126.73 Q4452.6 132.042 4458.01 132.042 Q4463.47 132.042 4466.17 126.73 Q4468.92 121.382 4468.92 110.723 Q4468.92 100.028 4466.17 94.716 Q4463.47 89.3688 4458.01 89.3688 M4458.01 83.8133 Q4466.73 83.8133 4471.31 90.7229 Q4475.93 97.5979 4475.93 110.723 Q4475.93 123.813 4471.31 130.723 Q4466.73 137.598 4458.01 137.598 Q4449.3 137.598 4444.68 130.723 Q4440.1 123.813 4440.1 110.723 Q4440.1 97.5979 4444.68 90.7229 Q4449.3 83.8133 4458.01 83.8133 Z" fill="#000000" fill-rule="nonzero" fill-opacity="1" /><path clip-path="url(#clip030)" d="M4154.21 875.2 L4162.42 875.2 Q4160.36 878.924 4159.36 882.696 Q4158.31 886.42 4158.31 890.239 Q4158.31 898.785 4163.75 903.512 Q4169.15 908.238 4178.94 908.238 Q4188.72 908.238 4194.17 903.512 Q4199.56 898.785 4199.56 890.239 Q4199.56 886.42 4198.56 882.696 Q4197.51 878.924 4195.46 875.2 L4203.57 875.2 Q4205.29 878.876 4206.15 882.839 Q4207.01 886.754 4207.01 891.194 Q4207.01 903.273 4199.42 910.387 Q4191.83 917.5 4178.94 917.5 Q4165.85 917.5 4158.36 910.339 Q4150.86 903.13 4150.86 890.621 Q4150.86 886.563 4151.72 882.696 Q4152.53 878.829 4154.21 875.2 Z" fill="#000000" fill-rule="nonzero" fill-opacity="1" /><path clip-path="url(#clip030)" d="M4158.31 839.202 Q4158.31 846.268 4163.85 850.374 Q4169.34 854.48 4178.94 854.48 Q4188.53 854.48 4194.07 850.422 Q4199.56 846.316 4199.56 839.202 Q4199.56 832.184 4194.02 828.078 Q4188.48 823.972 4178.94 823.972 Q4169.44 823.972 4163.9 828.078 Q4158.31 832.184 4158.31 839.202 M4150.86 839.202 Q4150.86 827.744 4158.31 821.203 Q4165.76 814.662 4178.94 814.662 Q4192.07 814.662 4199.56 821.203 Q4207.01 827.744 4207.01 839.202 Q4207.01 850.708 4199.56 857.249 Q4192.07 863.742 4178.94 863.742 Q4165.76 863.742 4158.31 857.249 Q4150.86 850.708 4150.86 839.202 Z" fill="#000000" fill-rule="nonzero" fill-opacity="1" /><path clip-path="url(#clip030)" d="M4153.73 766.012 L4162.04 766.012 Q4160.13 769.736 4159.17 773.747 Q4158.22 777.757 4158.22 782.054 Q4158.22 788.595 4160.22 791.889 Q4162.23 795.135 4166.24 795.135 Q4169.29 795.135 4171.06 792.796 Q4172.78 790.457 4174.35 783.391 L4175.02 780.383 Q4177.03 771.025 4180.7 767.11 Q4184.33 763.148 4190.87 763.148 Q4198.32 763.148 4202.66 769.068 Q4207.01 774.94 4207.01 785.253 Q4207.01 789.55 4206.15 794.228 Q4205.34 798.859 4203.67 804.016 L4194.6 804.016 Q4197.13 799.146 4198.42 794.419 Q4199.66 789.693 4199.66 785.062 Q4199.66 778.855 4197.56 775.513 Q4195.41 772.171 4191.54 772.171 Q4187.96 772.171 4186.05 774.606 Q4184.14 776.993 4182.37 785.157 L4181.66 788.213 Q4179.94 796.377 4176.41 800.005 Q4172.83 803.634 4166.62 803.634 Q4159.08 803.634 4154.97 798.286 Q4150.86 792.939 4150.86 783.104 Q4150.86 778.234 4151.58 773.938 Q4152.3 769.641 4153.73 766.012 Z" fill="#000000" fill-rule="nonzero" fill-opacity="1" /><path clip-path="url(#clip030)" d="M4131.43 728.057 Q4142.41 734.454 4153.15 737.558 Q4163.9 740.661 4174.93 740.661 Q4185.95 740.661 4196.79 737.558 Q4207.58 734.407 4218.51 728.057 L4218.51 735.696 Q4207.3 742.857 4196.46 746.438 Q4185.62 749.971 4174.93 749.971 Q4164.28 749.971 4153.49 746.438 Q4142.7 742.905 4131.43 735.696 L4131.43 728.057 Z" fill="#000000" fill-rule="nonzero" fill-opacity="1" /><path clip-path="url(#clip030)" d="M4171.73 675.11 L4171.73 705.522 Q4186 704.806 4192.07 701.512 Q4199.51 697.406 4199.51 690.292 Q4199.51 683.131 4192.02 679.168 Q4185.43 675.683 4171.73 675.11 M4163.61 675.253 Q4150.05 676.59 4145.28 679.168 Q4137.73 683.274 4137.73 690.292 Q4137.73 697.597 4145.18 701.464 Q4151.2 704.52 4163.61 705.427 L4163.61 675.253 M4130.57 690.292 Q4130.57 678.834 4140.69 672.293 Q4150.77 665.752 4168.62 665.752 Q4186.43 665.752 4196.55 672.293 Q4206.72 678.834 4206.72 690.292 Q4206.72 701.798 4196.55 708.291 Q4186.43 714.832 4168.62 714.832 Q4150.77 714.832 4140.69 708.291 Q4130.57 701.798 4130.57 690.292 Z" fill="#000000" fill-rule="nonzero" fill-opacity="1" /><path clip-path="url(#clip030)" d="M4131.43 652.575 L4131.43 644.937 Q4142.7 637.775 4153.49 634.242 Q4164.28 630.661 4174.93 630.661 Q4185.62 630.661 4196.46 634.242 Q4207.3 637.775 4218.51 644.937 L4218.51 652.575 Q4207.58 646.226 4196.79 643.122 Q4185.95 639.971 4174.93 639.971 Q4163.9 639.971 4153.15 643.122 Q4142.41 646.226 4131.43 652.575 Z" fill="#000000" fill-rule="nonzero" fill-opacity="1" /><polyline clip-path="url(#clip034)" style="stroke:#009af9; stroke-linecap:round; stroke-linejoin:round; stroke-width:6; stroke-opacity:1; fill:none" points="4565.93,110.671 4567.3,111.261 4568.66,113.03 4570.02,115.967 4571.39,120.057 4572.75,125.281 4574.12,131.61 4575.48,139.013 4576.85,147.454 4578.21,156.891 4579.58,167.281 4580.94,178.573 4582.31,190.719 4583.67,203.663 4585.04,217.351 4586.4,231.726 4587.76,246.732 4589.13,262.309 4590.49,278.402 4591.86,294.954 4593.22,311.908 4594.59,329.211 4595.95,346.809 4597.32,364.652 4598.68,382.692 4600.05,400.88 4601.41,419.173 4602.77,437.53 4604.14,455.911 4605.5,474.279 4606.87,492.601 4608.23,510.846 4609.6,528.986 4610.96,546.994 4612.33,564.846 4613.69,582.522 4615.06,600.002 4616.42,617.267 4617.78,634.303 4619.15,651.096 4620.51,667.634 4621.88,683.908 4623.24,699.908 4624.61,715.629 4625.97,731.065 4627.34,746.213 4628.7,761.069 4630.07,775.631 4631.43,789.897 4632.79,803.868 4634.16,817.543 4635.52,830.925 4636.89,844.014 4638.25,856.813 4639.62,869.325 4640.98,881.553 4642.35,893.5 4643.71,905.17 4645.08,916.568 4646.44,927.697 4647.81,938.562 4649.17,949.169 4650.53,959.521 4651.9,969.624 4653.26,979.484 4654.63,989.105 4655.99,998.493 4657.36,1007.65 4658.72,1016.59 4660.09,1025.31 4661.45,1033.81 4662.82,1042.11 4664.18,1050.2 4665.54,1058.1 4666.91,1065.81 4668.27,1073.32 4669.64,1080.65 4671,1087.81 4672.37,1094.79 4673.73,1101.6 4675.1,1108.25 4676.46,1114.73 4677.83,1121.06 4679.19,1127.24 4680.55,1133.27 4681.92,1139.16 4683.28,1144.91 4684.65,1150.51 4686.01,1155.99 4687.38,1161.34 4688.74,1166.56 4690.11,1171.66 4691.47,1176.64 4692.84,1181.51 4694.2,1186.26 4695.56,1190.9 4696.93,1195.44 4698.29,1199.87 4699.66,1204.2 4701.02,1208.43 4702.39,1212.57 4703.75,1216.61 4705.12,1220.56 4706.48,1224.43 4707.85,1228.21 4709.21,1231.9 4710.58,1235.51 4711.94,1239.05 4713.3,1242.5 4714.67,1245.88 4716.03,1249.19 4717.4,1252.43 4718.76,1255.6 4720.13,1258.7 4721.49,1261.73 4722.86,1264.7 4724.22,1267.61 4725.59,1270.46 4726.95,1273.25 4728.31,1275.98 4729.68,1278.65 4731.04,1281.27 4732.41,1283.83 4733.77,1286.35 4735.14,1288.81 4736.5,1291.22 4737.87,1293.59 4739.23,1295.9 4740.6,1298.17 4741.96,1300.4 4743.32,1302.58 4744.69,1304.72 4746.05,1306.81 4747.42,1308.87 4748.78,1310.88 4750.15,1312.86 4751.51,1314.8 4752.88,1316.7 4754.24,1318.56 4755.61,1320.39 4756.97,1322.19 4758.34,1323.95 4759.7,1325.68 4761.06,1327.37 4762.43,1329.04 4763.79,1330.67 4765.16,1332.27 4766.52,1333.85 4767.89,1335.39 4769.25,1336.91 4770.62,1338.4 4771.98,1339.86 4773.35,1341.3 4774.71,1342.71 4776.07,1344.1 4777.44,1345.46 4778.8,1346.8 4780.17,1348.12 4781.53,1349.41 4782.9,1350.68 4784.26,1351.92 4785.63,1353.15 4786.99,1354.36 4788.36,1355.54 4789.72,1356.7 4791.08,1357.85 4792.45,1358.97 4793.81,1360.08 4795.18,1361.17 4796.54,1362.23 4797.91,1363.29 4799.27,1364.32 4800.64,1365.34 4802,1366.34 4803.37,1367.32 4804.73,1368.29 4806.09,1369.24 4807.46,1370.18 4808.82,1371.1 4810.19,1372 4811.55,1372.89 4812.92,1373.77 4814.28,1374.63 4815.65,1375.48 4817.01,1376.32 4818.38,1377.14 4819.74,1377.95 4821.11,1378.75 4822.47,1379.53 4823.83,1380.3 4825.2,1381.06 4826.56,1381.81 4827.93,1382.55 4829.29,1383.27 4830.66,1383.99 4832.02,1384.69 4833.39,1385.38 4834.75,1386.06 4836.12,1386.74 4837.48,1387.4 4838.84,1388.05 4840.21,1388.69 4841.57,1389.32 4842.94,1389.95 4844.3,1390.56 4845.67,1391.16 4847.03,1391.76 4848.4,1392.35 4849.76,1392.92 4851.13,1393.49 4852.49,1394.06 4853.85,1394.61 4855.22,1395.16 4856.58,1395.69 4857.95,1396.22 4859.31,1396.74 4860.68,1397.26 4862.04,1397.77 4863.41,1398.27 4864.77,1398.76 4866.14,1399.25 4867.5,1399.73 4868.87,1400.2 4870.23,1400.66 4871.59,1401.12 4872.96,1401.58 4874.32,1402.02 4875.69,1402.46 4877.05,1402.9 4878.42,1403.33 4879.78,1403.75 4881.15,1404.16 4882.51,1404.57 4883.88,1404.98 4885.24,1405.38 4886.6,1405.77 4887.97,1406.16 4889.33,1406.54 4890.7,1406.92 4892.06,1407.29 4893.43,1407.66 4894.79,1408.02 4896.16,1408.38 4897.52,1408.73 4898.89,1409.08 4900.25,1409.43 4901.61,1409.77 4902.98,1410.1 4904.34,1410.43 4905.71,1410.75 4907.07,1411.08 4908.44,1411.39 4909.8,1411.71 4911.17,1412.01 4912.53,1412.32 4913.9,1412.62 4915.26,1412.92 4916.62,1413.21 4917.99,1413.5 4919.35,1413.78 4920.72,1414.06 4922.08,1414.34 4923.45,1414.62 4924.81,1414.89 4926.18,1415.15 4927.54,1415.42 4928.91,1415.68 4930.27,1415.94 4931.64,1416.19 4933,1416.44 4934.36,1416.69 4935.73,1416.93 4937.09,1417.17 4938.46,1417.41 4939.82,1417.65 4941.19,1417.88 4942.55,1418.11 4943.92,1418.33 4945.28,1418.56 4946.65,1418.78 4948.01,1419 4949.37,1419.21 4950.74,1419.42 4952.1,1419.63 4953.47,1419.84 4954.83,1420.05 4956.2,1420.25 4957.56,1420.45 4958.93,1420.65 4960.29,1420.84 4961.66,1421.03 4963.02,1421.22 4964.38,1421.41 4965.75,1421.6 4967.11,1421.78 4968.48,1421.96 4969.84,1422.14 4971.21,1422.32 4972.57,1422.49 4973.94,1422.66 4975.3,1422.83 4976.67,1423 4978.03,1423.17 4979.39,1423.33 4980.76,1423.49 4982.12,1423.65 4983.49,1423.81 4984.85,1423.97 4986.22,1424.12 4987.58,1424.27 4988.95,1424.42 4990.31,1424.57 4991.68,1424.72 4993.04,1424.87 4994.41,1425.01 4995.77,1425.15 4997.13,1425.29 4998.5,1425.43 4999.86,1425.57 5001.23,1425.7 5002.59,1425.83 5003.96,1425.97 5005.32,1426.1 5006.69,1426.22 5008.05,1426.35 5009.42,1426.48 5010.78,1426.6 5012.14,1426.72 5013.51,1426.84 5014.87,1426.96 5016.24,1427.08 5017.6,1427.2 5018.97,1427.31 5020.33,1427.43 5021.7,1427.54 5023.06,1427.65 5024.43,1427.76 5025.79,1427.87 5027.15,1427.98 5028.52,1428.09 5029.88,1428.19 5031.25,1428.3 5032.61,1428.4 5033.98,1428.5 5035.34,1428.6 5036.71,1428.7 5038.07,1428.8 5039.44,1428.89 5040.8,1428.99 5042.17,1429.08 5043.53,1429.18 5044.89,1429.27 5046.26,1429.36 5047.62,1429.45 5048.99,1429.54 5050.35,1429.63 5051.72,1429.72 5053.08,1429.8 5054.45,1429.89 5055.81,1429.97 5057.18,1430.06 5058.54,1430.14 5059.9,1430.22 5061.27,1430.3 5062.63,1430.38 5064,1430.46 5065.36,1430.54 5066.73,1430.62 5068.09,1430.69 5069.46,1430.77 5070.82,1430.84 5072.19,1430.92 5073.55,1430.99 5074.91,1431.06 5076.28,1431.13 5077.64,1431.2 5079.01,1431.27 5080.37,1431.34 5081.74,1431.41 5083.1,1431.48 5084.47,1431.54 5085.83,1431.61 5087.2,1431.67 5088.56,1431.74 5089.92,1431.8 5091.29,1431.87 5092.65,1431.93 5094.02,1431.99 5095.38,1432.05 5096.75,1432.11 5098.11,1432.17 5099.48,1432.23 5100.84,1432.29 5102.21,1432.34 5103.57,1432.4 5104.94,1432.46 5106.3,1432.51 5107.66,1432.57 5109.03,1432.62 5110.39,1432.67 5111.76,1432.73 5113.12,1432.78 5114.49,1432.83 5115.85,1432.88 5117.22,1432.93 5118.58,1432.98 5119.95,1433.03 5121.31,1433.08 5122.67,1433.13 5124.04,1433.18 5125.4,1433.22 5126.77,1433.27 5128.13,1433.32 5129.5,1433.36 5130.86,1433.41 5132.23,1433.45 5133.59,1433.5 5134.96,1433.54 5136.32,1433.58 5137.68,1433.62 5139.05,1433.67 5140.41,1433.71 5141.78,1433.75 5143.14,1433.79 5144.51,1433.83 5145.87,1433.87 5147.24,1433.91 5148.6,1433.95 5149.97,1433.99 5151.33,1434.02 5152.7,1434.06 5154.06,1434.1 5155.42,1434.14 5156.79,1434.17 5158.15,1434.21 5159.52,1434.24 5160.88,1434.28 5162.25,1434.31 5163.61,1434.35 5164.98,1434.38 5166.34,1434.42 5167.71,1434.45 5169.07,1434.48 5170.43,1434.52 5171.8,1434.55 5173.16,1434.58 5174.53,1434.61 5175.89,1434.64 5177.26,1434.67 5178.62,1434.7 5179.99,1434.73 5181.35,1434.76 5182.72,1434.79 5184.08,1434.82 5185.44,1434.85 5186.81,1434.88 5188.17,1434.91 5189.54,1434.94 5190.9,1434.97 5192.27,1434.99 5193.63,1435.02 5195,1435.05 5196.36,1435.07 5197.73,1435.1 5199.09,1435.13 5200.45,1435.15 5201.82,1435.18 5203.18,1435.2 5204.55,1435.23 5205.91,1435.25 5207.28,1435.28 5208.64,1435.3 5210.01,1435.33 5211.37,1435.35 5212.74,1435.37 5214.1,1435.4 5215.47,1435.42 5216.83,1435.44 5218.19,1435.46 5219.56,1435.49 5220.92,1435.51 5222.29,1435.53 5223.65,1435.55 5225.02,1435.57 5226.38,1435.59 5227.75,1435.61 5229.11,1435.63 5230.48,1435.66 5231.84,1435.68 5233.2,1435.7 5234.57,1435.71 5235.93,1435.73 5237.3,1435.75 5238.66,1435.77 5240.03,1435.79 5241.39,1435.81 5242.76,1435.83 5244.12,1435.85 5245.49,1435.86 5246.85,1435.88 5248.21,1435.9 5249.58,1435.92 5250.94,1435.93 5252.31,1435.95 5253.67,1435.97 5255.04,1435.98 5256.4,1436 5257.77,1436.02 5259.13,1436.03 5260.5,1436.05 5261.86,1436.06 5263.22,1436.08 5264.59,1436.09 5265.95,1436.11 5267.32,1436.12 5268.68,1436.14 5270.05,1436.15 5271.41,1436.17 5272.78,1436.18 5274.14,1436.2 5275.51,1436.21 5276.87,1436.22 5278.24,1436.24 5279.6,1436.25 5280.96,1436.27 5282.33,1436.28 5283.69,1436.29 5285.06,1436.3 5286.42,1436.32 5287.79,1436.33 5289.15,1436.34 5290.52,1436.35 5291.88,1436.37 5293.25,1436.38 5294.61,1436.39 5295.97,1436.4 5297.34,1436.41 5298.7,1436.43 5300.07,1436.44 5301.43,1436.45 5302.8,1436.46 5304.16,1436.47 5305.53,1436.48 5306.89,1436.49 5308.26,1436.5 5309.62,1436.51 5310.98,1436.52 5312.35,1436.53 5313.71,1436.54 5315.08,1436.55 5316.44,1436.56 5317.81,1436.57 5319.17,1436.58 5320.54,1436.59 5321.9,1436.6 5323.27,1436.61 5324.63,1436.62 5326,1436.63 5327.36,1436.64 5328.72,1436.65 5330.09,1436.66 5331.45,1436.67 5332.82,1436.68 5334.18,1436.68 5335.55,1436.69 5336.91,1436.7 5338.28,1436.71 5339.64,1436.72 5341.01,1436.73 5342.37,1436.74 5343.73,1436.74 5345.1,1436.75 5346.46,1436.76 5347.83,1436.77 5349.19,1436.78 5350.56,1436.78 5351.92,1436.79 5353.29,1436.8 5354.65,1436.81 5356.02,1436.81 5357.38,1436.82 5358.74,1436.83 5360.11,1436.84 5361.47,1436.84 5362.84,1436.85 5364.2,1436.86 5365.57,1436.87 5366.93,1436.87 5368.3,1436.88 5369.66,1436.89 5371.03,1436.89 5372.39,1436.9 5373.75,1436.91 5375.12,1436.91 5376.48,1436.92 5377.85,1436.93 5379.21,1436.93 5380.58,1436.94 5381.94,1436.94 5383.31,1436.95 5384.67,1436.96 5386.04,1436.96 5387.4,1436.97 5388.77,1436.97 5390.13,1436.98 5391.49,1436.99 5392.86,1436.99 5394.22,1437 5395.59,1437 5396.95,1437.01 5398.32,1437.01 5399.68,1437.02 5401.05,1437.02 5402.41,1437.03 5403.78,1437.03 5405.14,1437.04 5406.5,1437.04 5407.87,1437.05 5409.23,1437.05 5410.6,1437.06 5411.96,1437.06 5413.33,1437.07 5414.69,1437.07 5416.06,1437.08 5417.42,1437.08 5418.79,1437.09 5420.15,1437.09 5421.51,1437.1 5422.88,1437.1 5424.24,1437.1 5425.61,1437.11 5426.97,1437.11 5428.34,1437.12 5429.7,1437.12 5431.07,1437.13 5432.43,1437.13 5433.8,1437.13 5435.16,1437.14 5436.53,1437.14 5437.89,1437.15 5439.25,1437.15 5440.62,1437.15 5441.98,1437.16 5443.35,1437.16 5444.71,1437.16 5446.08,1437.17 5447.44,1437.17 5448.81,1437.17 5450.17,1437.18 5451.54,1437.18 5452.9,1437.18 5454.26,1437.19 5455.63,1437.19 5456.99,1437.19 5458.36,1437.2 5459.72,1437.2 5461.09,1437.2 5462.45,1437.21 5463.82,1437.21 5465.18,1437.21 5466.55,1437.22 5467.91,1437.22 5469.27,1437.22 5470.64,1437.23 5472,1437.23 5473.37,1437.23 5474.73,1437.23 5476.1,1437.24 5477.46,1437.24 5478.83,1437.24 5480.19,1437.24 5481.56,1437.25 5482.92,1437.25 5484.28,1437.25 5485.65,1437.25 5487.01,1437.26 5488.38,1437.26 5489.74,1437.26 5491.11,1437.26 5492.47,1437.27 5493.84,1437.27 5495.2,1437.27 5496.57,1437.27 5497.93,1437.28 5499.3,1437.28 5500.66,1437.28 5502.02,1437.28 5503.39,1437.28 5504.75,1437.29 5506.12,1437.29 5507.48,1437.29 5508.85,1437.29 5510.21,1437.29 5511.58,1437.3 5512.94,1437.3 5514.31,1437.3 5515.67,1437.3 5517.03,1437.3 5518.4,1437.31 5519.76,1437.31 5521.13,1437.31 5522.49,1437.31 5523.86,1437.31 5525.22,1437.32 5526.59,1437.32 5527.95,1437.32 5529.32,1437.32 5530.68,1437.32 5532.04,1437.33 5533.41,1437.33 5534.77,1437.33 5536.14,1437.33 5537.5,1437.33 5538.87,1437.33 5540.23,1437.34 5541.6,1437.34 5542.96,1437.34 5544.33,1437.34 5545.69,1437.34 5547.05,1437.35 5548.42,1437.35 5549.78,1437.35 5551.15,1437.35 5552.51,1437.35 5553.88,1437.35 5555.24,1437.36 5556.61,1437.36 5557.97,1437.36 5559.34,1437.36 5560.7,1437.36 5562.07,1437.36 5563.43,1437.36 5564.79,1437.37 5566.16,1437.37 5567.52,1437.37 5568.89,1437.37 5570.25,1437.37 5571.62,1437.37 5572.98,1437.38 5574.35,1437.38 5575.71,1437.38 5577.08,1437.38 5578.44,1437.38 5579.8,1437.38 5581.17,1437.38 5582.53,1437.38 5583.9,1437.39 5585.26,1437.39 5586.63,1437.39 5587.99,1437.39 5589.36,1437.39 5590.72,1437.39 5592.09,1437.39 5593.45,1437.4 5594.81,1437.4 5596.18,1437.4 5597.54,1437.4 5598.91,1437.4 5600.27,1437.4 5601.64,1437.4 5603,1437.4 5604.37,1437.4 5605.73,1437.41 5607.1,1437.41 5608.46,1437.41 5609.83,1437.41 5611.19,1437.41 5612.55,1437.41 5613.92,1437.41 5615.28,1437.41 5616.65,1437.41 5618.01,1437.42 5619.38,1437.42 5620.74,1437.42 5622.11,1437.42 5623.47,1437.42 5624.84,1437.42 5626.2,1437.42 5627.56,1437.42 5628.93,1437.42 5630.29,1437.42 5631.66,1437.42 5633.02,1437.43 5634.39,1437.43 5635.75,1437.43 5637.12,1437.43 5638.48,1437.43 5639.85,1437.43 5641.21,1437.43 5642.57,1437.43 5643.94,1437.43 5645.3,1437.43 5646.67,1437.43 5648.03,1437.43 5649.4,1437.44 5650.76,1437.44 5652.13,1437.44 5653.49,1437.44 5654.86,1437.44 5656.22,1437.44 5657.58,1437.44 5658.95,1437.44 5660.31,1437.44 5661.68,1437.44 5663.04,1437.44 5664.41,1437.44 5665.77,1437.44 5667.14,1437.44 5668.5,1437.44 5669.87,1437.44 5671.23,1437.45 5672.6,1437.45 5673.96,1437.45 5675.32,1437.45 5676.69,1437.45 5678.05,1437.45 5679.42,1437.45 5680.78,1437.45 5682.15,1437.45 5683.51,1437.45 5684.88,1437.45 5686.24,1437.45 5687.61,1437.45 5688.97,1437.45 5690.33,1437.45 5691.7,1437.45 5693.06,1437.45 5694.43,1437.45 5695.79,1437.45 5697.16,1437.45 5698.52,1437.45 5699.89,1437.46 5701.25,1437.46 5702.62,1437.46 5703.98,1437.46 5705.34,1437.46 5706.71,1437.46 5708.07,1437.46 5709.44,1437.46 5710.8,1437.46 5712.17,1437.46 5713.53,1437.46 5714.9,1437.46 5716.26,1437.46 5717.63,1437.46 5718.99,1437.46 5720.36,1437.46 5721.72,1437.46 5723.08,1437.46 5724.45,1437.46 5725.81,1437.46 5727.18,1437.46 5728.54,1437.46 5729.91,1437.46 5731.27,1437.46 5732.64,1437.46 5734,1437.46 5735.37,1437.46 5736.73,1437.46 5738.09,1437.46 5739.46,1437.46 5740.82,1437.46 5742.19,1437.46 5743.55,1437.47 5744.92,1437.47 5746.28,1437.47 5747.65,1437.47 5749.01,1437.47 5750.38,1437.47 5751.74,1437.47 5753.1,1437.47 5754.47,1437.47 5755.83,1437.47 5757.2,1437.47 5758.56,1437.47 5759.93,1437.47 5761.29,1437.47 5762.66,1437.47 5764.02,1437.47 5765.39,1437.47 5766.75,1437.47 5768.11,1437.47 5769.48,1437.47 5770.84,1437.47 5772.21,1437.47 5773.57,1437.47 5774.94,1437.47 5776.3,1437.47 5777.67,1437.47 5779.03,1437.47 5780.4,1437.47 5781.76,1437.47 5783.13,1437.47 5784.49,1437.47 5785.85,1437.47 5787.22,1437.47 5788.58,1437.47 5789.95,1437.47 5791.31,1437.47 5792.68,1437.47 5794.04,1437.47 5795.41,1437.48 5796.77,1437.48 5798.14,1437.48 5799.5,1437.48 5800.86,1437.48 5802.23,1437.48 5803.59,1437.48 5804.96,1437.48 5806.32,1437.48 5807.69,1437.48 5809.05,1437.48 5810.42,1437.48 5811.78,1437.48 5813.15,1437.48 5814.51,1437.48 5815.87,1437.48 5817.24,1437.48 5818.6,1437.48 5819.97,1437.48 5821.33,1437.48 5822.7,1437.48 5824.06,1437.48 5825.43,1437.48 5826.79,1437.48 5828.16,1437.48 5829.52,1437.48 5830.89,1437.48 5832.25,1437.48 5833.61,1437.48 5834.98,1437.48 5836.34,1437.48 5837.71,1437.48 5839.07,1437.48 5840.44,1437.48 5841.8,1437.48 5843.17,1437.48 5844.53,1437.48 5845.9,1437.48 5847.26,1437.48 5848.62,1437.48 5849.99,1437.48 5851.35,1437.48 5852.72,1437.48 5854.08,1437.48 5855.45,1437.48 5856.81,1437.48 5858.18,1437.48 5859.54,1437.48 5860.91,1437.48 5862.27,1437.49 5863.63,1437.49 5865,1437.49 5866.36,1437.49 5867.73,1437.49 5869.09,1437.49 5870.46,1437.49 5871.82,1437.49 5873.19,1437.49 5874.55,1437.49 5875.92,1437.49 5877.28,1437.49 5878.64,1437.49 5880.01,1437.49 5881.37,1437.49 5882.74,1437.49 5884.1,1437.49 5885.47,1437.49 5886.83,1437.49 5888.2,1437.49 5889.56,1437.49 5890.93,1437.49 5892.29,1437.49 5893.66,1437.49 5895.02,1437.49 5896.38,1437.49 5897.75,1437.49 5899.11,1437.49 5900.48,1437.49 5901.84,1437.49 5903.21,1437.49 5904.57,1437.49 5905.94,1437.49 5907.3,1437.49 5908.67,1437.49 5910.03,1437.49 5911.39,1437.49 5912.76,1437.49 5914.12,1437.49 5915.49,1437.49 5916.85,1437.49 5918.22,1437.49 5919.58,1437.49 5920.95,1437.49 5922.31,1437.49 5923.68,1437.49 5925.04,1437.49 5926.4,1437.49 5927.77,1437.49 5929.13,1437.49 "/>
<path clip-path="url(#clip030)" d="M4069.21 93.4573 L4069.21 102.416 Q4065.15 100.176 4061.04 99.0823 Q4056.98 97.9364 4052.81 97.9364 Q4043.49 97.9364 4038.33 103.874 Q4033.17 109.759 4033.17 120.436 Q4033.17 131.113 4038.33 137.051 Q4043.49 142.936 4052.81 142.936 Q4056.98 142.936 4061.04 141.842 Q4065.15 140.697 4069.21 138.457 L4069.21 147.311 Q4065.2 149.186 4060.88 150.124 Q4056.61 151.061 4051.77 151.061 Q4038.59 151.061 4030.83 142.78 Q4023.07 134.499 4023.07 120.436 Q4023.07 106.166 4030.88 97.9885 Q4038.75 89.8115 4052.39 89.8115 Q4056.82 89.8115 4061.04 90.749 Q4065.26 91.6344 4069.21 93.4573 Z" fill="#000000" fill-rule="nonzero" fill-opacity="1" /><path clip-path="url(#clip030)" d="M4084.37 68.6137 L4092.7 68.6137 Q4100.52 80.9053 4104.37 92.6761 Q4108.28 104.447 4108.28 116.061 Q4108.28 127.728 4104.37 139.551 Q4100.52 151.374 4092.7 163.613 L4084.37 163.613 Q4091.3 151.686 4094.68 139.915 Q4098.12 128.093 4098.12 116.061 Q4098.12 104.03 4094.68 92.3115 Q4091.3 80.5928 4084.37 68.6137 Z" fill="#000000" fill-rule="nonzero" fill-opacity="1" /></svg>
