<?xml version="1.0" encoding="utf-8"?>
<svg xmlns="http://www.w3.org/2000/svg" xmlns:xlink="http://www.w3.org/1999/xlink" width="500" height="450" viewBox="0 0 2000 1800">
<defs>
  <clipPath id="clip910">
    <rect x="0" y="0" width="2000" height="1800"/>
  </clipPath>
</defs>
<path clip-path="url(#clip910)" d="M0 1800 L2000 1800 L2000 0 L0 0  Z" fill="#ffffff" fill-rule="evenodd" fill-opacity="1"/>
<defs>
  <clipPath id="clip911">
    <rect x="400" y="0" width="1401" height="1401"/>
  </clipPath>
</defs>
<path clip-path="url(#clip910)" d="M627.564 1311.08 L1929.13 1311.08 L1929.13 70.8661 L627.564 70.8661  Z" fill="#ffffff" fill-rule="evenodd" fill-opacity="1"/>
<defs>
  <clipPath id="clip912">
    <rect x="627" y="70" width="1303" height="1241"/>
  </clipPath>
</defs>
<polyline clip-path="url(#clip912)" style="stroke:#000000; stroke-linecap:round; stroke-linejoin:round; stroke-width:3; stroke-opacity:0.1; fill:none" points="627.564,1311.08 627.564,70.8661 "/>
<polyline clip-path="url(#clip912)" style="stroke:#000000; stroke-linecap:round; stroke-linejoin:round; stroke-width:3; stroke-opacity:0.1; fill:none" points="1010.38,1311.08 1010.38,70.8661 "/>
<polyline clip-path="url(#clip912)" style="stroke:#000000; stroke-linecap:round; stroke-linejoin:round; stroke-width:3; stroke-opacity:0.1; fill:none" points="1393.19,1311.08 1393.19,70.8661 "/>
<polyline clip-path="url(#clip912)" style="stroke:#000000; stroke-linecap:round; stroke-linejoin:round; stroke-width:3; stroke-opacity:0.1; fill:none" points="1776.01,1311.08 1776.01,70.8661 "/>
<polyline clip-path="url(#clip912)" style="stroke:#000000; stroke-linecap:round; stroke-linejoin:round; stroke-width:3; stroke-opacity:0.1; fill:none" points="627.564,1275.98 1929.13,1275.98 "/>
<polyline clip-path="url(#clip912)" style="stroke:#000000; stroke-linecap:round; stroke-linejoin:round; stroke-width:3; stroke-opacity:0.1; fill:none" points="627.564,983.479 1929.13,983.479 "/>
<polyline clip-path="url(#clip912)" style="stroke:#000000; stroke-linecap:round; stroke-linejoin:round; stroke-width:3; stroke-opacity:0.1; fill:none" points="627.564,690.975 1929.13,690.975 "/>
<polyline clip-path="url(#clip912)" style="stroke:#000000; stroke-linecap:round; stroke-linejoin:round; stroke-width:3; stroke-opacity:0.1; fill:none" points="627.564,398.471 1929.13,398.471 "/>
<polyline clip-path="url(#clip912)" style="stroke:#000000; stroke-linecap:round; stroke-linejoin:round; stroke-width:3; stroke-opacity:0.1; fill:none" points="627.564,105.967 1929.13,105.967 "/>
<polyline clip-path="url(#clip910)" style="stroke:#000000; stroke-linecap:round; stroke-linejoin:round; stroke-width:6; stroke-opacity:1; fill:none" points="627.564,1311.08 1929.13,1311.08 "/>
<polyline clip-path="url(#clip910)" style="stroke:#000000; stroke-linecap:round; stroke-linejoin:round; stroke-width:6; stroke-opacity:1; fill:none" points="627.564,1311.08 627.564,1292.19 "/>
<polyline clip-path="url(#clip910)" style="stroke:#000000; stroke-linecap:round; stroke-linejoin:round; stroke-width:6; stroke-opacity:1; fill:none" points="1010.38,1311.08 1010.38,1292.19 "/>
<polyline clip-path="url(#clip910)" style="stroke:#000000; stroke-linecap:round; stroke-linejoin:round; stroke-width:6; stroke-opacity:1; fill:none" points="1393.19,1311.08 1393.19,1292.19 "/>
<polyline clip-path="url(#clip910)" style="stroke:#000000; stroke-linecap:round; stroke-linejoin:round; stroke-width:6; stroke-opacity:1; fill:none" points="1776.01,1311.08 1776.01,1292.19 "/>
<path clip-path="url(#clip910)" d="M627.564 1344.66 Q622.147 1344.66 619.404 1350.01 Q616.696 1355.32 616.696 1366.02 Q616.696 1376.68 619.404 1382.02 Q622.147 1387.33 627.564 1387.33 Q633.015 1387.33 635.724 1382.02 Q638.467 1376.68 638.467 1366.02 Q638.467 1355.32 635.724 1350.01 Q633.015 1344.66 627.564 1344.66 M627.564 1339.11 Q636.279 1339.11 640.863 1346.02 Q645.481 1352.89 645.481 1366.02 Q645.481 1379.11 640.863 1386.02 Q636.279 1392.89 627.564 1392.89 Q618.849 1392.89 614.231 1386.02 Q609.648 1379.11 609.648 1366.02 Q609.648 1352.89 614.231 1346.02 Q618.849 1339.11 627.564 1339.11 Z" fill="#000000" fill-rule="nonzero" fill-opacity="1" /><path clip-path="url(#clip910)" d="M995.796 1340.04 L1023.33 1340.04 L1023.33 1345.95 L1002.22 1345.95 L1002.22 1358.65 Q1003.75 1358.13 1005.27 1357.89 Q1006.8 1357.61 1008.33 1357.61 Q1017.01 1357.61 1022.08 1362.37 Q1027.15 1367.13 1027.15 1375.25 Q1027.15 1383.62 1021.94 1388.27 Q1016.73 1392.89 1007.25 1392.89 Q1003.99 1392.89 1000.59 1392.33 Q997.219 1391.78 993.608 1390.67 L993.608 1383.62 Q996.733 1385.32 1000.07 1386.15 Q1003.4 1386.99 1007.11 1386.99 Q1013.12 1386.99 1016.63 1383.83 Q1020.14 1380.67 1020.14 1375.25 Q1020.14 1369.84 1016.63 1366.68 Q1013.12 1363.52 1007.11 1363.52 Q1004.3 1363.52 1001.49 1364.14 Q998.712 1364.77 995.796 1366.09 L995.796 1340.04 Z" fill="#000000" fill-rule="nonzero" fill-opacity="1" /><path clip-path="url(#clip910)" d="M1355.22 1385.98 L1366.68 1385.98 L1366.68 1346.43 L1354.22 1348.93 L1354.22 1342.54 L1366.61 1340.04 L1373.63 1340.04 L1373.63 1385.98 L1385.09 1385.98 L1385.09 1391.88 L1355.22 1391.88 L1355.22 1385.98 Z" fill="#000000" fill-rule="nonzero" fill-opacity="1" /><path clip-path="url(#clip910)" d="M1414.25 1344.66 Q1408.84 1344.66 1406.09 1350.01 Q1403.38 1355.32 1403.38 1366.02 Q1403.38 1376.68 1406.09 1382.02 Q1408.84 1387.33 1414.25 1387.33 Q1419.7 1387.33 1422.41 1382.02 Q1425.16 1376.68 1425.16 1366.02 Q1425.16 1355.32 1422.41 1350.01 Q1419.7 1344.66 1414.25 1344.66 M1414.25 1339.11 Q1422.97 1339.11 1427.55 1346.02 Q1432.17 1352.89 1432.17 1366.02 Q1432.17 1379.11 1427.55 1386.02 Q1422.97 1392.89 1414.25 1392.89 Q1405.54 1392.89 1400.92 1386.02 Q1396.34 1379.11 1396.34 1366.02 Q1396.34 1352.89 1400.92 1346.02 Q1405.54 1339.11 1414.25 1339.11 Z" fill="#000000" fill-rule="nonzero" fill-opacity="1" /><path clip-path="url(#clip910)" d="M1738.79 1385.98 L1750.24 1385.98 L1750.24 1346.43 L1737.78 1348.93 L1737.78 1342.54 L1750.17 1340.04 L1757.19 1340.04 L1757.19 1385.98 L1768.65 1385.98 L1768.65 1391.88 L1738.79 1391.88 L1738.79 1385.98 Z" fill="#000000" fill-rule="nonzero" fill-opacity="1" /><path clip-path="url(#clip910)" d="M1782.88 1340.04 L1810.42 1340.04 L1810.42 1345.95 L1789.31 1345.95 L1789.31 1358.65 Q1790.83 1358.13 1792.36 1357.89 Q1793.89 1357.61 1795.42 1357.61 Q1804.1 1357.61 1809.17 1362.37 Q1814.24 1367.13 1814.24 1375.25 Q1814.24 1383.62 1809.03 1388.27 Q1803.82 1392.89 1794.34 1392.89 Q1791.08 1392.89 1787.67 1392.33 Q1784.31 1391.78 1780.7 1390.67 L1780.7 1383.62 Q1783.82 1385.32 1787.15 1386.15 Q1790.49 1386.99 1794.2 1386.99 Q1800.21 1386.99 1803.72 1383.83 Q1807.22 1380.67 1807.22 1375.25 Q1807.22 1369.84 1803.72 1366.68 Q1800.21 1363.52 1794.2 1363.52 Q1791.39 1363.52 1788.58 1364.14 Q1785.8 1364.77 1782.88 1366.09 L1782.88 1340.04 Z" fill="#000000" fill-rule="nonzero" fill-opacity="1" /><path clip-path="url(#clip910)" d="M1276.94 1435.73 L1276.94 1450.91 L1295.04 1450.91 L1295.04 1457.73 L1276.94 1457.73 L1276.94 1486.76 Q1276.94 1493.3 1278.71 1495.17 Q1280.52 1497.03 1286.01 1497.03 L1295.04 1497.03 L1295.04 1504.38 L1286.01 1504.38 Q1275.84 1504.38 1271.98 1500.61 Q1268.11 1496.79 1268.11 1486.76 L1268.11 1457.73 L1261.66 1457.73 L1261.66 1450.91 L1268.11 1450.91 L1268.11 1435.73 L1276.94 1435.73 Z" fill="#000000" fill-rule="nonzero" fill-opacity="1" /><polyline clip-path="url(#clip910)" style="stroke:#000000; stroke-linecap:round; stroke-linejoin:round; stroke-width:6; stroke-opacity:1; fill:none" points="627.564,1311.08 627.564,70.8661 "/>
<polyline clip-path="url(#clip910)" style="stroke:#000000; stroke-linecap:round; stroke-linejoin:round; stroke-width:6; stroke-opacity:1; fill:none" points="627.564,1275.98 646.462,1275.98 "/>
<polyline clip-path="url(#clip910)" style="stroke:#000000; stroke-linecap:round; stroke-linejoin:round; stroke-width:6; stroke-opacity:1; fill:none" points="627.564,983.479 646.462,983.479 "/>
<polyline clip-path="url(#clip910)" style="stroke:#000000; stroke-linecap:round; stroke-linejoin:round; stroke-width:6; stroke-opacity:1; fill:none" points="627.564,690.975 646.462,690.975 "/>
<polyline clip-path="url(#clip910)" style="stroke:#000000; stroke-linecap:round; stroke-linejoin:round; stroke-width:6; stroke-opacity:1; fill:none" points="627.564,398.471 646.462,398.471 "/>
<polyline clip-path="url(#clip910)" style="stroke:#000000; stroke-linecap:round; stroke-linejoin:round; stroke-width:6; stroke-opacity:1; fill:none" points="627.564,105.967 646.462,105.967 "/>
<path clip-path="url(#clip910)" d="M437.148 1276.66 L481.662 1276.66 L481.662 1282.56 L437.148 1282.56 L437.148 1276.66 Z" fill="#000000" fill-rule="nonzero" fill-opacity="1" /><path clip-path="url(#clip910)" d="M498.016 1296 L509.474 1296 L509.474 1256.45 L497.009 1258.95 L497.009 1252.56 L509.405 1250.06 L516.419 1250.06 L516.419 1296 L527.877 1296 L527.877 1301.9 L498.016 1301.9 L498.016 1296 Z" fill="#000000" fill-rule="nonzero" fill-opacity="1" /><path clip-path="url(#clip910)" d="M542.044 1293.08 L549.37 1293.08 L549.37 1301.9 L542.044 1301.9 L542.044 1293.08 Z" fill="#000000" fill-rule="nonzero" fill-opacity="1" /><path clip-path="url(#clip910)" d="M579.648 1254.68 Q574.231 1254.68 571.488 1260.03 Q568.78 1265.34 568.78 1276.04 Q568.78 1286.69 571.488 1292.04 Q574.231 1297.35 579.648 1297.35 Q585.099 1297.35 587.807 1292.04 Q590.55 1286.69 590.55 1276.04 Q590.55 1265.34 587.807 1260.03 Q585.099 1254.68 579.648 1254.68 M579.648 1249.13 Q588.363 1249.13 592.946 1256.04 Q597.564 1262.91 597.564 1276.04 Q597.564 1289.13 592.946 1296.04 Q588.363 1302.91 579.648 1302.91 Q570.932 1302.91 566.314 1296.04 Q561.731 1289.13 561.731 1276.04 Q561.731 1262.91 566.314 1256.04 Q570.932 1249.13 579.648 1249.13 Z" fill="#000000" fill-rule="nonzero" fill-opacity="1" /><path clip-path="url(#clip910)" d="M438.641 984.156 L483.155 984.156 L483.155 990.059 L438.641 990.059 L438.641 984.156 Z" fill="#000000" fill-rule="nonzero" fill-opacity="1" /><path clip-path="url(#clip910)" d="M513.294 962.177 Q507.877 962.177 505.134 967.524 Q502.426 972.837 502.426 983.531 Q502.426 994.191 505.134 999.538 Q507.877 1004.85 513.294 1004.85 Q518.745 1004.85 521.453 999.538 Q524.196 994.191 524.196 983.531 Q524.196 972.837 521.453 967.524 Q518.745 962.177 513.294 962.177 M513.294 956.621 Q522.009 956.621 526.592 963.531 Q531.21 970.406 531.21 983.531 Q531.21 996.621 526.592 1003.53 Q522.009 1010.41 513.294 1010.41 Q504.579 1010.41 499.96 1003.53 Q495.377 996.621 495.377 983.531 Q495.377 970.406 499.96 963.531 Q504.579 956.621 513.294 956.621 Z" fill="#000000" fill-rule="nonzero" fill-opacity="1" /><path clip-path="url(#clip910)" d="M543.537 1000.58 L550.863 1000.58 L550.863 1009.4 L543.537 1009.4 L543.537 1000.58 Z" fill="#000000" fill-rule="nonzero" fill-opacity="1" /><path clip-path="url(#clip910)" d="M566.21 957.559 L593.745 957.559 L593.745 963.462 L572.634 963.462 L572.634 976.17 Q574.161 975.649 575.689 975.406 Q577.217 975.128 578.745 975.128 Q587.425 975.128 592.495 979.885 Q597.564 984.642 597.564 992.767 Q597.564 1001.14 592.356 1005.79 Q587.148 1010.41 577.668 1010.41 Q574.405 1010.41 571.002 1009.85 Q567.634 1009.29 564.023 1008.18 L564.023 1001.14 Q567.148 1002.84 570.481 1003.67 Q573.814 1004.5 577.53 1004.5 Q583.536 1004.5 587.043 1001.34 Q590.55 998.184 590.55 992.767 Q590.55 987.35 587.043 984.191 Q583.536 981.031 577.53 981.031 Q574.717 981.031 571.905 981.656 Q569.127 982.281 566.21 983.601 L566.21 957.559 Z" fill="#000000" fill-rule="nonzero" fill-opacity="1" /><path clip-path="url(#clip910)" d="M511.801 669.673 Q506.384 669.673 503.641 675.02 Q500.933 680.333 500.933 691.027 Q500.933 701.687 503.641 707.034 Q506.384 712.346 511.801 712.346 Q517.252 712.346 519.96 707.034 Q522.703 701.687 522.703 691.027 Q522.703 680.333 519.96 675.02 Q517.252 669.673 511.801 669.673 M511.801 664.117 Q520.516 664.117 525.099 671.027 Q529.717 677.902 529.717 691.027 Q529.717 704.117 525.099 711.027 Q520.516 717.902 511.801 717.902 Q503.085 717.902 498.467 711.027 Q493.884 704.117 493.884 691.027 Q493.884 677.902 498.467 671.027 Q503.085 664.117 511.801 664.117 Z" fill="#000000" fill-rule="nonzero" fill-opacity="1" /><path clip-path="url(#clip910)" d="M542.044 708.075 L549.37 708.075 L549.37 716.895 L542.044 716.895 L542.044 708.075 Z" fill="#000000" fill-rule="nonzero" fill-opacity="1" /><path clip-path="url(#clip910)" d="M579.648 669.673 Q574.231 669.673 571.488 675.02 Q568.78 680.333 568.78 691.027 Q568.78 701.687 571.488 707.034 Q574.231 712.346 579.648 712.346 Q585.099 712.346 587.807 707.034 Q590.55 701.687 590.55 691.027 Q590.55 680.333 587.807 675.02 Q585.099 669.673 579.648 669.673 M579.648 664.117 Q588.363 664.117 592.946 671.027 Q597.564 677.902 597.564 691.027 Q597.564 704.117 592.946 711.027 Q588.363 717.902 579.648 717.902 Q570.932 717.902 566.314 711.027 Q561.731 704.117 561.731 691.027 Q561.731 677.902 566.314 671.027 Q570.932 664.117 579.648 664.117 Z" fill="#000000" fill-rule="nonzero" fill-opacity="1" /><path clip-path="url(#clip910)" d="M513.294 377.169 Q507.877 377.169 505.134 382.516 Q502.426 387.828 502.426 398.523 Q502.426 409.182 505.134 414.53 Q507.877 419.842 513.294 419.842 Q518.745 419.842 521.453 414.53 Q524.196 409.182 524.196 398.523 Q524.196 387.828 521.453 382.516 Q518.745 377.169 513.294 377.169 M513.294 371.613 Q522.009 371.613 526.592 378.523 Q531.21 385.398 531.21 398.523 Q531.21 411.613 526.592 418.523 Q522.009 425.398 513.294 425.398 Q504.579 425.398 499.96 418.523 Q495.377 411.613 495.377 398.523 Q495.377 385.398 499.96 378.523 Q504.579 371.613 513.294 371.613 Z" fill="#000000" fill-rule="nonzero" fill-opacity="1" /><path clip-path="url(#clip910)" d="M543.537 415.571 L550.863 415.571 L550.863 424.391 L543.537 424.391 L543.537 415.571 Z" fill="#000000" fill-rule="nonzero" fill-opacity="1" /><path clip-path="url(#clip910)" d="M566.21 372.551 L593.745 372.551 L593.745 378.453 L572.634 378.453 L572.634 391.162 Q574.161 390.641 575.689 390.398 Q577.217 390.12 578.745 390.12 Q587.425 390.12 592.495 394.877 Q597.564 399.634 597.564 407.759 Q597.564 416.127 592.356 420.78 Q587.148 425.398 577.668 425.398 Q574.405 425.398 571.002 424.842 Q567.634 424.287 564.023 423.175 L564.023 416.127 Q567.148 417.828 570.481 418.662 Q573.814 419.495 577.53 419.495 Q583.536 419.495 587.043 416.335 Q590.55 413.176 590.55 407.759 Q590.55 402.342 587.043 399.183 Q583.536 396.023 577.53 396.023 Q574.717 396.023 571.905 396.648 Q569.127 397.273 566.21 398.592 L566.21 372.551 Z" fill="#000000" fill-rule="nonzero" fill-opacity="1" /><path clip-path="url(#clip910)" d="M498.016 125.984 L509.474 125.984 L509.474 86.4355 L497.009 88.9355 L497.009 82.5466 L509.405 80.0466 L516.419 80.0466 L516.419 125.984 L527.877 125.984 L527.877 131.887 L498.016 131.887 L498.016 125.984 Z" fill="#000000" fill-rule="nonzero" fill-opacity="1" /><path clip-path="url(#clip910)" d="M542.044 123.067 L549.37 123.067 L549.37 131.887 L542.044 131.887 L542.044 123.067 Z" fill="#000000" fill-rule="nonzero" fill-opacity="1" /><path clip-path="url(#clip910)" d="M579.648 84.6647 Q574.231 84.6647 571.488 90.0119 Q568.78 95.3243 568.78 106.019 Q568.78 116.678 571.488 122.026 Q574.231 127.338 579.648 127.338 Q585.099 127.338 587.807 122.026 Q590.55 116.678 590.55 106.019 Q590.55 95.3243 587.807 90.0119 Q585.099 84.6647 579.648 84.6647 M579.648 79.1091 Q588.363 79.1091 592.946 86.0188 Q597.564 92.8938 597.564 106.019 Q597.564 119.109 592.946 126.019 Q588.363 132.894 579.648 132.894 Q570.932 132.894 566.314 126.019 Q561.731 119.109 561.731 106.019 Q561.731 92.8938 566.314 86.0188 Q570.932 79.1091 579.648 79.1091 Z" fill="#000000" fill-rule="nonzero" fill-opacity="1" /><path clip-path="url(#clip910)" d="M334.345 792.094 L342.557 792.094 Q340.504 795.818 339.502 799.59 Q338.451 803.314 338.451 807.133 Q338.451 815.679 343.894 820.406 Q349.289 825.132 359.076 825.132 Q368.863 825.132 374.306 820.406 Q379.701 815.679 379.701 807.133 Q379.701 803.314 378.698 799.59 Q377.648 795.818 375.595 792.094 L383.711 792.094 Q385.43 795.77 386.289 799.733 Q387.149 803.648 387.149 808.088 Q387.149 820.167 379.558 827.281 Q371.967 834.394 359.076 834.394 Q345.995 834.394 338.499 827.233 Q331.003 820.024 331.003 807.515 Q331.003 803.457 331.863 799.59 Q332.674 795.723 334.345 792.094 Z" fill="#000000" fill-rule="nonzero" fill-opacity="1" /><path clip-path="url(#clip910)" d="M338.451 756.096 Q338.451 763.162 343.989 767.268 Q349.48 771.374 359.076 771.374 Q368.672 771.374 374.211 767.316 Q379.701 763.21 379.701 756.096 Q379.701 749.078 374.163 744.972 Q368.625 740.866 359.076 740.866 Q349.575 740.866 344.037 744.972 Q338.451 749.078 338.451 756.096 M331.003 756.096 Q331.003 744.638 338.451 738.097 Q345.899 731.556 359.076 731.556 Q372.205 731.556 379.701 738.097 Q387.149 744.638 387.149 756.096 Q387.149 767.602 379.701 774.143 Q372.205 780.636 359.076 780.636 Q345.899 780.636 338.451 774.143 Q331.003 767.602 331.003 756.096 Z" fill="#000000" fill-rule="nonzero" fill-opacity="1" /><path clip-path="url(#clip910)" d="M333.868 682.906 L342.175 682.906 Q340.265 686.63 339.311 690.641 Q338.356 694.651 338.356 698.948 Q338.356 705.489 340.361 708.783 Q342.366 712.029 346.377 712.029 Q349.432 712.029 351.199 709.69 Q352.917 707.351 354.493 700.285 L355.161 697.277 Q357.166 687.919 360.843 684.004 Q364.471 680.042 371.012 680.042 Q378.46 680.042 382.804 685.962 Q387.149 691.834 387.149 702.147 Q387.149 706.444 386.289 711.122 Q385.478 715.753 383.807 720.91 L374.736 720.91 Q377.266 716.04 378.555 711.313 Q379.796 706.587 379.796 701.956 Q379.796 695.749 377.696 692.407 Q375.547 689.065 371.68 689.065 Q368.099 689.065 366.19 691.5 Q364.28 693.887 362.514 702.051 L361.797 705.107 Q360.079 713.271 356.546 716.899 Q352.965 720.528 346.758 720.528 Q339.215 720.528 335.109 715.18 Q331.003 709.833 331.003 699.998 Q331.003 695.128 331.719 690.832 Q332.436 686.535 333.868 682.906 Z" fill="#000000" fill-rule="nonzero" fill-opacity="1" /><path clip-path="url(#clip910)" d="M311.572 644.951 Q322.553 651.348 333.295 654.452 Q344.037 657.555 355.066 657.555 Q366.094 657.555 376.932 654.452 Q387.722 651.301 398.655 644.951 L398.655 652.59 Q387.435 659.751 376.598 663.332 Q365.76 666.865 355.066 666.865 Q344.419 666.865 333.629 663.332 Q322.839 659.799 311.572 652.59 L311.572 644.951 Z" fill="#000000" fill-rule="nonzero" fill-opacity="1" /><path clip-path="url(#clip910)" d="M351.867 592.004 L351.867 622.416 Q366.142 621.7 372.205 618.406 Q379.653 614.3 379.653 607.186 Q379.653 600.025 372.158 596.062 Q365.569 592.577 351.867 592.004 M343.751 592.147 Q330.192 593.484 325.417 596.062 Q317.874 600.168 317.874 607.186 Q317.874 614.491 325.322 618.358 Q331.338 621.414 343.751 622.321 L343.751 592.147 M310.713 607.186 Q310.713 595.728 320.834 589.187 Q330.908 582.646 348.764 582.646 Q366.572 582.646 376.693 589.187 Q386.862 595.728 386.862 607.186 Q386.862 618.692 376.693 625.185 Q366.572 631.726 348.764 631.726 Q330.908 631.726 320.834 625.185 Q310.713 618.692 310.713 607.186 Z" fill="#000000" fill-rule="nonzero" fill-opacity="1" /><path clip-path="url(#clip910)" d="M311.572 569.469 L311.572 561.831 Q322.839 554.669 333.629 551.136 Q344.419 547.555 355.066 547.555 Q365.76 547.555 376.598 551.136 Q387.435 554.669 398.655 561.831 L398.655 569.469 Q387.722 563.12 376.932 560.016 Q366.094 556.865 355.066 556.865 Q344.037 556.865 333.295 560.016 Q322.553 563.12 311.572 569.469 Z" fill="#000000" fill-rule="nonzero" fill-opacity="1" /><polyline clip-path="url(#clip912)" style="stroke:#009af9; stroke-linecap:round; stroke-linejoin:round; stroke-width:6; stroke-opacity:1; fill:none" points="627.564,105.967 628.867,106.496 630.17,108.081 631.473,110.714 632.776,114.384 634.078,119.073 635.381,124.76 636.684,131.418 637.987,139.018 639.29,147.527 640.593,156.908 641.896,167.121 643.199,178.124 644.501,189.872 645.804,202.32 647.107,215.42 648.41,229.124 649.713,243.382 651.016,258.147 652.319,273.368 653.622,288.998 654.924,304.99 656.227,321.296 657.53,337.873 658.833,354.675 660.136,371.662 661.439,388.793 662.742,406.029 664.045,423.334 665.347,440.674 666.65,458.017 667.953,475.332 669.256,492.592 670.559,509.77 671.862,526.841 673.165,543.786 674.468,560.583 675.77,577.216 677.073,593.669 678.376,609.926 679.679,625.975 680.982,641.804 682.285,657.402 683.588,672.762 684.891,687.875 686.193,702.735 687.496,717.337 688.799,731.675 690.102,745.748 691.405,759.553 692.708,773.088 694.011,786.354 695.314,799.349 696.616,812.075 697.919,824.534 699.222,836.726 700.525,848.654 701.828,860.318 703.131,871.723 704.434,882.872 705.736,893.766 707.039,904.411 708.342,914.81 709.645,924.967 710.948,934.885 712.251,944.568 713.554,954.022 714.857,963.249 716.159,972.255 717.462,981.044 718.765,989.619 720.068,997.986 721.371,1006.15 722.674,1014.11 723.977,1021.88 725.28,1029.45 726.582,1036.84 727.885,1044.05 729.188,1051.08 730.491,1057.93 731.794,1064.61 733.097,1071.13 734.4,1077.48 735.703,1083.67 737.005,1089.71 738.308,1095.6 739.611,1101.33 740.914,1106.93 742.217,1112.38 743.52,1117.69 744.823,1122.88 746.126,1127.92 747.428,1132.84 748.731,1137.64 750.034,1142.31 751.337,1146.87 752.64,1151.31 753.943,1155.63 755.246,1159.84 756.549,1163.95 757.851,1167.95 759.154,1171.84 760.457,1175.64 761.76,1179.33 763.063,1182.93 764.366,1186.43 765.669,1189.84 766.972,1193.17 768.274,1196.4 769.577,1199.54 770.88,1202.6 772.183,1205.58 773.486,1208.48 774.789,1211.3 776.092,1214.04 777.394,1216.7 778.697,1219.29 780,1221.8 781.303,1224.25 782.606,1226.62 783.909,1228.93 785.212,1231.16 786.515,1233.33 787.817,1235.44 789.12,1237.48 790.423,1239.46 791.726,1241.37 793.029,1243.23 794.332,1245.03 795.635,1246.76 796.938,1248.44 798.24,1250.07 799.543,1251.63 800.846,1253.15 802.149,1254.6 803.452,1256.01 804.755,1257.36 806.058,1258.66 807.361,1259.91 808.663,1261.1 809.966,1262.25 811.269,1263.35 812.572,1264.4 813.875,1265.4 815.178,1266.35 816.481,1267.26 817.784,1268.12 819.086,1268.93 820.389,1269.7 821.692,1270.42 822.995,1271.09 824.298,1271.72 825.601,1272.31 826.904,1272.85 828.207,1273.35 829.509,1273.8 830.812,1274.21 832.115,1274.58 833.418,1274.91 834.721,1275.19 836.024,1275.43 837.327,1275.62 838.629,1275.78 839.932,1275.89 841.235,1275.96 842.538,1275.98 843.841,1275.97 845.144,1275.91 846.447,1275.81 847.75,1275.67 849.052,1275.48 850.355,1275.25 851.658,1274.98 852.961,1274.67 854.264,1274.31 855.567,1273.91 856.87,1273.47 858.173,1272.98 859.475,1272.45 860.778,1271.87 862.081,1271.25 863.384,1270.59 864.687,1269.88 865.99,1269.13 867.293,1268.33 868.596,1267.48 869.898,1266.58 871.201,1265.64 872.504,1264.66 873.807,1263.62 875.11,1262.53 876.413,1261.4 877.716,1260.21 879.019,1258.98 880.321,1257.69 881.624,1256.35 882.927,1254.96 884.23,1253.51 885.533,1252.01 886.836,1250.46 888.139,1248.84 889.442,1247.18 890.744,1245.45 892.047,1243.67 893.35,1241.83 894.653,1239.92 895.956,1237.96 897.259,1235.93 898.562,1233.84 899.865,1231.69 901.167,1229.47 902.47,1227.18 903.773,1224.82 905.076,1222.4 906.379,1219.9 907.682,1217.33 908.985,1214.69 910.287,1211.97 911.59,1209.17 912.893,1206.3 914.196,1203.34 915.499,1200.3 916.802,1197.18 918.105,1193.97 919.408,1190.68 920.71,1187.29 922.013,1183.82 923.316,1180.25 924.619,1176.58 925.922,1172.81 927.225,1168.94 928.528,1164.97 929.831,1160.9 931.133,1156.71 932.436,1152.42 933.739,1148.01 935.042,1143.48 936.345,1138.84 937.648,1134.07 938.951,1129.18 940.254,1124.16 941.556,1119.02 942.859,1113.73 944.162,1108.31 945.465,1102.75 946.768,1097.05 948.071,1091.2 949.374,1085.2 950.677,1079.04 951.979,1072.74 953.282,1066.28 954.585,1059.66 955.888,1052.87 957.191,1045.91 958.494,1038.78 959.797,1031.46 961.1,1023.96 962.402,1016.26 963.705,1008.37 965.008,1000.27 966.311,991.967 967.614,983.446 968.917,974.706 970.22,965.742 971.523,956.548 972.825,947.12 974.128,937.454 975.431,927.544 976.734,917.386 978.037,906.977 979.34,896.313 980.643,885.39 981.945,874.205 983.248,862.756 984.551,851.04 985.854,839.055 987.157,826.8 988.46,814.274 989.763,801.477 991.066,788.408 992.368,775.069 993.671,761.461 994.974,747.587 996.277,733.449 997.58,719.052 998.883,704.399 1000.19,689.498 1001.49,674.354 1002.79,658.975 1004.09,643.369 1005.4,627.548 1006.7,611.521 1008,595.301 1009.31,578.901 1010.61,562.337 1011.91,545.624 1013.21,528.781 1014.52,511.825 1015.82,494.779 1017.12,477.664 1018.43,460.503 1019.73,443.322 1021.03,426.149 1022.33,409.011 1023.64,391.939 1024.94,374.964 1026.24,358.122 1027.55,341.446 1028.85,324.974 1030.15,308.744 1031.45,292.797 1032.76,277.174 1034.06,261.919 1035.36,247.077 1036.67,232.694 1037.97,218.826 1039.27,205.535 1040.57,192.878 1041.88,180.907 1043.18,169.675 1044.48,159.23 1045.79,149.617 1047.09,140.877 1048.39,133.048 1049.69,126.162 1051,120.25 1052.3,115.336 1053.6,111.44 1054.91,108.578 1056.21,106.76 1057.51,105.994 1058.81,106.28 1060.12,107.617 1061.42,109.996 1062.72,113.407 1064.03,117.832 1065.33,123.253 1066.63,129.646 1067.94,136.982 1069.24,145.232 1070.54,154.36 1071.84,164.331 1073.15,175.105 1074.45,186.64 1075.75,198.892 1077.06,211.816 1078.36,225.365 1079.66,239.491 1080.96,254.145 1082.27,269.277 1083.57,284.838 1084.87,300.778 1086.18,317.047 1087.48,333.598 1088.78,350.381 1090.08,367.349 1091.39,384.456 1092.69,401.658 1093.99,418.918 1095.3,436.206 1096.6,453.493 1097.9,470.751 1099.2,487.954 1100.51,505.08 1101.81,522.105 1103.11,539.01 1104.42,555.777 1105.72,572.388 1107.02,588.828 1108.32,605.083 1109.63,621.14 1110.93,636.988 1112.23,652.616 1113.54,668.016 1114.84,683.18 1116.14,698.1 1117.44,712.772 1118.75,727.19 1120.05,741.35 1121.35,755.249 1122.66,768.885 1123.96,782.255 1125.26,795.36 1126.56,808.197 1127.87,820.768 1129.17,833.073 1130.47,845.114 1131.78,856.891 1133.08,868.407 1134.38,879.664 1135.68,890.664 1136.99,901.412 1138.29,911.91 1139.59,922.161 1140.9,932.17 1142.2,941.939 1143.5,951.475 1144.8,960.78 1146.11,969.858 1147.41,978.716 1148.71,987.356 1150.02,995.784 1151.32,1004 1152.62,1012.02 1153.92,1019.84 1155.23,1027.47 1156.53,1034.9 1157.83,1042.16 1159.14,1049.23 1160.44,1056.13 1161.74,1062.85 1163.04,1069.41 1164.35,1075.81 1165.65,1082.05 1166.95,1088.12 1168.26,1094.05 1169.56,1099.83 1170.86,1105.46 1172.16,1110.94 1173.47,1116.29 1174.77,1121.51 1176.07,1126.59 1177.38,1131.54 1178.68,1136.36 1179.98,1141.06 1181.28,1145.64 1182.59,1150.1 1183.89,1154.45 1185.19,1158.69 1186.5,1162.82 1187.8,1166.84 1189.1,1170.75 1190.41,1174.56 1191.71,1178.28 1193.01,1181.9 1194.31,1185.42 1195.62,1188.85 1196.92,1192.19 1198.22,1195.44 1199.53,1198.6 1200.83,1201.68 1202.13,1204.68 1203.43,1207.59 1204.74,1210.43 1206.04,1213.19 1207.34,1215.87 1208.65,1218.48 1209.95,1221.01 1211.25,1223.48 1212.55,1225.87 1213.86,1228.2 1215.16,1230.45 1216.46,1232.64 1217.77,1234.77 1219.07,1236.83 1220.37,1238.83 1221.67,1240.76 1222.98,1242.64 1224.28,1244.46 1225.58,1246.21 1226.89,1247.91 1228.19,1249.55 1229.49,1251.14 1230.79,1252.67 1232.1,1254.14 1233.4,1255.56 1234.7,1256.93 1236.01,1258.25 1237.31,1259.51 1238.61,1260.73 1239.91,1261.89 1241.22,1263.01 1242.52,1264.07 1243.82,1265.09 1245.13,1266.06 1246.43,1266.98 1247.73,1267.85 1249.03,1268.68 1250.34,1269.46 1251.64,1270.19 1252.94,1270.88 1254.25,1271.53 1255.55,1272.13 1256.85,1272.69 1258.15,1273.2 1259.46,1273.66 1260.76,1274.09 1262.06,1274.47 1263.37,1274.81 1264.67,1275.1 1265.97,1275.36 1267.27,1275.57 1268.58,1275.73 1269.88,1275.86 1271.18,1275.94 1272.49,1275.98 1273.79,1275.98 1275.09,1275.93 1276.39,1275.84 1277.7,1275.72 1279,1275.54 1280.3,1275.33 1281.61,1275.07 1282.91,1274.77 1284.21,1274.43 1285.51,1274.05 1286.82,1273.62 1288.12,1273.14 1289.42,1272.63 1290.73,1272.07 1292.03,1271.46 1293.33,1270.81 1294.63,1270.12 1295.94,1269.38 1297.24,1268.59 1298.54,1267.76 1299.85,1266.88 1301.15,1265.96 1302.45,1264.98 1303.76,1263.96 1305.06,1262.89 1306.36,1261.78 1307.66,1260.61 1308.97,1259.39 1310.27,1258.12 1311.57,1256.8 1312.88,1255.42 1314.18,1254 1315.48,1252.51 1316.78,1250.97 1318.09,1249.37 1319.39,1247.72 1320.69,1246 1322,1244.23 1323.3,1242.4 1324.6,1240.5 1325.9,1238.54 1327.21,1236.52 1328.51,1234.43 1329.81,1232.28 1331.12,1230.06 1332.42,1227.78 1333.72,1225.42 1335.02,1223 1336.33,1220.5 1337.63,1217.93 1338.93,1215.29 1340.24,1212.58 1341.54,1209.79 1342.84,1206.92 1344.14,1203.97 1345.45,1200.94 1346.75,1197.82 1348.05,1194.63 1349.36,1191.34 1350.66,1187.97 1351.96,1184.51 1353.26,1180.96 1354.57,1177.31 1355.87,1173.57 1357.17,1169.72 1358.48,1165.78 1359.78,1161.74 1361.08,1157.58 1362.38,1153.32 1363.69,1148.95 1364.99,1144.47 1366.29,1139.87 1367.6,1135.15 1368.9,1130.3 1370.2,1125.34 1371.5,1120.24 1372.81,1115.01 1374.11,1109.65 1375.41,1104.14 1376.72,1098.5 1378.02,1092.71 1379.32,1086.77 1380.62,1080.67 1381.93,1074.42 1383.23,1068.01 1384.53,1061.44 1385.84,1054.69 1387.14,1047.77 1388.44,1040.68 1389.74,1033.4 1391.05,1025.94 1392.35,1018.28 1393.65,1010.44 1394.96,1002.39 1396.26,994.138 1397.56,985.68 1398.86,977.01 1400.17,968.124 1401.47,959.017 1402.77,949.685 1404.08,940.123 1405.38,930.328 1406.68,920.296 1407.98,910.022 1409.29,899.503 1410.59,888.735 1411.89,877.715 1413.2,866.44 1414.5,854.906 1415.8,843.111 1417.1,831.054 1418.41,818.73 1419.71,806.14 1421.01,793.282 1422.32,780.155 1423.62,766.759 1424.92,753.095 1426.23,739.163 1427.53,724.965 1428.83,710.509 1430.13,695.799 1431.44,680.835 1432.74,665.619 1434.04,650.157 1435.35,634.453 1436.65,618.515 1437.95,602.352 1439.25,585.976 1440.56,569.401 1441.86,552.64 1443.16,535.713 1444.47,518.638 1445.77,501.438 1447.07,484.137 1448.37,466.76 1449.68,449.338 1450.98,431.9 1452.28,414.479 1453.59,397.111 1454.89,379.833 1456.19,362.683 1457.49,345.702 1458.8,328.933 1460.1,312.42 1461.4,296.209 1462.71,280.345 1464.01,264.876 1465.31,249.851 1466.61,235.318 1467.92,221.325 1469.22,207.921 1470.52,195.155 1471.83,183.073 1473.13,171.721 1474.43,161.145 1475.73,151.386 1477.04,142.486 1478.34,134.482 1479.64,127.409 1480.95,121.299 1482.25,116.182 1483.55,112.079 1484.85,109.014 1486.16,106.999 1487.46,106.048 1488.76,106.166 1490.07,107.354 1491.37,109.608 1492.67,112.918 1493.97,117.271 1495.28,122.645 1496.58,129.016 1497.88,136.352 1499.19,144.618 1500.49,153.773 1501.79,163.772 1503.09,174.563 1504.4,186.093 1505.7,198.318 1507,211.198 1508.31,224.687 1509.61,238.738 1510.91,253.303 1512.21,268.338 1513.52,283.795 1514.82,299.629 1516.12,315.796 1517.43,332.252 1518.73,348.955 1520.03,365.864 1521.33,382.939 1522.64,400.142 1523.94,417.437 1525.24,434.789 1526.55,452.164 1527.85,469.532 1529.15,486.862 1530.45,504.126 1531.76,521.3 1533.06,538.358 1534.36,555.279 1535.67,572.042 1536.97,588.629 1538.27,605.021 1539.57,621.205 1540.88,637.167 1542.18,652.894 1543.48,668.376 1544.79,683.605 1546.09,698.573 1547.39,713.274 1548.7,727.703 1550,741.857 1551.3,755.733 1552.6,769.331 1553.91,782.65 1555.21,795.69 1556.51,808.455 1557.82,820.946 1559.12,833.167 1560.42,845.122 1561.72,856.817 1563.03,868.256 1564.33,879.445 1565.63,890.392 1566.94,901.103 1568.24,911.613 1569.54,921.971 1570.84,932.171 1572.15,942.205 1573.45,952.07 1574.75,961.758 1576.06,971.266 1577.36,980.589 1578.66,989.724 1579.96,998.666 1581.27,1007.41 1582.57,1015.96 1583.87,1024.31 1585.18,1032.46 1586.48,1040.41 1587.78,1048.16 1589.08,1055.7 1590.39,1063.04 1591.69,1070.18 1592.99,1077.11 1594.3,1083.85 1595.6,1090.39 1596.9,1096.73 1598.2,1102.87 1599.51,1108.83 1600.81,1114.59 1602.11,1120.17 1603.42,1125.56 1604.72,1130.77 1606.02,1135.81 1607.32,1140.67 1608.63,1145.36 1609.93,1149.89 1611.23,1154.25 1612.54,1158.46 1613.84,1162.51 1615.14,1166.41 1616.44,1170.17 1617.75,1173.79 1619.05,1177.27 1620.35,1180.61 1621.66,1183.83 1622.96,1186.92 1624.26,1189.9 1625.56,1192.76 1626.87,1195.51 1628.17,1198.15 1629.47,1200.69 1630.78,1203.13 1632.08,1205.47 1633.38,1207.73 1634.68,1209.9 1635.99,1211.99 1637.29,1214 1638.59,1215.94 1639.9,1217.8 1641.2,1219.6 1642.5,1221.34 1643.8,1223.02 1645.11,1224.64 1646.41,1226.21 1647.71,1227.73 1649.02,1229.2 1650.32,1230.63 1651.62,1232.02 1652.92,1233.38 1654.23,1234.7 1655.53,1235.99 1656.83,1237.26 1658.14,1238.5 1659.44,1239.71 1660.74,1240.91 1662.04,1242.09 1663.35,1243.26 1664.65,1244.41 1665.95,1245.55 1667.26,1246.69 1668.56,1247.82 1669.86,1248.94 1671.17,1250.06 1672.47,1251.18 1673.77,1252.3 1675.07,1253.41 1676.38,1254.53 1677.68,1255.65 1678.98,1256.77 1680.29,1257.89 1681.59,1259.01 1682.89,1260.14 1684.19,1261.25 1685.5,1262.37 1686.8,1263.46 1688.1,1264.51 1689.41,1265.5 1690.71,1266.45 1692.01,1267.35 1693.31,1268.21 1694.62,1269.01 1695.92,1269.78 1697.22,1270.49 1698.53,1271.16 1699.83,1271.79 1701.13,1272.37 1702.43,1272.91 1703.74,1273.4 1705.04,1273.85 1706.34,1274.26 1707.65,1274.62 1708.95,1274.94 1710.25,1275.22 1711.55,1275.45 1712.86,1275.64 1714.16,1275.79 1715.46,1275.9 1716.77,1275.96 1718.07,1275.98 1719.37,1275.96 1720.67,1275.9 1721.98,1275.79 1723.28,1275.65 1724.58,1275.46 1725.89,1275.22 1727.19,1274.95 1728.49,1274.63 1729.79,1274.27 1731.1,1273.87 1732.4,1273.42 1733.7,1272.93 1735.01,1272.39 1736.31,1271.81 1737.61,1271.19 1738.91,1270.52 1740.22,1269.81 1741.52,1269.05 1742.82,1268.24 1744.13,1267.39 1745.43,1266.49 1746.73,1265.55 1748.03,1264.55 1749.34,1263.51 1750.64,1262.42 1751.94,1261.28 1753.25,1260.09 1754.55,1258.85 1755.85,1257.56 1757.15,1256.21 1758.46,1254.82 1759.76,1253.37 1761.06,1251.86 1762.37,1250.3 1763.67,1248.69 1764.97,1247.02 1766.27,1245.29 1767.58,1243.5 1768.88,1241.66 1770.18,1239.75 1771.49,1237.79 1772.79,1235.76 1774.09,1233.67 1775.39,1231.51 1776.7,1229.29 1778,1227 1779.3,1224.64 1780.61,1222.22 1781.91,1219.72 1783.21,1217.15 1784.52,1214.51 1785.82,1211.79 1787.12,1208.99 1788.42,1206.11 1789.73,1203.16 1791.03,1200.11 1792.33,1196.99 1793.64,1193.78 1794.94,1190.48 1796.24,1187.08 1797.54,1183.6 1798.85,1180.01 1800.15,1176.34 1801.45,1172.55 1802.76,1168.67 1804.06,1164.68 1805.36,1160.58 1806.66,1156.38 1807.97,1152.05 1809.27,1147.61 1810.57,1143.06 1811.88,1138.37 1813.18,1133.57 1814.48,1128.63 1815.78,1123.56 1817.09,1118.35 1818.39,1113.01 1819.69,1107.52 1821,1101.89 1822.3,1096.11 1823.6,1090.17 1824.9,1084.07 1826.21,1077.82 1827.51,1071.4 1828.81,1064.81 1830.12,1058.05 1831.42,1051.11 1832.72,1043.99 1834.02,1036.68 1835.33,1029.19 1836.63,1021.5 1837.93,1013.62 1839.24,1005.54 1840.54,997.245 1841.84,988.746 1843.14,980.034 1844.45,971.105 1845.75,961.956 1847.05,952.581 1848.36,942.978 1849.66,933.144 1850.96,923.074 1852.26,912.765 1853.57,902.215 1854.87,891.421 1856.17,880.379 1857.48,869.087 1858.78,857.544 1860.08,845.748 1861.38,833.696 1862.69,821.388 1863.99,808.823 1865.29,796 1866.6,782.921 1867.9,769.585 1869.2,755.994 1870.5,742.149 1871.81,728.054 1873.11,713.71 1874.41,699.123 1875.72,684.297 1877.02,669.237 1878.32,653.95 1879.62,638.443 1880.93,622.725 1882.23,606.805 1883.53,590.694 1884.84,574.404 1886.14,557.947 1887.44,541.339 1888.74,524.595 1890.05,507.733 1891.35,490.77 1892.65,473.729 1893.96,456.631 1895.26,439.499 1896.56,422.36 1897.86,405.242 1899.17,388.173 1900.47,371.184 1901.77,354.311 1903.08,337.587 1904.38,321.051 1905.68,304.752 1906.99,288.764 1908.29,273.139 1909.59,257.923 1910.89,243.165 1912.2,228.914 1913.5,215.219 1914.8,202.129 1916.11,189.692 1917.41,177.955 1918.71,166.964 1920.01,156.764 1921.32,147.396 1922.62,138.901 1923.92,131.314 1925.23,124.669 1926.53,118.997 1927.83,114.323 1929.13,110.668 "/>
</svg>
